<svg width="224" height="84" viewBox="0 0 224 84" fill="none" xmlns="http://www.w3.org/2000/svg">
<path d="M208.125 1.89083L222.682 17.0699L222.127 45.0041L207.859 60.0911L179.132 60.8932V82.2058L176.055 82.2362L155.668 60.9695L16.3698 60.8932L2.08363 45.8143L1.74774 16.0357L15.807 1.51076L208.125 1.89083Z" fill="#90FF92"/>
<rect width="142.53" height="3.59227" transform="matrix(-1 0 0 1 156.323 58.0749)" fill="#00FF04"/>
<rect width="32.1841" height="3.59227" transform="matrix(-1 0 0 1 209.771 58.0749)" fill="#00FF04"/>
<rect x="177.013" y="83.2208" width="25.1459" height="3.4483" transform="rotate(-90 177.013 83.2208)" fill="#00FF04"/>
<rect width="195.978" height="3.59227" transform="matrix(-1 0 0 1 209.771 0)" fill="#00FF04"/>
<rect width="3.4483" height="3.59227" transform="matrix(-1 0 0 1 13.7935 54.4827)" fill="#00FF04"/>
<rect width="3.4483" height="3.59227" transform="matrix(-1 0 0 1 10.3457 50.8904)" fill="#00FF04"/>
<rect width="3.4483" height="3.59227" transform="matrix(-1 0 0 1 6.89697 47.2982)" fill="#00FF04"/>
<rect x="3.44824" y="10.7767" width="3.4483" height="3.59227" fill="#00FF04"/>
<rect x="6.89697" y="7.18449" width="3.4483" height="3.59227" fill="#00FF04"/>
<rect x="10.3457" y="3.59232" width="3.4483" height="3.59227" fill="#00FF04"/>
<rect width="3.4483" height="3.59227" transform="matrix(-1 0 0 1 220.116 10.7767)" fill="#00FF04"/>
<rect width="3.4483" height="3.59227" transform="matrix(-1 0 0 1 216.668 7.18449)" fill="#00FF04"/>
<rect width="3.4483" height="3.59227" transform="matrix(-1 0 0 1 213.22 3.59232)" fill="#00FF04"/>
<rect x="220.116" y="50.8904" width="3.4483" height="3.59227" transform="rotate(180 220.116 50.8904)" fill="#00FF04"/>
<rect x="216.668" y="54.4827" width="3.4483" height="3.59227" transform="rotate(180 216.668 54.4827)" fill="#00FF04"/>
<rect x="213.22" y="58.0749" width="3.4483" height="3.59227" transform="rotate(180 213.22 58.0749)" fill="#00FF04"/>
<rect width="3.4483" height="3.59227" transform="matrix(1 0 0 -1 156.323 65.2596)" fill="#00FF04"/>
<rect width="3.4483" height="3.59227" transform="matrix(1 0 0 -1 159.771 68.8518)" fill="#00FF04"/>
<rect width="3.4483" height="3.59227" transform="matrix(1 0 0 -1 163.22 72.4441)" fill="#00FF04"/>
<rect width="3.4483" height="3.59227" transform="matrix(1 0 0 -1 166.667 76.0363)" fill="#00FF04"/>
<rect width="3.4483" height="3.59227" transform="matrix(1 0 0 -1 170.116 79.6285)" fill="#00FF04"/>
<rect width="3.4483" height="3.59227" transform="matrix(1 0 0 -1 173.564 83.2208)" fill="#00FF04"/>
<rect width="3.4483" height="32.9291" transform="matrix(-1 0 0 1 3.44824 14.369)" fill="#00FF04"/>
<rect width="3.4483" height="32.9291" transform="matrix(-1 0 0 1 223.565 14.369)" fill="#00FF04"/>
<path d="M52.2288 39.3716V41.987H41.7672V39.3716H39.1519V36.7562H44.3826V39.3716H49.6134V31.5254H41.7672V28.91H49.6134V23.6793H44.3826V26.2947H39.1519V23.6793H41.7672V21.0639H52.2288V23.6793H54.8442V28.91H52.2288V31.5254H54.8442V39.3716H52.2288ZM70.5237 39.3716V41.987H60.0622V39.3716H57.4468V28.91H60.0622V26.2947H70.5237V28.91H73.1391V34.1408H62.6775V39.3716H67.9083V36.7562H73.1391V39.3716H70.5237ZM67.9083 28.91H62.6775V31.5254H67.9083V28.91ZM75.7417 41.987V26.2947H83.5879V31.5254H86.2032V34.1408H88.8186V31.5254H91.434V26.2947H99.2802V41.987H94.0494V34.1408H91.434V39.3716H88.8186V41.987H86.2032V39.3716H83.5879V34.1408H80.9725V41.987H75.7417ZM117.598 28.91H112.367V39.3716H109.752V41.987H104.521V39.3716H107.137V26.2947H122.829V41.987H117.598V28.91ZM101.906 39.3716V36.7562H104.521V39.3716H101.906ZM125.447 41.987V39.3716H128.062V34.1408H125.447V28.91H128.062V26.2947H141.139V41.987H135.908V36.7562H133.293V39.3716H130.678V41.987H125.447ZM135.908 28.91H130.678V34.1408H135.908V28.91ZM164.655 39.3716V41.987H154.193V39.3716H151.578V36.7562H156.808V39.3716H162.039V31.5254H156.808V28.91H162.039V23.6793H156.808V26.2947H151.578V23.6793H154.193V21.0639H164.655V23.6793H167.27V28.91H164.655V31.5254H167.27V39.3716H164.655ZM180.334 23.6793V21.0639H185.565V41.987H180.334V34.1408H169.873V31.5254H172.488V28.91H175.103V26.2947H177.719V23.6793H180.334ZM177.719 28.91V31.5254H180.334V28.91H177.719Z" fill="black"/>
</svg>
