<svg width="224" height="84" viewBox="0 0 224 84" fill="none" xmlns="http://www.w3.org/2000/svg">
<path d="M208.125 1.89083L222.683 17.0699L222.127 45.0041L207.86 60.0911L179.133 60.8932V82.2058L176.055 82.2362L155.668 60.9695L16.3703 60.8932L2.08412 45.8143L1.74823 16.0357L15.8075 1.51076L208.125 1.89083Z" fill="#FF0066"/>
<rect width="142.53" height="3.59227" transform="matrix(-1 0 0 1 156.323 58.0749)" fill="#FF83B5"/>
<rect width="32.1841" height="3.59227" transform="matrix(-1 0 0 1 209.772 58.0749)" fill="#FF83B5"/>
<rect x="177.013" y="83.2208" width="25.1459" height="3.4483" transform="rotate(-90 177.013 83.2208)" fill="#FF83B5"/>
<rect width="195.978" height="3.59227" transform="matrix(-1 0 0 1 209.772 0)" fill="#FF83B5"/>
<rect width="3.4483" height="3.59227" transform="matrix(-1 0 0 1 13.7935 54.4827)" fill="#FF83B5"/>
<rect width="3.4483" height="3.59227" transform="matrix(-1 0 0 1 10.3452 50.8904)" fill="#FF83B5"/>
<rect width="3.4483" height="3.59227" transform="matrix(-1 0 0 1 6.89697 47.2982)" fill="#FF83B5"/>
<rect x="3.44824" y="10.7767" width="3.4483" height="3.59227" fill="#FF83B5"/>
<rect x="6.89697" y="7.18448" width="3.4483" height="3.59227" fill="#FF83B5"/>
<rect x="10.3452" y="3.59232" width="3.4483" height="3.59227" fill="#FF83B5"/>
<rect width="3.4483" height="3.59227" transform="matrix(-1 0 0 1 220.116 10.7767)" fill="#FF83B5"/>
<rect width="3.4483" height="3.59227" transform="matrix(-1 0 0 1 216.668 7.18448)" fill="#FF83B5"/>
<rect width="3.4483" height="3.59227" transform="matrix(-1 0 0 1 213.22 3.59232)" fill="#FF83B5"/>
<rect x="220.116" y="50.8904" width="3.4483" height="3.59227" transform="rotate(180 220.116 50.8904)" fill="#FF83B5"/>
<rect x="216.668" y="54.4827" width="3.4483" height="3.59227" transform="rotate(180 216.668 54.4827)" fill="#FF83B5"/>
<rect x="213.22" y="58.0749" width="3.4483" height="3.59227" transform="rotate(180 213.22 58.0749)" fill="#FF83B5"/>
<rect width="3.4483" height="3.59227" transform="matrix(1 0 0 -1 156.323 65.2596)" fill="#FF83B5"/>
<rect width="3.4483" height="3.59227" transform="matrix(1 0 0 -1 159.771 68.8518)" fill="#FF83B5"/>
<rect width="3.4483" height="3.59227" transform="matrix(1 0 0 -1 163.22 72.4441)" fill="#FF83B5"/>
<rect width="3.4483" height="3.59227" transform="matrix(1 0 0 -1 166.668 76.0363)" fill="#FF83B5"/>
<rect width="3.4483" height="3.59227" transform="matrix(1 0 0 -1 170.116 79.6285)" fill="#FF83B5"/>
<rect width="3.4483" height="3.59227" transform="matrix(1 0 0 -1 173.564 83.2208)" fill="#FF83B5"/>
<rect width="3.4483" height="32.9291" transform="matrix(-1 0 0 1 3.44824 14.369)" fill="#FF83B5"/>
<rect width="3.4483" height="32.9291" transform="matrix(-1 0 0 1 223.564 14.369)" fill="#FF83B5"/>
<path d="M58.745 35.9231H56.668V33.8462H54.5911V31.7692H52.5142V38H48.3604V21.3846H52.5142V27.6154H54.5911V25.5385H56.668V23.4615H58.745V21.3846H62.8988V23.4615H60.8219V25.5385H58.745V27.6154H56.668V31.7692H58.745V33.8462H60.8219V35.9231H62.8988V38H58.745V35.9231ZM77.4332 27.6154V38H73.2794V35.9231H71.2024V33.8462H73.2794V31.7692H69.1255V35.9231H71.2024V38H67.0486V35.9231H64.9717V31.7692H67.0486V29.6923H73.2794V27.6154H67.0486V25.5385H75.3563V27.6154H77.4332ZM79.5 38V25.5385H83.6538V27.6154H85.7308V25.5385H89.8846V27.6154H87.8077V29.6923H85.7308V31.7692H87.8077V33.8462H89.8846V35.9231H91.9615V38H87.8077V35.9231H85.7308V33.8462H83.6538V38H79.5ZM98.1943 40.0769V35.9231H100.271V31.7692H102.348V25.5385H114.81V40.0769H110.656V38H102.348V40.0769H98.1943ZM110.656 27.6154H106.502V31.7692H104.425V35.9231H110.656V27.6154ZM127.273 35.9231V38H118.966V35.9231H116.889V27.6154H118.966V25.5385H127.273V27.6154H129.35V31.7692H121.043V35.9231H125.196V33.8462H129.35V35.9231H127.273ZM125.196 27.6154H121.043V29.6923H125.196V27.6154ZM143.879 27.6154H139.725V35.9231H137.648V38H133.494V35.9231H135.571V25.5385H148.032V38H143.879V27.6154ZM131.417 35.9231V33.8462H133.494V35.9231H131.417ZM162.573 27.6154V38H158.419V35.9231H156.342V33.8462H158.419V31.7692H154.265V35.9231H156.342V38H152.188V35.9231H150.111V31.7692H152.188V29.6923H158.419V27.6154H152.188V25.5385H160.496V27.6154H162.573ZM175.024 23.4615V27.6154H172.947V29.6923H170.87V33.8462H166.717V29.6923H168.793V27.6154H170.87V23.4615H164.64V21.3846H172.947V23.4615H175.024ZM166.717 38V35.9231H170.87V38H166.717Z" fill="white"/>
</svg>
