<svg width="296" height="107" viewBox="0 0 296 107" fill="none" xmlns="http://www.w3.org/2000/svg">
<path d="M20.3874 2.42262L1.16504 21.8708L1.89835 57.6614L20.7381 76.9917L58.6701 78.0194V105.326L62.7337 105.365L89.6533 78.1171L273.588 78.0194L292.453 58.6996L292.896 20.5457L274.332 1.93566L20.3874 2.42262Z" fill="#FF9BC3"/>
<rect x="88.7886" y="74.4085" width="188.202" height="4.60259" fill="#C80050"/>
<rect x="18.2129" y="74.4085" width="42.4972" height="4.60259" fill="#C80050"/>
<rect width="32.2181" height="4.55327" transform="matrix(0 -1 -1 0 61.4692 106.627)" fill="#C80050"/>
<rect x="18.2129" width="258.778" height="4.60259" fill="#C80050"/>
<rect x="276.991" y="69.8059" width="4.55327" height="4.60259" fill="#C80050"/>
<rect x="281.544" y="65.2033" width="4.55327" height="4.60259" fill="#C80050"/>
<rect x="286.098" y="60.6008" width="4.55327" height="4.60259" fill="#C80050"/>
<rect width="4.55327" height="4.60259" transform="matrix(-1 0 0 1 290.651 13.8077)" fill="#C80050"/>
<rect width="4.55327" height="4.60259" transform="matrix(-1 0 0 1 286.098 9.20512)" fill="#C80050"/>
<rect width="4.55327" height="4.60259" transform="matrix(-1 0 0 1 281.544 4.60265)" fill="#C80050"/>
<rect x="4.55322" y="13.8077" width="4.55327" height="4.60259" fill="#C80050"/>
<rect x="9.10645" y="9.20512" width="4.55327" height="4.60259" fill="#C80050"/>
<rect x="13.6597" y="4.60265" width="4.55327" height="4.60259" fill="#C80050"/>
<rect width="4.55327" height="4.60259" transform="matrix(1 0 0 -1 4.55322 65.2033)" fill="#C80050"/>
<rect width="4.55327" height="4.60259" transform="matrix(1 0 0 -1 9.10645 69.8059)" fill="#C80050"/>
<rect width="4.55327" height="4.60259" transform="matrix(1 0 0 -1 13.6597 74.4085)" fill="#C80050"/>
<rect x="88.7886" y="83.6137" width="4.55327" height="4.60259" transform="rotate(180 88.7886 83.6137)" fill="#C80050"/>
<rect x="84.2358" y="88.2164" width="4.55327" height="4.60259" transform="rotate(180 84.2358 88.2164)" fill="#C80050"/>
<rect x="79.6826" y="92.819" width="4.55327" height="4.60259" transform="rotate(180 79.6826 92.819)" fill="#C80050"/>
<rect x="75.1289" y="97.4215" width="4.55327" height="4.60259" transform="rotate(180 75.1289 97.4215)" fill="#C80050"/>
<rect x="70.5757" y="102.024" width="4.55327" height="4.60259" transform="rotate(180 70.5757 102.024)" fill="#C80050"/>
<rect x="66.0225" y="106.627" width="4.55327" height="4.60259" transform="rotate(180 66.0225 106.627)" fill="#C80050"/>
<rect x="290.651" y="18.4103" width="4.55327" height="42.1904" fill="#C80050"/>
<rect y="18.4103" width="4.55327" height="42.1904" fill="#C80050"/>
<path d="M75.3846 48.1909V42.037H72.3077V38.9601H81.5385V51.2678H66.1538V48.1909H63.0769V45.114H60V32.8063H63.0769V29.7293H66.1538V26.6524H78.4615V29.7293H69.2308V32.8063H66.1538V45.114H69.2308V48.1909H75.3846ZM87.6863 54.3447V32.8063H93.8401V54.3447H90.7632V57.4217H81.5325V54.3447H87.6863ZM87.6863 26.6524H93.8401V29.7293H87.6863V26.6524ZM96.9141 51.2678V26.6524H103.068V35.8832H106.145V32.8063H112.299V35.8832H109.222V38.9601H106.145V42.037H109.222V45.114H112.299V48.1909H115.376V51.2678H109.222V48.1909H106.145V45.114H103.068V51.2678H96.9141ZM133.822 29.7293H127.668V32.8063H130.745V35.8832H127.668V51.2678H121.514V35.8832H118.438V32.8063H121.514V29.7293H124.591V26.6524H133.822V29.7293ZM133.828 51.2678V45.114H139.982V54.3447H136.905V51.2678H133.828ZM133.828 54.3447H136.905V57.4217H133.828V54.3447ZM158.431 48.1909H155.355V51.2678H146.124V48.1909H152.278V45.114H155.355V42.037H146.124V38.9601H143.047V29.7293H146.124V26.6524H158.431V29.7293H161.508V45.114H158.431V48.1909ZM155.355 29.7293H149.201V38.9601H155.355V29.7293ZM179.955 48.1909V51.2678H167.647V48.1909H164.57V35.8832H167.647V32.8063H179.955V35.8832H183.032V42.037H170.724V48.1909H176.878V45.114H183.032V48.1909H179.955ZM176.878 35.8832H170.724V38.9601H176.878V35.8832ZM189.171 54.3447V32.8063H195.325V54.3447H192.248V57.4217H183.017V54.3447H189.171ZM189.171 26.6524H195.325V29.7293H189.171V26.6524ZM198.398 51.2678V32.8063H204.552V35.8832H207.629V38.9601H204.552V51.2678H198.398ZM216.86 35.8832V51.2678H210.706V35.8832H207.629V32.8063H213.783V35.8832H216.86ZM235.306 29.7293V35.8832H232.23V38.9601H229.153V45.114H222.999V38.9601H226.076V35.8832H229.153V29.7293H219.922V26.6524H232.23V29.7293H235.306ZM222.999 51.2678V48.1909H229.153V51.2678H222.999Z" fill="white"/>
</svg>
