<svg width="296" height="107" viewBox="0 0 296 107" fill="none" xmlns="http://www.w3.org/2000/svg">
<path d="M20.3874 2.42262L1.16504 21.8708L1.89835 57.6614L20.7381 76.9917L58.6701 78.0194V105.326L62.7337 105.365L89.6533 78.1171L273.588 78.0194L292.453 58.6996L292.896 20.5457L274.332 1.93566L20.3874 2.42262Z" fill="white"/>
<rect x="88.7886" y="74.4085" width="188.202" height="4.60259" fill="#00FF04"/>
<rect x="18.2129" y="74.4085" width="42.4972" height="4.60259" fill="#00FF04"/>
<rect width="32.2181" height="4.55327" transform="matrix(0 -1 -1 0 61.4692 106.627)" fill="#00FF04"/>
<rect x="18.2129" width="258.778" height="4.60259" fill="#00FF04"/>
<rect x="276.991" y="69.806" width="4.55327" height="4.60259" fill="#00FF04"/>
<rect x="281.544" y="65.2033" width="4.55327" height="4.60259" fill="#00FF04"/>
<rect x="286.097" y="60.6008" width="4.55327" height="4.60259" fill="#00FF04"/>
<rect width="4.55327" height="4.60259" transform="matrix(-1 0 0 1 290.651 13.8077)" fill="#00FF04"/>
<rect width="4.55327" height="4.60259" transform="matrix(-1 0 0 1 286.097 9.20514)" fill="#00FF04"/>
<rect width="4.55327" height="4.60259" transform="matrix(-1 0 0 1 281.544 4.60265)" fill="#00FF04"/>
<rect x="4.55322" y="13.8077" width="4.55327" height="4.60259" fill="#00FF04"/>
<rect x="9.10596" y="9.20514" width="4.55327" height="4.60259" fill="#00FF04"/>
<rect x="13.6597" y="4.60265" width="4.55327" height="4.60259" fill="#00FF04"/>
<rect width="4.55327" height="4.60259" transform="matrix(1 0 0 -1 4.55322 65.2033)" fill="#00FF04"/>
<rect width="4.55327" height="4.60259" transform="matrix(1 0 0 -1 9.10596 69.806)" fill="#00FF04"/>
<rect width="4.55327" height="4.60259" transform="matrix(1 0 0 -1 13.6597 74.4085)" fill="#00FF04"/>
<rect x="88.7886" y="83.6137" width="4.55327" height="4.60259" transform="rotate(180 88.7886 83.6137)" fill="#00FF04"/>
<rect x="84.2358" y="88.2164" width="4.55327" height="4.60259" transform="rotate(180 84.2358 88.2164)" fill="#00FF04"/>
<rect x="79.6821" y="92.819" width="4.55327" height="4.60259" transform="rotate(180 79.6821 92.819)" fill="#00FF04"/>
<rect x="75.1289" y="97.4215" width="4.55327" height="4.60259" transform="rotate(180 75.1289 97.4215)" fill="#00FF04"/>
<rect x="70.5752" y="102.024" width="4.55327" height="4.60259" transform="rotate(180 70.5752 102.024)" fill="#00FF04"/>
<rect x="66.0225" y="106.627" width="4.55327" height="4.60259" transform="rotate(180 66.0225 106.627)" fill="#00FF04"/>
<rect x="290.651" y="18.4104" width="4.55327" height="42.1904" fill="#00FF04"/>
<rect y="18.4103" width="4.55327" height="42.1904" fill="#00FF04"/>
<path d="M71.3322 28.5764H65.7937V47.961H60.2553V28.5764H54.7168V25.8072H71.3322V28.5764ZM74.0879 47.961V31.3456H79.6264V36.8841H85.1648V39.6533H87.934V45.1918H85.1648V47.961H74.0879ZM82.3956 39.6533H79.6264V45.1918H82.3956V39.6533ZM96.2417 31.3456V47.961H90.7033V31.3456H96.2417ZM121.157 45.1918V47.961H110.08V45.1918H107.311V34.1148H110.08V31.3456H121.157V34.1148H123.926V45.1918H121.157ZM118.387 45.1918V34.1148H112.849V45.1918H118.387ZM126.682 31.3456H143.297V34.1148H137.759V47.961H132.22V34.1148H126.682V31.3456ZM146.053 47.961V31.3456H151.591V34.1148H154.36V31.3456H159.899V34.1148H157.13V36.8841H154.36V39.6533H157.13V42.4225H159.899V45.1918H162.668V47.961H157.13V45.1918H154.36V42.4225H151.591V47.961H146.053ZM162.682 50.7302H165.451V47.961H168.22V42.4225H165.451V36.8841H162.682V31.3456H168.22V36.8841H173.759V31.3456H179.297V36.8841H176.528V42.4225H173.759V47.961H170.989V50.7302H168.22V53.4995H162.682V50.7302ZM182.053 50.7302V45.1918H184.822V39.6533H187.591V31.3456H204.207V50.7302H198.668V47.961H187.591V50.7302H182.053ZM198.668 34.1148H193.13V39.6533H190.36V45.1918H198.668V34.1148ZM223.594 34.1148V47.961H218.055V45.1918H215.286V42.4225H218.055V39.6533H212.517V45.1918H215.286V47.961H209.748V45.1918H206.979V39.6533H209.748V36.8841H218.055V34.1148H209.748V31.3456H220.825V34.1148H223.594ZM240.196 28.5764V34.1148H237.427V36.8841H234.657V42.4225H229.119V36.8841H231.888V34.1148H234.657V28.5764H226.35V25.8072H237.427V28.5764H240.196ZM229.119 47.961V45.1918H234.657V47.961H229.119Z" fill="black"/>
</svg>
