<svg width="224" height="84" viewBox="0 0 224 84" fill="none" xmlns="http://www.w3.org/2000/svg">
<path d="M208.125 1.89083L222.683 17.0699L222.127 45.0041L207.86 60.0911L179.133 60.8932V82.2058L176.055 82.2362L155.668 60.9695L16.3703 60.8932L2.08412 45.8143L1.74823 16.0357L15.8075 1.51076L208.125 1.89083Z" fill="#00E904"/>
<rect width="142.53" height="3.59227" transform="matrix(-1 0 0 1 156.323 58.0749)" fill="#00AF03"/>
<rect width="32.1841" height="3.59227" transform="matrix(-1 0 0 1 209.771 58.0749)" fill="#00AF03"/>
<rect x="177.013" y="83.2208" width="25.1459" height="3.4483" transform="rotate(-90 177.013 83.2208)" fill="#00AF03"/>
<rect width="195.978" height="3.59227" transform="matrix(-1 0 0 1 209.771 0)" fill="#00AF03"/>
<rect width="3.4483" height="3.59227" transform="matrix(-1 0 0 1 13.793 54.4827)" fill="#00AF03"/>
<rect width="3.4483" height="3.59227" transform="matrix(-1 0 0 1 10.3447 50.8904)" fill="#00AF03"/>
<rect width="3.4483" height="3.59227" transform="matrix(-1 0 0 1 6.89648 47.2982)" fill="#00AF03"/>
<rect x="3.44824" y="10.7767" width="3.4483" height="3.59227" fill="#00AF03"/>
<rect x="6.89648" y="7.18449" width="3.4483" height="3.59227" fill="#00AF03"/>
<rect x="10.3447" y="3.59232" width="3.4483" height="3.59227" fill="#00AF03"/>
<rect width="3.4483" height="3.59227" transform="matrix(-1 0 0 1 220.116 10.7767)" fill="#00AF03"/>
<rect width="3.4483" height="3.59227" transform="matrix(-1 0 0 1 216.668 7.18449)" fill="#00AF03"/>
<rect width="3.4483" height="3.59227" transform="matrix(-1 0 0 1 213.22 3.59232)" fill="#00AF03"/>
<rect x="220.116" y="50.8904" width="3.4483" height="3.59227" transform="rotate(180 220.116 50.8904)" fill="#00AF03"/>
<rect x="216.668" y="54.4827" width="3.4483" height="3.59227" transform="rotate(180 216.668 54.4827)" fill="#00AF03"/>
<rect x="213.22" y="58.0749" width="3.4483" height="3.59227" transform="rotate(180 213.22 58.0749)" fill="#00AF03"/>
<rect width="3.4483" height="3.59227" transform="matrix(1 0 0 -1 156.323 65.2596)" fill="#00AF03"/>
<rect width="3.4483" height="3.59227" transform="matrix(1 0 0 -1 159.771 68.8518)" fill="#00AF03"/>
<rect width="3.4483" height="3.59227" transform="matrix(1 0 0 -1 163.219 72.4441)" fill="#00AF03"/>
<rect width="3.4483" height="3.59227" transform="matrix(1 0 0 -1 166.667 76.0363)" fill="#00AF03"/>
<rect width="3.4483" height="3.59227" transform="matrix(1 0 0 -1 170.116 79.6285)" fill="#00AF03"/>
<rect width="3.4483" height="3.59227" transform="matrix(1 0 0 -1 173.564 83.2208)" fill="#00AF03"/>
<rect width="3.4483" height="32.9291" transform="matrix(-1 0 0 1 3.44824 14.369)" fill="#00AF03"/>
<rect width="3.4483" height="32.9291" transform="matrix(-1 0 0 1 223.564 14.369)" fill="#00AF03"/>
<path d="M58.8354 37.6851V21.0697H62.9893V27.3004H65.0662V29.3774H62.9893V37.6851H58.8354ZM71.297 27.3004V37.6851H67.1431V27.3004H65.0662V25.2235H69.2201V27.3004H71.297ZM75.4407 39.762V25.2235H79.5945V39.762H77.5176V41.8389H71.2868V39.762H75.4407ZM75.4407 21.0697H79.5945V23.1466H75.4407V21.0697ZM81.6694 37.6851V21.0697H85.8233V27.3004H87.9002V29.3774H85.8233V35.6081H89.9771V27.3004H87.9002V25.2235H92.054V27.3004H94.131V35.6081H92.054V37.6851H81.6694ZM96.1978 37.6851V35.6081H102.429V33.5312H100.352V31.4543H98.2747V29.3774H96.1978V27.3004H98.2747V25.2235H106.582V27.3004H100.352V29.3774H102.429V31.4543H104.505V33.5312H106.582V35.6081H104.505V37.6851H96.1978ZM108.669 37.6851V25.2235H112.823V27.3004H114.9V29.3774H112.823V37.6851H108.669ZM127.362 27.3004H129.439V37.6851H125.285V27.3004H123.208V25.2235H127.362V27.3004ZM123.208 29.3774H121.131V37.6851H116.977V27.3004H114.9V25.2235H119.054V27.3004H123.208V29.3774ZM131.503 37.6851V21.0697H135.657V27.3004H137.734V29.3774H135.657V37.6851H131.503ZM143.965 27.3004V37.6851H139.811V27.3004H137.734V25.2235H141.888V27.3004H143.965ZM154.339 35.6081H152.263V33.5312H154.339V27.3004H150.186V35.6081H152.263V37.6851H148.109V35.6081H146.032V27.3004H148.109V25.2235H154.339V21.0697H158.493V37.6851H154.339V35.6081ZM170.945 23.1466V27.3004H168.868V29.3774H166.791V33.5312H162.637V29.3774H164.714V27.3004H166.791V23.1466H160.56V21.0697H168.868V23.1466H170.945ZM162.637 37.6851V35.6081H166.791V37.6851H162.637Z" fill="black"/>
</svg>
