<svg width="300" height="107" viewBox="0 0 300 107" fill="none" xmlns="http://www.w3.org/2000/svg">
<path d="M20.3874 2.42262L1.16504 21.8708L1.89835 57.6614L20.7381 76.9917L58.6701 78.0194V105.326L62.7337 105.365L89.6533 78.1171L273.588 78.0194L292.453 58.6996L292.896 20.5457L274.332 1.93566L20.3874 2.42262Z" fill="#FF0066"/>
<rect x="88.7886" y="74.4085" width="188.202" height="4.60259" fill="#FF83B5"/>
<rect x="18.2129" y="74.4085" width="42.4972" height="4.60259" fill="#FF83B5"/>
<rect width="32.2181" height="4.55327" transform="matrix(0 -1 -1 0 61.4692 106.627)" fill="#FF83B5"/>
<rect x="18.2129" width="258.778" height="4.60259" fill="#FF83B5"/>
<rect x="276.991" y="69.806" width="4.55327" height="4.60259" fill="#FF83B5"/>
<rect x="281.544" y="65.2033" width="4.55327" height="4.60259" fill="#FF83B5"/>
<rect x="286.097" y="60.6008" width="4.55327" height="4.60259" fill="#FF83B5"/>
<rect width="4.55327" height="4.60259" transform="matrix(-1 0 0 1 290.651 13.8077)" fill="#FF83B5"/>
<rect width="4.55327" height="4.60259" transform="matrix(-1 0 0 1 286.097 9.20514)" fill="#FF83B5"/>
<rect width="4.55327" height="4.60259" transform="matrix(-1 0 0 1 281.544 4.60263)" fill="#FF83B5"/>
<rect x="4.55322" y="13.8077" width="4.55327" height="4.60259" fill="#FF83B5"/>
<rect x="9.10596" y="9.20514" width="4.55327" height="4.60259" fill="#FF83B5"/>
<rect x="13.6597" y="4.60263" width="4.55327" height="4.60259" fill="#FF83B5"/>
<rect width="4.55327" height="4.60259" transform="matrix(1 0 0 -1 4.55322 65.2033)" fill="#FF83B5"/>
<rect width="4.55327" height="4.60259" transform="matrix(1 0 0 -1 9.10596 69.806)" fill="#FF83B5"/>
<rect width="4.55327" height="4.60259" transform="matrix(1 0 0 -1 13.6597 74.4085)" fill="#FF83B5"/>
<rect x="88.7886" y="83.6137" width="4.55327" height="4.60259" transform="rotate(180 88.7886 83.6137)" fill="#FF83B5"/>
<rect x="84.2358" y="88.2164" width="4.55327" height="4.60259" transform="rotate(180 84.2358 88.2164)" fill="#FF83B5"/>
<rect x="79.6821" y="92.819" width="4.55327" height="4.60259" transform="rotate(180 79.6821 92.819)" fill="#FF83B5"/>
<rect x="75.1289" y="97.4215" width="4.55327" height="4.60259" transform="rotate(180 75.1289 97.4215)" fill="#FF83B5"/>
<rect x="70.5752" y="102.024" width="4.55327" height="4.60259" transform="rotate(180 70.5752 102.024)" fill="#FF83B5"/>
<rect x="66.0225" y="106.627" width="4.55327" height="4.60259" transform="rotate(180 66.0225 106.627)" fill="#FF83B5"/>
<rect x="290.651" y="18.4103" width="4.55327" height="42.1904" fill="#FF83B5"/>
<rect y="18.4103" width="4.55327" height="42.1904" fill="#FF83B5"/>
<path d="M71.38 30.0731H65.8416V49.4578H60.3031V30.0731H54.7646V27.3039H71.38V30.0731ZM74.1357 49.4578V32.8424H79.6742V38.3808H85.2127V41.1501H87.9819V46.6885H85.2127V49.4578H74.1357ZM82.4434 41.1501H79.6742V46.6885H82.4434V41.1501ZM96.2896 32.8424V49.4578H90.7511V32.8424H96.2896ZM121.205 46.6885V49.4578H110.128V46.6885H107.358V35.6116H110.128V32.8424H121.205V35.6116H123.974V46.6885H121.205ZM118.435 46.6885V35.6116H112.897V46.6885H118.435ZM126.729 32.8424H143.345V35.6116H137.806V49.4578H132.268V35.6116H126.729V32.8424ZM146.101 49.4578V32.8424H151.639V35.6116H154.408V32.8424H159.947V35.6116H157.178V38.3808H154.408V41.1501H157.178V43.9193H159.947V46.6885H162.716V49.4578H157.178V46.6885H154.408V43.9193H151.639V49.4578H146.101ZM162.729 52.227H165.499V49.4578H168.268V43.9193H165.499V38.3808H162.729V32.8424H168.268V38.3808H173.806V32.8424H179.345V38.3808H176.576V43.9193H173.806V49.4578H171.037V52.227H168.268V54.9962H162.729V52.227ZM182.101 52.227V46.6885H184.87V41.1501H187.639V32.8424H204.254V52.227H198.716V49.4578H187.639V52.227H182.101ZM198.716 35.6116H193.178V41.1501H190.408V46.6885H198.716V35.6116ZM223.642 35.6116V49.4578H218.103V46.6885H215.334V43.9193H218.103V41.1501H212.565V46.6885H215.334V49.4578H209.796V46.6885H207.026V41.1501H209.796V38.3808H218.103V35.6116H209.796V32.8424H220.873V35.6116H223.642ZM240.244 30.0731V35.6116H237.474V38.3808H234.705V43.9193H229.167V38.3808H231.936V35.6116H234.705V30.0731H226.397V27.3039H237.474V30.0731H240.244ZM229.167 49.4578V46.6885H234.705V49.4578H229.167Z" fill="white"/>
</svg>
