<svg width="224" height="84" viewBox="0 0 224 84" fill="none" xmlns="http://www.w3.org/2000/svg">
<path d="M15.4403 1.89083L0.882812 17.0699L1.43817 45.0041L15.7059 60.0911L44.4327 60.8932V82.2058L47.5101 82.2362L67.8969 60.9695L207.195 60.8932L221.481 45.8143L221.817 16.0357L207.758 1.51076L15.4403 1.89083Z" fill="#90FF92"/>
<rect x="67.2417" y="58.0749" width="142.53" height="3.59227" fill="#00E904"/>
<rect x="13.7935" y="58.0749" width="32.1841" height="3.59227" fill="#00E904"/>
<rect width="25.1459" height="3.4483" transform="matrix(0 -1 -1 0 46.5522 83.2208)" fill="#00E904"/>
<rect x="13.7935" width="195.978" height="3.59227" fill="#00E904"/>
<rect x="209.771" y="54.4827" width="3.4483" height="3.59227" fill="#00E904"/>
<rect x="213.22" y="50.8904" width="3.4483" height="3.59227" fill="#00E904"/>
<rect x="216.668" y="47.2982" width="3.4483" height="3.59227" fill="#00E904"/>
<rect width="3.4483" height="3.59227" transform="matrix(-1 0 0 1 220.117 10.7767)" fill="#00E904"/>
<rect width="3.4483" height="3.59227" transform="matrix(-1 0 0 1 216.668 7.18448)" fill="#00E904"/>
<rect width="3.4483" height="3.59227" transform="matrix(-1 0 0 1 213.22 3.59232)" fill="#00E904"/>
<rect x="3.44873" y="10.7767" width="3.4483" height="3.59227" fill="#00E904"/>
<rect x="6.89697" y="7.18448" width="3.4483" height="3.59227" fill="#00E904"/>
<rect x="10.3447" y="3.59232" width="3.4483" height="3.59227" fill="#00E904"/>
<rect width="3.4483" height="3.59227" transform="matrix(1 0 0 -1 3.44873 50.8904)" fill="#00E904"/>
<rect width="3.4483" height="3.59227" transform="matrix(1 0 0 -1 6.89697 54.4827)" fill="#00E904"/>
<rect width="3.4483" height="3.59227" transform="matrix(1 0 0 -1 10.3447 58.0749)" fill="#00E904"/>
<rect x="67.2417" y="65.2596" width="3.4483" height="3.59227" transform="rotate(180 67.2417 65.2596)" fill="#00E904"/>
<rect x="63.7939" y="68.8518" width="3.4483" height="3.59227" transform="rotate(180 63.7939 68.8518)" fill="#00E904"/>
<rect x="60.3452" y="72.444" width="3.4483" height="3.59227" transform="rotate(180 60.3452 72.444)" fill="#00E904"/>
<rect x="56.8975" y="76.0363" width="3.4483" height="3.59227" transform="rotate(180 56.8975 76.0363)" fill="#00E904"/>
<rect x="53.4487" y="79.6285" width="3.4483" height="3.59227" transform="rotate(180 53.4487 79.6285)" fill="#00E904"/>
<rect x="50.001" y="83.2208" width="3.4483" height="3.59227" transform="rotate(180 50.001 83.2208)" fill="#00E904"/>
<rect x="220.117" y="14.369" width="3.4483" height="32.9291" fill="#00E904"/>
<rect y="14.369" width="3.4483" height="32.9291" fill="#00E904"/>
<path d="M54.438 24.98H66.8995V27.0569H62.7457V37.4415H58.5918V27.0569H54.438V24.98ZM68.9663 37.4415V24.98H79.3509V27.0569H81.4278V29.1338H79.3509V31.2108H81.4278V35.3646H79.3509V37.4415H68.9663ZM77.274 35.3646V31.2108H73.1202V35.3646H77.274ZM77.274 27.0569H73.1202V29.1338H77.274V27.0569ZM93.8792 35.3646V37.4415H85.5716V35.3646H83.4946V27.0569H85.5716V24.98H93.8792V27.0569H95.9562V35.3646H93.8792ZM91.8023 35.3646V27.0569H87.6485V35.3646H91.8023ZM108.408 35.3646V37.4415H100.1V35.3646H98.0229V27.0569H100.1V24.98H108.408V27.0569H110.484V31.2108H102.177V35.3646H106.331V33.2877H110.484V35.3646H108.408ZM98.0229 22.9031V18.7492H102.177V22.9031H98.0229ZM108.408 18.7492V22.9031H104.254V18.7492H108.408ZM102.177 29.1338H106.331V27.0569H102.177V29.1338ZM118.774 37.4415V24.98H122.928V31.2108H125.005V29.1338H127.082V27.0569H129.159V24.98H133.312V37.4415H129.159V31.2108H127.082V33.2877H125.005V35.3646H122.928V37.4415H118.774ZM135.385 37.4415V24.98H141.616V29.1338H143.693V31.2108H145.77V29.1338H147.847V24.98H154.078V37.4415H149.924V31.2108H147.847V35.3646H145.77V37.4415H143.693V35.3646H141.616V31.2108H139.539V37.4415H135.385ZM156.163 37.4415V35.3646H158.24V31.2108H156.163V27.0569H158.24V24.98H168.624V37.4415H164.47V33.2877H162.393V35.3646H160.316V37.4415H156.163ZM164.47 27.0569H160.316V31.2108H164.47V27.0569ZM181.076 22.9031V27.0569H178.999V29.1338H176.922V33.2877H172.768V29.1338H174.845V27.0569H176.922V22.9031H170.691V20.8261H178.999V22.9031H181.076ZM172.768 37.4415V35.3646H176.922V37.4415H172.768Z" fill="black"/>
</svg>
