<svg width="226" height="84" viewBox="0 0 226 84" fill="none" xmlns="http://www.w3.org/2000/svg">
<path d="M208.125 1.89083L222.682 17.0699L222.127 45.0041L207.859 60.0911L179.132 60.8932V82.2058L176.055 82.2362L155.668 60.9695L16.3698 60.8932L2.08363 45.8143L1.74774 16.0357L15.807 1.51076L208.125 1.89083Z" fill="#FF0066"/>
<rect width="142.53" height="3.59227" transform="matrix(-1 0 0 1 156.323 58.0749)" fill="#FF83B5"/>
<rect width="32.1841" height="3.59227" transform="matrix(-1 0 0 1 209.771 58.0749)" fill="#FF83B5"/>
<rect x="177.012" y="83.2208" width="25.1459" height="3.4483" transform="rotate(-90 177.012 83.2208)" fill="#FF83B5"/>
<rect width="195.978" height="3.59227" transform="matrix(-1 0 0 1 209.771 0)" fill="#FF83B5"/>
<rect width="3.4483" height="3.59227" transform="matrix(-1 0 0 1 13.793 54.4827)" fill="#FF83B5"/>
<rect width="3.4483" height="3.59227" transform="matrix(-1 0 0 1 10.3447 50.8904)" fill="#FF83B5"/>
<rect width="3.4483" height="3.59227" transform="matrix(-1 0 0 1 6.89697 47.2982)" fill="#FF83B5"/>
<rect x="3.44824" y="10.7767" width="3.4483" height="3.59227" fill="#FF83B5"/>
<rect x="6.89697" y="7.18448" width="3.4483" height="3.59227" fill="#FF83B5"/>
<rect x="10.3447" y="3.59235" width="3.4483" height="3.59227" fill="#FF83B5"/>
<rect width="3.4483" height="3.59227" transform="matrix(-1 0 0 1 220.116 10.7767)" fill="#FF83B5"/>
<rect width="3.4483" height="3.59227" transform="matrix(-1 0 0 1 216.668 7.18448)" fill="#FF83B5"/>
<rect width="3.4483" height="3.59227" transform="matrix(-1 0 0 1 213.22 3.59235)" fill="#FF83B5"/>
<rect x="220.116" y="50.8904" width="3.4483" height="3.59227" transform="rotate(180 220.116 50.8904)" fill="#FF83B5"/>
<rect x="216.668" y="54.4827" width="3.4483" height="3.59227" transform="rotate(180 216.668 54.4827)" fill="#FF83B5"/>
<rect x="213.22" y="58.0749" width="3.4483" height="3.59227" transform="rotate(180 213.22 58.0749)" fill="#FF83B5"/>
<rect width="3.4483" height="3.59227" transform="matrix(1 0 0 -1 156.323 65.2596)" fill="#FF83B5"/>
<rect width="3.4483" height="3.59227" transform="matrix(1 0 0 -1 159.771 68.8518)" fill="#FF83B5"/>
<rect width="3.4483" height="3.59227" transform="matrix(1 0 0 -1 163.219 72.444)" fill="#FF83B5"/>
<rect width="3.4483" height="3.59227" transform="matrix(1 0 0 -1 166.667 76.0363)" fill="#FF83B5"/>
<rect width="3.4483" height="3.59227" transform="matrix(1 0 0 -1 170.116 79.6285)" fill="#FF83B5"/>
<rect width="3.4483" height="3.59227" transform="matrix(1 0 0 -1 173.564 83.2208)" fill="#FF83B5"/>
<rect width="3.4483" height="32.9291" transform="matrix(-1 0 0 1 3.44824 14.369)" fill="#FF83B5"/>
<rect width="3.4483" height="32.9291" transform="matrix(-1 0 0 1 223.564 14.369)" fill="#FF83B5"/>
<path d="M45.9541 38.4253V36.3484H48.031V34.2714H50.1079V30.1176H48.031V28.0407H45.9541V25.9638H50.1079V28.0407H52.1849V30.1176H54.2618V28.0407H56.3387V25.9638H60.4926V28.0407H58.4156V30.1176H56.3387V34.2714H58.4156V36.3484H60.4926V38.4253H56.3387V36.3484H54.2618V34.2714H52.1849V36.3484H50.1079V38.4253H45.9541ZM62.5654 38.4253V25.9638H66.7193V28.0407H68.7962V30.1176H66.7193V38.4253H62.5654ZM75.027 28.0407V38.4253H70.8731V28.0407H68.7962V25.9638H72.95V28.0407H75.027ZM79.1707 40.5022V25.9638H83.3245V40.5022H81.2476V42.5791H75.0168V40.5022H79.1707ZM79.1707 21.8099H83.3245V23.8868H79.1707V21.8099ZM91.6221 38.4253V21.8099H95.7759V38.4253H91.6221ZM108.229 36.3484V38.4253H101.999V36.3484H99.9216V28.0407H97.8447V25.9638H99.9216V21.8099H104.075V25.9638H106.152V28.0407H104.075V36.3484H108.229ZM108.233 38.4253V21.8099H112.387V28.0407H114.464V25.9638H118.618V28.0407H116.541V30.1176H114.464V32.1945H116.541V34.2714H118.618V36.3484H120.695V38.4253H116.541V36.3484H114.464V34.2714H112.387V38.4253H108.233ZM133.146 23.8868H128.992V25.9638H131.069V28.0407H128.992V38.4253H124.839V28.0407H122.762V25.9638H124.839V23.8868H126.916V21.8099H133.146V23.8868ZM143.535 36.3484V38.4253H137.304V36.3484H135.227V28.0407H133.15V25.9638H135.227V21.8099H139.381V25.9638H141.458V28.0407H139.381V36.3484H143.535ZM143.539 38.4253V25.9638H147.693V38.4253H143.539ZM147.693 21.8099V23.8868H143.539V21.8099H147.693ZM149.762 38.4253V25.9638H153.916V28.0407H155.992V30.1176H153.916V38.4253H149.762ZM168.454 28.0407H170.531V38.4253H166.377V28.0407H164.3V25.9638H168.454V28.0407ZM164.3 30.1176H162.223V38.4253H158.069V28.0407H155.992V25.9638H160.146V28.0407H164.3V30.1176ZM182.98 23.8868V28.0407H180.903V30.1176H178.826V34.2714H174.673V30.1176H176.75V28.0407H178.826V23.8868H172.596V21.8099H180.903V23.8868H182.98ZM174.673 38.4253V36.3484H178.826V38.4253H174.673Z" fill="white"/>
</svg>
