<svg width="296" height="107" viewBox="0 0 296 107" fill="none" xmlns="http://www.w3.org/2000/svg">
<path d="M20.3874 2.42262L1.16504 21.8708L1.89835 57.6614L20.7381 76.9917L58.6701 78.0194V105.326L62.7337 105.365L89.6533 78.1171L273.588 78.0194L292.453 58.6996L292.896 20.5457L274.332 1.93566L20.3874 2.42262Z" fill="#00FF04"/>
<rect x="88.7886" y="74.4085" width="188.202" height="4.60259" fill="#007F02"/>
<rect x="18.2129" y="74.4085" width="42.4972" height="4.60259" fill="#007F02"/>
<rect width="32.2181" height="4.55327" transform="matrix(0 -1 -1 0 61.4692 106.627)" fill="#007F02"/>
<rect x="18.2129" width="258.778" height="4.60259" fill="#007F02"/>
<rect x="276.991" y="69.806" width="4.55327" height="4.60259" fill="#007F02"/>
<rect x="281.544" y="65.2033" width="4.55327" height="4.60259" fill="#007F02"/>
<rect x="286.098" y="60.6008" width="4.55327" height="4.60259" fill="#007F02"/>
<rect width="4.55327" height="4.60259" transform="matrix(-1 0 0 1 290.651 13.8077)" fill="#007F02"/>
<rect width="4.55327" height="4.60259" transform="matrix(-1 0 0 1 286.098 9.20514)" fill="#007F02"/>
<rect width="4.55327" height="4.60259" transform="matrix(-1 0 0 1 281.544 4.60266)" fill="#007F02"/>
<rect x="4.55322" y="13.8077" width="4.55327" height="4.60259" fill="#007F02"/>
<rect x="9.10645" y="9.20514" width="4.55327" height="4.60259" fill="#007F02"/>
<rect x="13.6597" y="4.60266" width="4.55327" height="4.60259" fill="#007F02"/>
<rect width="4.55327" height="4.60259" transform="matrix(1 0 0 -1 4.55322 65.2033)" fill="#007F02"/>
<rect width="4.55327" height="4.60259" transform="matrix(1 0 0 -1 9.10645 69.806)" fill="#007F02"/>
<rect width="4.55327" height="4.60259" transform="matrix(1 0 0 -1 13.6597 74.4085)" fill="#007F02"/>
<rect x="88.7886" y="83.6137" width="4.55327" height="4.60259" transform="rotate(180 88.7886 83.6137)" fill="#007F02"/>
<rect x="84.2358" y="88.2164" width="4.55327" height="4.60259" transform="rotate(180 84.2358 88.2164)" fill="#007F02"/>
<rect x="79.6821" y="92.819" width="4.55327" height="4.60259" transform="rotate(180 79.6821 92.819)" fill="#007F02"/>
<rect x="75.1289" y="97.4215" width="4.55327" height="4.60259" transform="rotate(180 75.1289 97.4215)" fill="#007F02"/>
<rect x="70.5757" y="102.024" width="4.55327" height="4.60259" transform="rotate(180 70.5757 102.024)" fill="#007F02"/>
<rect x="66.0225" y="106.627" width="4.55327" height="4.60259" transform="rotate(180 66.0225 106.627)" fill="#007F02"/>
<rect x="290.651" y="18.4103" width="4.55327" height="42.1904" fill="#007F02"/>
<rect y="18.4103" width="4.55327" height="42.1904" fill="#007F02"/>
<path d="M78.9546 46.9629H76.1853V44.1937H73.4161V41.4245H70.6469V49.7322H65.1084V27.5783H70.6469V35.886H73.4161V33.1168H76.1853V30.3476H78.9546V27.5783H84.493V30.3476H81.7238V33.1168H78.9546V35.886H76.1853V41.4245H78.9546V44.1937H81.7238V46.9629H84.493V49.7322H78.9546V46.9629ZM103.872 35.886V49.7322H98.3338V46.9629H95.5645V44.1937H98.3338V41.4245H92.7953V46.9629H95.5645V49.7322H90.0261V46.9629H87.2568V41.4245H90.0261V38.6553H98.3338V35.886H90.0261V33.1168H101.103V35.886H103.872ZM106.628 49.7322V33.1168H112.166V35.886H114.936V33.1168H120.474V35.886H117.705V38.6553H114.936V41.4245H117.705V44.1937H120.474V46.9629H123.243V49.7322H117.705V46.9629H114.936V44.1937H112.166V49.7322H106.628ZM131.554 52.5014V46.9629H134.323V41.4245H137.092V33.1168H153.708V52.5014H148.169V49.7322H137.092V52.5014H131.554ZM148.169 35.886H142.631V41.4245H139.861V46.9629H148.169V35.886ZM170.326 46.9629V49.7322H159.249V46.9629H156.479V35.886H159.249V33.1168H170.326V35.886H173.095V41.4245H162.018V46.9629H167.556V44.1937H173.095V46.9629H170.326ZM167.556 35.886H162.018V38.6553H167.556V35.886ZM192.466 35.886H186.928V46.9629H184.158V49.7322H178.62V46.9629H181.389V33.1168H198.004V49.7322H192.466V35.886ZM175.851 46.9629V44.1937H178.62V46.9629H175.851ZM217.392 35.886V49.7322H211.853V46.9629H209.084V44.1937H211.853V41.4245H206.315V46.9629H209.084V49.7322H203.546V46.9629H200.776V41.4245H203.546V38.6553H211.853V35.886H203.546V33.1168H214.623V35.886H217.392ZM233.994 30.3476V35.886H231.224V38.6553H228.455V44.1937H222.917V38.6553H225.686V35.886H228.455V30.3476H220.147V27.5783H231.224V30.3476H233.994ZM222.917 49.7322V46.9629H228.455V49.7322H222.917Z" fill="black"/>
</svg>
