<svg width="317" height="107" viewBox="0 0 317 107" fill="none" xmlns="http://www.w3.org/2000/svg">
<path d="M21.8372 98.7576L1.24756 80.3259L2.03303 46.4058L22.2128 28.0859L62.843 27.1119V1.23231L67.1955 1.19536L96.03 27.0193L293.048 27.1119L313.254 45.4219L313.729 81.5817L293.844 99.2191L21.8372 98.7576Z" fill="white"/>
<rect width="201.589" height="4.36204" transform="matrix(1 0 0 -1 95.1035 30.5343)" fill="#FF0066"/>
<rect width="45.52" height="4.36204" transform="matrix(1 0 0 -1 19.5078 30.5343)" fill="#FF0066"/>
<rect x="65.8408" width="30.5343" height="4.87715" transform="rotate(90 65.8408 0)" fill="#FF0066"/>
<rect width="277.185" height="4.36204" transform="matrix(1 0 0 -1 19.5083 101.054)" fill="#FF0066"/>
<rect width="4.87715" height="4.36204" transform="matrix(1 0 0 -1 296.693 34.8963)" fill="#FF0066"/>
<rect width="4.87715" height="4.36204" transform="matrix(1 0 0 -1 301.57 39.2583)" fill="#FF0066"/>
<rect width="4.87715" height="4.36204" transform="matrix(1 0 0 -1 306.447 43.6203)" fill="#FF0066"/>
<rect x="311.325" y="87.9678" width="4.87715" height="4.36204" transform="rotate(-180 311.325 87.9678)" fill="#FF0066"/>
<rect x="306.447" y="92.3298" width="4.87715" height="4.36204" transform="rotate(-180 306.447 92.3298)" fill="#FF0066"/>
<rect x="301.57" y="96.6918" width="4.87715" height="4.36204" transform="rotate(-180 301.57 96.6918)" fill="#FF0066"/>
<rect width="4.87715" height="4.36204" transform="matrix(1 0 0 -1 4.87646 87.9678)" fill="#FF0066"/>
<rect width="4.87715" height="4.36204" transform="matrix(1 0 0 -1 9.75439 92.3298)" fill="#FF0066"/>
<rect width="4.87715" height="4.36204" transform="matrix(1 0 0 -1 14.6313 96.6918)" fill="#FF0066"/>
<rect x="4.87646" y="39.2583" width="4.87715" height="4.36204" fill="#FF0066"/>
<rect x="9.75439" y="34.8963" width="4.87715" height="4.36204" fill="#FF0066"/>
<rect x="14.6313" y="30.5343" width="4.87715" height="4.36204" fill="#FF0066"/>
<rect width="4.87715" height="4.36204" transform="matrix(-1 0 0 1 95.1035 21.8101)" fill="#FF0066"/>
<rect width="4.87715" height="4.36204" transform="matrix(-1 0 0 1 90.2266 17.448)" fill="#FF0066"/>
<rect width="4.87715" height="4.36204" transform="matrix(-1 0 0 1 85.3501 13.086)" fill="#FF0066"/>
<rect width="4.87715" height="4.36204" transform="matrix(-1 0 0 1 80.4722 8.724)" fill="#FF0066"/>
<rect width="4.87715" height="4.36204" transform="matrix(-1 0 0 1 75.5952 4.362)" fill="#FF0066"/>
<rect width="4.87715" height="4.36204" transform="matrix(-1 0 0 1 70.7183 0)" fill="#FF0066"/>
<rect width="4.87715" height="39.9853" transform="matrix(1 0 0 -1 311.325 83.6058)" fill="#FF0066"/>
<rect width="4.87715" height="39.9853" transform="matrix(1 0 0 -1 0 83.6058)" fill="#FF0066"/>
<path d="M52.9476 76.9117H49.1014V80.7578H45.2553V76.9117H41.4091V69.2194H37.563V57.6809H33.7168V49.9886H41.4091V57.6809H45.2553V69.2194H49.1014V57.6809H52.9476V49.9886H60.6399V57.6809H56.7937V69.2194H52.9476V76.9117Z" fill="#FF0066"/>
<path d="M254.717 79.7578V48.9886H262.409V52.8348H266.255V60.5271H270.101V64.3732H273.948V48.9886H281.64V79.7578H273.948V75.9117H270.101V68.2194H266.255V64.3732H262.409V79.7578H254.717Z" fill="#FF0066"/>
<path d="M113.717 80.7578V49.9886H121.409V76.9117H132.948V80.7578H113.717Z" fill="#FF0066"/>
<path d="M192.563 80.7578V49.9886H200.255V80.7578H192.563Z" fill="#FF0066"/>
<path d="M91.7148 50.7652H81.7173V48.7632H91.7148V50.7652ZM81.7173 78.7681H77.7134V76.7661H75.7114V74.7642H73.7095V70.7603H71.7197V58.7608H73.7095V54.7691H75.7114V52.7671H77.7134V50.7652H81.7173V52.7671H79.7153V54.7691H77.7134V58.7608H75.7114V70.7603H77.7134V74.7642H79.7153V76.7661H81.7173V78.7681ZM95.7188 78.7681H91.7148V76.7661H93.7168V74.7642H95.7188V70.7603H97.7085V58.7608H95.7188V54.7691H93.7168V52.7671H91.7148V50.7652H95.7188V52.7671H97.7085V54.7691H99.7104V58.7608H101.712V70.7603H99.7104V74.7642H97.7085V76.7661H95.7188V78.7681ZM91.7148 80.7578H81.7173V78.7681H91.7148V80.7578Z" fill="#FF0066"/>
<path d="M231.715 50.7652H221.717V48.7632H231.715V50.7652ZM221.717 78.7681H217.713V76.7661H215.711V74.7642H213.709V70.7603H211.72V58.7608H213.709V54.7691H215.711V52.7671H217.713V50.7652H221.717V52.7671H219.715V54.7691H217.713V58.7608H215.711V70.7603H217.713V74.7642H219.715V76.7661H221.717V78.7681ZM235.719 78.7681H231.715V76.7661H233.717V74.7642H235.719V70.7603H237.708V58.7608H235.719V54.7691H233.717V52.7671H231.715V50.7652H235.719V52.7671H237.708V54.7691H239.71V58.7608H241.712V70.7603H239.71V74.7642H237.708V76.7661H235.719V78.7681ZM231.715 80.7578H221.717V78.7681H231.715V80.7578Z" fill="#FF0066"/>
<path d="M158.718 80.7578H146.719V78.7681H150.71V50.7652H146.719V48.7632H166.714V50.7652H168.716V52.7671H170.718V62.7647H168.716V64.7666H166.714V66.7686H162.71V68.7583H164.712V70.7603H166.714V72.7622H168.716V74.7642H170.718V76.7661H172.708V78.7681H176.711V80.7578H168.716V78.7681H166.714V76.7661H164.712V74.7642H162.71V72.7622H160.708V70.7603H158.718V68.7583H156.716V66.7686H154.714V78.7681H158.718V80.7578ZM154.714 64.7666H164.712V62.7647H166.714V52.7671H164.712V50.7652H154.714V64.7666Z" fill="#FF0066"/>
</svg>
