<svg width="232" height="92" viewBox="0 0 232 92" fill="none" xmlns="http://www.w3.org/2000/svg">
<g filter="url(#filter0_f_390_7780)">
<path d="M19.4394 5.89083L4.88184 21.0699L5.43719 49.0041L19.7049 64.0911L48.4317 64.8932V86.2058L51.5091 86.2362L71.896 64.9695L211.194 64.8932L225.48 49.8143L225.816 20.0357L211.757 5.51076L19.4394 5.89083Z" fill="#FF9BC3"/>
<rect x="71.2417" y="62.0749" width="142.53" height="3.59227" fill="#C80050"/>
<rect x="17.793" y="62.0749" width="32.1841" height="3.59227" fill="#C80050"/>
<rect width="25.1459" height="3.4483" transform="matrix(0 -1 -1 0 50.5518 87.2208)" fill="#C80050"/>
<rect x="17.793" y="4" width="195.978" height="3.59227" fill="#C80050"/>
<rect x="213.771" y="58.4827" width="3.4483" height="3.59227" fill="#C80050"/>
<rect x="217.22" y="54.8904" width="3.4483" height="3.59227" fill="#C80050"/>
<rect x="220.668" y="51.2982" width="3.4483" height="3.59227" fill="#C80050"/>
<rect width="3.4483" height="3.59227" transform="matrix(-1 0 0 1 224.116 14.7767)" fill="#C80050"/>
<rect width="3.4483" height="3.59227" transform="matrix(-1 0 0 1 220.668 11.1845)" fill="#C80050"/>
<rect width="3.4483" height="3.59227" transform="matrix(-1 0 0 1 217.22 7.5923)" fill="#C80050"/>
<rect x="7.44824" y="14.7767" width="3.4483" height="3.59227" fill="#C80050"/>
<rect x="10.8965" y="11.1845" width="3.4483" height="3.59227" fill="#C80050"/>
<rect x="14.3442" y="7.5923" width="3.4483" height="3.59227" fill="#C80050"/>
<rect width="3.4483" height="3.59227" transform="matrix(1 0 0 -1 7.44824 54.8904)" fill="#C80050"/>
<rect width="3.4483" height="3.59227" transform="matrix(1 0 0 -1 10.8965 58.4827)" fill="#C80050"/>
<rect width="3.4483" height="3.59227" transform="matrix(1 0 0 -1 14.3442 62.0749)" fill="#C80050"/>
<rect x="71.2417" y="69.2596" width="3.4483" height="3.59227" transform="rotate(180 71.2417 69.2596)" fill="#C80050"/>
<rect x="67.7935" y="72.8518" width="3.4483" height="3.59227" transform="rotate(180 67.7935 72.8518)" fill="#C80050"/>
<rect x="64.3452" y="76.444" width="3.4483" height="3.59227" transform="rotate(180 64.3452 76.444)" fill="#C80050"/>
<rect x="60.8965" y="80.0363" width="3.4483" height="3.59227" transform="rotate(180 60.8965 80.0363)" fill="#C80050"/>
<rect x="57.4482" y="83.6285" width="3.4483" height="3.59227" transform="rotate(180 57.4482 83.6285)" fill="#C80050"/>
<rect x="54.0005" y="87.2208" width="3.4483" height="3.59227" transform="rotate(180 54.0005 87.2208)" fill="#C80050"/>
<rect x="224.116" y="18.369" width="3.4483" height="32.9291" fill="#C80050"/>
<rect x="4" y="18.369" width="3.4483" height="32.9291" fill="#C80050"/>
</g>
<g filter="url(#filter1_f_390_7780)">
<path d="M50.4862 36.1974H48.4093V34.1205H46.3323V32.0436H44.2554V38.2743H40.1016V21.659H44.2554V27.8897H46.3323V25.8128H48.4093V23.7359H50.4862V21.659H54.64V23.7359H52.5631V25.8128H50.4862V27.8897H48.4093V32.0436H50.4862V34.1205H52.5631V36.1974H54.64V38.2743H50.4862V36.1974ZM69.1744 27.8897V38.2743H65.0206V36.1974H62.9437V34.1205H65.0206V32.0436H60.8667V36.1974H62.9437V38.2743H58.7898V36.1974H56.7129V32.0436H58.7898V29.9666H65.0206V27.8897H58.7898V25.8128H67.0975V27.8897H69.1744ZM71.2412 38.2743V25.8128H75.3951V27.8897H77.472V25.8128H81.6258V27.8897H79.5489V29.9666H77.472V32.0436H79.5489V34.1205H81.6258V36.1974H83.7027V38.2743H79.5489V36.1974H77.472V34.1205H75.3951V38.2743H71.2412ZM89.9355 40.3513V36.1974H92.0125V32.0436H94.0894V25.8128H106.551V40.3513H102.397V38.2743H94.0894V40.3513H89.9355ZM102.397 27.8897H98.2432V32.0436H96.1663V36.1974H102.397V27.8897ZM119.014 36.1974V38.2743H110.707V36.1974H108.63V27.8897H110.707V25.8128H119.014V27.8897H121.091V32.0436H112.784V36.1974H116.938V34.1205H121.091V36.1974H119.014ZM116.938 27.8897H112.784V29.9666H116.938V27.8897ZM135.62 27.8897H131.466V36.1974H129.389V38.2743H125.235V36.1974H127.312V25.8128H139.774V38.2743H135.62V27.8897ZM123.158 36.1974V34.1205H125.235V36.1974H123.158ZM154.314 27.8897V38.2743H150.16V36.1974H148.083V34.1205H150.16V32.0436H146.006V36.1974H148.083V38.2743H143.929V36.1974H141.853V32.0436H143.929V29.9666H150.16V27.8897H143.929V25.8128H152.237V27.8897H154.314ZM166.765 23.7359V27.8897H164.689V29.9666H162.612V34.1205H158.458V29.9666H160.535V27.8897H162.612V23.7359H156.381V21.659H164.689V23.7359H166.765ZM158.458 38.2743V36.1974H162.612V38.2743H158.458Z" fill="white"/>
</g>
<g filter="url(#filter2_f_390_7780)">
<path d="M19.4394 5.89083L4.88184 21.0699L5.43719 49.0041L19.7049 64.0911L48.4317 64.8932V86.2058L51.5091 86.2362L71.896 64.9695L211.194 64.8932L225.48 49.8143L225.816 20.0357L211.757 5.51076L19.4394 5.89083Z" fill="#FF9BC3"/>
<rect x="71.2417" y="62.0749" width="142.53" height="3.59227" fill="#C80050"/>
<rect x="17.793" y="62.0749" width="32.1841" height="3.59227" fill="#C80050"/>
<rect width="25.1459" height="3.4483" transform="matrix(0 -1 -1 0 50.5518 87.2208)" fill="#C80050"/>
<rect x="17.793" y="4" width="195.978" height="3.59227" fill="#C80050"/>
<rect x="213.771" y="58.4827" width="3.4483" height="3.59227" fill="#C80050"/>
<rect x="217.22" y="54.8904" width="3.4483" height="3.59227" fill="#C80050"/>
<rect x="220.668" y="51.2982" width="3.4483" height="3.59227" fill="#C80050"/>
<rect width="3.4483" height="3.59227" transform="matrix(-1 0 0 1 224.116 14.7767)" fill="#C80050"/>
<rect width="3.4483" height="3.59227" transform="matrix(-1 0 0 1 220.668 11.1845)" fill="#C80050"/>
<rect width="3.4483" height="3.59227" transform="matrix(-1 0 0 1 217.22 7.5923)" fill="#C80050"/>
<rect x="7.44824" y="14.7767" width="3.4483" height="3.59227" fill="#C80050"/>
<rect x="10.8965" y="11.1845" width="3.4483" height="3.59227" fill="#C80050"/>
<rect x="14.3442" y="7.5923" width="3.4483" height="3.59227" fill="#C80050"/>
<rect width="3.4483" height="3.59227" transform="matrix(1 0 0 -1 7.44824 54.8904)" fill="#C80050"/>
<rect width="3.4483" height="3.59227" transform="matrix(1 0 0 -1 10.8965 58.4827)" fill="#C80050"/>
<rect width="3.4483" height="3.59227" transform="matrix(1 0 0 -1 14.3442 62.0749)" fill="#C80050"/>
<rect x="71.2417" y="69.2596" width="3.4483" height="3.59227" transform="rotate(180 71.2417 69.2596)" fill="#C80050"/>
<rect x="67.7935" y="72.8518" width="3.4483" height="3.59227" transform="rotate(180 67.7935 72.8518)" fill="#C80050"/>
<rect x="64.3452" y="76.444" width="3.4483" height="3.59227" transform="rotate(180 64.3452 76.444)" fill="#C80050"/>
<rect x="60.8965" y="80.0363" width="3.4483" height="3.59227" transform="rotate(180 60.8965 80.0363)" fill="#C80050"/>
<rect x="57.4482" y="83.6285" width="3.4483" height="3.59227" transform="rotate(180 57.4482 83.6285)" fill="#C80050"/>
<rect x="54.0005" y="87.2208" width="3.4483" height="3.59227" transform="rotate(180 54.0005 87.2208)" fill="#C80050"/>
<rect x="224.116" y="18.369" width="3.4483" height="32.9291" fill="#C80050"/>
<rect x="4" y="18.369" width="3.4483" height="32.9291" fill="#C80050"/>
</g>
<g filter="url(#filter3_f_390_7780)">
<path d="M67.4862 40.1974H65.4093V38.1204H63.3323V36.0435H61.2554V42.2743H57.1016V25.6589H61.2554V31.8897H63.3323V29.8128H65.4093V27.7358H67.4862V25.6589H71.64V27.7358H69.5631V29.8128H67.4862V31.8897H65.4093V36.0435H67.4862V38.1204H69.5631V40.1974H71.64V42.2743H67.4862V40.1974ZM86.1744 31.8897V42.2743H82.0206V40.1974H79.9437V38.1204H82.0206V36.0435H77.8667V40.1974H79.9437V42.2743H75.7898V40.1974H73.7129V36.0435H75.7898V33.9666H82.0206V31.8897H75.7898V29.8128H84.0975V31.8897H86.1744ZM88.2412 42.2743V29.8128H92.3951V31.8897H94.472V29.8128H98.6258V31.8897H96.5489V33.9666H94.472V36.0435H96.5489V38.1204H98.6258V40.1974H100.703V42.2743H96.5489V40.1974H94.472V38.1204H92.3951V42.2743H88.2412ZM106.936 44.3512V40.1974H109.012V36.0435H111.089V29.8128H123.551V44.3512H119.397V42.2743H111.089V44.3512H106.936ZM119.397 31.8897H115.243V36.0435H113.166V40.1974H119.397V31.8897ZM136.014 40.1974V42.2743H127.707V40.1974H125.63V31.8897H127.707V29.8128H136.014V31.8897H138.091V36.0435H129.784V40.1974H133.938V38.1204H138.091V40.1974H136.014ZM133.938 31.8897H129.784V33.9666H133.938V31.8897ZM152.62 31.8897H148.466V40.1974H146.389V42.2743H142.235V40.1974H144.312V29.8128H156.774V42.2743H152.62V31.8897ZM140.158 40.1974V38.1204H142.235V40.1974H140.158ZM171.314 31.8897V42.2743H167.16V40.1974H165.083V38.1204H167.16V36.0435H163.006V40.1974H165.083V42.2743H160.929V40.1974H158.853V36.0435H160.929V33.9666H167.16V31.8897H160.929V29.8128H169.237V31.8897H171.314ZM183.765 27.7358V31.8897H181.689V33.9666H179.612V38.1204H175.458V33.9666H177.535V31.8897H179.612V27.7358H173.381V25.6589H181.689V27.7358H183.765ZM175.458 42.2743V40.1974H179.612V42.2743H175.458Z" fill="white"/>
</g>
<defs>
<filter id="filter0_f_390_7780" x="0" y="0" width="231.564" height="91.2208" filterUnits="userSpaceOnUse" color-interpolation-filters="sRGB">
<feFlood flood-opacity="0" result="BackgroundImageFix"/>
<feBlend mode="normal" in="SourceGraphic" in2="BackgroundImageFix" result="shape"/>
<feGaussianBlur stdDeviation="2" result="effect1_foregroundBlur_390_7780"/>
</filter>
<filter id="filter1_f_390_7780" x="36.1016" y="17.659" width="134.664" height="26.6923" filterUnits="userSpaceOnUse" color-interpolation-filters="sRGB">
<feFlood flood-opacity="0" result="BackgroundImageFix"/>
<feBlend mode="normal" in="SourceGraphic" in2="BackgroundImageFix" result="shape"/>
<feGaussianBlur stdDeviation="2" result="effect1_foregroundBlur_390_7780"/>
</filter>
<filter id="filter2_f_390_7780" x="0" y="0" width="231.564" height="91.2208" filterUnits="userSpaceOnUse" color-interpolation-filters="sRGB">
<feFlood flood-opacity="0" result="BackgroundImageFix"/>
<feBlend mode="normal" in="SourceGraphic" in2="BackgroundImageFix" result="shape"/>
<feGaussianBlur stdDeviation="2" result="effect1_foregroundBlur_390_7780"/>
</filter>
<filter id="filter3_f_390_7780" x="53.1016" y="21.6589" width="134.664" height="26.6923" filterUnits="userSpaceOnUse" color-interpolation-filters="sRGB">
<feFlood flood-opacity="0" result="BackgroundImageFix"/>
<feBlend mode="normal" in="SourceGraphic" in2="BackgroundImageFix" result="shape"/>
<feGaussianBlur stdDeviation="2" result="effect1_foregroundBlur_390_7780"/>
</filter>
</defs>
</svg>
