<svg width="189" height="72" viewBox="0 0 189 72" fill="none" xmlns="http://www.w3.org/2000/svg">
<g filter="url(#filter0_f_386_4868)">
<path d="M16.5003 5.45413L4.71436 17.1274L5.16398 38.6099L16.7153 50.2124L39.9728 50.8292V67.2194L42.4643 67.2428L58.9697 50.8879L171.747 50.8292L183.313 39.233L183.585 16.3321L172.202 5.16185L16.5003 5.45413Z" fill="#FF9BC3"/>
<rect x="58.4395" y="48.6619" width="115.393" height="2.76259" fill="#C80050"/>
<rect x="15.167" y="48.6619" width="26.0566" height="2.76259" fill="#C80050"/>
<rect width="19.3381" height="2.79177" transform="matrix(0 -1 -1 0 41.689 68)" fill="#C80050"/>
<rect x="15.167" y="4" width="158.666" height="2.76259" fill="#C80050"/>
<rect x="173.833" y="45.8993" width="2.79177" height="2.76259" fill="#C80050"/>
<rect x="176.625" y="43.1367" width="2.79177" height="2.76259" fill="#C80050"/>
<rect x="179.417" y="40.3741" width="2.79177" height="2.76259" fill="#C80050"/>
<rect width="2.79177" height="2.76259" transform="matrix(-1 0 0 1 182.208 12.2877)" fill="#C80050"/>
<rect width="2.79177" height="2.76259" transform="matrix(-1 0 0 1 179.417 9.52515)" fill="#C80050"/>
<rect width="2.79177" height="2.76259" transform="matrix(-1 0 0 1 176.625 6.76263)" fill="#C80050"/>
<rect x="6.79175" y="12.2877" width="2.79177" height="2.76259" fill="#C80050"/>
<rect x="9.5835" y="9.52515" width="2.79177" height="2.76259" fill="#C80050"/>
<rect x="12.3752" y="6.76263" width="2.79177" height="2.76259" fill="#C80050"/>
<rect width="2.79177" height="2.76259" transform="matrix(1 0 0 -1 6.79175 43.1367)" fill="#C80050"/>
<rect width="2.79177" height="2.76259" transform="matrix(1 0 0 -1 9.5835 45.8993)" fill="#C80050"/>
<rect width="2.79177" height="2.76259" transform="matrix(1 0 0 -1 12.3752 48.6619)" fill="#C80050"/>
<rect x="58.4395" y="54.1871" width="2.79177" height="2.76259" transform="rotate(180 58.4395 54.1871)" fill="#C80050"/>
<rect x="55.6479" y="56.9497" width="2.79177" height="2.76259" transform="rotate(180 55.6479 56.9497)" fill="#C80050"/>
<rect x="52.8562" y="59.7123" width="2.79177" height="2.76259" transform="rotate(180 52.8562 59.7123)" fill="#C80050"/>
<rect x="50.0642" y="62.4749" width="2.79177" height="2.76259" transform="rotate(180 50.0642 62.4749)" fill="#C80050"/>
<rect x="47.2725" y="65.2374" width="2.79177" height="2.76259" transform="rotate(180 47.2725 65.2374)" fill="#C80050"/>
<rect x="44.4807" y="68" width="2.79177" height="2.76259" transform="rotate(180 44.4807 68)" fill="#C80050"/>
<rect x="182.208" y="15.0504" width="2.79177" height="25.3238" fill="#C80050"/>
<rect x="4" y="15.0504" width="2.79177" height="25.3238" fill="#C80050"/>
</g>
<g filter="url(#filter1_f_386_4868)">
<path d="M43.3846 33.9231H41.3077V31.8462H39.2308V29.7692H37.1538V36H33V19.3846H37.1538V25.6154H39.2308V23.5385H41.3077V21.4615H43.3846V19.3846H47.5385V21.4615H45.4615V23.5385H43.3846V25.6154H41.3077V29.7692H43.3846V31.8462H45.4615V33.9231H47.5385V36H43.3846V33.9231ZM62.0729 25.6154V36H57.919V33.9231H55.8421V31.8462H57.919V29.7692H53.7652V33.9231H55.8421V36H51.6883V33.9231H49.6113V29.7692H51.6883V27.6923H57.919V25.6154H51.6883V23.5385H59.9959V25.6154H62.0729ZM64.1396 36V23.5385H68.2935V25.6154H70.3704V23.5385H74.5243V25.6154H72.4473V27.6923H70.3704V29.7692H72.4473V31.8462H74.5243V33.9231H76.6012V36H72.4473V33.9231H70.3704V31.8462H68.2935V36H64.1396ZM82.834 38.0769V33.9231H84.9109V29.7692H86.9878V23.5385H99.4494V38.0769H95.2955V36H86.9878V38.0769H82.834ZM95.2955 25.6154H91.1417V29.7692H89.0648V33.9231H95.2955V25.6154ZM111.913 33.9231V36H103.605V33.9231H101.528V25.6154H103.605V23.5385H111.913V25.6154H113.99V29.7692H105.682V33.9231H109.836V31.8462H113.99V33.9231H111.913ZM109.836 25.6154H105.682V27.6923H109.836V25.6154ZM128.518 25.6154H124.364V33.9231H122.287V36H118.134V33.9231H120.21V23.5385H132.672V36H128.518V25.6154ZM116.057 33.9231V31.8462H118.134V33.9231H116.057ZM147.213 25.6154V36H143.059V33.9231H140.982V31.8462H143.059V29.7692H138.905V33.9231H140.982V36H136.828V33.9231H134.751V29.7692H136.828V27.6923H143.059V25.6154H136.828V23.5385H145.136V25.6154H147.213ZM159.664 21.4615V25.6154H157.587V27.6923H155.51V31.8462H151.356V27.6923H153.433V25.6154H155.51V21.4615H149.279V19.3846H157.587V21.4615H159.664ZM151.356 36V33.9231H155.51V36H151.356Z" fill="white"/>
</g>
<g filter="url(#filter2_f_386_4868)">
<path d="M16.5003 5.45413L4.71436 17.1274L5.16398 38.6099L16.7153 50.2124L39.9728 50.8292V67.2194L42.4643 67.2428L58.9697 50.8879L171.747 50.8292L183.313 39.233L183.585 16.3321L172.202 5.16185L16.5003 5.45413Z" fill="#FF9BC3"/>
<rect x="58.4395" y="48.6619" width="115.393" height="2.76259" fill="#C80050"/>
<rect x="15.167" y="48.6619" width="26.0566" height="2.76259" fill="#C80050"/>
<rect width="19.3381" height="2.79177" transform="matrix(0 -1 -1 0 41.689 68)" fill="#C80050"/>
<rect x="15.167" y="4" width="158.666" height="2.76259" fill="#C80050"/>
<rect x="173.833" y="45.8993" width="2.79177" height="2.76259" fill="#C80050"/>
<rect x="176.625" y="43.1367" width="2.79177" height="2.76259" fill="#C80050"/>
<rect x="179.417" y="40.3741" width="2.79177" height="2.76259" fill="#C80050"/>
<rect width="2.79177" height="2.76259" transform="matrix(-1 0 0 1 182.208 12.2877)" fill="#C80050"/>
<rect width="2.79177" height="2.76259" transform="matrix(-1 0 0 1 179.417 9.52515)" fill="#C80050"/>
<rect width="2.79177" height="2.76259" transform="matrix(-1 0 0 1 176.625 6.76263)" fill="#C80050"/>
<rect x="6.79175" y="12.2877" width="2.79177" height="2.76259" fill="#C80050"/>
<rect x="9.5835" y="9.52515" width="2.79177" height="2.76259" fill="#C80050"/>
<rect x="12.3752" y="6.76263" width="2.79177" height="2.76259" fill="#C80050"/>
<rect width="2.79177" height="2.76259" transform="matrix(1 0 0 -1 6.79175 43.1367)" fill="#C80050"/>
<rect width="2.79177" height="2.76259" transform="matrix(1 0 0 -1 9.5835 45.8993)" fill="#C80050"/>
<rect width="2.79177" height="2.76259" transform="matrix(1 0 0 -1 12.3752 48.6619)" fill="#C80050"/>
<rect x="58.4395" y="54.1871" width="2.79177" height="2.76259" transform="rotate(180 58.4395 54.1871)" fill="#C80050"/>
<rect x="55.6479" y="56.9497" width="2.79177" height="2.76259" transform="rotate(180 55.6479 56.9497)" fill="#C80050"/>
<rect x="52.8562" y="59.7123" width="2.79177" height="2.76259" transform="rotate(180 52.8562 59.7123)" fill="#C80050"/>
<rect x="50.0642" y="62.4749" width="2.79177" height="2.76259" transform="rotate(180 50.0642 62.4749)" fill="#C80050"/>
<rect x="47.2725" y="65.2374" width="2.79177" height="2.76259" transform="rotate(180 47.2725 65.2374)" fill="#C80050"/>
<rect x="44.4807" y="68" width="2.79177" height="2.76259" transform="rotate(180 44.4807 68)" fill="#C80050"/>
<rect x="182.208" y="15.0504" width="2.79177" height="25.3238" fill="#C80050"/>
<rect x="4" y="15.0504" width="2.79177" height="25.3238" fill="#C80050"/>
</g>
<g filter="url(#filter3_f_386_4868)">
<path d="M43.3846 33.9231H41.3077V31.8462H39.2308V29.7692H37.1538V36H33V19.3846H37.1538V25.6154H39.2308V23.5385H41.3077V21.4615H43.3846V19.3846H47.5385V21.4615H45.4615V23.5385H43.3846V25.6154H41.3077V29.7692H43.3846V31.8462H45.4615V33.9231H47.5385V36H43.3846V33.9231ZM62.0729 25.6154V36H57.919V33.9231H55.8421V31.8462H57.919V29.7692H53.7652V33.9231H55.8421V36H51.6883V33.9231H49.6113V29.7692H51.6883V27.6923H57.919V25.6154H51.6883V23.5385H59.9959V25.6154H62.0729ZM64.1396 36V23.5385H68.2935V25.6154H70.3704V23.5385H74.5243V25.6154H72.4473V27.6923H70.3704V29.7692H72.4473V31.8462H74.5243V33.9231H76.6012V36H72.4473V33.9231H70.3704V31.8462H68.2935V36H64.1396ZM82.834 38.0769V33.9231H84.9109V29.7692H86.9878V23.5385H99.4494V38.0769H95.2955V36H86.9878V38.0769H82.834ZM95.2955 25.6154H91.1417V29.7692H89.0648V33.9231H95.2955V25.6154ZM111.913 33.9231V36H103.605V33.9231H101.528V25.6154H103.605V23.5385H111.913V25.6154H113.99V29.7692H105.682V33.9231H109.836V31.8462H113.99V33.9231H111.913ZM109.836 25.6154H105.682V27.6923H109.836V25.6154ZM128.518 25.6154H124.364V33.9231H122.287V36H118.134V33.9231H120.21V23.5385H132.672V36H128.518V25.6154ZM116.057 33.9231V31.8462H118.134V33.9231H116.057ZM147.213 25.6154V36H143.059V33.9231H140.982V31.8462H143.059V29.7692H138.905V33.9231H140.982V36H136.828V33.9231H134.751V29.7692H136.828V27.6923H143.059V25.6154H136.828V23.5385H145.136V25.6154H147.213ZM159.664 21.4615V25.6154H157.587V27.6923H155.51V31.8462H151.356V27.6923H153.433V25.6154H155.51V21.4615H149.279V19.3846H157.587V21.4615H159.664ZM151.356 36V33.9231H155.51V36H151.356Z" fill="white"/>
</g>
<defs>
<filter id="filter0_f_386_4868" x="0" y="0" width="189" height="72" filterUnits="userSpaceOnUse" color-interpolation-filters="sRGB">
<feFlood flood-opacity="0" result="BackgroundImageFix"/>
<feBlend mode="normal" in="SourceGraphic" in2="BackgroundImageFix" result="shape"/>
<feGaussianBlur stdDeviation="2" result="effect1_foregroundBlur_386_4868"/>
</filter>
<filter id="filter1_f_386_4868" x="29" y="15.3846" width="134.664" height="26.6923" filterUnits="userSpaceOnUse" color-interpolation-filters="sRGB">
<feFlood flood-opacity="0" result="BackgroundImageFix"/>
<feBlend mode="normal" in="SourceGraphic" in2="BackgroundImageFix" result="shape"/>
<feGaussianBlur stdDeviation="2" result="effect1_foregroundBlur_386_4868"/>
</filter>
<filter id="filter2_f_386_4868" x="0" y="0" width="189" height="72" filterUnits="userSpaceOnUse" color-interpolation-filters="sRGB">
<feFlood flood-opacity="0" result="BackgroundImageFix"/>
<feBlend mode="normal" in="SourceGraphic" in2="BackgroundImageFix" result="shape"/>
<feGaussianBlur stdDeviation="2" result="effect1_foregroundBlur_386_4868"/>
</filter>
<filter id="filter3_f_386_4868" x="29" y="15.3846" width="134.664" height="26.6923" filterUnits="userSpaceOnUse" color-interpolation-filters="sRGB">
<feFlood flood-opacity="0" result="BackgroundImageFix"/>
<feBlend mode="normal" in="SourceGraphic" in2="BackgroundImageFix" result="shape"/>
<feGaussianBlur stdDeviation="2" result="effect1_foregroundBlur_386_4868"/>
</filter>
</defs>
</svg>
