<svg width="224" height="84" viewBox="0 0 224 84" fill="none" xmlns="http://www.w3.org/2000/svg">
<path d="M15.4399 1.89086L0.882324 17.0699L1.43768 45.0041L15.7054 60.0911L44.4322 60.8932V82.2058L47.5096 82.2362L67.8965 60.9695L207.195 60.8932L221.481 45.8144L221.817 16.0357L207.757 1.51079L15.4399 1.89086Z" fill="#90FF92"/>
<rect x="67.2412" y="58.0749" width="142.53" height="3.59227" fill="#00E904"/>
<rect x="13.793" y="58.0749" width="32.1841" height="3.59227" fill="#00E904"/>
<rect width="25.1459" height="3.4483" transform="matrix(0 -1 -1 0 46.5522 83.2208)" fill="#00E904"/>
<rect x="13.793" width="195.978" height="3.59227" fill="#00E904"/>
<rect x="209.771" y="54.4827" width="3.4483" height="3.59227" fill="#00E904"/>
<rect x="213.22" y="50.8904" width="3.4483" height="3.59227" fill="#00E904"/>
<rect x="216.668" y="47.2982" width="3.4483" height="3.59227" fill="#00E904"/>
<rect width="3.4483" height="3.59227" transform="matrix(-1 0 0 1 220.117 10.7767)" fill="#00E904"/>
<rect width="3.4483" height="3.59227" transform="matrix(-1 0 0 1 216.668 7.18448)" fill="#00E904"/>
<rect width="3.4483" height="3.59227" transform="matrix(-1 0 0 1 213.22 3.59232)" fill="#00E904"/>
<rect x="3.44873" y="10.7767" width="3.4483" height="3.59227" fill="#00E904"/>
<rect x="6.89648" y="7.18448" width="3.4483" height="3.59227" fill="#00E904"/>
<rect x="10.3447" y="3.59232" width="3.4483" height="3.59227" fill="#00E904"/>
<rect width="3.4483" height="3.59227" transform="matrix(1 0 0 -1 3.44873 50.8904)" fill="#00E904"/>
<rect width="3.4483" height="3.59227" transform="matrix(1 0 0 -1 6.89648 54.4827)" fill="#00E904"/>
<rect width="3.4483" height="3.59227" transform="matrix(1 0 0 -1 10.3447 58.0749)" fill="#00E904"/>
<rect x="67.2412" y="65.2596" width="3.4483" height="3.59227" transform="rotate(180 67.2412 65.2596)" fill="#00E904"/>
<rect x="63.7935" y="68.8518" width="3.4483" height="3.59227" transform="rotate(180 63.7935 68.8518)" fill="#00E904"/>
<rect x="60.3447" y="72.444" width="3.4483" height="3.59227" transform="rotate(180 60.3447 72.444)" fill="#00E904"/>
<rect x="56.897" y="76.0363" width="3.4483" height="3.59227" transform="rotate(180 56.897 76.0363)" fill="#00E904"/>
<rect x="53.4487" y="79.6285" width="3.4483" height="3.59227" transform="rotate(180 53.4487 79.6285)" fill="#00E904"/>
<rect x="50.0005" y="83.2208" width="3.4483" height="3.59227" transform="rotate(180 50.0005 83.2208)" fill="#00E904"/>
<rect x="220.117" y="14.369" width="3.4483" height="32.9291" fill="#00E904"/>
<rect y="14.369" width="3.4483" height="32.9291" fill="#00E904"/>
<path d="M46.6172 38.3361V25.8745H54.9249V27.9514H50.771V38.3361H46.6172ZM69.4674 27.9514V38.3361H65.3136V36.2591H63.2366V34.1822H65.3136V32.1053H61.1597V36.2591H63.2366V38.3361H59.0828V36.2591H57.0059V32.1053H59.0828V30.0284H65.3136V27.9514H59.0828V25.8745H67.3905V27.9514H69.4674ZM83.9957 27.9514H79.8419V36.2591H77.7649V38.3361H73.6111V36.2591H75.688V25.8745H88.1496V38.3361H83.9957V27.9514ZM71.5342 36.2591V34.1822H73.6111V36.2591H71.5342ZM102.69 27.9514V38.3361H98.5362V36.2591H96.4593V34.1822H98.5362V32.1053H94.3824V36.2591H96.4593V38.3361H92.3054V36.2591H90.2285V32.1053H92.3054V30.0284H98.5362V27.9514H92.3054V25.8745H100.613V27.9514H102.69ZM104.757 38.3361V25.8745H108.911V27.9514H110.988V25.8745H115.141V27.9514H113.065V30.0284H110.988V32.1053H113.065V34.1822H115.141V36.2591H117.218V38.3361H113.065V36.2591H110.988V34.1822H108.911V38.3361H104.757ZM117.229 25.8745H129.69V27.9514H125.536V38.3361H121.382V27.9514H117.229V25.8745ZM131.757 38.3361V25.8745H135.911V32.1053H137.988V30.0284H140.065V27.9514H142.141V25.8745H146.295V38.3361H142.141V32.1053H140.065V34.1822H137.988V36.2591H135.911V38.3361H131.757ZM148.368 38.3361V25.8745H152.522V27.9514H154.599V25.8745H158.753V27.9514H156.676V30.0284H154.599V32.1053H156.676V34.1822H158.753V36.2591H160.83V38.3361H156.676V36.2591H154.599V34.1822H152.522V38.3361H148.368ZM173.301 27.9514V38.3361H169.148V36.2591H167.071V34.1822H169.148V32.1053H164.994V36.2591H167.071V38.3361H162.917V36.2591H160.84V32.1053H162.917V30.0284H169.148V27.9514H162.917V25.8745H171.224V27.9514H173.301ZM185.753 23.7976V27.9514H183.676V30.0284H181.599V34.1822H177.445V30.0284H179.522V27.9514H181.599V23.7976H175.368V21.7207H183.676V23.7976H185.753ZM177.445 38.3361V36.2591H181.599V38.3361H177.445Z" fill="black"/>
</svg>
