<svg width="208" height="72" viewBox="0 0 208 72" fill="none" xmlns="http://www.w3.org/2000/svg">
<path d="M183.977 1.62485L196.845 14.6693L196.354 38.6753L183.742 51.6407L158.348 52.33V70.6455L155.628 70.6717L137.606 52.3955L14.4697 52.33L1.84103 39.3716L1.54411 13.7806L13.9722 1.29823L183.977 1.62485Z" fill="#FF9BC3"/>
<rect width="125.993" height="3.0871" transform="matrix(-1 0 0 1 138.186 49.9087)" fill="#FF0066"/>
<rect width="28.45" height="3.0871" transform="matrix(-1 0 0 1 185.433 49.9087)" fill="#FF0066"/>
<rect x="156.475" y="71.5179" width="21.6097" height="3.04822" transform="rotate(-90 156.475 71.5179)" fill="#FF0066"/>
<rect width="173.24" height="3.0871" transform="matrix(-1 0 0 1 185.433 0)" fill="#FF0066"/>
<rect width="3.04822" height="3.0871" transform="matrix(-1 0 0 1 12.1929 46.8213)" fill="#FF0066"/>
<rect width="3.04822" height="3.0871" transform="matrix(-1 0 0 1 9.14355 43.7339)" fill="#FF0066"/>
<rect width="3.04822" height="3.0871" transform="matrix(-1 0 0 1 6.09619 40.6465)" fill="#FF0066"/>
<rect x="3.04834" y="9.26089" width="3.04822" height="3.0871" fill="#FF0066"/>
<rect x="6.09619" y="6.1741" width="3.04822" height="3.0871" fill="#FF0066"/>
<rect x="9.14355" y="3.0874" width="3.04822" height="3.0871" fill="#FF0066"/>
<rect width="3.04822" height="3.0871" transform="matrix(-1 0 0 1 194.577 9.26089)" fill="#FF0066"/>
<rect width="3.04822" height="3.0871" transform="matrix(-1 0 0 1 191.529 6.1741)" fill="#FF0066"/>
<rect width="3.04822" height="3.0871" transform="matrix(-1 0 0 1 188.481 3.0874)" fill="#FF0066"/>
<rect x="194.577" y="43.7339" width="3.04822" height="3.0871" transform="rotate(180 194.577 43.7339)" fill="#FF0066"/>
<rect x="191.529" y="46.8213" width="3.04822" height="3.0871" transform="rotate(180 191.529 46.8213)" fill="#FF0066"/>
<rect x="188.481" y="49.9087" width="3.04822" height="3.0871" transform="rotate(180 188.481 49.9087)" fill="#FF0066"/>
<rect width="3.04822" height="3.0871" transform="matrix(1 0 0 -1 138.186 56.0822)" fill="#FF0066"/>
<rect width="3.04822" height="3.0871" transform="matrix(1 0 0 -1 141.234 59.1696)" fill="#FF0066"/>
<rect width="3.04822" height="3.0871" transform="matrix(1 0 0 -1 144.281 62.257)" fill="#FF0066"/>
<rect width="3.04822" height="3.0871" transform="matrix(1 0 0 -1 147.33 65.3437)" fill="#FF0066"/>
<rect width="3.04822" height="3.0871" transform="matrix(1 0 0 -1 150.378 68.4305)" fill="#FF0066"/>
<rect width="3.04822" height="3.0871" transform="matrix(1 0 0 -1 153.427 71.5179)" fill="#FF0066"/>
<rect width="3.04822" height="28.2985" transform="matrix(-1 0 0 1 3.04834 12.3483)" fill="#FF0066"/>
<rect width="3.04822" height="28.2985" transform="matrix(-1 0 0 1 197.625 12.3483)" fill="#FF0066"/>
<path d="M44.7573 22.5323H55.3727V24.3016H51.8342V33.1477H48.2958V24.3016H44.7573V22.5323ZM57.1333 33.1477V22.5323H65.9795V24.3016H67.7487V26.0708H65.9795V27.84H67.7487V31.3785H65.9795V33.1477H57.1333ZM64.2102 31.3785V27.84H60.6718V31.3785H64.2102ZM64.2102 24.3016H60.6718V26.0708H64.2102V24.3016ZM78.3554 31.3785V33.1477H71.2785V31.3785H69.5093V24.3016H71.2785V22.5323H78.3554V24.3016H80.1247V31.3785H78.3554ZM76.5862 31.3785V24.3016H73.0477V31.3785H76.5862ZM90.7314 31.3785V33.1477H83.6545V31.3785H81.8853V24.3016H83.6545V22.5323H90.7314V24.3016H92.5006V27.84H85.4237V31.3785H88.9622V29.6092H92.5006V31.3785H90.7314ZM81.8853 20.7631V17.2246H85.4237V20.7631H81.8853ZM90.7314 17.2246V20.7631H87.1929V17.2246H90.7314ZM85.4237 26.0708H88.9622V24.3016H85.4237V26.0708ZM99.562 33.1477V22.5323H103.1V27.84H104.87V26.0708H106.639V24.3016H108.408V22.5323H111.947V33.1477H108.408V27.84H106.639V29.6092H104.87V31.3785H103.1V33.1477H99.562ZM113.712 33.1477V22.5323H119.02V26.0708H120.789V27.84H122.559V26.0708H124.328V22.5323H129.635V33.1477H126.097V27.84H124.328V31.3785H122.559V33.1477H120.789V31.3785H119.02V27.84H117.251V33.1477H113.712ZM131.412 33.1477V31.3785H133.181V27.84H131.412V24.3016H133.181V22.5323H142.027V33.1477H138.489V29.6092H136.719V31.3785H134.95V33.1477H131.412ZM138.489 24.3016H134.95V27.84H138.489V24.3016ZM152.634 20.7631V24.3016H150.865V26.0708H149.095V29.6092H145.557V26.0708H147.326V24.3016H149.095V20.7631H143.788V18.9939H150.865V20.7631H152.634ZM145.557 33.1477V31.3785H149.095V33.1477H145.557Z" fill="black"/>
</svg>
