<svg width="296" height="107" viewBox="0 0 296 107" fill="none" xmlns="http://www.w3.org/2000/svg">
<path d="M274.817 2.42262L294.039 21.8708L293.306 57.6614L274.466 76.9917L236.534 78.0194V105.326L232.47 105.365L205.551 78.1171L21.6156 78.0194L2.75156 58.6996L2.30801 20.5457L20.8725 1.93566L274.817 2.42262Z" fill="#FF0066"/>
<rect width="188.202" height="4.60259" transform="matrix(-1 0 0 1 206.416 74.4085)" fill="#FF83B5"/>
<rect width="42.4972" height="4.60259" transform="matrix(-1 0 0 1 276.991 74.4085)" fill="#FF83B5"/>
<rect x="233.735" y="106.627" width="32.2181" height="4.55327" transform="rotate(-90 233.735 106.627)" fill="#FF83B5"/>
<rect width="258.778" height="4.60259" transform="matrix(-1 0 0 1 276.991 0)" fill="#FF83B5"/>
<rect width="4.55327" height="4.60259" transform="matrix(-1 0 0 1 18.2139 69.8059)" fill="#FF83B5"/>
<rect width="4.55327" height="4.60259" transform="matrix(-1 0 0 1 13.6597 65.2033)" fill="#FF83B5"/>
<rect width="4.55327" height="4.60259" transform="matrix(-1 0 0 1 9.10645 60.6008)" fill="#FF83B5"/>
<rect x="4.55322" y="13.8077" width="4.55327" height="4.60259" fill="#FF83B5"/>
<rect x="9.10645" y="9.20511" width="4.55327" height="4.60259" fill="#FF83B5"/>
<rect x="13.6597" y="4.60263" width="4.55327" height="4.60259" fill="#FF83B5"/>
<rect width="4.55327" height="4.60259" transform="matrix(-1 0 0 1 290.65 13.8077)" fill="#FF83B5"/>
<rect width="4.55327" height="4.60259" transform="matrix(-1 0 0 1 286.098 9.20511)" fill="#FF83B5"/>
<rect width="4.55327" height="4.60259" transform="matrix(-1 0 0 1 281.544 4.60263)" fill="#FF83B5"/>
<rect x="290.65" y="65.2033" width="4.55327" height="4.60259" transform="rotate(180 290.65 65.2033)" fill="#FF83B5"/>
<rect x="286.098" y="69.8059" width="4.55327" height="4.60259" transform="rotate(180 286.098 69.8059)" fill="#FF83B5"/>
<rect x="281.544" y="74.4085" width="4.55327" height="4.60259" transform="rotate(180 281.544 74.4085)" fill="#FF83B5"/>
<rect width="4.55327" height="4.60259" transform="matrix(1 0 0 -1 206.416 83.6137)" fill="#FF83B5"/>
<rect width="4.55327" height="4.60259" transform="matrix(1 0 0 -1 210.968 88.2164)" fill="#FF83B5"/>
<rect width="4.55327" height="4.60259" transform="matrix(1 0 0 -1 215.521 92.819)" fill="#FF83B5"/>
<rect width="4.55327" height="4.60259" transform="matrix(1 0 0 -1 220.075 97.4215)" fill="#FF83B5"/>
<rect width="4.55327" height="4.60259" transform="matrix(1 0 0 -1 224.629 102.024)" fill="#FF83B5"/>
<rect width="4.55327" height="4.60259" transform="matrix(1 0 0 -1 229.181 106.627)" fill="#FF83B5"/>
<rect width="4.55327" height="42.1904" transform="matrix(-1 0 0 1 4.55322 18.4103)" fill="#FF83B5"/>
<rect width="4.55327" height="42.1904" transform="matrix(-1 0 0 1 295.205 18.4103)" fill="#FF83B5"/>
<path d="M65.813 49.6266V46.8574H68.5822V44.0882H71.3515V38.5497H74.1207V35.7805H65.813V33.0113H82.4284V35.7805H79.6591V38.5497H76.8899V44.0882H74.1207V46.8574H82.4284V49.6266H65.813ZM93.481 49.6266V27.4728H99.0194V35.7805H101.789V33.0113H107.327V35.7805H104.558V38.5497H101.789V41.319H104.558V44.0882H107.327V46.8574H110.096V49.6266H104.558V46.8574H101.789V44.0882H99.0194V49.6266H93.481ZM112.852 49.6266V46.8574H121.16V44.0882H118.391V41.319H115.621V38.5497H112.852V35.7805H115.621V33.0113H126.698V35.7805H118.391V38.5497H121.16V41.319H123.929V44.0882H126.698V46.8574H123.929V49.6266H112.852ZM132.25 52.3959V33.0113H137.789V52.3959H135.019V55.1651H126.712V52.3959H132.25ZM132.25 27.4728H137.789V30.242H132.25V27.4728ZM140.555 49.6266V27.4728H146.094V35.7805H148.863V38.5497H146.094V46.8574H151.632V35.7805H148.863V33.0113H154.401V35.7805H157.171V46.8574H154.401V49.6266H140.555ZM173.772 46.8574H171.003V49.6266H165.465V44.0882H162.696V38.5497H159.926V33.0113H165.465V38.5497H168.234V41.319H171.003V35.7805H173.772V41.319H176.542V38.5497H179.311V33.0113H184.849V38.5497H182.08V44.0882H179.311V49.6266H173.772V46.8574ZM187.629 49.6266V27.4728H193.168V35.7805H195.937V38.5497H193.168V46.8574H198.706V35.7805H195.937V33.0113H201.476V35.7805H204.245V46.8574H201.476V49.6266H187.629ZM220.847 30.242V35.7805H218.077V38.5497H215.308V44.0882H209.77V38.5497H212.539V35.7805H215.308V30.242H207V27.4728H218.077V30.242H220.847ZM209.77 49.6266V46.8574H215.308V49.6266H209.77Z" fill="white"/>
</svg>
