<svg width="296" height="107" viewBox="0 0 296 107" fill="none" xmlns="http://www.w3.org/2000/svg">
<path d="M274.817 2.42262L294.039 21.8708L293.306 57.6614L274.466 76.9917L236.534 78.0194V105.326L232.47 105.365L205.551 78.1171L21.6156 78.0194L2.75156 58.6996L2.30801 20.5457L20.8725 1.93566L274.817 2.42262Z" fill="#90FF92"/>
<rect width="188.202" height="4.60259" transform="matrix(-1 0 0 1 206.416 74.4085)" fill="#00E904"/>
<rect width="42.4972" height="4.60259" transform="matrix(-1 0 0 1 276.991 74.4085)" fill="#00E904"/>
<rect x="233.735" y="106.627" width="32.2181" height="4.55327" transform="rotate(-90 233.735 106.627)" fill="#00E904"/>
<rect width="258.778" height="4.60259" transform="matrix(-1 0 0 1 276.991 0)" fill="#00E904"/>
<rect width="4.55327" height="4.60259" transform="matrix(-1 0 0 1 18.2134 69.8059)" fill="#00E904"/>
<rect width="4.55327" height="4.60259" transform="matrix(-1 0 0 1 13.6602 65.2033)" fill="#00E904"/>
<rect width="4.55327" height="4.60259" transform="matrix(-1 0 0 1 9.10693 60.6008)" fill="#00E904"/>
<rect x="4.55322" y="13.8077" width="4.55327" height="4.60259" fill="#00E904"/>
<rect x="9.10693" y="9.20514" width="4.55327" height="4.60259" fill="#00E904"/>
<rect x="13.6602" y="4.60263" width="4.55327" height="4.60259" fill="#00E904"/>
<rect width="4.55327" height="4.60259" transform="matrix(-1 0 0 1 290.651 13.8077)" fill="#00E904"/>
<rect width="4.55327" height="4.60259" transform="matrix(-1 0 0 1 286.098 9.20514)" fill="#00E904"/>
<rect width="4.55327" height="4.60259" transform="matrix(-1 0 0 1 281.544 4.60263)" fill="#00E904"/>
<rect x="290.651" y="65.2033" width="4.55327" height="4.60259" transform="rotate(180 290.651 65.2033)" fill="#00E904"/>
<rect x="286.098" y="69.8059" width="4.55327" height="4.60259" transform="rotate(180 286.098 69.8059)" fill="#00E904"/>
<rect x="281.544" y="74.4085" width="4.55327" height="4.60259" transform="rotate(180 281.544 74.4085)" fill="#00E904"/>
<rect width="4.55327" height="4.60259" transform="matrix(1 0 0 -1 206.416 83.6137)" fill="#00E904"/>
<rect width="4.55327" height="4.60259" transform="matrix(1 0 0 -1 210.968 88.2164)" fill="#00E904"/>
<rect width="4.55327" height="4.60259" transform="matrix(1 0 0 -1 215.522 92.819)" fill="#00E904"/>
<rect width="4.55327" height="4.60259" transform="matrix(1 0 0 -1 220.075 97.4215)" fill="#00E904"/>
<rect width="4.55327" height="4.60259" transform="matrix(1 0 0 -1 224.629 102.024)" fill="#00E904"/>
<rect width="4.55327" height="4.60259" transform="matrix(1 0 0 -1 229.182 106.627)" fill="#00E904"/>
<rect width="4.55327" height="42.1904" transform="matrix(-1 0 0 1 4.55322 18.4103)" fill="#00E904"/>
<rect width="4.55327" height="42.1904" transform="matrix(-1 0 0 1 295.204 18.4103)" fill="#00E904"/>
<path d="M82.0376 47.6918H79.2683V44.9226H76.4991V42.1534H73.7299V50.4611H68.1914V28.3072H73.7299V36.6149H76.4991V33.8457H79.2683V31.0764H82.0376V28.3072H87.576V31.0764H84.8068V33.8457H82.0376V36.6149H79.2683V42.1534H82.0376V44.9226H84.8068V47.6918H87.576V50.4611H82.0376V47.6918ZM106.955 36.6149V50.4611H101.417V47.6918H98.6475V44.9226H101.417V42.1534H95.8783V47.6918H98.6475V50.4611H93.1091V47.6918H90.3398V42.1534H93.1091V39.3841H101.417V36.6149H93.1091V33.8457H104.186V36.6149H106.955ZM109.711 50.4611V33.8457H115.249V36.6149H118.019V33.8457H123.557V36.6149H120.788V39.3841H118.019V42.1534H120.788V44.9226H123.557V47.6918H126.326V50.4611H120.788V47.6918H118.019V44.9226H115.249V50.4611H109.711ZM134.637 53.2303V47.6918H137.406V42.1534H140.175V33.8457H156.791V53.2303H151.252V50.4611H140.175V53.2303H134.637ZM151.252 36.6149H145.714V42.1534H142.944V47.6918H151.252V36.6149ZM173.409 47.6918V50.4611H162.332V47.6918H159.562V36.6149H162.332V33.8457H173.409V36.6149H176.178V42.1534H165.101V47.6918H170.639V44.9226H176.178V47.6918H173.409ZM170.639 36.6149H165.101V39.3841H170.639V36.6149ZM195.549 36.6149H190.011V47.6918H187.241V50.4611H181.703V47.6918H184.472V33.8457H201.087V50.4611H195.549V36.6149ZM178.934 47.6918V44.9226H181.703V47.6918H178.934ZM220.475 36.6149V50.4611H214.936V47.6918H212.167V44.9226H214.936V42.1534H209.398V47.6918H212.167V50.4611H206.629V47.6918H203.859V42.1534H206.629V39.3841H214.936V36.6149H206.629V33.8457H217.706V36.6149H220.475ZM237.077 31.0764V36.6149H234.307V39.3841H231.538V44.9226H226V39.3841H228.769V36.6149H231.538V31.0764H223.23V28.3072H234.307V31.0764H237.077ZM226 50.4611V47.6918H231.538V50.4611H226Z" fill="black"/>
</svg>
