<svg width="224" height="84" viewBox="0 0 224 84" fill="none" xmlns="http://www.w3.org/2000/svg">
<path d="M15.4399 1.89086L0.882324 17.0699L1.43768 45.0041L15.7054 60.0911L44.4322 60.8932V82.2058L47.5096 82.2362L67.8965 60.9695L207.195 60.8932L221.481 45.8144L221.817 16.0357L207.757 1.51079L15.4399 1.89086Z" fill="#00E904"/>
<rect x="67.2417" y="58.0749" width="142.53" height="3.59227" fill="#00AF03"/>
<rect x="13.7935" y="58.0749" width="32.1841" height="3.59227" fill="#00AF03"/>
<rect width="25.1459" height="3.4483" transform="matrix(0 -1 -1 0 46.5522 83.2208)" fill="#00AF03"/>
<rect x="13.7935" width="195.978" height="3.59227" fill="#00AF03"/>
<rect x="209.771" y="54.4827" width="3.4483" height="3.59227" fill="#00AF03"/>
<rect x="213.22" y="50.8904" width="3.4483" height="3.59227" fill="#00AF03"/>
<rect x="216.668" y="47.2982" width="3.4483" height="3.59227" fill="#00AF03"/>
<rect width="3.4483" height="3.59227" transform="matrix(-1 0 0 1 220.116 10.7767)" fill="#00AF03"/>
<rect width="3.4483" height="3.59227" transform="matrix(-1 0 0 1 216.668 7.18448)" fill="#00AF03"/>
<rect width="3.4483" height="3.59227" transform="matrix(-1 0 0 1 213.22 3.59232)" fill="#00AF03"/>
<rect x="3.44824" y="10.7767" width="3.4483" height="3.59227" fill="#00AF03"/>
<rect x="6.89648" y="7.18448" width="3.4483" height="3.59227" fill="#00AF03"/>
<rect x="10.3447" y="3.59232" width="3.4483" height="3.59227" fill="#00AF03"/>
<rect width="3.4483" height="3.59227" transform="matrix(1 0 0 -1 3.44824 50.8904)" fill="#00AF03"/>
<rect width="3.4483" height="3.59227" transform="matrix(1 0 0 -1 6.89648 54.4827)" fill="#00AF03"/>
<rect width="3.4483" height="3.59227" transform="matrix(1 0 0 -1 10.3447 58.0749)" fill="#00AF03"/>
<rect x="67.2417" y="65.2596" width="3.4483" height="3.59227" transform="rotate(180 67.2417 65.2596)" fill="#00AF03"/>
<rect x="63.7935" y="68.8518" width="3.4483" height="3.59227" transform="rotate(180 63.7935 68.8518)" fill="#00AF03"/>
<rect x="60.3452" y="72.444" width="3.4483" height="3.59227" transform="rotate(180 60.3452 72.444)" fill="#00AF03"/>
<rect x="56.897" y="76.0363" width="3.4483" height="3.59227" transform="rotate(180 56.897 76.0363)" fill="#00AF03"/>
<rect x="53.4487" y="79.6285" width="3.4483" height="3.59227" transform="rotate(180 53.4487 79.6285)" fill="#00AF03"/>
<rect x="50.001" y="83.2208" width="3.4483" height="3.59227" transform="rotate(180 50.001 83.2208)" fill="#00AF03"/>
<rect x="220.116" y="14.369" width="3.4483" height="32.9291" fill="#00AF03"/>
<rect y="14.369" width="3.4483" height="32.9291" fill="#00AF03"/>
<path d="M68.6022 25.2894H64.4483V39.8279H60.2945V25.2894H56.1406V23.2125H68.6022V25.2894ZM70.6689 39.8279V27.3663H74.8228V29.4433H76.8997V31.5202H74.8228V39.8279H70.6689ZM81.0536 29.4433H76.8997V27.3663H81.0536V29.4433ZM85.2175 41.9048V27.3663H89.3714V41.9048H87.2945V43.9817H81.0637V41.9048H85.2175ZM85.2175 23.2125H89.3714V25.2894H85.2175V23.2125ZM91.4463 39.8279V27.3663H95.6001V29.4433H97.6771V31.5202H95.6001V39.8279H91.4463ZM103.908 29.4433V39.8279H99.754V29.4433H97.6771V27.3663H101.831V29.4433H103.908ZM105.975 39.8279V27.3663H110.128V29.4433H112.205V31.5202H110.128V39.8279H105.975ZM118.436 29.4433V39.8279H114.282V29.4433H112.205V27.3663H116.359V29.4433H118.436ZM126.726 39.8279V35.674H128.803V33.5971H130.879V31.5202H132.956V29.4433H135.033V25.2894H130.879V27.3663H126.726V25.2894H128.803V23.2125H137.11V25.2894H139.187V29.4433H137.11V31.5202H135.033V33.5971H132.956V35.674H130.879V37.751H139.187V39.8279H126.726ZM141.254 39.8279V35.674H143.331V33.5971H145.408V31.5202H147.485V29.4433H149.562V25.2894H145.408V27.3663H141.254V25.2894H143.331V23.2125H151.639V25.2894H153.715V29.4433H151.639V31.5202H149.562V33.5971H147.485V35.674H145.408V37.751H153.715V39.8279H141.254ZM155.782 39.8279V35.674H157.859V33.5971H159.936V31.5202H162.013V29.4433H164.09V25.2894H159.936V27.3663H155.782V25.2894H157.859V23.2125H166.167V25.2894H168.244V29.4433H166.167V31.5202H164.09V33.5971H162.013V35.674H159.936V37.751H168.244V39.8279H155.782Z" fill="black"/>
</svg>
