<svg width="224" height="84" viewBox="0 0 224 84" fill="none" xmlns="http://www.w3.org/2000/svg">
<path d="M15.4399 1.89086L0.882324 17.0699L1.43768 45.0041L15.7054 60.0911L44.4322 60.8932V82.2058L47.5096 82.2362L67.8965 60.9695L207.195 60.8932L221.481 45.8144L221.817 16.0357L207.757 1.51079L15.4399 1.89086Z" fill="#FF9BC3"/>
<rect x="67.2417" y="58.075" width="142.53" height="3.59227" fill="#C80050"/>
<rect x="13.793" y="58.075" width="32.1841" height="3.59227" fill="#C80050"/>
<rect width="25.1459" height="3.4483" transform="matrix(0 -1 -1 0 46.5518 83.2208)" fill="#C80050"/>
<rect x="13.793" width="195.978" height="3.59227" fill="#C80050"/>
<rect x="209.771" y="54.4827" width="3.4483" height="3.59227" fill="#C80050"/>
<rect x="213.22" y="50.8904" width="3.4483" height="3.59227" fill="#C80050"/>
<rect x="216.668" y="47.2982" width="3.4483" height="3.59227" fill="#C80050"/>
<rect width="3.4483" height="3.59227" transform="matrix(-1 0 0 1 220.116 10.7767)" fill="#C80050"/>
<rect width="3.4483" height="3.59227" transform="matrix(-1 0 0 1 216.668 7.18451)" fill="#C80050"/>
<rect width="3.4483" height="3.59227" transform="matrix(-1 0 0 1 213.22 3.59232)" fill="#C80050"/>
<rect x="3.44824" y="10.7767" width="3.4483" height="3.59227" fill="#C80050"/>
<rect x="6.89648" y="7.18451" width="3.4483" height="3.59227" fill="#C80050"/>
<rect x="10.3442" y="3.59232" width="3.4483" height="3.59227" fill="#C80050"/>
<rect width="3.4483" height="3.59227" transform="matrix(1 0 0 -1 3.44824 50.8904)" fill="#C80050"/>
<rect width="3.4483" height="3.59227" transform="matrix(1 0 0 -1 6.89648 54.4827)" fill="#C80050"/>
<rect width="3.4483" height="3.59227" transform="matrix(1 0 0 -1 10.3442 58.075)" fill="#C80050"/>
<rect x="67.2417" y="65.2596" width="3.4483" height="3.59227" transform="rotate(180 67.2417 65.2596)" fill="#C80050"/>
<rect x="63.7935" y="68.8518" width="3.4483" height="3.59227" transform="rotate(180 63.7935 68.8518)" fill="#C80050"/>
<rect x="60.3452" y="72.4441" width="3.4483" height="3.59227" transform="rotate(180 60.3452 72.4441)" fill="#C80050"/>
<rect x="56.897" y="76.0363" width="3.4483" height="3.59227" transform="rotate(180 56.897 76.0363)" fill="#C80050"/>
<rect x="53.4487" y="79.6285" width="3.4483" height="3.59227" transform="rotate(180 53.4487 79.6285)" fill="#C80050"/>
<rect x="50.0005" y="83.2208" width="3.4483" height="3.59227" transform="rotate(180 50.0005 83.2208)" fill="#C80050"/>
<rect x="220.116" y="14.369" width="3.4483" height="32.9291" fill="#C80050"/>
<rect y="14.369" width="3.4483" height="32.9291" fill="#C80050"/>
<path d="M46.0067 32.9685H43.9298V30.8916H41.8528V28.8146H39.7759V35.0454H35.6221V18.43H39.7759V24.6608H41.8528V22.5839H43.9298V20.5069H46.0067V18.43H50.1605V20.5069H48.0836V22.5839H46.0067V24.6608H43.9298V28.8146H46.0067V30.8916H48.0836V32.9685H50.1605V35.0454H46.0067V32.9685ZM64.6949 24.6608V35.0454H60.5411V32.9685H58.4642V30.8916H60.5411V28.8146H56.3872V32.9685H58.4642V35.0454H54.3103V32.9685H52.2334V28.8146H54.3103V26.7377H60.5411V24.6608H54.3103V22.5839H62.618V24.6608H64.6949ZM66.7617 35.0454V22.5839H70.9156V24.6608H72.9925V22.5839H77.1463V24.6608H75.0694V26.7377H72.9925V28.8146H75.0694V30.8916H77.1463V32.9685H79.2233V35.0454H75.0694V32.9685H72.9925V30.8916H70.9156V35.0454H66.7617ZM85.4561 37.1223V32.9685H87.533V28.8146H89.6099V22.5839H102.071V37.1223H97.9176V35.0454H89.6099V37.1223H85.4561ZM97.9176 24.6608H93.7637V28.8146H91.6868V32.9685H97.9176V24.6608ZM114.535 32.9685V35.0454H106.227V32.9685H104.15V24.6608H106.227V22.5839H114.535V24.6608H116.612V28.8146H108.304V32.9685H112.458V30.8916H116.612V32.9685H114.535ZM112.458 24.6608H108.304V26.7377H112.458V24.6608ZM131.14 24.6608H126.986V32.9685H124.909V35.0454H120.756V32.9685H122.833V22.5839H135.294V35.0454H131.14V24.6608ZM118.679 32.9685V30.8916H120.756V32.9685H118.679ZM149.835 24.6608V35.0454H145.681V32.9685H143.604V30.8916H145.681V28.8146H141.527V32.9685H143.604V35.0454H139.45V32.9685H137.373V28.8146H139.45V26.7377H145.681V24.6608H139.45V22.5839H147.758V24.6608H149.835ZM162.286 20.5069V24.6608H160.209V26.7377H158.132V30.8916H153.978V26.7377H156.055V24.6608H158.132V20.5069H151.901V18.43H160.209V20.5069H162.286ZM153.978 35.0454V32.9685H158.132V35.0454H153.978Z" fill="white"/>
<path d="M15.4399 1.89086L0.882324 17.0699L1.43768 45.0041L15.7054 60.0911L44.4322 60.8932V82.2058L47.5096 82.2362L67.8965 60.9695L207.195 60.8932L221.481 45.8144L221.817 16.0357L207.757 1.51079L15.4399 1.89086Z" fill="#FF9BC3"/>
<rect x="67.2417" y="58.075" width="142.53" height="3.59227" fill="#C80050"/>
<rect x="13.793" y="58.075" width="32.1841" height="3.59227" fill="#C80050"/>
<rect width="25.1459" height="3.4483" transform="matrix(0 -1 -1 0 46.5518 83.2208)" fill="#C80050"/>
<rect x="13.793" width="195.978" height="3.59227" fill="#C80050"/>
<rect x="209.771" y="54.4827" width="3.4483" height="3.59227" fill="#C80050"/>
<rect x="213.22" y="50.8904" width="3.4483" height="3.59227" fill="#C80050"/>
<rect x="216.668" y="47.2982" width="3.4483" height="3.59227" fill="#C80050"/>
<rect width="3.4483" height="3.59227" transform="matrix(-1 0 0 1 220.116 10.7767)" fill="#C80050"/>
<rect width="3.4483" height="3.59227" transform="matrix(-1 0 0 1 216.668 7.18451)" fill="#C80050"/>
<rect width="3.4483" height="3.59227" transform="matrix(-1 0 0 1 213.22 3.59232)" fill="#C80050"/>
<rect x="3.44824" y="10.7767" width="3.4483" height="3.59227" fill="#C80050"/>
<rect x="6.89648" y="7.18451" width="3.4483" height="3.59227" fill="#C80050"/>
<rect x="10.3442" y="3.59232" width="3.4483" height="3.59227" fill="#C80050"/>
<rect width="3.4483" height="3.59227" transform="matrix(1 0 0 -1 3.44824 50.8904)" fill="#C80050"/>
<rect width="3.4483" height="3.59227" transform="matrix(1 0 0 -1 6.89648 54.4827)" fill="#C80050"/>
<rect width="3.4483" height="3.59227" transform="matrix(1 0 0 -1 10.3442 58.075)" fill="#C80050"/>
<rect x="67.2417" y="65.2596" width="3.4483" height="3.59227" transform="rotate(180 67.2417 65.2596)" fill="#C80050"/>
<rect x="63.7935" y="68.8518" width="3.4483" height="3.59227" transform="rotate(180 63.7935 68.8518)" fill="#C80050"/>
<rect x="60.3452" y="72.4441" width="3.4483" height="3.59227" transform="rotate(180 60.3452 72.4441)" fill="#C80050"/>
<rect x="56.897" y="76.0363" width="3.4483" height="3.59227" transform="rotate(180 56.897 76.0363)" fill="#C80050"/>
<rect x="53.4487" y="79.6285" width="3.4483" height="3.59227" transform="rotate(180 53.4487 79.6285)" fill="#C80050"/>
<rect x="50.0005" y="83.2208" width="3.4483" height="3.59227" transform="rotate(180 50.0005 83.2208)" fill="#C80050"/>
<rect x="220.116" y="14.369" width="3.4483" height="32.9291" fill="#C80050"/>
<rect y="14.369" width="3.4483" height="32.9291" fill="#C80050"/>
<path d="M62.0067 36.9685V39.0454H53.699V36.9685H51.6221V34.8916H55.7759V36.9685H59.9298V30.7377H53.699V28.6608H59.9298V24.5069H55.7759V26.5839H51.6221V24.5069H53.699V22.43H62.0067V24.5069H64.0836V28.6608H62.0067V30.7377H64.0836V36.9685H62.0067ZM76.535 36.9685V39.0454H68.2273V36.9685H66.1504V28.6608H68.2273V26.5839H76.535V28.6608H78.6119V32.8146H70.3042V36.9685H74.4581V34.8916H78.6119V36.9685H76.535ZM74.4581 28.6608H70.3042V30.7377H74.4581V28.6608ZM80.6787 39.0454V26.5839H86.9095V30.7377H88.9864V32.8146H91.0633V30.7377H93.1402V26.5839H99.371V39.0454H95.2172V32.8146H93.1402V36.9685H91.0633V39.0454H88.9864V36.9685H86.9095V32.8146H84.8326V39.0454H80.6787ZM113.918 28.6608H109.764V36.9685H107.687V39.0454H103.533V36.9685H105.61V26.5839H118.071V39.0454H113.918V28.6608ZM101.456 36.9685V34.8916H103.533V36.9685H101.456ZM120.15 39.0454V36.9685H122.227V32.8146H120.15V28.6608H122.227V26.5839H132.612V39.0454H128.458V34.8916H126.381V36.9685H124.304V39.0454H120.15ZM128.458 28.6608H124.304V32.8146H128.458V28.6608ZM151.286 36.9685V39.0454H142.978V36.9685H140.901V26.5839H142.978V24.5069H145.055V22.43H151.286V24.5069H147.132V26.5839H145.055V28.6608H151.286V30.7377H153.363V36.9685H151.286ZM149.209 36.9685V30.7377H145.055V36.9685H149.209ZM165.814 36.9685V39.0454H157.507V36.9685H155.43V26.5839H157.507V24.5069H159.584V22.43H165.814V24.5069H161.66V26.5839H159.584V28.6608H165.814V30.7377H167.891V36.9685H165.814ZM163.737 36.9685V30.7377H159.584V36.9685H163.737Z" fill="white"/>
</svg>
