<svg width="230" height="84" viewBox="0 0 230 84" fill="none" xmlns="http://www.w3.org/2000/svg">
<path d="M15.4394 1.89083L0.881836 17.0699L1.43719 45.0041L15.7049 60.0911L44.4317 60.8932V82.2058L47.5091 82.2362L67.896 60.9695L207.194 60.8932L221.48 45.8143L221.816 16.0357L207.757 1.51076L15.4394 1.89083Z" fill="#FF0066"/>
<rect x="67.2417" y="58.0749" width="142.53" height="3.59227" fill="#FF83B5"/>
<rect x="13.793" y="58.0749" width="32.1841" height="3.59227" fill="#FF83B5"/>
<rect width="25.1459" height="3.4483" transform="matrix(0 -1 -1 0 46.5518 83.2208)" fill="#FF83B5"/>
<rect x="13.793" width="195.978" height="3.59227" fill="#FF83B5"/>
<rect x="209.771" y="54.4827" width="3.4483" height="3.59227" fill="#FF83B5"/>
<rect x="213.22" y="50.8904" width="3.4483" height="3.59227" fill="#FF83B5"/>
<rect x="216.668" y="47.2982" width="3.4483" height="3.59227" fill="#FF83B5"/>
<rect width="3.4483" height="3.59227" transform="matrix(-1 0 0 1 220.116 10.7767)" fill="#FF83B5"/>
<rect width="3.4483" height="3.59227" transform="matrix(-1 0 0 1 216.668 7.18448)" fill="#FF83B5"/>
<rect width="3.4483" height="3.59227" transform="matrix(-1 0 0 1 213.22 3.5923)" fill="#FF83B5"/>
<rect x="3.44824" y="10.7767" width="3.4483" height="3.59227" fill="#FF83B5"/>
<rect x="6.89648" y="7.18448" width="3.4483" height="3.59227" fill="#FF83B5"/>
<rect x="10.3442" y="3.5923" width="3.4483" height="3.59227" fill="#FF83B5"/>
<rect width="3.4483" height="3.59227" transform="matrix(1 0 0 -1 3.44824 50.8904)" fill="#FF83B5"/>
<rect width="3.4483" height="3.59227" transform="matrix(1 0 0 -1 6.89648 54.4827)" fill="#FF83B5"/>
<rect width="3.4483" height="3.59227" transform="matrix(1 0 0 -1 10.3442 58.0749)" fill="#FF83B5"/>
<rect x="67.2417" y="65.2596" width="3.4483" height="3.59227" transform="rotate(180 67.2417 65.2596)" fill="#FF83B5"/>
<rect x="63.7935" y="68.8518" width="3.4483" height="3.59227" transform="rotate(180 63.7935 68.8518)" fill="#FF83B5"/>
<rect x="60.3452" y="72.4441" width="3.4483" height="3.59227" transform="rotate(180 60.3452 72.4441)" fill="#FF83B5"/>
<rect x="56.8965" y="76.0363" width="3.4483" height="3.59227" transform="rotate(180 56.8965 76.0363)" fill="#FF83B5"/>
<rect x="53.4482" y="79.6285" width="3.4483" height="3.59227" transform="rotate(180 53.4482 79.6285)" fill="#FF83B5"/>
<rect x="50.0005" y="83.2208" width="3.4483" height="3.59227" transform="rotate(180 50.0005 83.2208)" fill="#FF83B5"/>
<rect x="220.116" y="14.369" width="3.4483" height="32.9291" fill="#FF83B5"/>
<rect y="14.369" width="3.4483" height="32.9291" fill="#FF83B5"/>
<path d="M76.4198 36.902H74.3428V34.825H72.2659V32.7481H70.189V38.9789H66.0352V22.3635H70.189V28.5943H72.2659V26.5173H74.3428V24.4404H76.4198V22.3635H80.5736V24.4404H78.4967V26.5173H76.4198V28.5943H74.3428V32.7481H76.4198V34.825H78.4967V36.902H80.5736V38.9789H76.4198V36.902ZM82.6465 26.5173H95.108V28.5943H90.9542V38.9789H86.8003V28.5943H82.6465V26.5173ZM107.559 36.902V38.9789H99.2517V36.902H97.1748V28.5943H99.2517V26.5173H107.559V28.5943H109.636V36.902H107.559ZM105.482 36.902V28.5943H101.329V36.902H105.482ZM117.926 26.5173H130.387V28.5943H126.233V38.9789H122.08V28.5943H117.926V26.5173ZM132.454 38.9789V26.5173H136.608V30.6712H140.762V32.7481H142.839V36.902H140.762V38.9789H132.454ZM138.685 32.7481H136.608V36.902H138.685V32.7481ZM149.069 26.5173V38.9789H144.916V26.5173H149.069ZM161.533 24.4404V28.5943H159.456V30.6712H157.379V34.825H153.225V30.6712H155.302V28.5943H157.379V24.4404H151.148V22.3635H159.456V24.4404H161.533ZM153.225 38.9789V36.902H157.379V38.9789H153.225Z" fill="white"/>
</svg>
