<svg width="247" height="90" viewBox="0 0 247 90" fill="none" xmlns="http://www.w3.org/2000/svg">
<g filter="url(#filter0_f_388_4870)">
<path d="M20.506 5.8631L4.94336 20.8195L5.53706 48.3439L20.7899 63.2096L51.5001 63.9999V84.9999L54.7899 85.0299L76.5843 64.0751L225.5 63.9999L240.773 49.1423L241.132 19.8004L226.102 5.4886L20.506 5.8631Z" fill="#FFC9DF"/>
<rect x="75.8843" y="61.223" width="152.37" height="3.53957" fill="#FF83B5"/>
<rect x="18.7454" y="61.223" width="34.4062" height="3.53957" fill="#FF83B5"/>
<rect width="24.777" height="3.68638" transform="matrix(0 -1 -1 0 53.7661 86.0001)" fill="#FF83B5"/>
<rect x="18.7454" y="4" width="209.509" height="3.53957" fill="#FF83B5"/>
<rect x="228.254" y="57.6835" width="3.68638" height="3.53957" fill="#FF83B5"/>
<rect x="231.941" y="54.1439" width="3.68638" height="3.53957" fill="#FF83B5"/>
<rect x="235.627" y="50.6044" width="3.68638" height="3.53957" fill="#FF83B5"/>
<rect width="3.68638" height="3.53957" transform="matrix(-1 0 0 1 239.314 14.6187)" fill="#FF83B5"/>
<rect width="3.68638" height="3.53957" transform="matrix(-1 0 0 1 235.627 11.0791)" fill="#FF83B5"/>
<rect width="3.68638" height="3.53957" transform="matrix(-1 0 0 1 231.941 7.53961)" fill="#FF83B5"/>
<rect x="7.68628" y="14.6187" width="3.68638" height="3.53957" fill="#FF83B5"/>
<rect x="11.3728" y="11.0791" width="3.68638" height="3.53957" fill="#FF83B5"/>
<rect x="15.0591" y="7.53961" width="3.68638" height="3.53957" fill="#FF83B5"/>
<rect width="3.68638" height="3.53957" transform="matrix(1 0 0 -1 7.68628 54.1439)" fill="#FF83B5"/>
<rect width="3.68638" height="3.53957" transform="matrix(1 0 0 -1 11.3728 57.6835)" fill="#FF83B5"/>
<rect width="3.68638" height="3.53957" transform="matrix(1 0 0 -1 15.0591 61.223)" fill="#FF83B5"/>
<rect x="75.8843" y="68.3022" width="3.68638" height="3.53957" transform="rotate(180 75.8843 68.3022)" fill="#FF83B5"/>
<rect x="72.198" y="71.8418" width="3.68638" height="3.53957" transform="rotate(180 72.198 71.8418)" fill="#FF83B5"/>
<rect x="68.5117" y="75.3814" width="3.68638" height="3.53957" transform="rotate(180 68.5117 75.3814)" fill="#FF83B5"/>
<rect x="64.8252" y="78.9209" width="3.68638" height="3.53957" transform="rotate(180 64.8252 78.9209)" fill="#FF83B5"/>
<rect x="61.1389" y="82.4604" width="3.68638" height="3.53957" transform="rotate(180 61.1389 82.4604)" fill="#FF83B5"/>
<rect x="57.4524" y="86.0001" width="3.68638" height="3.53957" transform="rotate(180 57.4524 86.0001)" fill="#FF83B5"/>
<rect x="239.314" y="18.1583" width="3.68638" height="32.4461" fill="#FF83B5"/>
<rect x="4" y="18.1583" width="3.68638" height="32.4461" fill="#FF83B5"/>
</g>
<g filter="url(#filter1_f_388_4870)">
<path d="M50.8462 42.2308H48.0769V39.4615H45.3077V36.6923H42.5385V45H37V22.8462H42.5385V31.1538H45.3077V28.3846H48.0769V25.6154H50.8462V22.8462H56.3846V25.6154H53.6154V28.3846H50.8462V31.1538H48.0769V36.6923H50.8462V39.4615H53.6154V42.2308H56.3846V45H50.8462V42.2308ZM75.7638 31.1538V45H70.2254V42.2308H67.4561V39.4615H70.2254V36.6923H64.6869V42.2308H67.4561V45H61.9177V42.2308H59.1484V36.6923H61.9177V33.9231H70.2254V31.1538H61.9177V28.3846H72.9946V31.1538H75.7638ZM78.5195 45V28.3846H84.058V31.1538H86.8272V28.3846H92.3657V31.1538H89.5965V33.9231H86.8272V36.6923H89.5965V39.4615H92.3657V42.2308H95.1349V45H89.5965V42.2308H86.8272V39.4615H84.058V45H78.5195ZM103.445 47.7692V42.2308H106.215V36.6923H108.984V28.3846H125.599V47.7692H120.061V45H108.984V47.7692H103.445ZM120.061 31.1538H114.522V36.6923H111.753V42.2308H120.061V31.1538ZM142.217 42.2308V45H131.14V42.2308H128.371V31.1538H131.14V28.3846H142.217V31.1538H144.986V36.6923H133.91V42.2308H139.448V39.4615H144.986V42.2308H142.217ZM139.448 31.1538H133.91V33.9231H139.448V31.1538ZM164.358 31.1538H158.819V42.2308H156.05V45H150.511V42.2308H153.281V28.3846H169.896V45H164.358V31.1538ZM147.742 42.2308V39.4615H150.511V42.2308H147.742ZM189.283 31.1538V45H183.745V42.2308H180.976V39.4615H183.745V36.6923H178.206V42.2308H180.976V45H175.437V42.2308H172.668V36.6923H175.437V33.9231H183.745V31.1538H175.437V28.3846H186.514V31.1538H189.283ZM205.885 25.6154V31.1538H203.116V33.9231H200.347V39.4615H194.808V33.9231H197.578V31.1538H200.347V25.6154H192.039V22.8462H203.116V25.6154H205.885ZM194.808 45V42.2308H200.347V45H194.808Z" fill="white"/>
</g>
<defs>
<filter id="filter0_f_388_4870" x="0" y="0" width="247" height="90.0001" filterUnits="userSpaceOnUse" color-interpolation-filters="sRGB">
<feFlood flood-opacity="0" result="BackgroundImageFix"/>
<feBlend mode="normal" in="SourceGraphic" in2="BackgroundImageFix" result="shape"/>
<feGaussianBlur stdDeviation="2" result="effect1_foregroundBlur_388_4870"/>
</filter>
<filter id="filter1_f_388_4870" x="33" y="18.8462" width="176.885" height="32.9231" filterUnits="userSpaceOnUse" color-interpolation-filters="sRGB">
<feFlood flood-opacity="0" result="BackgroundImageFix"/>
<feBlend mode="normal" in="SourceGraphic" in2="BackgroundImageFix" result="shape"/>
<feGaussianBlur stdDeviation="2" result="effect1_foregroundBlur_388_4870"/>
</filter>
</defs>
</svg>
