<svg width="304" height="115" viewBox="0 0 304 115" fill="none" xmlns="http://www.w3.org/2000/svg">
<g filter="url(#filter0_f_390_7778)">
<path d="M24.3879 6.42264L5.16553 25.8708L5.89884 61.6615L24.7386 80.9917L62.6706 82.0194V109.326L66.7341 109.365L93.6538 82.1171L277.589 82.0194L296.453 62.6996L296.897 24.5457L278.332 5.93567L24.3879 6.42264Z" fill="#FFC9DF"/>
<rect x="92.7891" y="78.4085" width="188.202" height="4.60259" fill="#FF83B5"/>
<rect x="22.2134" y="78.4085" width="42.4972" height="4.60259" fill="#FF83B5"/>
<rect width="32.2181" height="4.55327" transform="matrix(0 -1 -1 0 65.4692 110.627)" fill="#FF83B5"/>
<rect x="22.2134" y="4" width="258.778" height="4.60259" fill="#FF83B5"/>
<rect x="280.991" y="73.8059" width="4.55327" height="4.60259" fill="#FF83B5"/>
<rect x="285.544" y="69.2033" width="4.55327" height="4.60259" fill="#FF83B5"/>
<rect x="290.098" y="64.6008" width="4.55327" height="4.60259" fill="#FF83B5"/>
<rect width="4.55327" height="4.60259" transform="matrix(-1 0 0 1 294.651 17.8077)" fill="#FF83B5"/>
<rect width="4.55327" height="4.60259" transform="matrix(-1 0 0 1 290.098 13.2051)" fill="#FF83B5"/>
<rect width="4.55327" height="4.60259" transform="matrix(-1 0 0 1 285.544 8.60265)" fill="#FF83B5"/>
<rect x="8.55371" y="17.8077" width="4.55327" height="4.60259" fill="#FF83B5"/>
<rect x="13.1064" y="13.2051" width="4.55327" height="4.60259" fill="#FF83B5"/>
<rect x="17.6602" y="8.60265" width="4.55327" height="4.60259" fill="#FF83B5"/>
<rect width="4.55327" height="4.60259" transform="matrix(1 0 0 -1 8.55371 69.2033)" fill="#FF83B5"/>
<rect width="4.55327" height="4.60259" transform="matrix(1 0 0 -1 13.1064 73.8059)" fill="#FF83B5"/>
<rect width="4.55327" height="4.60259" transform="matrix(1 0 0 -1 17.6602 78.4085)" fill="#FF83B5"/>
<rect x="92.7891" y="87.6137" width="4.55327" height="4.60259" transform="rotate(180 92.7891 87.6137)" fill="#FF83B5"/>
<rect x="88.2358" y="92.2164" width="4.55327" height="4.60259" transform="rotate(180 88.2358 92.2164)" fill="#FF83B5"/>
<rect x="83.6826" y="96.819" width="4.55327" height="4.60259" transform="rotate(180 83.6826 96.819)" fill="#FF83B5"/>
<rect x="79.1294" y="101.422" width="4.55327" height="4.60259" transform="rotate(180 79.1294 101.422)" fill="#FF83B5"/>
<rect x="74.5757" y="106.024" width="4.55327" height="4.60259" transform="rotate(180 74.5757 106.024)" fill="#FF83B5"/>
<rect x="70.0229" y="110.627" width="4.55327" height="4.60259" transform="rotate(180 70.0229 110.627)" fill="#FF83B5"/>
<rect x="294.651" y="22.4103" width="4.55327" height="42.1904" fill="#FF83B5"/>
<rect x="4" y="22.4103" width="4.55327" height="42.1904" fill="#FF83B5"/>
</g>
<g filter="url(#filter1_f_390_7778)">
<path d="M86.1543 52.3736H83.385V49.6044H80.6158V46.8351H77.8466V55.1428H72.3081V32.989H77.8466V41.2967H80.6158V38.5274H83.385V35.7582H86.1543V32.989H91.6927V35.7582H88.9235V38.5274H86.1543V41.2967H83.385V46.8351H86.1543V49.6044H88.9235V52.3736H91.6927V55.1428H86.1543V52.3736ZM111.072 41.2967V55.1428H105.533V52.3736H102.764V49.6044H105.533V46.8351H99.995V52.3736H102.764V55.1428H97.2258V52.3736H94.4565V46.8351H97.2258V44.0659H105.533V41.2967H97.2258V38.5274H108.303V41.2967H111.072ZM113.828 55.1428V38.5274H119.366V41.2967H122.135V38.5274H127.674V41.2967H124.905V44.0659H122.135V46.8351H124.905V49.6044H127.674V52.3736H130.443V55.1428H124.905V52.3736H122.135V49.6044H119.366V55.1428H113.828ZM138.753 57.9121V52.3736H141.523V46.8351H144.292V38.5274H160.907V57.9121H155.369V55.1428H144.292V57.9121H138.753ZM155.369 41.2967H149.83V46.8351H147.061V52.3736H155.369V41.2967ZM177.525 52.3736V55.1428H166.448V52.3736H163.679V41.2967H166.448V38.5274H177.525V41.2967H180.295V46.8351H169.218V52.3736H174.756V49.6044H180.295V52.3736H177.525ZM174.756 41.2967H169.218V44.0659H174.756V41.2967ZM199.666 41.2967H194.127V52.3736H191.358V55.1428H185.82V52.3736H188.589V38.5274H205.204V55.1428H199.666V41.2967ZM183.05 52.3736V49.6044H185.82V52.3736H183.05ZM224.591 41.2967V55.1428H219.053V52.3736H216.284V49.6044H219.053V46.8351H213.515V52.3736H216.284V55.1428H210.745V52.3736H207.976V46.8351H210.745V44.0659H219.053V41.2967H210.745V38.5274H221.822V41.2967H224.591ZM241.193 35.7582V41.2967H238.424V44.0659H235.655V49.6044H230.116V44.0659H232.886V41.2967H235.655V35.7582H227.347V32.989H238.424V35.7582H241.193ZM230.116 55.1428V52.3736H235.655V55.1428H230.116Z" fill="white"/>
</g>
<defs>
<filter id="filter0_f_390_7778" x="0" y="0" width="303.204" height="114.627" filterUnits="userSpaceOnUse" color-interpolation-filters="sRGB">
<feFlood flood-opacity="0" result="BackgroundImageFix"/>
<feBlend mode="normal" in="SourceGraphic" in2="BackgroundImageFix" result="shape"/>
<feGaussianBlur stdDeviation="2" result="effect1_foregroundBlur_390_7778"/>
</filter>
<filter id="filter1_f_390_7778" x="68.3081" y="28.989" width="176.885" height="32.9231" filterUnits="userSpaceOnUse" color-interpolation-filters="sRGB">
<feFlood flood-opacity="0" result="BackgroundImageFix"/>
<feBlend mode="normal" in="SourceGraphic" in2="BackgroundImageFix" result="shape"/>
<feGaussianBlur stdDeviation="2" result="effect1_foregroundBlur_390_7778"/>
</filter>
</defs>
</svg>
