<svg width="234" height="92" viewBox="0 0 234 92" fill="none" xmlns="http://www.w3.org/2000/svg">
<g filter="url(#filter0_f_390_7777)">
<path d="M19.4399 5.89083L4.88232 21.0699L5.43768 49.0041L19.7054 64.0911L48.4322 64.8932V86.2058L51.5096 86.2362L71.8965 64.9695L211.195 64.8932L225.481 49.8143L225.817 20.0357L211.757 5.51076L19.4399 5.89083Z" fill="#90FF92"/>
<rect x="71.2417" y="62.0749" width="142.53" height="3.59227" fill="#90FF92"/>
<rect x="17.7935" y="62.0749" width="32.1841" height="3.59227" fill="#90FF92"/>
<rect width="25.1459" height="3.4483" transform="matrix(0 -1 -1 0 50.5522 87.2208)" fill="#90FF92"/>
<rect x="17.7935" y="4" width="195.978" height="3.59227" fill="#90FF92"/>
<rect x="213.771" y="58.4827" width="3.4483" height="3.59227" fill="#90FF92"/>
<rect x="217.22" y="54.8904" width="3.4483" height="3.59227" fill="#90FF92"/>
<rect x="220.668" y="51.2982" width="3.4483" height="3.59227" fill="#90FF92"/>
<rect width="3.4483" height="3.59227" transform="matrix(-1 0 0 1 224.116 14.7767)" fill="#90FF92"/>
<rect width="3.4483" height="3.59227" transform="matrix(-1 0 0 1 220.668 11.1845)" fill="#90FF92"/>
<rect width="3.4483" height="3.59227" transform="matrix(-1 0 0 1 217.22 7.59231)" fill="#90FF92"/>
<rect x="7.44824" y="14.7767" width="3.4483" height="3.59227" fill="#90FF92"/>
<rect x="10.8965" y="11.1845" width="3.4483" height="3.59227" fill="#90FF92"/>
<rect x="14.3447" y="7.59231" width="3.4483" height="3.59227" fill="#90FF92"/>
<rect width="3.4483" height="3.59227" transform="matrix(1 0 0 -1 7.44824 54.8904)" fill="#90FF92"/>
<rect width="3.4483" height="3.59227" transform="matrix(1 0 0 -1 10.8965 58.4827)" fill="#90FF92"/>
<rect width="3.4483" height="3.59227" transform="matrix(1 0 0 -1 14.3447 62.0749)" fill="#90FF92"/>
<rect x="71.2417" y="69.2596" width="3.4483" height="3.59227" transform="rotate(180 71.2417 69.2596)" fill="#90FF92"/>
<rect x="67.7935" y="72.8518" width="3.4483" height="3.59227" transform="rotate(180 67.7935 72.8518)" fill="#90FF92"/>
<rect x="64.3452" y="76.444" width="3.4483" height="3.59227" transform="rotate(180 64.3452 76.444)" fill="#90FF92"/>
<rect x="60.897" y="80.0363" width="3.4483" height="3.59227" transform="rotate(180 60.897 80.0363)" fill="#90FF92"/>
<rect x="57.4487" y="83.6285" width="3.4483" height="3.59227" transform="rotate(180 57.4487 83.6285)" fill="#90FF92"/>
<rect x="54.001" y="87.2208" width="3.4483" height="3.59227" transform="rotate(180 54.001 87.2208)" fill="#90FF92"/>
<rect x="224.116" y="18.369" width="3.4483" height="32.9291" fill="#90FF92"/>
<rect x="4" y="18.369" width="3.4483" height="32.9291" fill="#90FF92"/>
</g>
<g filter="url(#filter1_f_390_7777)">
<path d="M70.9429 31.0546H83.4044V33.1316H79.2506V43.5162H75.0967V33.1316H70.9429V31.0546ZM85.4712 43.5162V31.0546H89.625V35.2085H93.7789V37.2854H95.8558V41.4393H93.7789V43.5162H85.4712ZM91.702 37.2854H89.625V41.4393H91.702V37.2854ZM102.087 31.0546V43.5162H97.9327V31.0546H102.087ZM110.388 43.5162V31.0546H114.542V33.1316H116.619V31.0546H120.773V33.1316H118.696V35.2085H116.619V37.2854H118.696V39.3623H120.773V41.4393H122.85V43.5162H118.696V41.4393H116.619V39.3623H114.542V43.5162H110.388ZM122.86 31.0546H135.321V33.1316H131.168V43.5162H127.014V33.1316H122.86V31.0546ZM147.773 41.4393V43.5162H139.465V41.4393H137.388V33.1316H139.465V31.0546H147.773V33.1316H149.85V41.4393H147.773ZM145.696 41.4393V33.1316H141.542V41.4393H145.696ZM162.301 28.9777V33.1316H160.224V35.2085H158.147V39.3623H153.993V35.2085H156.07V33.1316H158.147V28.9777H151.917V26.9008H160.224V28.9777H162.301ZM153.993 43.5162V41.4393H158.147V43.5162H153.993Z" fill="black"/>
</g>
<defs>
<filter id="filter0_f_390_7777" x="0" y="0" width="231.564" height="91.2208" filterUnits="userSpaceOnUse" color-interpolation-filters="sRGB">
<feFlood flood-opacity="0" result="BackgroundImageFix"/>
<feBlend mode="normal" in="SourceGraphic" in2="BackgroundImageFix" result="shape"/>
<feGaussianBlur stdDeviation="2" result="effect1_foregroundBlur_390_7777"/>
</filter>
<filter id="filter1_f_390_7777" x="66.9429" y="22.9008" width="99.3584" height="24.6154" filterUnits="userSpaceOnUse" color-interpolation-filters="sRGB">
<feFlood flood-opacity="0" result="BackgroundImageFix"/>
<feBlend mode="normal" in="SourceGraphic" in2="BackgroundImageFix" result="shape"/>
<feGaussianBlur stdDeviation="2" result="effect1_foregroundBlur_390_7777"/>
</filter>
</defs>
</svg>
