<svg width="232" height="92" viewBox="0 0 232 92" fill="none" xmlns="http://www.w3.org/2000/svg">
<g filter="url(#filter0_f_390_7781)">
<path d="M19.4403 5.89085L4.88281 21.0699L5.43817 49.0041L19.7059 64.0911L48.4327 64.8932V86.2058L51.5101 86.2362L71.8969 64.9695L211.195 64.8932L225.481 49.8143L225.817 20.0357L211.758 5.51078L19.4403 5.89085Z" fill="#00FF04"/>
<rect x="71.2417" y="62.0749" width="142.53" height="3.59227" fill="#577458"/>
<rect x="17.7935" y="62.0749" width="32.1841" height="3.59227" fill="#577458"/>
<rect width="25.1459" height="3.4483" transform="matrix(0 -1 -1 0 50.5522 87.2208)" fill="#577458"/>
<rect x="17.7935" y="4" width="195.978" height="3.59227" fill="#577458"/>
<rect x="213.771" y="58.4827" width="3.4483" height="3.59227" fill="#577458"/>
<rect x="217.22" y="54.8904" width="3.4483" height="3.59227" fill="#577458"/>
<rect x="220.668" y="51.2982" width="3.4483" height="3.59227" fill="#577458"/>
<rect width="3.4483" height="3.59227" transform="matrix(-1 0 0 1 224.117 14.7767)" fill="#577458"/>
<rect width="3.4483" height="3.59227" transform="matrix(-1 0 0 1 220.668 11.1845)" fill="#577458"/>
<rect width="3.4483" height="3.59227" transform="matrix(-1 0 0 1 217.22 7.59231)" fill="#577458"/>
<rect x="7.44873" y="14.7767" width="3.4483" height="3.59227" fill="#577458"/>
<rect x="10.8965" y="11.1845" width="3.4483" height="3.59227" fill="#577458"/>
<rect x="14.3447" y="7.59231" width="3.4483" height="3.59227" fill="#577458"/>
<rect width="3.4483" height="3.59227" transform="matrix(1 0 0 -1 7.44873 54.8904)" fill="#577458"/>
<rect width="3.4483" height="3.59227" transform="matrix(1 0 0 -1 10.8965 58.4827)" fill="#577458"/>
<rect width="3.4483" height="3.59227" transform="matrix(1 0 0 -1 14.3447 62.0749)" fill="#577458"/>
<rect x="71.2417" y="69.2596" width="3.4483" height="3.59227" transform="rotate(180 71.2417 69.2596)" fill="#577458"/>
<rect x="67.7939" y="72.8518" width="3.4483" height="3.59227" transform="rotate(180 67.7939 72.8518)" fill="#577458"/>
<rect x="64.3452" y="76.4441" width="3.4483" height="3.59227" transform="rotate(180 64.3452 76.4441)" fill="#577458"/>
<rect x="60.8975" y="80.0363" width="3.4483" height="3.59227" transform="rotate(180 60.8975 80.0363)" fill="#577458"/>
<rect x="57.4487" y="83.6285" width="3.4483" height="3.59227" transform="rotate(180 57.4487 83.6285)" fill="#577458"/>
<rect x="54.001" y="87.2208" width="3.4483" height="3.59227" transform="rotate(180 54.001 87.2208)" fill="#577458"/>
<rect x="224.117" y="18.3691" width="3.4483" height="32.9291" fill="#577458"/>
<rect x="4" y="18.3691" width="3.4483" height="32.9291" fill="#577458"/>
</g>
<g filter="url(#filter1_f_390_7781)">
<path d="M65.3846 39.9231H63.3077V37.8462H61.2308V35.7692H59.1538V42H55V25.3846H59.1538V31.6154H61.2308V29.5385H63.3077V27.4615H65.3846V25.3846H69.5385V27.4615H67.4615V29.5385H65.3846V31.6154H63.3077V35.7692H65.3846V37.8462H67.4615V39.9231H69.5385V42H65.3846V39.9231ZM84.0729 31.6154V42H79.919V39.9231H77.8421V37.8462H79.919V35.7692H75.7652V39.9231H77.8421V42H73.6883V39.9231H71.6113V35.7692H73.6883V33.6923H79.919V31.6154H73.6883V29.5385H81.9959V31.6154H84.0729ZM86.1396 42V29.5385H90.2935V31.6154H92.3704V29.5385H96.5243V31.6154H94.4473V33.6923H92.3704V35.7692H94.4473V37.8462H96.5243V39.9231H98.6012V42H94.4473V39.9231H92.3704V37.8462H90.2935V42H86.1396ZM104.834 44.0769V39.9231H106.911V35.7692H108.988V29.5385H121.449V44.0769H117.296V42H108.988V44.0769H104.834ZM117.296 31.6154H113.142V35.7692H111.065V39.9231H117.296V31.6154ZM133.913 39.9231V42H125.605V39.9231H123.528V31.6154H125.605V29.5385H133.913V31.6154H135.99V35.7692H127.682V39.9231H131.836V37.8462H135.99V39.9231H133.913ZM131.836 31.6154H127.682V33.6923H131.836V31.6154ZM150.518 31.6154H146.364V39.9231H144.287V42H140.134V39.9231H142.21V29.5385H154.672V42H150.518V31.6154ZM138.057 39.9231V37.8462H140.134V39.9231H138.057ZM169.213 31.6154V42H165.059V39.9231H162.982V37.8462H165.059V35.7692H160.905V39.9231H162.982V42H158.828V39.9231H156.751V35.7692H158.828V33.6923H165.059V31.6154H158.828V29.5385H167.136V31.6154H169.213ZM181.664 27.4615V31.6154H179.587V33.6923H177.51V37.8462H173.356V33.6923H175.433V31.6154H177.51V27.4615H171.279V25.3846H179.587V27.4615H181.664ZM173.356 42V39.9231H177.51V42H173.356Z" fill="white"/>
</g>
<defs>
<filter id="filter0_f_390_7781" x="0" y="0" width="231.565" height="91.2208" filterUnits="userSpaceOnUse" color-interpolation-filters="sRGB">
<feFlood flood-opacity="0" result="BackgroundImageFix"/>
<feBlend mode="normal" in="SourceGraphic" in2="BackgroundImageFix" result="shape"/>
<feGaussianBlur stdDeviation="2" result="effect1_foregroundBlur_390_7781"/>
</filter>
<filter id="filter1_f_390_7781" x="51" y="21.3846" width="134.664" height="26.6923" filterUnits="userSpaceOnUse" color-interpolation-filters="sRGB">
<feFlood flood-opacity="0" result="BackgroundImageFix"/>
<feBlend mode="normal" in="SourceGraphic" in2="BackgroundImageFix" result="shape"/>
<feGaussianBlur stdDeviation="2" result="effect1_foregroundBlur_390_7781"/>
</filter>
</defs>
</svg>
