<svg width="232" height="92" viewBox="0 0 232 92" fill="none" xmlns="http://www.w3.org/2000/svg">
<g filter="url(#filter0_f_390_7782)">
<path d="M19.4399 5.89084L4.88232 21.0699L5.43768 49.0041L19.7054 64.0911L48.4322 64.8932V86.2058L51.5096 86.2362L71.8965 64.9695L211.195 64.8932L225.481 49.8143L225.817 20.0357L211.757 5.51077L19.4399 5.89084Z" fill="#FF9BC3"/>
<rect x="71.2417" y="62.0749" width="142.53" height="3.59227" fill="#C80050"/>
<rect x="17.793" y="62.0749" width="32.1841" height="3.59227" fill="#C80050"/>
<rect width="25.1459" height="3.4483" transform="matrix(0 -1 -1 0 50.5518 87.2208)" fill="#C80050"/>
<rect x="17.793" y="4" width="195.978" height="3.59227" fill="#C80050"/>
<rect x="213.771" y="58.4827" width="3.4483" height="3.59227" fill="#C80050"/>
<rect x="217.22" y="54.8904" width="3.4483" height="3.59227" fill="#C80050"/>
<rect x="220.668" y="51.2982" width="3.4483" height="3.59227" fill="#C80050"/>
<rect width="3.4483" height="3.59227" transform="matrix(-1 0 0 1 224.117 14.7767)" fill="#C80050"/>
<rect width="3.4483" height="3.59227" transform="matrix(-1 0 0 1 220.668 11.1845)" fill="#C80050"/>
<rect width="3.4483" height="3.59227" transform="matrix(-1 0 0 1 217.22 7.59232)" fill="#C80050"/>
<rect x="7.44873" y="14.7767" width="3.4483" height="3.59227" fill="#C80050"/>
<rect x="10.8965" y="11.1845" width="3.4483" height="3.59227" fill="#C80050"/>
<rect x="14.3442" y="7.59232" width="3.4483" height="3.59227" fill="#C80050"/>
<rect width="3.4483" height="3.59227" transform="matrix(1 0 0 -1 7.44873 54.8904)" fill="#C80050"/>
<rect width="3.4483" height="3.59227" transform="matrix(1 0 0 -1 10.8965 58.4827)" fill="#C80050"/>
<rect width="3.4483" height="3.59227" transform="matrix(1 0 0 -1 14.3442 62.0749)" fill="#C80050"/>
<rect x="71.2417" y="69.2595" width="3.4483" height="3.59227" transform="rotate(180 71.2417 69.2595)" fill="#C80050"/>
<rect x="67.7935" y="72.8518" width="3.4483" height="3.59227" transform="rotate(180 67.7935 72.8518)" fill="#C80050"/>
<rect x="64.3447" y="76.444" width="3.4483" height="3.59227" transform="rotate(180 64.3447 76.444)" fill="#C80050"/>
<rect x="60.897" y="80.0363" width="3.4483" height="3.59227" transform="rotate(180 60.897 80.0363)" fill="#C80050"/>
<rect x="57.4482" y="83.6285" width="3.4483" height="3.59227" transform="rotate(180 57.4482 83.6285)" fill="#C80050"/>
<rect x="54.0005" y="87.2208" width="3.4483" height="3.59227" transform="rotate(180 54.0005 87.2208)" fill="#C80050"/>
<rect x="224.117" y="18.369" width="3.4483" height="32.9291" fill="#C80050"/>
<rect x="4" y="18.369" width="3.4483" height="32.9291" fill="#C80050"/>
</g>
<g filter="url(#filter1_f_390_7782)">
<path d="M60.7617 28.1762H76.454V30.7915H71.2233V43.8685H65.9925V30.7915H60.7617V28.1762ZM79.0566 43.8685V28.1762H84.2874V33.4069H89.5182V36.0223H92.1336V41.2531H89.5182V43.8685H79.0566ZM86.9028 36.0223H84.2874V41.2531H86.9028V36.0223ZM99.9797 28.1762V43.8685H94.7489V28.1762H99.9797ZM110.434 43.8685V28.1762H115.664V30.7915H118.28V28.1762H123.511V30.7915H120.895V33.4069H118.28V36.0223H120.895V38.6377H123.511V41.2531H126.126V43.8685H120.895V41.2531H118.28V38.6377H115.664V43.8685H110.434ZM126.139 28.1762H141.831V30.7915H136.6V43.8685H131.369V30.7915H126.139V28.1762ZM157.511 41.2531V43.8685H147.049V41.2531H144.434V30.7915H147.049V28.1762H157.511V30.7915H160.126V41.2531H157.511ZM154.895 41.2531V30.7915H149.664V41.2531H154.895ZM175.805 25.5608V30.7915H173.19V33.4069H170.575V38.6377H165.344V33.4069H167.959V30.7915H170.575V25.5608H162.729V22.9454H173.19V25.5608H175.805ZM165.344 43.8685V41.2531H170.575V43.8685H165.344Z" fill="white"/>
</g>
<defs>
<filter id="filter0_f_390_7782" x="0" y="0" width="231.565" height="91.2208" filterUnits="userSpaceOnUse" color-interpolation-filters="sRGB">
<feFlood flood-opacity="0" result="BackgroundImageFix"/>
<feBlend mode="normal" in="SourceGraphic" in2="BackgroundImageFix" result="shape"/>
<feGaussianBlur stdDeviation="2" result="effect1_foregroundBlur_390_7782"/>
</filter>
<filter id="filter1_f_390_7782" x="56.7617" y="18.9454" width="123.044" height="28.9231" filterUnits="userSpaceOnUse" color-interpolation-filters="sRGB">
<feFlood flood-opacity="0" result="BackgroundImageFix"/>
<feBlend mode="normal" in="SourceGraphic" in2="BackgroundImageFix" result="shape"/>
<feGaussianBlur stdDeviation="2" result="effect1_foregroundBlur_390_7782"/>
</filter>
</defs>
</svg>
