<svg width="189" height="72" viewBox="0 0 189 72" fill="none" xmlns="http://www.w3.org/2000/svg">
<g filter="url(#filter0_f_388_4874)">
<path d="M16.5003 5.45413L4.71436 17.1274L5.16398 38.6099L16.7153 50.2124L39.9728 50.8292V67.2194L42.4643 67.2428L58.9697 50.8879L171.747 50.8292L183.313 39.233L183.585 16.3321L172.202 5.16185L16.5003 5.45413Z" fill="#FF9BC3"/>
<rect x="58.4395" y="48.6619" width="115.393" height="2.76259" fill="#C80050"/>
<rect x="15.167" y="48.6619" width="26.0566" height="2.76259" fill="#C80050"/>
<rect width="19.3381" height="2.79177" transform="matrix(0 -1 -1 0 41.689 68)" fill="#C80050"/>
<rect x="15.167" y="4" width="158.666" height="2.76259" fill="#C80050"/>
<rect x="173.833" y="45.8993" width="2.79177" height="2.76259" fill="#C80050"/>
<rect x="176.625" y="43.1367" width="2.79177" height="2.76259" fill="#C80050"/>
<rect x="179.417" y="40.3741" width="2.79177" height="2.76259" fill="#C80050"/>
<rect width="2.79177" height="2.76259" transform="matrix(-1 0 0 1 182.208 12.2877)" fill="#C80050"/>
<rect width="2.79177" height="2.76259" transform="matrix(-1 0 0 1 179.417 9.52515)" fill="#C80050"/>
<rect width="2.79177" height="2.76259" transform="matrix(-1 0 0 1 176.625 6.76263)" fill="#C80050"/>
<rect x="6.79175" y="12.2877" width="2.79177" height="2.76259" fill="#C80050"/>
<rect x="9.5835" y="9.52515" width="2.79177" height="2.76259" fill="#C80050"/>
<rect x="12.3752" y="6.76263" width="2.79177" height="2.76259" fill="#C80050"/>
<rect width="2.79177" height="2.76259" transform="matrix(1 0 0 -1 6.79175 43.1367)" fill="#C80050"/>
<rect width="2.79177" height="2.76259" transform="matrix(1 0 0 -1 9.5835 45.8993)" fill="#C80050"/>
<rect width="2.79177" height="2.76259" transform="matrix(1 0 0 -1 12.3752 48.6619)" fill="#C80050"/>
<rect x="58.4395" y="54.1871" width="2.79177" height="2.76259" transform="rotate(180 58.4395 54.1871)" fill="#C80050"/>
<rect x="55.6479" y="56.9497" width="2.79177" height="2.76259" transform="rotate(180 55.6479 56.9497)" fill="#C80050"/>
<rect x="52.8562" y="59.7123" width="2.79177" height="2.76259" transform="rotate(180 52.8562 59.7123)" fill="#C80050"/>
<rect x="50.0642" y="62.4749" width="2.79177" height="2.76259" transform="rotate(180 50.0642 62.4749)" fill="#C80050"/>
<rect x="47.2725" y="65.2374" width="2.79177" height="2.76259" transform="rotate(180 47.2725 65.2374)" fill="#C80050"/>
<rect x="44.4807" y="68" width="2.79177" height="2.76259" transform="rotate(180 44.4807 68)" fill="#C80050"/>
<rect x="182.208" y="15.0504" width="2.79177" height="25.3238" fill="#C80050"/>
<rect x="4" y="15.0504" width="2.79177" height="25.3238" fill="#C80050"/>
</g>
<g filter="url(#filter1_f_388_4874)">
<path d="M49 21.5385H61.4615V23.6154H57.3077V34H53.1538V23.6154H49V21.5385ZM63.5283 34V21.5385H67.6822V25.6923H71.836V27.7692H73.9129V31.9231H71.836V34H63.5283ZM69.7591 27.7692H67.6822V31.9231H69.7591V27.7692ZM80.1437 21.5385V34H75.9899V21.5385H80.1437ZM88.4453 34V21.5385H92.5992V23.6154H94.6761V21.5385H98.8299V23.6154H96.753V25.6923H94.6761V27.7692H96.753V29.8462H98.8299V31.9231H100.907V34H96.753V31.9231H94.6761V29.8462H92.5992V34H88.4453ZM100.917 21.5385H113.379V23.6154H109.225V34H105.071V23.6154H100.917V21.5385ZM125.83 31.9231V34H117.522V31.9231H115.445V23.6154H117.522V21.5385H125.83V23.6154H127.907V31.9231H125.83ZM123.753 31.9231V23.6154H119.599V31.9231H123.753ZM140.358 19.4615V23.6154H138.281V25.6923H136.204V29.8462H132.051V25.6923H134.127V23.6154H136.204V19.4615H129.974V17.3846H138.281V19.4615H140.358ZM132.051 34V31.9231H136.204V34H132.051Z" fill="white"/>
</g>
<defs>
<filter id="filter0_f_388_4874" x="0" y="0" width="189" height="72" filterUnits="userSpaceOnUse" color-interpolation-filters="sRGB">
<feFlood flood-opacity="0" result="BackgroundImageFix"/>
<feBlend mode="normal" in="SourceGraphic" in2="BackgroundImageFix" result="shape"/>
<feGaussianBlur stdDeviation="2" result="effect1_foregroundBlur_388_4874"/>
</filter>
<filter id="filter1_f_388_4874" x="45" y="13.3846" width="99.3582" height="24.6154" filterUnits="userSpaceOnUse" color-interpolation-filters="sRGB">
<feFlood flood-opacity="0" result="BackgroundImageFix"/>
<feBlend mode="normal" in="SourceGraphic" in2="BackgroundImageFix" result="shape"/>
<feGaussianBlur stdDeviation="2" result="effect1_foregroundBlur_388_4874"/>
</filter>
</defs>
</svg>
