<svg width="296" height="107" viewBox="0 0 296 107" fill="none" xmlns="http://www.w3.org/2000/svg">
<path d="M274.817 2.42262L294.04 21.8708L293.306 57.6614L274.467 76.9917L236.534 78.0194V105.326L232.471 105.365L205.551 78.1171L21.6161 78.0194L2.75204 58.6996L2.3085 20.5457L20.873 1.93566L274.817 2.42262Z" fill="#00FF04"/>
<rect width="188.202" height="4.60259" transform="matrix(-1 0 0 1 206.416 74.4085)" fill="#007F02"/>
<rect width="42.4972" height="4.60259" transform="matrix(-1 0 0 1 276.991 74.4085)" fill="#007F02"/>
<rect x="233.735" y="106.627" width="32.2181" height="4.55327" transform="rotate(-90 233.735 106.627)" fill="#007F02"/>
<rect width="258.778" height="4.60259" transform="matrix(-1 0 0 1 276.991 0)" fill="#007F02"/>
<rect width="4.55327" height="4.60259" transform="matrix(-1 0 0 1 18.2139 69.8059)" fill="#007F02"/>
<rect width="4.55327" height="4.60259" transform="matrix(-1 0 0 1 13.6606 65.2033)" fill="#007F02"/>
<rect width="4.55327" height="4.60259" transform="matrix(-1 0 0 1 9.10693 60.6008)" fill="#007F02"/>
<rect x="4.55322" y="13.8077" width="4.55327" height="4.60259" fill="#007F02"/>
<rect x="9.10693" y="9.20514" width="4.55327" height="4.60259" fill="#007F02"/>
<rect x="13.6606" y="4.60266" width="4.55327" height="4.60259" fill="#007F02"/>
<rect width="4.55327" height="4.60259" transform="matrix(-1 0 0 1 290.651 13.8077)" fill="#007F02"/>
<rect width="4.55327" height="4.60259" transform="matrix(-1 0 0 1 286.098 9.20514)" fill="#007F02"/>
<rect width="4.55327" height="4.60259" transform="matrix(-1 0 0 1 281.545 4.60266)" fill="#007F02"/>
<rect x="290.651" y="65.2033" width="4.55327" height="4.60259" transform="rotate(180 290.651 65.2033)" fill="#007F02"/>
<rect x="286.098" y="69.8059" width="4.55327" height="4.60259" transform="rotate(180 286.098 69.8059)" fill="#007F02"/>
<rect x="281.545" y="74.4085" width="4.55327" height="4.60259" transform="rotate(180 281.545 74.4085)" fill="#007F02"/>
<rect width="4.55327" height="4.60259" transform="matrix(1 0 0 -1 206.416 83.6137)" fill="#007F02"/>
<rect width="4.55327" height="4.60259" transform="matrix(1 0 0 -1 210.968 88.2164)" fill="#007F02"/>
<rect width="4.55327" height="4.60259" transform="matrix(1 0 0 -1 215.521 92.819)" fill="#007F02"/>
<rect width="4.55327" height="4.60259" transform="matrix(1 0 0 -1 220.076 97.4215)" fill="#007F02"/>
<rect width="4.55327" height="4.60259" transform="matrix(1 0 0 -1 224.629 102.024)" fill="#007F02"/>
<rect width="4.55327" height="4.60259" transform="matrix(1 0 0 -1 229.182 106.627)" fill="#007F02"/>
<rect width="4.55327" height="42.1904" transform="matrix(-1 0 0 1 4.55322 18.4104)" fill="#007F02"/>
<rect width="4.55327" height="42.1904" transform="matrix(-1 0 0 1 295.205 18.4103)" fill="#007F02"/>
<path d="M73.0225 54.0892V26.3969H90.3302V29.8585H93.7917V40.2431H90.3302V47.1662H93.7917V54.0892H86.8686V47.1662H83.4071V43.7046H79.9455V54.0892H73.0225ZM86.8686 29.8585H79.9455V40.2431H86.8686V29.8585ZM114.544 29.8585H107.621V33.32H111.082V36.7815H107.621V54.0892H100.698V36.7815H97.2363V33.32H100.698V29.8585H104.159V26.3969H114.544V29.8585ZM114.551 54.0892V33.32H121.474V36.7815H124.935V40.2431H121.474V54.0892H114.551ZM131.858 36.7815H124.935V33.32H131.858V36.7815ZM145.708 54.0892V26.3969H152.631V54.0892H145.708ZM173.387 50.6277V54.0892H163.002V50.6277H159.541V36.7815H156.079V33.32H159.541V26.3969H166.464V33.32H169.925V36.7815H166.464V50.6277H173.387ZM173.394 54.0892V26.3969H180.317V36.7815H183.778V33.32H190.701V36.7815H187.24V40.2431H183.778V43.7046H187.24V47.1662H190.701V50.6277H194.163V54.0892H187.24V50.6277H183.778V47.1662H180.317V54.0892H173.394ZM214.915 29.8585H207.992V33.32H211.454V36.7815H207.992V54.0892H201.069V36.7815H197.607V33.32H201.069V29.8585H204.53V26.3969H214.915V29.8585ZM232.23 29.8585V36.7815H228.768V40.2431H225.306V47.1662H218.383V40.2431H221.845V36.7815H225.306V29.8585H214.922V26.3969H228.768V29.8585H232.23ZM218.383 54.0892V50.6277H225.306V54.0892H218.383Z" fill="black"/>
</svg>
