<svg width="224" height="84" viewBox="0 0 224 84" fill="none" xmlns="http://www.w3.org/2000/svg">
<path d="M15.4399 1.89083L0.882324 17.0699L1.43768 45.0041L15.7054 60.0911L44.4322 60.8932V82.2058L47.5096 82.2362L67.8965 60.9695L207.195 60.8932L221.481 45.8143L221.817 16.0357L207.757 1.51076L15.4399 1.89083Z" fill="#00FF04"/>
<rect x="67.2412" y="58.0749" width="142.53" height="3.59227" fill="#577458"/>
<rect x="13.793" y="58.0749" width="32.1841" height="3.59227" fill="#577458"/>
<rect width="25.1459" height="3.4483" transform="matrix(0 -1 -1 0 46.5522 83.2208)" fill="#577458"/>
<rect x="13.793" width="195.978" height="3.59227" fill="#577458"/>
<rect x="209.771" y="54.4827" width="3.4483" height="3.59227" fill="#577458"/>
<rect x="213.22" y="50.8904" width="3.4483" height="3.59227" fill="#577458"/>
<rect x="216.667" y="47.2982" width="3.4483" height="3.59227" fill="#577458"/>
<rect width="3.4483" height="3.59227" transform="matrix(-1 0 0 1 220.116 10.7767)" fill="#577458"/>
<rect width="3.4483" height="3.59227" transform="matrix(-1 0 0 1 216.667 7.18449)" fill="#577458"/>
<rect width="3.4483" height="3.59227" transform="matrix(-1 0 0 1 213.22 3.5923)" fill="#577458"/>
<rect x="3.44824" y="10.7767" width="3.4483" height="3.59227" fill="#577458"/>
<rect x="6.896" y="7.18449" width="3.4483" height="3.59227" fill="#577458"/>
<rect x="10.3447" y="3.5923" width="3.4483" height="3.59227" fill="#577458"/>
<rect width="3.4483" height="3.59227" transform="matrix(1 0 0 -1 3.44824 50.8904)" fill="#577458"/>
<rect width="3.4483" height="3.59227" transform="matrix(1 0 0 -1 6.896 54.4827)" fill="#577458"/>
<rect width="3.4483" height="3.59227" transform="matrix(1 0 0 -1 10.3447 58.0749)" fill="#577458"/>
<rect x="67.2412" y="65.2595" width="3.4483" height="3.59227" transform="rotate(180 67.2412 65.2595)" fill="#577458"/>
<rect x="63.7935" y="68.8518" width="3.4483" height="3.59227" transform="rotate(180 63.7935 68.8518)" fill="#577458"/>
<rect x="60.3452" y="72.444" width="3.4483" height="3.59227" transform="rotate(180 60.3452 72.444)" fill="#577458"/>
<rect x="56.897" y="76.0363" width="3.4483" height="3.59227" transform="rotate(180 56.897 76.0363)" fill="#577458"/>
<rect x="53.4487" y="79.6285" width="3.4483" height="3.59227" transform="rotate(180 53.4487 79.6285)" fill="#577458"/>
<rect x="50.0005" y="83.2208" width="3.4483" height="3.59227" transform="rotate(180 50.0005 83.2208)" fill="#577458"/>
<rect x="220.116" y="14.369" width="3.4483" height="32.9291" fill="#577458"/>
<rect y="14.369" width="3.4483" height="32.9291" fill="#577458"/>
<path d="M54.5645 25.8923H67.026V27.9692H62.8721V38.3538H58.7183V27.9692H54.5645V25.8923ZM69.0928 38.3538V25.8923H79.4774V27.9692H81.5543V30.0461H79.4774V32.1231H81.5543V36.2769H79.4774V38.3538H69.0928ZM77.4005 36.2769V32.1231H73.2466V36.2769H77.4005ZM77.4005 27.9692H73.2466V30.0461H77.4005V27.9692ZM94.0057 36.2769V38.3538H85.698V36.2769H83.6211V27.9692H85.698V25.8923H94.0057V27.9692H96.0826V36.2769H94.0057ZM91.9288 36.2769V27.9692H87.7749V36.2769H91.9288ZM108.534 36.2769V38.3538H100.226V36.2769H98.1494V27.9692H100.226V25.8923H108.534V27.9692H110.611V32.1231H102.303V36.2769H106.457V34.2H110.611V36.2769H108.534ZM98.1494 23.8154V19.6615H102.303V23.8154H98.1494ZM108.534 19.6615V23.8154H104.38V19.6615H108.534ZM102.303 30.0461H106.457V27.9692H102.303V30.0461ZM118.9 38.3538V25.8923H123.054V32.1231H125.131V30.0461H127.208V27.9692H129.285V25.8923H133.439V38.3538H129.285V32.1231H127.208V34.2H125.131V36.2769H123.054V38.3538H118.9ZM135.512 38.3538V25.8923H141.742V30.0461H143.819V32.1231H145.896V30.0461H147.973V25.8923H154.204V38.3538H150.05V32.1231H147.973V36.2769H145.896V38.3538H143.819V36.2769H141.742V32.1231H139.666V38.3538H135.512ZM156.289 38.3538V36.2769H158.366V32.1231H156.289V27.9692H158.366V25.8923H168.751V38.3538H164.597V34.2H162.52V36.2769H160.443V38.3538H156.289ZM164.597 27.9692H160.443V32.1231H164.597V27.9692ZM181.202 23.8154V27.9692H179.125V30.0461H177.048V34.2H172.894V30.0461H174.971V27.9692H177.048V23.8154H170.817V21.7384H179.125V23.8154H181.202ZM172.894 38.3538V36.2769H177.048V38.3538H172.894Z" fill="white"/>
</svg>
