<svg width="224" height="84" viewBox="0 0 224 84" fill="none" xmlns="http://www.w3.org/2000/svg">
<path d="M15.4399 1.89081L0.882324 17.0699L1.43768 45.004L15.7054 60.091L44.4322 60.8931V82.2058L47.5096 82.2362L67.8965 60.9694L207.195 60.8931L221.481 45.8143L221.817 16.0356L207.757 1.51074L15.4399 1.89081Z" fill="#FF0066"/>
<rect x="67.2417" y="58.0749" width="142.53" height="3.59227" fill="#FF83B5"/>
<rect x="13.793" y="58.0749" width="32.1841" height="3.59227" fill="#FF83B5"/>
<rect width="25.1459" height="3.4483" transform="matrix(0 -1 -1 0 46.5522 83.2208)" fill="#FF83B5"/>
<rect x="13.793" width="195.978" height="3.59227" fill="#FF83B5"/>
<rect x="209.771" y="54.4827" width="3.4483" height="3.59227" fill="#FF83B5"/>
<rect x="213.22" y="50.8904" width="3.4483" height="3.59227" fill="#FF83B5"/>
<rect x="216.668" y="47.2982" width="3.4483" height="3.59227" fill="#FF83B5"/>
<rect width="3.4483" height="3.59227" transform="matrix(-1 0 0 1 220.117 10.7767)" fill="#FF83B5"/>
<rect width="3.4483" height="3.59227" transform="matrix(-1 0 0 1 216.668 7.18446)" fill="#FF83B5"/>
<rect width="3.4483" height="3.59227" transform="matrix(-1 0 0 1 213.22 3.59229)" fill="#FF83B5"/>
<rect x="3.44873" y="10.7767" width="3.4483" height="3.59227" fill="#FF83B5"/>
<rect x="6.89697" y="7.18446" width="3.4483" height="3.59227" fill="#FF83B5"/>
<rect x="10.3447" y="3.59229" width="3.4483" height="3.59227" fill="#FF83B5"/>
<rect width="3.4483" height="3.59227" transform="matrix(1 0 0 -1 3.44873 50.8904)" fill="#FF83B5"/>
<rect width="3.4483" height="3.59227" transform="matrix(1 0 0 -1 6.89697 54.4827)" fill="#FF83B5"/>
<rect width="3.4483" height="3.59227" transform="matrix(1 0 0 -1 10.3447 58.0749)" fill="#FF83B5"/>
<rect x="67.2417" y="65.2595" width="3.4483" height="3.59227" transform="rotate(180 67.2417 65.2595)" fill="#FF83B5"/>
<rect x="63.7935" y="68.8518" width="3.4483" height="3.59227" transform="rotate(180 63.7935 68.8518)" fill="#FF83B5"/>
<rect x="60.3452" y="72.444" width="3.4483" height="3.59227" transform="rotate(180 60.3452 72.444)" fill="#FF83B5"/>
<rect x="56.897" y="76.0363" width="3.4483" height="3.59227" transform="rotate(180 56.897 76.0363)" fill="#FF83B5"/>
<rect x="53.4487" y="79.6285" width="3.4483" height="3.59227" transform="rotate(180 53.4487 79.6285)" fill="#FF83B5"/>
<rect x="50.0005" y="83.2208" width="3.4483" height="3.59227" transform="rotate(180 50.0005 83.2208)" fill="#FF83B5"/>
<rect x="220.117" y="14.369" width="3.4483" height="32.9291" fill="#FF83B5"/>
<rect y="14.369" width="3.4483" height="32.9291" fill="#FF83B5"/>
<path d="M60.0702 36.6097H57.9932V34.5328H55.9163V32.4559H53.8394V38.6866H49.6855V22.0712H53.8394V28.302H55.9163V26.2251H57.9932V24.1482H60.0702V22.0712H64.224V24.1482H62.1471V26.2251H60.0702V28.302H57.9932V32.4559H60.0702V34.5328H62.1471V36.6097H64.224V38.6866H60.0702V36.6097ZM78.7584 28.302V38.6866H74.6046V36.6097H72.5276V34.5328H74.6046V32.4559H70.4507V36.6097H72.5276V38.6866H68.3738V36.6097H66.2969V32.4559H68.3738V30.3789H74.6046V28.302H68.3738V26.2251H76.6815V28.302H78.7584ZM80.8252 38.6866V26.2251H84.979V28.302H87.056V26.2251H91.2098V28.302H89.1329V30.3789H87.056V32.4559H89.1329V34.5328H91.2098V36.6097H93.2867V38.6866H89.1329V36.6097H87.056V34.5328H84.979V38.6866H80.8252ZM99.5195 40.7636V36.6097H101.596V32.4559H103.673V26.2251H116.135V40.7636H111.981V38.6866H103.673V40.7636H99.5195ZM111.981 28.302H107.827V32.4559H105.75V36.6097H111.981V28.302ZM128.598 36.6097V38.6866H120.291V36.6097H118.214V28.302H120.291V26.2251H128.598V28.302H130.675V32.4559H122.368V36.6097H126.522V34.5328H130.675V36.6097H128.598ZM126.522 28.302H122.368V30.3789H126.522V28.302ZM145.204 28.302H141.05V36.6097H138.973V38.6866H134.819V36.6097H136.896V26.2251H149.358V38.6866H145.204V28.302ZM132.742 36.6097V34.5328H134.819V36.6097H132.742ZM163.898 28.302V38.6866H159.744V36.6097H157.667V34.5328H159.744V32.4559H155.59V36.6097H157.667V38.6866H153.513V36.6097H151.437V32.4559H153.513V30.3789H159.744V28.302H153.513V26.2251H161.821V28.302H163.898ZM176.349 24.1482V28.302H174.273V30.3789H172.196V34.5328H168.042V30.3789H170.119V28.302H172.196V24.1482H165.965V22.0712H174.273V24.1482H176.349ZM168.042 38.6866V36.6097H172.196V38.6866H168.042Z" fill="white"/>
</svg>
