<svg width="219" height="84" viewBox="0 0 219 84" fill="none" xmlns="http://www.w3.org/2000/svg">
<path d="M15.0641 1.89058L0.86084 17.0696L1.40268 45.0038L15.3232 60.0908L43.3509 60.8929V82.2055L46.3534 82.236L66.2441 60.9692L202.152 60.8929L216.091 45.8141L216.418 16.0354L202.701 1.51051L15.0641 1.89058Z" fill="#00E904"/>
<rect x="65.605" y="58.0753" width="139.061" height="3.59227" fill="#00AF03"/>
<rect x="13.4575" y="58.0753" width="31.4008" height="3.59227" fill="#00AF03"/>
<rect width="25.1459" height="3.36438" transform="matrix(0 -1 -1 0 45.4189 83.2208)" fill="#00AF03"/>
<rect x="13.4575" width="191.209" height="3.59227" fill="#00AF03"/>
<rect x="204.667" y="54.4828" width="3.36438" height="3.59227" fill="#00AF03"/>
<rect x="208.031" y="50.8905" width="3.36438" height="3.59227" fill="#00AF03"/>
<rect x="211.395" y="47.2981" width="3.36438" height="3.59227" fill="#00AF03"/>
<rect width="3.36438" height="3.59227" transform="matrix(-1 0 0 1 214.76 10.7766)" fill="#00AF03"/>
<rect width="3.36438" height="3.59227" transform="matrix(-1 0 0 1 211.395 7.18481)" fill="#00AF03"/>
<rect width="3.36438" height="3.59227" transform="matrix(-1 0 0 1 208.031 3.59241)" fill="#00AF03"/>
<rect x="3.36523" y="10.7766" width="3.36438" height="3.59227" fill="#00AF03"/>
<rect x="6.729" y="7.18481" width="3.36438" height="3.59227" fill="#00AF03"/>
<rect x="10.0918" y="3.59241" width="3.36438" height="3.59227" fill="#00AF03"/>
<rect width="3.36438" height="3.59227" transform="matrix(1 0 0 -1 3.36523 50.8905)" fill="#00AF03"/>
<rect width="3.36438" height="3.59227" transform="matrix(1 0 0 -1 6.729 54.4828)" fill="#00AF03"/>
<rect width="3.36438" height="3.59227" transform="matrix(1 0 0 -1 10.0918 58.0753)" fill="#00AF03"/>
<rect x="65.605" y="65.2594" width="3.36438" height="3.59227" transform="rotate(180 65.605 65.2594)" fill="#00AF03"/>
<rect x="62.2407" y="68.8518" width="3.36438" height="3.59227" transform="rotate(180 62.2407 68.8518)" fill="#00AF03"/>
<rect x="58.8765" y="72.4442" width="3.36438" height="3.59227" transform="rotate(180 58.8765 72.4442)" fill="#00AF03"/>
<rect x="55.5122" y="76.036" width="3.36438" height="3.59227" transform="rotate(180 55.5122 76.036)" fill="#00AF03"/>
<rect x="52.1479" y="79.6284" width="3.36438" height="3.59227" transform="rotate(180 52.1479 79.6284)" fill="#00AF03"/>
<rect x="48.7832" y="83.2208" width="3.36438" height="3.59227" transform="rotate(180 48.7832 83.2208)" fill="#00AF03"/>
<rect x="214.76" y="14.369" width="3.36438" height="32.9291" fill="#00AF03"/>
<rect y="14.3691" width="3.36438" height="32.9291" fill="#00AF03"/>
<path d="M55 37V20.3846H59.1538V26.6154H61.2308V28.6923H59.1538V37H55ZM67.4615 26.6154V37H63.3077V26.6154H61.2308V24.5385H65.3846V26.6154H67.4615ZM71.6052 39.0769V24.5385H75.7591V39.0769H73.6822V41.1538H67.4514V39.0769H71.6052ZM71.6052 20.3846H75.7591V22.4615H71.6052V20.3846ZM77.834 37V20.3846H81.9878V26.6154H84.0648V28.6923H81.9878V34.9231H86.1417V26.6154H84.0648V24.5385H88.2186V26.6154H90.2955V34.9231H88.2186V37H77.834ZM92.3623 37V34.9231H98.5931V32.8462H96.5162V30.7692H94.4392V28.6923H92.3623V26.6154H94.4392V24.5385H102.747V26.6154H96.5162V28.6923H98.5931V30.7692H100.67V32.8462H102.747V34.9231H100.67V37H92.3623ZM104.834 37V24.5385H108.988V26.6154H111.065V28.6923H108.988V37H104.834ZM123.526 26.6154H125.603V37H121.449V26.6154H119.372V24.5385H123.526V26.6154ZM119.372 28.6923H117.296V37H113.142V26.6154H111.065V24.5385H115.219V26.6154H119.372V28.6923ZM127.668 37V20.3846H131.822V26.6154H133.899V28.6923H131.822V37H127.668ZM140.13 26.6154V37H135.976V26.6154H133.899V24.5385H138.053V26.6154H140.13ZM150.504 34.9231H148.427V32.8462H150.504V26.6154H146.35V34.9231H148.427V37H144.273V34.9231H142.196V26.6154H144.273V24.5385H150.504V20.3846H154.658V37H150.504V34.9231ZM167.109 22.4615V26.6154H165.032V28.6923H162.955V32.8462H158.802V28.6923H160.878V26.6154H162.955V22.4615H156.725V20.3846H165.032V22.4615H167.109ZM158.802 37V34.9231H162.955V37H158.802Z" fill="black"/>
</svg>
