<svg width="504" height="320" viewBox="0 0 504 320" fill="none" xmlns="http://www.w3.org/2000/svg">
<rect width="503.088" height="319.529" fill="#C2FFB7"/>
<circle cx="356.241" cy="157.725" r="59.8267" fill="#15FF00"/>
<circle cx="152.286" cy="159.085" r="129.171" fill="#FF3387"/>
<path d="M153.378 133.498C153.455 130.696 153.906 129.606 157.11 130.477L163.33 132.491C164.983 133.272 164.821 134.23 163.782 136.295L157.563 147.929C155.979 151.286 153.378 151.957 153.378 146.475V133.498Z" stroke="#FF80B4"/>
<path d="M152.015 133.455C151.938 130.653 151.488 129.563 148.283 130.434L142.064 132.448C140.41 133.229 140.573 134.187 141.611 136.251L147.831 147.886C149.414 151.242 152.015 151.914 152.015 146.432V133.455Z" stroke="#FF80B4"/>
<path d="M132.237 143.303C129.982 141.607 129.35 140.609 131.934 138.542L137.216 134.72C138.822 133.847 139.513 134.537 140.603 136.575L146.526 148.36C148.358 151.59 147.392 154.072 142.891 150.874L132.237 143.303Z" stroke="#FF80B4"/>
<path d="M131.921 143.637C129.671 141.934 128.531 141.595 127.2 144.608L124.87 150.657C124.444 152.42 125.299 152.898 127.574 153.398L140.63 155.933C144.263 156.826 146.427 155.248 142.119 151.8L131.921 143.637Z" stroke="#FF80B4"/>
<path d="M173.318 143.303C175.573 141.607 176.205 140.609 173.621 138.542L168.339 134.72C166.733 133.847 166.042 134.537 164.952 136.575L159.028 148.36C157.196 151.59 158.163 154.072 162.663 150.874L173.318 143.303Z" stroke="#FF80B4"/>
<path d="M173.634 143.637C175.883 141.934 177.023 141.595 178.355 144.608L180.684 150.657C181.11 152.42 180.255 152.898 177.98 153.398L164.925 155.933C161.291 156.826 159.128 155.248 163.436 151.8L173.634 143.637Z" stroke="#FF80B4"/>
<path d="M153.151 185.997C153.228 188.798 153.679 189.888 156.883 189.017L163.103 187.003C164.756 186.222 164.593 185.265 163.555 183.2L157.336 171.565C155.752 168.209 153.151 167.538 153.151 173.019V185.997Z" stroke="#FF80B4"/>
<path d="M151.788 186.04C151.711 188.842 151.261 189.932 148.056 189.061L141.836 187.047C140.183 186.266 140.346 185.308 141.384 183.244L147.604 171.609C149.187 168.253 151.788 167.581 151.788 173.063V186.04Z" stroke="#FF80B4"/>
<path d="M132.011 176.191C129.756 177.887 129.124 178.885 131.708 180.952L136.99 184.775C138.596 185.647 139.287 184.958 140.377 182.919L146.3 171.134C148.132 167.904 147.166 165.423 142.665 168.621L132.011 176.191Z" stroke="#FF80B4"/>
<path d="M131.696 175.858C129.446 177.561 128.306 177.9 126.975 174.888L124.645 168.838C124.219 167.075 125.074 166.598 127.349 166.098L140.405 163.563C144.038 162.669 146.201 164.247 141.894 167.696L131.696 175.858Z" stroke="#FF80B4"/>
<path d="M173.091 176.191C175.346 177.887 175.978 178.885 173.394 180.952L168.112 184.775C166.506 185.647 165.815 184.958 164.725 182.919L158.802 171.134C156.97 167.904 157.936 165.423 162.437 168.621L173.091 176.191Z" stroke="#FF80B4"/>
<path d="M173.408 175.858C175.658 177.561 176.798 177.9 178.129 174.888L180.459 168.838C180.885 167.075 180.03 166.598 177.754 166.098L164.699 163.563C161.066 162.669 158.902 164.247 163.21 167.696L173.408 175.858Z" stroke="#FF80B4"/>
<path d="M164.46 161.801C161.633 161.018 161.52 158.557 165.025 157.55L178.256 154.641C180.271 154.316 181.082 154.689 182.101 156.096C183.393 158.938 183.773 160.518 182.441 163.255C181.517 164.653 180.518 165.342 177.691 164.71C173.356 163.74 164.641 161.801 164.46 161.801Z" stroke="#FF80B4"/>
<path d="M141.092 161.799C143.919 161.016 144.033 158.555 140.527 157.548L127.296 154.639C125.281 154.314 124.47 154.687 123.451 156.094C122.16 158.936 121.779 160.516 123.112 163.253C124.036 164.651 125.034 165.34 127.861 164.708C132.196 163.738 140.911 161.799 141.092 161.799Z" stroke="#FF80B4"/>
<path d="M138.111 190.106C135.849 195.476 135.23 199.286 132.569 204.314C130.223 208.892 128.679 209.389 125.558 207.111C121.831 205.423 119.596 205.289 115.154 207.558C113.147 208.57 112.087 209.283 108.256 206.216C106.694 204.257 107.125 203.083 109.613 199.28C111.129 196.127 111.626 194.34 109.613 191.001C106.672 187.309 110.572 179.535 119.904 180.597C123.297 180.916 124.271 180.561 126.01 179.926C127.48 179.106 128.611 179.926 130.194 181.604C131.965 183.233 133.116 184.062 135.849 185.184C138.405 186.217 139.213 187.129 138.111 190.106Z" stroke="#FF80B4"/>
<path d="M128.385 195.028C126.763 198.729 124.766 200.845 121.261 200.733C119.133 200.638 117.976 199.965 115.946 198.272C114.639 196.311 113.547 195.297 115.946 192.455C119.338 188.875 120.808 185.183 124.992 185.63C127.061 186.515 128.218 187.017 129.177 189.546C130.007 191.326 128.385 193.126 128.385 195.028Z" stroke="#FF80B4"/>
<path d="M138.12 129.451C135.859 124.081 135.24 120.271 132.579 115.243C130.233 110.665 128.689 110.168 125.568 112.446C121.841 114.134 119.606 114.268 115.164 111.999C113.157 110.987 112.097 110.274 108.265 113.341C106.703 115.3 107.135 116.474 109.622 120.277C111.139 123.43 111.636 125.216 109.622 128.556C106.682 132.248 110.582 140.022 119.913 138.96C123.306 138.641 124.281 138.996 126.02 139.631C127.49 140.45 128.621 139.631 130.204 137.953C131.975 136.324 133.125 135.495 135.859 134.373C138.415 133.34 139.223 132.427 138.12 129.451Z" stroke="#FF80B4"/>
<path d="M128.395 124.529C126.774 120.828 124.777 118.712 121.271 118.824C119.143 118.919 117.986 119.592 115.956 121.285C114.65 123.246 113.557 124.26 115.956 127.102C119.348 130.682 120.818 134.374 125.003 133.926C127.071 133.041 128.228 132.54 129.187 130.011C130.017 128.231 128.395 126.431 128.395 124.529Z" stroke="#FF80B4"/>
<path d="M167.542 129.451C169.804 124.081 170.422 120.271 173.083 115.243C175.429 110.665 176.973 110.168 180.094 112.446C183.821 114.134 186.056 114.268 190.498 111.999C192.505 110.987 193.565 110.274 197.397 113.341C198.959 115.3 198.528 116.474 196.04 120.277C194.524 123.43 194.026 125.216 196.04 128.556C198.98 132.248 195.081 140.022 185.749 138.96C182.356 138.641 181.381 138.996 179.642 139.631C178.172 140.45 177.041 139.631 175.458 137.953C173.687 136.324 172.537 135.495 169.804 134.373C167.247 133.34 166.439 132.427 167.542 129.451Z" stroke="#FF80B4"/>
<path d="M177.267 124.529C178.889 120.828 180.886 118.712 184.392 118.824C186.52 118.919 187.676 119.592 189.707 121.285C191.013 123.246 192.105 124.26 189.707 127.102C186.314 130.682 184.844 134.374 180.66 133.926C178.591 133.041 177.435 132.54 176.476 130.011C175.646 128.231 177.267 126.431 177.267 124.529Z" stroke="#FF80B4"/>
<path d="M167.542 190.091C169.804 195.461 170.422 199.271 173.083 204.299C175.429 208.877 176.973 209.374 180.094 207.096C183.821 205.408 186.056 205.274 190.498 207.544C192.505 208.555 193.565 209.268 197.397 206.201C198.959 204.243 198.528 203.069 196.04 199.265C194.524 196.112 194.026 194.326 196.04 190.986C198.98 187.294 195.081 179.52 185.749 180.582C182.356 180.901 181.381 180.546 179.642 179.911C178.172 179.092 177.041 179.911 175.458 181.589C173.687 183.218 172.537 184.048 169.804 185.169C167.247 186.202 166.439 187.115 167.542 190.091Z" stroke="#FF80B4"/>
<path d="M177.267 195.013C178.889 198.715 180.886 200.83 184.392 200.719C186.52 200.623 187.676 199.95 189.707 198.257C191.013 196.296 192.105 195.282 189.707 192.44C186.314 188.86 184.844 185.168 180.66 185.616C178.591 186.501 177.435 187.002 176.476 189.531C175.646 191.312 177.267 193.111 177.267 195.013Z" stroke="#FF80B4"/>
<path d="M122.731 167.507C120.726 161.601 120.852 158.086 122.279 151.621C116.512 151.286 115.494 147.594 113.911 146.811C110.678 145.159 108.973 144.102 104.185 144.35C101.471 144.573 99.0598 144.797 97.5131 150.055C97.2869 151.621 95.4459 153.822 90.6148 154.642C86.0914 156.32 85.639 162.921 92.7635 165.494C99.6617 167.843 97.5131 170.864 100.566 173.884C103.167 176.569 109.86 176.669 115.494 170.864C118.095 168.29 119.903 168.186 122.731 167.507Z" stroke="#FF80B4"/>
<path d="M103.506 165.157C97.7389 163.591 98.7569 155.648 103.619 154.193C105.316 153.634 108.061 153.673 110.405 154.641C112.985 156.217 115.154 157.326 114.928 160.346C114.702 162.024 113.648 163.306 111.083 164.486C108.567 165.21 107.321 165.788 103.506 165.157Z" stroke="#FF80B4"/>
<path d="M182.894 167.207C184.899 161.301 184.773 157.785 183.346 151.321C189.113 150.986 190.131 147.294 191.714 146.511C194.947 144.859 196.652 143.802 201.44 144.05C204.154 144.273 206.565 144.497 208.112 149.755C208.338 151.321 210.179 153.521 215.01 154.342C219.534 156.02 219.986 162.62 212.862 165.194C205.963 167.543 208.112 170.563 205.059 173.584C202.458 176.269 195.765 176.369 190.131 170.563C187.53 167.99 185.722 167.886 182.894 167.207Z" stroke="#FF80B4"/>
<path d="M202.118 164.858C207.885 163.292 206.867 155.349 202.005 153.895C200.308 153.335 197.563 153.374 195.219 154.342C192.639 155.918 190.47 157.027 190.696 160.048C190.922 161.726 191.976 163.007 194.541 164.187C197.057 164.911 198.303 165.49 202.118 164.858Z" stroke="#FF80B4"/>
<path d="M140.373 131.372C144.49 130.839 146.638 130.249 149.873 128.127C151.336 127.201 151.813 126.591 149.873 124.771C134.154 116.269 142.07 105.193 151.795 104.858L152.134 96.9147C152.134 95.5723 150.551 94.9011 148.855 95.5722C143.992 96.9147 143.653 93.3349 140.373 103.851C139.358 106.431 136.528 107.878 132.683 108.549C130.082 108.661 129.63 108.438 128.612 106.983L126.577 103.851C124.946 100.722 123.746 100.672 121.375 101.949L114.476 104.858C111.526 105.953 109.94 105.303 107.126 103.851C103.055 100.495 97.7397 106.983 99.8883 110.004C102.15 113.248 104.299 114.591 102.15 117.276C96.1565 125.778 99.2098 125.666 100.68 128.127C104.204 132.236 103.507 136.965 98.5313 141.888C90.8414 141.888 89.032 141.888 87.5619 146.698C86.9965 150.054 85.9787 154.194 83.7169 154.194C80.0804 154.715 77.3043 154.372 77.271 157.997V160.571C77.3042 164.402 79.8471 164.222 83.2646 164.934C85.6394 165.269 86.9176 167.915 87.5619 171.646C88.6246 175.981 89.3834 178.153 93.5555 177.575C96.7254 177.494 98.7921 177.142 99.8883 179.253L102.15 184.511C103.256 187.24 102.912 188.467 101.245 190.329C98.0039 193.59 97.4669 195.596 100.454 199.726C103.527 203.019 103.975 204.772 101.698 207.669C99.7524 210.111 98.635 211.478 101.245 214.381L102.602 216.059C103.843 217.187 104.561 217.579 105.995 216.619C109.742 213.752 111.856 212.444 115.834 214.717L120.244 217.178C123.224 218.901 124.779 219.577 126.124 217.178L128.273 212.703C129.241 210.572 130.147 210.376 132.118 211.025C137.66 213.252 140.737 214.513 141.73 218.633C143.222 222.112 144.305 223.853 149.307 224.338C151.125 224.524 151.914 224.362 151.908 222.436V216.059C151.829 214.651 151.752 213.873 148.855 213.486C138.338 212.368 139.921 200.285 148.289 195.251C150.109 194.388 150.513 193.719 150.325 192.007C150.212 190.888 144.917 188.735 140.6 188.315" stroke="#FF80B4"/>
<path d="M165.026 131.3C160.909 130.767 158.761 130.177 155.526 128.056C154.063 127.129 153.586 126.52 155.526 124.699C171.245 116.197 163.329 105.122 153.604 104.786L153.265 96.843C153.265 95.5005 154.848 94.8294 156.544 95.5005C161.407 96.843 161.746 93.2632 165.026 103.779C166.041 106.359 168.871 107.807 172.715 108.478C175.316 108.59 175.769 108.366 176.787 106.912L178.822 103.779C180.453 100.65 181.653 100.6 184.024 101.877L190.922 104.786C193.873 105.881 195.459 105.231 198.273 103.779C202.344 100.423 207.659 106.912 205.511 109.932C203.249 113.177 201.1 114.519 203.249 117.204C209.242 125.706 206.189 125.594 204.719 128.056C201.195 132.165 201.892 136.894 206.868 141.816C214.558 141.816 216.367 141.816 217.837 146.627C218.402 149.983 219.42 154.122 221.682 154.122C225.318 154.643 228.095 154.3 228.128 157.926V160.499C228.095 164.33 225.552 164.151 222.134 164.862C219.76 165.197 218.481 167.844 217.837 171.574C216.774 175.909 216.015 178.081 211.843 177.503C208.674 177.422 206.607 177.07 205.511 179.182L203.249 184.44C202.143 187.169 202.487 188.395 204.154 190.257C207.395 193.519 207.932 195.524 204.945 199.654C201.872 202.947 201.424 204.7 203.701 207.597C205.647 210.04 206.764 211.406 204.154 214.31L202.797 215.988C201.556 217.115 200.838 217.507 199.404 216.547C195.656 213.68 193.543 212.372 189.565 214.645L185.155 217.106C182.175 218.829 180.62 219.505 179.274 217.106L177.126 212.632C176.158 210.5 175.252 210.305 173.281 210.953C167.739 213.18 164.662 214.441 163.669 218.561C162.176 222.04 161.094 223.781 156.092 224.266C154.274 224.453 153.485 224.291 153.491 222.364V215.988C153.57 214.579 153.647 213.802 156.544 213.415C167.061 212.296 165.478 200.214 157.109 195.179C155.29 194.316 154.886 193.648 155.074 191.935C155.187 190.816 160.481 188.663 164.799 188.243" stroke="#FF80B4"/>
<path d="M153.265 229.037C153.604 224.562 158.693 226.464 162.198 224.003C166.835 220.311 164.686 215.053 172.037 212.928C173.931 212.216 174.9 212.24 176.221 214.158L178.37 217.85C179.484 219.859 179.032 220.532 177.239 221.318L168.758 224.562C166.494 225.124 165.174 225.374 164.686 228.254V231.946C164.686 234.183 162.094 234.791 158.693 235.078C154.622 235.078 153.338 234.885 153.265 231.946V229.037Z" stroke="#FF80B4"/>
<path d="M152.061 229.019C151.721 224.544 146.632 226.446 143.127 223.985C138.49 220.293 140.639 215.035 133.288 212.91C131.394 212.198 130.425 212.222 129.104 214.14L126.955 217.832C125.841 219.841 126.293 220.514 128.086 221.3L136.568 224.544C138.831 225.106 140.151 225.356 140.639 228.236V231.928C140.639 234.165 143.231 234.773 146.632 235.06C150.704 235.06 151.987 234.867 152.061 231.928V229.019Z" stroke="#FF80B4"/>
<path d="M152.061 229.019C151.721 224.544 146.632 226.446 143.127 223.985C138.49 220.293 140.639 215.035 133.288 212.91C131.394 212.198 130.425 212.222 129.104 214.14L126.955 217.832C125.841 219.841 126.293 220.514 128.086 221.3L136.568 224.544C138.831 225.106 140.151 225.356 140.639 228.236V231.928C140.639 234.165 143.231 234.773 146.632 235.06C150.704 235.06 151.987 234.867 152.061 231.928V229.019Z" stroke="#FF80B4"/>
<path d="M143.086 236.419C140.866 236.468 139.632 236.518 139.015 240.335C138.221 244.513 136.67 244.774 133.135 243.803L119.564 240.335C117.716 239.736 116.761 239.946 115.493 243.132C114.48 245.346 114.512 246.406 116.85 247.607L129.742 251.41C132.23 251.97 134.911 251.967 136.414 248.278C137.63 245.609 138.894 245.236 141.503 245.257H147.836C150.021 245.331 151.308 245.452 151.681 243.132C151.907 242.349 151.455 241.454 151.681 240.559C151.925 238.501 151.295 237.681 148.175 237.091L143.086 236.419Z" stroke="#FF80B4"/>
<path d="M162.603 235.973C164.823 236.021 166.057 236.072 166.674 239.888C167.468 244.066 169.019 244.328 172.554 243.356L186.125 239.888C187.973 239.289 188.928 239.499 190.196 242.685C191.209 244.899 191.177 245.959 188.839 247.16L175.947 250.964C173.459 251.523 170.778 251.52 169.275 247.831C168.059 245.162 166.795 244.789 164.186 244.811H157.853C155.668 244.885 154.381 245.005 154.008 242.685C153.782 241.902 154.234 241.007 154.008 240.112C153.764 238.054 154.394 237.235 157.514 236.644L162.603 235.973Z" stroke="#FF80B4"/>
<path d="M111.988 250.293C113.104 248.553 113.859 247.819 116.511 248.951C120.81 250.715 131.439 252.642 131.439 252.642C131.71 252.642 134.379 253.537 136.528 250.293C138.088 248.111 139.355 246.825 141.504 246.825H148.063C150.237 246.905 151.422 247.034 151.229 253.09C151.229 255.215 150.714 255.315 147.497 255.551L138.337 255.887C135.51 256.222 134.337 257.371 132.344 259.243C131.176 260.145 130.797 260.784 126.689 260.25C121.383 259.001 118.386 258.408 113.345 255.887C111.31 254.419 110.64 253.371 111.988 250.293Z" stroke="#FF80B4"/>
<path d="M193.658 250.406C192.541 248.666 191.786 247.932 189.134 249.063C184.835 250.827 174.207 252.755 174.207 252.755C173.935 252.755 171.266 253.65 169.118 250.406C167.558 248.224 166.29 246.938 164.142 246.938H157.583C155.409 247.018 154.223 247.147 154.417 253.203C154.417 255.328 154.931 255.427 158.148 255.664L167.308 256C170.135 256.335 171.309 257.484 173.302 259.356C174.469 260.258 174.849 260.897 178.956 260.363C184.262 259.114 187.259 258.521 192.301 256C194.335 254.532 195.005 253.484 193.658 250.406Z" stroke="#FF80B4"/>
<path d="M114.137 258.012C111.303 256.218 109.844 255.688 108.37 258.907C107.585 261.509 108.007 262.758 110.292 264.612C115.836 267.003 119.247 267.713 125.333 268.975C128.273 269.585 130.174 268.712 132.344 266.402C133.814 264.836 136.525 264.41 139.355 264.612C141.919 264.65 147.09 264.702 147.271 264.612C151.116 264.612 151.569 262.711 151.569 260.026C151.569 258.236 150.89 256.781 142.522 256.781C138.111 256.781 135.397 258.571 134.153 260.361C132.909 262.151 129.915 261.748 126.011 261.368C120.981 260.605 118.258 260.042 114.137 258.012Z" stroke="#FF80B4"/>
<path d="M191.827 257.993C194.661 256.199 196.12 255.669 197.595 258.888C198.38 261.49 197.957 262.739 195.672 264.593C190.129 266.984 186.718 267.694 180.632 268.956C177.692 269.566 175.791 268.693 173.62 266.383C172.15 264.817 169.439 264.391 166.609 264.593C164.046 264.63 158.874 264.683 158.693 264.593C154.848 264.593 154.396 262.691 154.396 260.006C154.396 258.216 155.074 256.762 163.443 256.762C167.853 256.762 170.567 258.552 171.811 260.342C173.055 262.132 176.05 261.729 179.953 261.349C184.983 260.586 187.706 260.023 191.827 257.993Z" stroke="#FF80B4"/>
<path d="M109.5 266.402C105.655 263.382 102.488 267.856 105.655 271.548C108.143 274.009 115.607 276.918 123.862 277.589C127.481 278.373 130.082 274.009 133.022 274.009H146.366C149.925 274.126 151.676 273.922 151.681 270.094C151.829 267.52 151.387 266.387 147.158 266.402H137.319C135.849 266.402 133.361 267.633 131.891 269.087C130.598 270.222 125.424 270.986 123.862 270.094C117.755 267.968 113.345 269.087 109.5 266.402Z" stroke="#FF80B4"/>
<path d="M196.826 266.503C200.671 263.483 203.837 267.957 200.671 271.649C198.183 274.11 190.719 277.019 182.464 277.69C178.845 278.474 176.244 274.11 173.304 274.11H159.96C156.4 274.227 154.649 274.023 154.644 270.195C154.496 267.621 154.939 266.488 159.168 266.503H169.006C170.477 266.503 172.965 267.734 174.435 269.188C175.728 270.323 180.901 271.087 182.464 270.195C188.57 268.069 192.981 269.188 196.826 266.503Z" stroke="#FF80B4"/>
<path d="M121.409 225.768C120.097 228.179 118.75 227.817 116.207 226.774L107.273 221.069C104.559 218.831 106.572 217.432 109.535 215.475C111.906 214.144 112.577 214.847 114.058 215.475L121.409 218.831C124.063 220.175 124.141 220.904 123.218 222.188L121.409 225.768Z" stroke="#FF80B4"/>
<path d="M123.392 226.901C122.433 229.47 123.599 230.229 126.073 231.425L136.309 234.272C139.801 234.803 139.529 232.384 139.05 228.892C138.489 226.252 137.512 226.22 136.056 225.538L128.647 222.309C125.872 221.231 125.268 221.656 124.906 223.19L123.392 226.901Z" stroke="#FF80B4"/>
<path d="M133.927 242.461C136.98 242.461 138.224 241.007 137.998 237.874C137.728 236.315 137.283 235.649 135.623 235.078L123.523 231.498C121.656 231.044 120.734 231.519 119.452 234.406C118.544 236.734 118.056 238.034 121.6 239.553C126.053 241.186 129.969 242.461 133.927 242.461Z" stroke="#FF80B4"/>
<path d="M102.383 228.707C100.355 226.449 100.628 224.563 103.145 222.65C104.503 221.814 105.301 221.701 106.836 222.549L117.578 229.12C119.161 230.199 119.414 231.197 118.084 234.062C116.929 236.279 116.27 237.504 112.768 235.891C108.576 233.683 105.012 231.634 102.383 228.707Z" stroke="#FF80B4"/>
<path d="M183.776 225.991C185.088 228.403 186.435 228.041 188.978 226.998L197.912 221.293C200.626 219.055 198.613 217.656 195.651 215.699C193.279 214.368 192.608 215.07 191.127 215.699L183.776 219.055C181.122 220.399 181.044 221.128 181.967 222.411L183.776 225.991Z" stroke="#FF80B4"/>
<path d="M181.792 227.126C182.751 229.695 181.585 230.454 179.112 231.65L168.875 234.497C165.383 235.028 165.655 232.609 166.134 229.117C166.695 226.477 167.672 226.445 169.128 225.763L176.537 222.534C179.312 221.456 179.917 221.881 180.278 223.415L181.792 227.126Z" stroke="#FF80B4"/>
<path d="M171.258 242.686C168.204 242.686 166.96 241.232 167.187 238.1C167.457 236.54 167.902 235.874 169.561 235.303L181.662 231.723C183.528 231.269 184.451 231.744 185.733 234.631C186.641 236.959 187.129 238.259 183.584 239.778C179.131 241.411 175.216 242.686 171.258 242.686Z" stroke="#FF80B4"/>
<path d="M202.802 228.932C204.83 226.674 204.557 224.788 202.04 222.875C200.682 222.039 199.884 221.926 198.349 222.774L187.607 229.345C186.024 230.424 185.771 231.422 187.101 234.287C188.256 236.504 188.915 237.729 192.417 236.116C196.609 233.908 200.173 231.859 202.802 228.932Z" stroke="#FF80B4"/>
<path d="M153.49 90.0615C153.829 94.5364 158.918 92.6347 162.424 95.0958C167.061 98.7877 164.912 104.046 172.263 106.171C174.157 106.882 175.126 106.859 176.447 104.941L178.595 101.249C179.71 99.2397 179.257 98.5666 177.465 97.7808L168.983 94.5364C166.72 93.9747 165.4 93.7252 164.912 90.8446V87.1528C164.912 84.9155 162.32 84.3074 158.918 84.0204C154.847 84.0204 153.564 84.2142 153.49 87.1528V90.0615Z" stroke="#FF80B4"/>
<path d="M152.288 90.0795C151.948 94.5544 146.859 92.6526 143.354 95.1138C138.717 98.8057 140.866 104.064 133.515 106.189C131.621 106.9 130.652 106.877 129.331 104.959L127.182 101.267C126.068 99.2576 126.52 98.5846 128.313 97.7987L136.795 94.5544C139.058 93.9926 140.378 93.7432 140.866 90.8626V87.1708C140.866 84.9334 143.458 84.3253 146.859 84.0383C150.931 84.0383 152.214 84.2321 152.288 87.1708V90.0795Z" stroke="#FF80B4"/>
<path d="M152.288 90.0795C151.948 94.5544 146.859 92.6526 143.354 95.1138C138.717 98.8057 140.866 104.064 133.515 106.189C131.621 106.9 130.652 106.877 129.331 104.959L127.182 101.267C126.068 99.2576 126.52 98.5846 128.313 97.7987L136.795 94.5544C139.058 93.9926 140.378 93.7432 140.866 90.8626V87.1708C140.866 84.9334 143.458 84.3253 146.859 84.0383C150.931 84.0383 152.214 84.2321 152.288 87.1708V90.0795Z" stroke="#FF80B4"/>
<path d="M143.313 82.6772C141.093 82.629 139.859 82.5782 139.242 78.7617C138.448 74.5838 136.897 74.3224 133.362 75.2936L119.791 78.7617C117.943 79.3606 116.988 79.151 115.72 75.9649C114.707 73.7505 114.739 72.6905 117.077 71.49L129.969 67.6863C132.457 67.1269 135.138 67.1299 136.641 70.8187C137.857 73.4876 139.121 73.8604 141.73 73.8393H148.063C150.248 73.7654 151.535 73.6445 151.908 75.9649C152.134 76.748 151.682 77.643 151.908 78.5379C152.152 80.5958 151.522 81.4153 148.402 82.006L143.313 82.6772Z" stroke="#FF80B4"/>
<path d="M162.829 83.1254C165.049 83.0772 166.283 83.0264 166.9 79.2099C167.694 75.032 169.245 74.7705 172.781 75.7418L186.351 79.2099C188.199 79.8088 189.154 79.5992 190.422 76.4131C191.435 74.1987 191.403 73.1387 189.065 71.9381L176.173 68.1345C173.685 67.5751 171.004 67.578 169.501 71.2669C168.285 73.9358 167.021 74.3086 164.412 74.2875H158.079C155.894 74.2136 154.607 74.0927 154.234 76.4131C154.008 77.1962 154.46 78.0911 154.234 78.9861C153.99 81.044 154.62 81.8635 157.74 82.4542L162.829 83.1254Z" stroke="#FF80B4"/>
<path d="M112.213 68.8056C113.33 70.546 114.085 71.2795 116.737 70.1481C121.036 68.3841 131.664 66.4563 131.664 66.4563C131.936 66.4563 134.605 65.5613 136.753 68.8056C138.313 70.9877 139.581 72.2737 141.729 72.2737H148.288C150.462 72.1938 151.648 72.0646 151.455 66.0088C151.455 63.8832 150.94 63.7841 147.723 63.5476L138.563 63.212C135.736 62.8764 134.562 61.7276 132.569 59.8558C131.402 58.9532 131.022 58.3142 126.915 58.8489C121.609 60.0977 118.612 60.6906 113.571 63.212C111.536 64.68 110.866 65.7277 112.213 68.8056Z" stroke="#FF80B4"/>
<path d="M193.883 68.6928C192.766 70.4331 192.011 71.1666 189.359 70.0352C185.06 68.2713 174.432 66.3434 174.432 66.3434C174.16 66.3434 171.492 65.4485 169.343 68.6928C167.783 70.8748 166.516 72.1608 164.367 72.1608H157.808C155.634 72.0809 154.448 71.9517 154.642 65.8959C154.642 63.7704 155.157 63.6713 158.373 63.4347L167.534 63.0991C170.361 62.7635 171.534 61.6147 173.527 59.7429C174.694 58.8404 175.074 58.2013 179.181 58.7361C184.487 59.9848 187.484 60.5777 192.526 63.0991C194.561 64.5672 195.231 65.6149 193.883 68.6928Z" stroke="#FF80B4"/>
<path d="M114.363 61.0861C111.529 62.8796 110.07 63.4101 108.596 60.1911C107.811 57.5888 108.233 56.34 110.518 54.4856C116.062 52.0951 119.473 51.3851 125.559 50.1226C128.499 49.5126 130.4 50.3859 132.57 52.6956C134.04 54.2618 136.751 54.6876 139.581 54.4856C142.145 54.4483 147.316 54.3961 147.497 54.4856C151.342 54.4856 151.795 56.3874 151.795 59.0724C151.795 60.8623 151.116 62.3167 142.748 62.3167C138.337 62.3167 135.623 60.5268 134.379 58.7368C133.135 56.9467 130.141 57.3501 126.237 57.7299C121.207 58.4926 118.484 59.0555 114.363 61.0861Z" stroke="#FF80B4"/>
<path d="M192.053 61.1053C194.887 62.8989 196.346 63.4294 197.82 60.2103C198.605 57.608 198.183 56.3592 195.898 54.5048C190.354 52.1143 186.943 51.4043 180.857 50.1418C177.917 49.5318 176.016 50.4051 173.846 52.7149C172.376 54.281 169.665 54.7069 166.835 54.5048C164.271 54.4675 159.1 54.4153 158.919 54.5048C155.074 54.5048 154.621 56.4066 154.621 59.0916C154.621 60.8815 155.3 62.3359 163.668 62.3359C168.079 62.3359 170.793 60.546 172.037 58.756C173.281 56.9659 176.275 57.3694 180.179 57.7491C185.209 58.5119 187.932 59.0747 192.053 61.1053Z" stroke="#FF80B4"/>
<path d="M109.725 52.6962C105.881 55.7164 102.714 51.2416 105.881 47.55C108.368 45.0888 115.832 42.1798 124.087 41.5089C127.706 40.7254 130.307 45.0888 133.248 45.0888H146.592C150.151 44.9717 151.902 45.1759 151.907 49.0044C152.055 51.5784 151.613 52.7112 147.383 52.6962H137.545C136.075 52.6962 133.587 51.4652 132.117 50.0112C130.823 48.8758 125.65 48.1119 124.087 49.0044C117.981 51.1296 113.57 50.0112 109.725 52.6962Z" stroke="#FF80B4"/>
<path d="M100.259 101.274C101.611 99.5317 102.345 98.5478 99.723 95.682C96.9275 92.4535 97.6931 91.0931 100.672 88.9748L111.904 80.6803C113.533 79.6298 113.966 78.7625 112.249 75.7889C111.138 73.621 110.283 72.9815 107.873 74.0332L96.8018 81.5942C94.8029 83.1627 93.126 85.2327 95.0921 88.7018C96.434 91.3108 95.9362 92.5193 94.2857 94.5183L90.3198 99.4026C88.8932 101.042 87.9919 101.959 89.5871 103.699C90.0626 104.364 91.0512 104.576 91.6149 105.311C93.0836 106.788 94.1241 106.815 96.5434 104.779L100.259 101.274Z" stroke="#FF80B4"/>
<path d="M108.802 68.6016C109.474 70.5524 109.58 71.594 107.027 72.9311C102.945 75.142 94.7696 82.1321 94.7696 82.1321C94.5996 82.3414 92.2229 83.8393 93.4342 87.5282C94.177 90.0978 94.3967 91.8807 93.0513 93.5377L88.9437 98.5964C87.5191 100.223 86.6749 101.057 82.0235 97.1152C80.3484 95.7841 80.5928 95.3249 82.4209 92.6957L87.8928 85.4208C89.3987 83.0302 89.2281 81.4059 89.0012 78.6963C89.021 77.2308 88.7549 76.538 91.7487 73.7048C96.0555 70.3948 98.3996 68.4545 103.544 66.1453C105.975 65.4952 107.22 65.6345 108.802 68.6016Z" stroke="#FF80B4"/>
<path d="M101.373 65.4241C104.561 64.3617 105.893 63.5688 104.28 60.4154C102.72 58.1804 101.471 57.7243 98.5792 58.3252C93.2236 61.1039 90.5279 63.29 85.7218 67.193C83.3998 69.0787 82.8975 71.0918 83.3588 74.212C83.6724 76.3266 82.3103 78.6842 80.3786 80.7405C78.744 82.6942 75.4641 86.6503 75.4213 86.8459C73.0134 89.8113 74.2289 91.3512 76.3449 93.0327C77.7555 94.1536 79.3267 94.5411 84.5673 88.0868C87.3293 84.6853 87.6183 81.4711 86.9866 79.3907C86.3549 77.3103 88.5483 75.2531 91.2921 72.4804C95.0432 69.0786 97.192 67.3309 101.373 65.4241Z" stroke="#FF80B4"/>
<path d="M97.6638 56.595C102.452 55.5209 100.908 50.2764 96.016 50.4068C92.5183 50.7843 85.5516 54.719 79.8531 60.6659C76.9694 62.9663 78.7794 67.7049 76.938 69.9726L68.5814 80.2645C66.2602 82.9362 65.3245 84.4146 68.3386 86.8159C70.2745 88.542 71.4441 88.9104 74.0809 85.639L80.2422 78.0509C81.1628 76.9171 81.7507 74.2274 81.5255 72.183C81.4407 70.4745 84.0783 66.0061 85.7602 65.3599C91.2593 61.9809 93.1399 57.879 97.6638 56.595Z" stroke="#FF80B4"/>
<path d="M100.905 217.845C102.318 219.539 103.086 220.497 100.569 223.453C97.8909 226.777 98.7047 228.11 101.758 230.122L113.28 238.018C114.946 239.011 115.409 239.862 113.8 242.894C112.768 245.1 111.936 245.769 109.489 244.802L98.1542 237.634C96.1004 236.137 94.3504 234.127 96.191 230.591C97.4386 227.936 96.8978 226.746 95.1767 224.806L91.0383 220.064C89.5539 218.476 88.6203 217.591 90.1522 215.796C90.6036 215.115 91.584 214.869 92.121 214.114C93.5358 212.587 94.5747 212.523 97.0655 214.473L100.905 217.845Z" stroke="#FF80B4"/>
<path d="M110.611 250.198C111.214 248.225 111.281 247.181 108.683 245.934C104.524 243.867 96.1031 237.168 96.1031 237.168C95.9257 236.965 93.4969 235.551 94.5752 231.822C95.2255 229.228 95.3813 227.439 93.9773 225.83L89.6911 220.919C88.2091 219.343 87.3356 218.539 82.8283 222.641C81.2019 224.03 81.4626 224.481 83.3838 227.044L89.1128 234.123C90.7034 236.459 90.5911 238.088 90.4615 240.804C90.5337 242.268 90.2926 242.97 93.386 245.696C97.8087 248.853 100.221 250.71 105.445 252.838C107.898 253.402 109.137 253.219 110.611 250.198Z" stroke="#FF80B4"/>
<path d="M103.303 253.634C106.527 254.584 107.886 255.33 106.387 258.538C104.908 260.826 103.677 261.326 100.765 260.827C95.3129 258.237 92.5406 256.147 87.5977 252.415C85.2096 250.612 84.6355 248.618 84.9847 245.483C85.2224 243.359 83.7767 241.051 81.7726 239.063C80.069 237.168 76.6493 233.33 76.5996 233.136C74.087 230.256 75.2466 228.675 77.301 226.92C78.6706 225.751 80.2269 225.308 85.6954 231.575C88.5775 234.877 88.9815 238.079 88.4248 240.181C87.868 242.282 90.1337 244.261 92.9751 246.936C96.8457 250.204 99.0558 251.875 103.303 253.634Z" stroke="#FF80B4"/>
<path d="M99.9128 262.588C104.736 263.494 103.382 268.789 98.4878 268.831C94.9788 268.576 87.8755 264.888 81.9675 259.145C79.0032 256.947 80.6423 252.148 78.7209 249.946L70.0007 239.953C67.5853 237.365 66.5973 235.92 69.5235 233.415C71.3963 231.622 72.552 231.213 75.3043 234.389L81.7335 241.757C82.6942 242.858 83.3781 245.525 83.2263 247.576C83.2027 249.286 85.9988 253.66 87.7027 254.246C93.3194 257.43 95.3458 261.464 99.9128 262.588Z" stroke="#FF80B4"/>
<path d="M204.731 217.622C203.317 219.315 202.55 220.273 205.067 223.229C207.745 226.553 206.931 227.886 203.878 229.899L192.356 237.794C190.69 238.787 190.227 239.638 191.836 242.67C192.868 244.876 193.7 245.545 196.147 244.578L207.482 237.41C209.535 235.913 211.285 233.903 209.445 230.367C208.197 227.713 208.738 226.522 210.459 224.583L214.597 219.84C216.082 218.252 217.015 217.368 215.484 215.572C215.032 214.891 214.052 214.645 213.515 213.891C212.1 212.363 211.061 212.299 208.57 214.25L204.731 217.622Z" stroke="#FF80B4"/>
<path d="M195.023 249.975C194.421 248.002 194.353 246.957 196.952 245.711C201.111 243.644 209.532 236.945 209.532 236.945C209.709 236.742 212.138 235.328 211.06 231.599C210.409 229.005 210.254 227.216 211.657 225.607L215.944 220.695C217.426 219.119 218.299 218.316 222.806 222.418C224.433 223.807 224.172 224.258 222.251 226.821L216.522 233.9C214.931 236.236 215.044 237.865 215.173 240.581C215.101 242.045 215.342 242.747 212.249 245.473C207.826 248.63 205.414 250.487 200.19 252.614C197.737 253.179 196.498 252.996 195.023 249.975Z" stroke="#FF80B4"/>
<path d="M202.335 253.41C199.111 254.36 197.751 255.105 199.251 258.313C200.729 260.602 201.961 261.101 204.872 260.602C210.324 258.013 213.097 255.923 218.04 252.191C220.428 250.388 221.002 248.393 220.652 245.259C220.415 243.135 221.86 240.826 223.865 238.839C225.568 236.944 228.988 233.105 229.038 232.911C231.55 230.032 230.391 228.451 228.336 226.696C226.967 225.526 225.41 225.084 219.942 231.35C217.06 234.653 216.656 237.855 217.212 239.956C217.769 242.058 215.504 244.036 212.662 246.711C208.792 249.979 206.581 251.651 202.335 253.41Z" stroke="#FF80B4"/>
<path d="M205.724 262.365C200.901 263.271 202.256 268.566 207.149 268.607C210.658 268.353 217.762 264.665 223.67 258.921C226.634 256.724 224.995 251.924 226.916 249.723L235.636 239.73C238.052 237.142 239.04 235.697 236.114 233.191C234.241 231.399 233.085 230.989 230.333 234.166L223.904 241.534C222.943 242.634 222.259 245.302 222.411 247.353C222.435 249.063 219.638 253.436 217.934 254.023C212.318 257.207 210.291 261.241 205.724 262.365Z" stroke="#FF80B4"/>
<path d="M204.189 102.393C202.837 100.65 202.104 99.6665 204.726 96.8008C207.521 93.5722 206.756 92.2118 203.776 90.0935L192.545 81.799C190.915 80.7485 190.483 79.8812 192.199 76.9076C193.31 74.7397 194.165 74.1002 196.576 75.1519L207.647 82.7129C209.646 84.2814 211.323 86.3514 209.357 89.8205C208.015 92.4296 208.513 93.638 210.163 95.637L214.129 100.521C215.556 102.16 216.457 103.077 214.862 104.818C214.386 105.483 213.398 105.694 212.834 106.429C211.365 107.906 210.325 107.934 207.905 105.897L204.189 102.393Z" stroke="#FF80B4"/>
<path d="M195.646 69.721C194.973 71.6718 194.868 72.7134 197.421 74.0505C201.503 76.2613 209.678 83.2515 209.678 83.2515C209.848 83.4608 212.225 84.9587 211.014 88.6476C210.271 91.2172 210.051 93 211.396 94.6571L215.504 99.7158C216.929 101.343 217.773 102.176 222.424 98.2346C224.099 96.9035 223.855 96.4443 222.027 93.8151L216.555 86.5401C215.049 84.1496 215.22 82.5253 215.447 79.8157C215.427 78.3502 215.693 77.6574 212.699 74.8242C208.392 71.5141 206.048 69.5739 200.904 67.2646C198.473 66.6146 197.227 66.7539 195.646 69.721Z" stroke="#FF80B4"/>
<path d="M203.075 66.5435C199.887 65.4811 198.555 64.6881 200.169 61.5348C201.728 59.2998 202.977 58.8437 205.869 59.4445C211.225 62.2232 213.92 64.4094 218.726 68.3124C221.048 70.1981 221.551 72.2112 221.089 75.3314C220.776 77.446 222.138 79.8035 224.07 81.8599C225.704 83.8135 228.984 87.7697 229.027 87.9653C231.435 90.9307 230.219 92.4706 228.103 94.1521C226.693 95.273 225.122 95.6604 219.881 89.2062C217.119 85.8046 216.83 82.5905 217.462 80.5101C218.093 78.4297 215.9 76.3725 213.156 73.5998C209.405 70.198 207.256 68.4503 203.075 66.5435Z" stroke="#FF80B4"/>
<path d="M206.784 57.7137C201.996 56.6397 203.539 51.3951 208.432 51.5255C211.929 51.903 218.896 55.8377 224.595 61.7846C227.478 64.085 225.668 68.8236 227.51 71.0913L235.866 81.3832C238.188 84.0549 239.123 85.5333 236.109 87.9346C234.173 89.6607 233.004 90.0291 230.367 86.7578L224.206 79.1697C223.285 78.0358 222.697 75.3461 222.922 73.3017C223.007 71.5932 220.369 67.1248 218.688 66.4786C213.188 63.0996 211.308 58.9977 206.784 57.7137Z" stroke="#FF80B4"/>
<path d="M197.052 52.5966C200.897 55.6169 204.064 51.142 200.897 47.4505C198.409 44.9893 190.946 42.0802 182.69 41.4093C179.072 40.6259 176.471 44.9893 173.53 44.9893H160.186C156.627 44.8722 154.876 45.0764 154.871 48.9048C154.723 51.4788 155.165 52.6117 159.394 52.5966H169.233C170.703 52.5966 173.191 51.3657 174.661 49.9117C175.954 48.7763 181.128 48.0123 182.69 48.9048C188.797 51.03 193.207 49.9117 197.052 52.5966Z" stroke="#FF80B4"/>
<path d="M121.636 93.3318C120.324 90.9205 118.977 91.2821 116.434 92.325L107.5 98.0305C104.786 100.268 106.799 101.667 109.762 103.624C112.133 104.955 112.804 104.253 114.285 103.624L121.636 100.268C124.29 98.9244 124.368 98.195 123.445 96.9117L121.636 93.3318Z" stroke="#FF80B4"/>
<path d="M123.618 92.1962C122.66 89.6272 123.825 88.8681 126.299 87.6726L136.536 84.8256C140.028 84.2946 139.755 86.7137 139.277 90.2056C138.715 92.8455 137.739 92.8779 136.282 93.5596L128.873 96.788C126.098 97.8664 125.494 97.4414 125.133 95.9077L123.618 92.1962Z" stroke="#FF80B4"/>
<path d="M134.153 76.6356C137.207 76.6355 138.451 78.0899 138.225 81.2223C137.954 82.7822 137.51 83.4476 135.85 84.0189L123.75 87.5989C121.883 88.0531 120.96 87.5775 119.678 84.6904C118.77 82.3633 118.282 81.0626 121.827 79.5442C126.28 77.9111 130.195 76.6356 134.153 76.6356Z" stroke="#FF80B4"/>
<path d="M102.609 90.3908C100.58 92.649 100.853 94.5348 103.371 96.448C104.729 97.2843 105.527 97.3973 107.061 96.5494L117.803 89.9785C119.387 88.8995 119.64 87.9014 118.31 85.0358C117.154 82.8187 116.495 81.5938 112.994 83.2068C108.802 85.4152 105.237 87.4637 102.609 90.3908Z" stroke="#FF80B4"/>
<path d="M184.002 93.1074C185.314 90.6961 186.661 91.0577 189.204 92.1005L198.138 97.8061C200.852 100.044 198.839 101.443 195.877 103.4C193.505 104.731 192.834 104.028 191.353 103.4L184.002 100.044C181.348 98.7 181.27 97.9705 182.193 96.6873L184.002 93.1074Z" stroke="#FF80B4"/>
<path d="M182.018 91.9725C182.976 89.4034 181.811 88.6443 179.337 87.4489L169.1 84.6019C165.608 84.0708 165.881 86.4899 166.36 89.9819C166.921 92.6218 167.898 92.6541 169.354 93.3358L176.763 96.5642C179.538 97.6427 180.142 97.2176 180.504 95.684L182.018 91.9725Z" stroke="#FF80B4"/>
<path d="M171.483 76.4131C168.43 76.4131 167.186 77.8674 167.412 80.9999C167.682 82.5597 168.127 83.2251 169.787 83.7965L181.887 87.3764C183.754 87.8306 184.677 87.3551 185.958 84.4679C186.866 82.1408 187.354 80.8401 183.81 79.3218C179.357 77.6886 175.441 76.4131 171.483 76.4131Z" stroke="#FF80B4"/>
<path d="M203.028 90.3908C205.056 92.649 204.783 94.5348 202.266 96.448C200.908 97.2843 200.11 97.3973 198.576 96.5494L187.833 89.9785C186.25 88.8995 185.997 87.9014 187.327 85.0358C188.483 82.8187 189.141 81.5938 192.643 83.2068C196.835 85.4152 200.399 87.4637 203.028 90.3908Z" stroke="#FF80B4"/>
<path d="M78.9658 165.493C76.8125 165.81 76.3631 166.606 76.591 168.85C77.2841 173.18 77.7216 176.233 78.9658 179.142C80.1492 181.096 81.1037 181.294 83.15 180.596C86.4865 179.202 87.8996 179.142 88.9174 180.596C89.5959 181.491 94.2325 191.783 94.2325 191.783C95.0241 193.573 93.701 195.684 91.9707 197.265C90.1697 199.16 88.8835 200.171 90.1614 202.635C91.2557 205.125 92.7624 207.669 94.2325 208.564C95.8226 209.53 96.8676 209.696 99.3214 208.564C100.905 207.222 100.746 205.671 101.131 203.866" stroke="#FF80B4"/>
<path d="M70.151 135.668C68.0465 135.116 67.3158 135.671 66.6278 137.821C65.5327 142.069 64.7136 145.045 64.6931 148.203C64.9985 150.461 65.7959 151.016 67.9544 151.176C71.5765 151.201 72.8982 151.699 73.2514 153.433C73.5166 154.521 73.6592 165.788 73.6592 165.788C73.6704 167.742 71.6111 169.163 69.3899 169.938C66.978 170.973 65.3924 171.398 65.5807 174.161C65.59 176.877 65.9564 179.803 66.9487 181.2C68.0228 182.71 68.9163 183.271 71.6225 183.192C73.6134 182.578 74.088 181.092 75.1632 179.584" stroke="#FF80B4"/>
<path d="M61.0782 135.79C58.9738 135.239 58.243 135.793 57.5551 137.943C56.46 142.191 55.6408 145.167 55.6204 148.325C55.9258 150.583 56.7232 151.139 58.8817 151.298C62.5037 151.323 63.8254 151.821 64.1786 153.555C64.4439 154.643 64.5864 165.91 64.5864 165.91C64.5977 167.864 62.5384 169.285 60.3171 170.06C57.9052 171.095 56.3196 171.52 56.508 174.283C56.5172 176.999 56.8836 179.925 57.8759 181.322C58.95 182.832 59.8435 183.393 62.5497 183.314C64.5406 182.7 65.0152 181.214 66.0904 179.706" stroke="#FF80B4"/>
<path d="M51.5782 136.238C49.4738 135.687 48.743 136.241 48.0551 138.391C46.96 142.64 46.1408 145.615 46.1204 148.773C46.4258 151.031 47.2232 151.587 49.3817 151.746C53.0037 151.771 54.3254 152.27 54.6786 154.004C54.9439 155.091 55.0864 166.358 55.0864 166.358C55.0977 168.312 53.0384 169.733 50.8171 170.508C48.4052 171.543 46.8196 171.969 47.008 174.732C47.0172 177.447 47.3836 180.373 48.3759 181.77C49.45 183.28 50.3435 183.841 53.0497 183.762C55.0406 183.148 55.5152 181.662 56.5904 180.155" stroke="#FF80B4"/>
<path d="M41.1744 136.91C39.0699 136.359 38.3392 136.913 37.6512 139.063C36.5561 143.311 35.737 146.287 35.7166 149.445C36.022 151.703 36.8194 152.259 38.9779 152.418C42.5999 152.443 43.9216 152.941 44.2748 154.675C44.5401 155.763 44.6826 167.03 44.6826 167.03C44.6939 168.984 42.6346 170.405 40.4133 171.18C38.0014 172.215 36.4158 172.64 36.6042 175.403C36.6134 178.119 36.9798 181.045 37.9721 182.442C39.0462 183.952 39.9397 184.513 42.6459 184.434C44.6368 183.82 45.1114 182.334 46.1866 180.826" stroke="#FF80B4"/>
<path d="M78.3413 153.192C76.1879 152.875 75.7386 152.079 75.9664 149.836C76.6596 145.505 77.0971 142.452 78.3413 139.543C79.5247 137.589 80.4791 137.391 82.5255 138.089C85.862 139.484 87.2751 139.543 88.2929 138.089C88.9714 137.194 93.608 126.902 93.608 126.902C94.3996 125.112 93.0764 123.001 91.3462 121.42C89.5452 119.525 88.259 118.514 89.5368 116.05C90.6312 113.56 92.1378 111.016 93.608 110.121C95.198 109.155 96.2431 108.989 98.6969 110.121C100.28 111.463 100.122 113.014 100.506 114.819" stroke="#FF80B4"/>
<path d="M227.224 154.312C229.377 153.995 229.826 153.199 229.598 150.956C228.905 146.625 228.468 143.572 227.224 140.663C226.04 138.709 225.086 138.511 223.039 139.209C219.703 140.603 218.29 140.663 217.272 139.209C216.594 138.314 211.957 128.022 211.957 128.022C211.165 126.232 212.488 124.121 214.219 122.54C216.02 120.645 217.306 119.634 216.028 117.17C214.934 114.68 213.427 112.136 211.957 111.241C210.367 110.275 209.322 110.109 206.868 111.241C205.285 112.583 205.443 114.134 205.059 115.939" stroke="#FF80B4"/>
<path d="M226.998 166.165C229.151 166.482 229.6 167.278 229.372 169.521C228.679 173.852 228.242 176.905 226.998 179.814C225.814 181.768 224.86 181.966 222.813 181.268C219.477 179.873 218.064 179.814 217.046 181.268C216.367 182.163 211.731 192.455 211.731 192.455C210.939 194.245 212.262 196.356 213.993 197.937C215.794 199.832 217.08 200.843 215.802 203.307C214.708 205.797 213.201 208.341 211.731 209.236C210.141 210.202 209.096 210.368 206.642 209.236C205.059 207.894 205.217 206.343 204.833 204.538" stroke="#FF80B4"/>
<path d="M84.9604 122.981C86.0587 120.461 86.9146 119.895 89.0315 120.968C92.4665 123.152 93.0959 124.532 92.311 127.232L87.5614 136.853C86.8826 138.532 85.0436 137.866 83.151 136.853C80.5263 135.3 80.4881 134.449 80.8893 132.938L84.9604 122.981Z" stroke="#FF80B4"/>
<path d="M220.853 123.945C219.755 121.425 218.899 120.859 216.782 121.932C213.347 124.116 212.718 125.496 213.502 128.196L218.252 137.817C218.931 139.496 220.77 138.83 222.662 137.817C225.287 136.264 225.325 135.413 224.924 133.902L220.853 123.945Z" stroke="#FF80B4"/>
<path d="M220.627 196.5C219.528 199.02 218.672 199.586 216.555 198.514C213.12 196.33 212.491 194.949 213.276 192.249L218.026 182.628C218.704 180.95 220.543 181.615 222.436 182.628C225.061 184.181 225.099 185.032 224.698 186.543L220.627 196.5Z" stroke="#FF80B4"/>
<path d="M85.1469 195.605C86.2452 198.125 87.1011 198.692 89.2181 197.619C92.653 195.435 93.2824 194.054 92.4976 191.354L87.7479 181.733C87.0692 180.055 85.2301 180.72 83.3375 181.733C80.7128 183.286 80.6746 184.137 81.0758 185.648L85.1469 195.605Z" stroke="#FF80B4"/>
<path d="M89.4298 204.014C88.0902 202.263 87.3256 201.302 83.8373 203.043C79.9492 204.853 78.8263 203.762 77.5518 200.359L72.446 187.446C71.8542 185.613 71.1236 184.971 67.7701 185.819C65.3626 186.304 64.5126 186.95 64.8983 189.528L69.3318 202.093C70.3305 204.416 71.9033 206.564 75.8059 205.609C78.7047 205.021 79.7505 205.816 81.2611 207.921L84.9699 212.999C86.189 214.794 86.8438 215.897 88.9633 214.837C89.7374 214.56 90.2058 213.673 91.0716 213.33C92.9008 212.321 93.2032 211.336 91.8601 208.488L89.4298 204.014Z" stroke="#FF80B4"/>
<path d="M59.8501 187.201C61.9299 187.076 62.973 187.252 63.5993 190.042C64.6715 194.522 69.3165 204.174 69.3165 204.174C69.4755 204.391 70.3051 207.055 74.2217 206.878C76.9232 206.851 78.7192 207.114 79.9774 208.837L83.8187 214.097C85.0266 215.887 85.615 216.913 80.5398 220.305C78.7982 221.55 78.4154 221.195 76.3377 218.754L70.6982 211.605C68.7676 209.535 67.1392 209.267 64.4381 208.765C63.0149 208.357 62.2692 208.427 60.3017 204.82C58.2176 199.834 56.9482 197.084 56.0617 191.565C56.0728 189.073 56.5389 187.922 59.8501 187.201Z" stroke="#FF80B4"/>
<path d="M54.7846 193.444C54.5946 190.121 54.1749 188.641 50.6737 189.343C48.0818 190.238 47.306 191.308 47.1247 194.226C48.4127 200.072 49.8286 203.223 52.3581 208.842C53.5803 211.557 55.4092 212.57 58.5726 212.957C60.7168 213.219 62.6534 215.143 64.1454 217.531C65.616 219.608 68.6021 223.786 68.7814 223.879C71.0332 226.962 72.8563 226.211 75.0563 224.638C76.5229 223.59 77.3172 222.194 72.4163 215.484C69.8334 211.947 66.7774 210.819 64.5821 210.87C62.3869 210.921 60.9636 208.283 58.9887 204.931C56.6679 200.451 55.5343 197.938 54.7846 193.444Z" stroke="#FF80B4"/>
<path d="M45.1938 194.641C45.4167 189.789 39.8958 189.87 38.7255 194.571C38.1659 198.008 40.1534 205.696 44.4384 212.709C45.9157 216.069 51.0142 215.6 52.7362 217.957L60.5511 228.658C62.5396 231.58 63.7324 232.865 66.8721 230.626C69.0678 229.238 69.7371 228.22 67.2479 224.837L61.486 216.948C60.6251 215.769 58.1594 214.495 56.1071 214.168C54.4194 213.796 50.7637 210.095 50.5799 208.319C48.7449 202.178 45.2456 199.296 45.1938 194.641Z" stroke="#FF80B4"/>
<path d="M89.4298 204.014C88.0902 202.263 87.3256 201.302 83.8373 203.043C79.9492 204.853 78.8263 203.762 77.5518 200.359L72.446 187.446C71.8542 185.613 71.1236 184.971 67.7701 185.819C65.3626 186.304 64.5126 186.95 64.8983 189.528L69.3318 202.093C70.3305 204.416 71.9033 206.564 75.8059 205.609C78.7047 205.021 79.7505 205.816 81.2611 207.921L84.9699 212.999C86.189 214.794 86.8438 215.897 88.9633 214.837C89.7374 214.56 90.2058 213.673 91.0716 213.33C92.9008 212.321 93.2032 211.336 91.8601 208.488L89.4298 204.014Z" stroke="#FF80B4"/>
<path d="M59.8501 187.201C61.9299 187.076 62.973 187.252 63.5993 190.042C64.6715 194.522 69.3165 204.174 69.3165 204.174C69.4755 204.391 70.3051 207.055 74.2217 206.878C76.9232 206.851 78.7192 207.114 79.9774 208.837L83.8187 214.097C85.0266 215.887 85.615 216.913 80.5398 220.305C78.7982 221.55 78.4154 221.195 76.3377 218.754L70.6982 211.605C68.7676 209.535 67.1392 209.267 64.4381 208.765C63.0149 208.357 62.2692 208.427 60.3017 204.82C58.2176 199.834 56.9482 197.084 56.0617 191.565C56.0728 189.073 56.5389 187.922 59.8501 187.201Z" stroke="#FF80B4"/>
<path d="M54.7846 193.444C54.5946 190.121 54.1749 188.641 50.6737 189.343C48.0818 190.238 47.306 191.308 47.1247 194.226C48.4127 200.072 49.8286 203.223 52.3581 208.842C53.5803 211.557 55.4092 212.57 58.5726 212.957C60.7168 213.219 62.6534 215.143 64.1454 217.531C65.616 219.608 68.6021 223.786 68.7814 223.879C71.0332 226.962 72.8563 226.211 75.0563 224.638C76.5229 223.59 77.3172 222.194 72.4163 215.484C69.8334 211.947 66.7774 210.819 64.5821 210.87C62.3869 210.921 60.9636 208.283 58.9887 204.931C56.6679 200.451 55.5343 197.938 54.7846 193.444Z" stroke="#FF80B4"/>
<path d="M45.1938 194.641C45.4167 189.789 39.8958 189.87 38.7255 194.571C38.1659 198.008 40.1534 205.696 44.4384 212.709C45.9157 216.069 51.0142 215.6 52.7362 217.957L60.5511 228.658C62.5396 231.58 63.7324 232.865 66.8721 230.626C69.0678 229.238 69.7371 228.22 67.2479 224.837L61.486 216.948C60.6251 215.769 58.1594 214.495 56.1071 214.168C54.4194 213.796 50.7637 210.095 50.5799 208.319C48.7449 202.178 45.2456 199.296 45.1938 194.641Z" stroke="#FF80B4"/>
<path d="M88.9776 115.35C87.6381 117.102 86.8735 118.062 83.3851 116.321C79.4971 114.511 78.3742 115.602 77.0997 119.006L71.9938 131.918C71.4021 133.751 70.6714 134.394 67.318 133.545C64.9104 133.06 64.0604 132.414 64.4462 129.836L68.8796 117.271C69.8783 114.948 71.4511 112.8 75.3537 113.755C78.2525 114.343 79.2983 113.548 80.8089 111.444L84.5177 106.365C85.7369 104.57 86.3916 103.467 88.5111 104.527C89.2852 104.804 89.7536 105.691 90.6194 106.034C92.4487 107.043 92.7511 108.029 91.4079 110.876L88.9776 115.35Z" stroke="#FF80B4"/>
<path d="M59.399 132.164C61.4787 132.288 62.5218 132.112 63.1481 129.323C64.2204 124.842 68.8653 115.191 68.8653 115.191C69.0243 114.973 69.854 112.309 73.7706 112.486C76.472 112.513 78.268 112.25 79.5262 110.527L83.3675 105.268C84.5754 103.477 85.1638 102.451 80.0887 99.0595C78.347 97.8147 77.9643 98.1696 75.8865 100.611L70.247 107.759C68.3164 109.829 66.688 110.098 63.987 110.6C62.5638 111.007 61.818 110.937 59.8506 114.544C57.7665 119.53 56.497 122.28 55.6105 127.8C55.6217 130.291 56.0877 131.442 59.399 132.164Z" stroke="#FF80B4"/>
<path d="M54.333 125.919C54.143 129.242 53.7232 130.722 50.222 130.02C47.6301 129.125 46.8544 128.055 46.673 125.137C47.961 119.291 49.3769 116.14 51.9065 110.521C53.1286 107.806 54.9575 106.793 58.1209 106.406C60.2651 106.144 62.2017 104.22 63.6937 101.832C65.1644 99.7544 68.1504 95.5767 68.3297 95.4841C70.5815 92.4009 72.4047 93.152 74.6047 94.7244C76.0712 95.7727 76.8655 97.1685 71.9646 103.879C69.3817 107.415 66.3257 108.544 64.1305 108.493C61.9352 108.442 60.5119 111.08 58.537 114.432C56.2163 118.912 55.0827 121.425 54.333 125.919Z" stroke="#FF80B4"/>
<path d="M44.7417 124.722C44.9646 129.574 39.4436 129.493 38.2733 124.792C37.7137 121.355 39.7012 113.667 43.9862 106.654C45.4636 103.294 50.5621 103.763 52.284 101.406L60.099 90.7053C62.0874 87.7827 63.2803 86.4982 66.42 88.7364C68.6157 90.1252 69.285 91.1432 66.7958 94.5258L61.0339 102.415C60.1729 103.594 57.7073 104.868 55.655 105.195C53.9672 105.567 50.3116 109.268 50.1278 111.044C48.2927 117.185 44.7935 120.067 44.7417 124.722Z" stroke="#FF80B4"/>
<path d="M236.195 135.89C238.299 135.339 239.03 135.894 239.718 138.043C240.813 142.292 241.632 145.267 241.653 148.425C241.347 150.683 240.55 151.239 238.391 151.399C234.769 151.423 233.448 151.922 233.094 153.656C232.829 154.743 232.687 166.01 232.687 166.01C232.675 167.964 234.735 169.385 236.956 170.16C239.368 171.195 240.953 171.621 240.765 174.384C240.756 177.099 240.389 180.025 239.397 181.422C238.323 182.932 237.429 183.493 234.723 183.414C232.732 182.801 232.258 181.314 231.183 179.807" stroke="#FF80B4"/>
<path d="M245.267 136.014C247.372 135.463 248.103 136.018 248.791 138.167C249.886 142.416 250.705 145.391 250.725 148.55C250.42 150.808 249.623 151.363 247.464 151.523C243.842 151.548 242.52 152.046 242.167 153.78C241.902 154.867 241.759 166.135 241.759 166.135C241.748 168.088 243.807 169.509 246.029 170.284C248.44 171.32 250.026 171.745 249.838 174.508C249.829 177.223 249.462 180.149 248.47 181.547C247.396 183.056 246.502 183.617 243.796 183.538C241.805 182.925 241.331 181.439 240.255 179.931" stroke="#FF80B4"/>
<path d="M254.767 136.461C256.872 135.91 257.603 136.465 258.291 138.614C259.386 142.863 260.205 145.838 260.225 148.996C259.92 151.254 259.123 151.81 256.964 151.97C253.342 151.994 252.02 152.493 251.667 154.227C251.402 155.314 251.259 166.581 251.259 166.581C251.248 168.535 253.307 169.956 255.529 170.731C257.94 171.766 259.526 172.192 259.338 174.955C259.329 177.67 258.962 180.596 257.97 181.993C256.896 183.503 256.002 184.064 253.296 183.985C251.305 183.372 250.831 181.885 249.755 180.378" stroke="#FF80B4"/>
<path d="M265.172 137.133C267.276 136.582 268.007 137.136 268.695 139.286C269.79 143.535 270.609 146.51 270.63 149.668C270.324 151.926 269.527 152.482 267.368 152.641C263.746 152.666 262.425 153.165 262.071 154.899C261.806 155.986 261.664 167.253 261.664 167.253C261.652 169.207 263.712 170.628 265.933 171.403C268.345 172.438 269.93 172.864 269.742 175.626C269.733 178.342 269.366 181.268 268.374 182.665C267.3 184.175 266.406 184.736 263.7 184.657C261.709 184.043 261.235 182.557 260.16 181.05" stroke="#FF80B4"/>
<path d="M216.915 204.237C218.255 202.485 219.02 201.525 222.508 203.265C226.396 205.076 227.519 203.985 228.793 200.581L233.899 187.668C234.491 185.835 235.222 185.193 238.575 186.042C240.983 186.526 241.833 187.172 241.447 189.751L237.013 202.316C236.015 204.638 234.442 206.787 230.539 205.832C227.641 205.243 226.595 206.039 225.084 208.143L221.375 213.221C220.156 215.017 219.501 216.12 217.382 215.06C216.608 214.782 216.139 213.895 215.274 213.553C213.444 212.544 213.142 211.558 214.485 208.711L216.915 204.237Z" stroke="#FF80B4"/>
<path d="M246.494 187.424C244.414 187.3 243.371 187.476 242.745 190.265C241.673 194.746 237.028 204.397 237.028 204.397C236.869 204.615 236.039 207.279 232.122 207.102C229.421 207.075 227.625 207.338 226.367 209.061L222.526 214.32C221.318 216.111 220.729 217.137 225.804 220.528C227.546 221.773 227.929 221.418 230.007 218.977L235.646 211.829C237.577 209.758 239.205 209.49 241.906 208.988C243.329 208.581 244.075 208.651 246.043 205.044C248.127 200.058 249.396 197.308 250.283 191.788C250.271 189.297 249.805 188.146 246.494 187.424Z" stroke="#FF80B4"/>
<path d="M251.562 193.668C251.752 190.345 252.172 188.864 255.673 189.567C258.265 190.462 259.041 191.532 259.222 194.45C257.934 200.295 256.518 203.446 253.989 209.066C252.766 211.781 250.937 212.794 247.774 213.181C245.63 213.443 243.693 215.367 242.201 217.755C240.731 219.832 237.745 224.01 237.565 224.103C235.314 227.186 233.49 226.435 231.29 224.862C229.824 223.814 229.029 222.418 233.93 215.708C236.513 212.171 239.569 211.043 241.765 211.094C243.96 211.145 245.383 208.507 247.358 205.155C249.679 200.675 250.812 198.161 251.562 193.668Z" stroke="#FF80B4"/>
<path d="M261.152 194.864C260.929 190.012 266.45 190.094 267.62 194.795C268.18 198.231 266.192 205.92 261.907 212.933C260.43 216.293 255.331 215.823 253.61 218.181L245.795 228.881C243.806 231.804 242.613 233.088 239.474 230.85C237.278 229.462 236.609 228.444 239.098 225.061L244.86 217.172C245.721 215.993 248.186 214.719 250.239 214.392C251.926 214.019 255.582 210.319 255.766 208.543C257.601 202.401 261.1 199.52 261.152 194.864Z" stroke="#FF80B4"/>
<path d="M216.915 204.237C218.255 202.485 219.02 201.525 222.508 203.265C226.396 205.076 227.519 203.985 228.793 200.581L233.899 187.668C234.491 185.835 235.222 185.193 238.575 186.042C240.983 186.526 241.833 187.172 241.447 189.751L237.013 202.316C236.015 204.638 234.442 206.787 230.539 205.832C227.641 205.243 226.595 206.039 225.084 208.143L221.375 213.221C220.156 215.017 219.501 216.12 217.382 215.06C216.608 214.782 216.139 213.895 215.274 213.553C213.444 212.544 213.142 211.558 214.485 208.711L216.915 204.237Z" stroke="#FF80B4"/>
<path d="M246.494 187.424C244.414 187.3 243.371 187.476 242.745 190.265C241.673 194.746 237.028 204.397 237.028 204.397C236.869 204.615 236.039 207.279 232.122 207.102C229.421 207.075 227.625 207.338 226.367 209.061L222.526 214.32C221.318 216.111 220.729 217.137 225.804 220.528C227.546 221.773 227.929 221.418 230.007 218.977L235.646 211.829C237.577 209.758 239.205 209.49 241.906 208.988C243.329 208.581 244.075 208.651 246.043 205.044C248.127 200.058 249.396 197.308 250.283 191.788C250.271 189.297 249.805 188.146 246.494 187.424Z" stroke="#FF80B4"/>
<path d="M251.562 193.668C251.752 190.345 252.172 188.864 255.673 189.567C258.265 190.462 259.041 191.532 259.222 194.45C257.934 200.295 256.518 203.446 253.989 209.066C252.766 211.781 250.937 212.794 247.774 213.181C245.63 213.443 243.693 215.367 242.201 217.755C240.731 219.832 237.745 224.01 237.565 224.103C235.314 227.186 233.49 226.435 231.29 224.862C229.824 223.814 229.029 222.418 233.93 215.708C236.513 212.171 239.569 211.043 241.765 211.094C243.96 211.145 245.383 208.507 247.358 205.155C249.679 200.675 250.812 198.161 251.562 193.668Z" stroke="#FF80B4"/>
<path d="M261.152 194.864C260.929 190.012 266.45 190.094 267.62 194.795C268.18 198.231 266.192 205.92 261.907 212.933C260.43 216.293 255.331 215.823 253.61 218.181L245.795 228.881C243.806 231.804 242.613 233.088 239.474 230.85C237.278 229.462 236.609 228.444 239.098 225.061L244.86 217.172C245.721 215.993 248.186 214.719 250.239 214.392C251.926 214.019 255.582 210.319 255.766 208.543C257.601 202.401 261.1 199.52 261.152 194.864Z" stroke="#FF80B4"/>
<path d="M217.368 115.573C218.707 117.325 219.472 118.285 222.96 116.544C226.848 114.734 227.971 115.825 229.246 119.229L234.351 132.141C234.943 133.974 235.674 134.617 239.027 133.768C241.435 133.283 242.285 132.637 241.899 130.059L237.466 117.494C236.467 115.171 234.894 113.023 230.991 113.978C228.093 114.566 227.047 113.771 225.536 111.667L221.827 106.589C220.608 104.793 219.954 103.69 217.834 104.75C217.06 105.027 216.592 105.914 215.726 106.257C213.897 107.266 213.594 108.252 214.937 111.099L217.368 115.573Z" stroke="#FF80B4"/>
<path d="M246.947 132.387C244.867 132.511 243.824 132.335 243.198 129.546C242.125 125.066 237.48 115.414 237.48 115.414C237.321 115.196 236.492 112.532 232.575 112.709C229.874 112.736 228.078 112.473 226.819 110.75L222.978 105.491C221.77 103.7 221.182 102.674 226.257 99.2826C227.999 98.0378 228.381 98.3927 230.459 100.834L236.099 107.982C238.029 110.053 239.658 110.321 242.359 110.823C243.782 111.23 244.528 111.16 246.495 114.767C248.579 119.753 249.849 122.503 250.735 128.023C250.724 130.514 250.258 131.665 246.947 132.387Z" stroke="#FF80B4"/>
<path d="M252.014 126.142C252.204 129.465 252.624 130.945 256.125 130.243C258.717 129.348 259.493 128.278 259.674 125.36C258.386 119.514 256.97 116.363 254.441 110.744C253.219 108.029 251.39 107.016 248.226 106.629C246.082 106.367 244.145 104.443 242.653 102.055C241.183 99.9776 238.197 95.7999 238.017 95.7072C235.766 92.6241 233.943 93.3751 231.743 94.9476C230.276 95.9958 229.482 97.3917 234.383 104.102C236.965 107.639 240.021 108.767 242.217 108.716C244.412 108.665 245.835 111.303 247.81 114.655C250.131 119.135 251.265 121.648 252.014 126.142Z" stroke="#FF80B4"/>
<path d="M261.605 124.947C261.382 129.799 266.903 129.718 268.073 125.017C268.632 121.58 266.645 113.892 262.36 106.879C260.883 103.519 255.784 103.988 254.062 101.631L246.247 90.9303C244.259 88.0078 243.066 86.7233 239.926 88.9615C237.73 90.3503 237.061 91.3682 239.55 94.7508L245.312 102.64C246.173 103.819 248.639 105.093 250.691 105.42C252.379 105.792 256.035 109.493 256.218 111.269C258.053 117.41 261.553 120.292 261.605 124.947Z" stroke="#FF80B4"/>
<path d="M48.332 99.3578C55.2852 85.4623 61.0291 78.5427 73.5397 67.3149" stroke="#FF80B4"/>
<path d="M257.44 99.3578C250.487 85.4623 244.743 78.5427 232.233 67.3149" stroke="#FF80B4"/>
<path d="M257.44 220.663C250.487 234.559 244.743 241.478 232.233 252.706" stroke="#FF80B4"/>
<path d="M46.6128 220.663C53.566 234.559 59.3099 241.478 71.8204 252.706" stroke="#FF80B4"/>
<path d="M31.6427 141.701C28.7646 156.967 29.148 165.947 32.3109 182.446" stroke="#FF80B4"/>
<path d="M272.93 140.556C275.808 155.822 275.424 164.802 272.261 181.301" stroke="#FF80B4"/>
<path d="M132.546 40.1271C147.79 37.0422 156.786 37.3012 173.347 40.2323" stroke="#FF80B4"/>
<path d="M132.546 280.554C147.79 283.639 156.786 283.38 173.347 280.449" stroke="#FF80B4"/>
<circle cx="152.286" cy="159.085" r="129.171" fill="#15FF00"/>
<circle cx="356.24" cy="157.725" r="54.3879" fill="white"/>
<circle cx="356.241" cy="157.725" r="29.9134" fill="#D9D9D9"/>
<circle cx="356.241" cy="114.215" r="4.07909" fill="#D9D9D9"/>
<circle cx="377.996" cy="119.653" r="4.07909" fill="#D9D9D9"/>
<circle cx="387.514" cy="126.452" r="4.07909" fill="#D9D9D9"/>
<circle cx="394.312" cy="134.61" r="4.07909" fill="#D9D9D9"/>
<circle cx="377.996" cy="198.516" r="4.07909" fill="#D9D9D9"/>
<circle cx="367.118" cy="202.595" r="4.07909" fill="#D9D9D9"/>
<circle cx="356.241" cy="203.955" r="4.07909" fill="#D9D9D9"/>
<circle cx="334.485" cy="197.156" r="4.07909" fill="#D9D9D9"/>
<circle cx="324.967" cy="190.358" r="4.07909" fill="#D9D9D9"/>
<circle cx="318.169" cy="180.84" r="4.07909" fill="#D9D9D9"/>
<circle cx="311.371" cy="159.085" r="4.07909" fill="#D9D9D9"/>
<circle cx="314.09" cy="146.847" r="4.07909" fill="#D9D9D9"/>
<circle cx="318.169" cy="135.97" r="4.07909" fill="#D9D9D9"/>
<circle cx="344.003" cy="115.574" r="4.07909" fill="#D9D9D9"/>
<circle cx="333.125" cy="121.013" r="4.07909" fill="#D9D9D9"/>
<path d="M403.15 150.249C404.736 149.343 408.844 146.719 408.844 146.747C413.773 166.861 404.361 186.422 394.747 195.12L386.154 181.522C394.134 170.513 395.656 163.591 394.312 150.249L400.431 146.85L403.15 150.249Z" fill="#D9D9D9" stroke="#D9D9D9"/>
<circle cx="356.241" cy="157.725" r="21.7552" fill="#287621"/>
<rect x="354.881" y="175.401" width="2.7194" height="8.15819" fill="#D9D9D9"/>
<rect x="354.881" y="131.891" width="2.7194" height="8.15819" fill="#D9D9D9"/>
<rect x="375.276" y="159.085" width="2.7194" height="8.15819" transform="rotate(-90 375.276 159.085)" fill="#D9D9D9"/>
<rect x="330.406" y="159.085" width="2.7194" height="8.15819" transform="rotate(-90 330.406 159.085)" fill="#D9D9D9"/>
<rect x="337.205" y="140.675" width="2.7194" height="8.15819" transform="rotate(-46.9063 337.205 140.675)" fill="#D9D9D9"/>
<rect x="368.478" y="171.948" width="2.7194" height="8.15819" transform="rotate(-46.9063 368.478 171.948)" fill="#D9D9D9"/>
<rect x="341.887" y="168.752" width="2.7194" height="8.15819" transform="rotate(49.149 341.887 168.752)" fill="#D9D9D9"/>
<rect x="374.649" y="138.689" width="2.7194" height="8.15819" transform="rotate(49.149 374.649 138.689)" fill="#D9D9D9"/>
<path d="M494.93 294.375C462.977 170.642 436.463 100.618 358.28 98.5781C437.143 109.456 454.139 185.599 485.412 282.137L494.93 294.375Z" fill="#15FF00" stroke="#15FF00"/>
<rect width="108.776" height="20.3955" fill="#06BF00"/>
<rect y="108.776" width="108.776" height="20.3955" transform="rotate(-90 0 108.776)" fill="#06BF00"/>
<rect width="108.776" height="20.3955" transform="matrix(-1 0 0 1 503.088 0)" fill="#06BF00"/>
<rect width="108.776" height="20.3955" transform="matrix(0 -1 -1 0 503.088 108.776)" fill="#06BF00"/>
<circle cx="479.973" cy="296.414" r="16.3164" fill="#06BF00"/>
<rect x="100.618" y="10.8776" width="12.2373" height="12.2373" fill="#287621"/>
<rect x="8.15771" y="8.1582" width="12.2373" height="12.2373" fill="#287621"/>
<rect x="14.9561" y="101.977" width="12.2373" height="12.2373" fill="#287621"/>
<rect width="12.2373" height="12.2373" transform="matrix(-1 0 0 1 402.47 10.8776)" fill="#287621"/>
<rect width="12.2373" height="12.2373" transform="matrix(-1 0 0 1 494.93 8.1582)" fill="#287621"/>
<rect width="12.2373" height="12.2373" transform="matrix(-1 0 0 1 488.132 101.977)" fill="#287621"/>
<rect x="123.732" width="252.904" height="10.8776" fill="#287621"/>
<rect y="252.969" width="137.395" height="10.8776" transform="rotate(-90 0 252.969)" fill="#287621"/>
<rect x="492.438" y="252.987" width="137.395" height="10.8776" transform="rotate(-90.095 492.438 252.987)" fill="#287621"/>
<path d="M8.15771 299.133C13.3542 243.419 22.6344 174.619 23.7942 159.085L27.8733 183.559C18.1466 228.148 17.1186 253.694 14.2764 299.133H8.15771Z" fill="#15FF00" stroke="#15FF00"/>
<circle cx="23.1147" cy="296.414" r="16.3164" fill="#06BF00"/>
<rect x="416.067" y="29.9133" width="59.8267" height="10.8776" fill="#287621"/>
<rect x="416.067" y="44.87" width="59.8267" height="10.8776" fill="#287621"/>
<rect x="416.067" y="59.8267" width="59.8267" height="10.8776" fill="#287621"/>
<circle cx="111.494" cy="301.853" r="13.597" fill="#287621"/>
<circle cx="161.804" cy="301.853" r="13.597" fill="#287621"/>
<path d="M152.286 34.4924C221.099 34.4924 276.878 89.9723 276.878 158.405C276.878 226.837 221.099 282.318 152.286 282.318C83.4729 282.317 27.6938 226.837 27.6938 158.405C27.694 89.9725 83.473 34.4927 152.286 34.4924Z" stroke="#287621"/>
<path d="M403.191 285.536H94.4627L76.1426 319.529H424.225L403.191 285.536Z" fill="#06BF00"/>
<circle cx="111.494" cy="303.213" r="13.597" fill="#287621"/>
<circle cx="160.444" cy="303.213" r="13.597" fill="#287621"/>
<circle cx="339.924" cy="301.853" r="13.597" fill="#287621"/>
<circle cx="388.873" cy="301.853" r="13.597" fill="#287621"/>
</svg>
