<svg width="36" height="36" viewBox="0 0 36 36" fill="none" xmlns="http://www.w3.org/2000/svg">
<rect x="16" width="4" height="4" fill="#FF0066"/>
<rect x="12" width="4" height="4" fill="#FF0066"/>
<rect x="20" width="4" height="4" fill="#FF0066"/>
<rect x="32" y="12" width="4" height="4" fill="#FF0066"/>
<rect x="28" y="8" width="4" height="4" fill="#FF0066"/>
<rect x="24" y="4" width="4" height="4" fill="#FF0066"/>
<rect x="32" y="16" width="4" height="4" fill="#FF0066"/>
<rect x="32" y="20" width="4" height="4" fill="#FF0066"/>
<rect x="24" y="28" width="4" height="4" fill="#FF0066"/>
<rect x="28" y="24" width="4" height="4" fill="#FF0066"/>
<rect width="4" height="4" transform="matrix(-1 0 0 1 4 12)" fill="#FF0066"/>
<rect width="4" height="4" transform="matrix(-1 0 0 1 8 8)" fill="#FF0066"/>
<rect width="4" height="4" transform="matrix(-1 0 0 1 12 4)" fill="#FF0066"/>
<rect width="4" height="4" transform="matrix(-1 0 0 1 4 16)" fill="#FF0066"/>
<rect width="4" height="4" transform="matrix(-1 0 0 1 4 20)" fill="#FF0066"/>
<rect width="4" height="4" transform="matrix(-1 0 0 1 12 28)" fill="#FF0066"/>
<rect width="4" height="4" transform="matrix(-1 0 0 1 8 24)" fill="#FF0066"/>
<rect x="16" y="32" width="4" height="4" fill="#FF0066"/>
<rect x="12" y="32" width="4" height="4" fill="#FF0066"/>
<rect x="20" y="32" width="4" height="4" fill="#FF0066"/>
</svg>
