<svg width="2323" height="35" viewBox="0 0 2323 35" fill="none" xmlns="http://www.w3.org/2000/svg">
<path d="M386.96 17.1231C392.486 36.1167 394.379 32.1674 399.232 17.377C403.817 0.386211 406.37 1.68921 410.953 17.377C416.077 34.1945 418.708 34.5445 423.162 17.377C427.739 -6.57872 430.305 -2.22347 434.883 17.377C440.843 42.7403 442.892 36.1021 446.115 17.377C450.215 0.273054 453.225 2.16743 459.301 17.377C464.062 34.1071 466.735 34.3819 471.511 17.377C475.892 0.542118 478.362 2.38865 482.743 17.377" stroke="#FF0066" stroke-width="2"/>
<path d="M482.743 17.377C488.269 36.3707 491.076 32.1674 495.929 17.377C500.514 0.386212 503.068 1.68921 507.65 17.377C512.775 34.1945 515.405 34.5445 519.859 17.377C524.436 -6.57872 527.003 -2.22347 531.58 17.377C537.54 42.7403 539.589 36.1021 542.813 17.377C546.912 0.273055 549.922 2.16743 555.999 17.377C560.76 34.1071 563.433 34.3819 568.208 17.377C572.59 0.542118 575.059 2.38865 579.44 17.377" stroke="#FF0066" stroke-width="2"/>
<path d="M579.44 17.377C584.966 36.3707 587.773 32.1674 592.626 17.377C597.211 0.386212 599.765 1.68921 604.347 17.377C609.472 34.1945 612.102 34.5445 616.556 17.377C621.133 -6.57872 623.7 -2.22347 628.277 17.377C634.237 42.7403 636.286 36.1021 639.51 17.377C643.61 0.273055 646.619 2.16743 652.696 17.377C657.457 34.1071 660.13 34.3819 664.905 17.377C669.287 0.542118 671.756 2.38865 676.137 17.377" stroke="#FF0066" stroke-width="2"/>
<path d="M676.137 17.377C681.664 36.3707 684.471 32.1674 689.323 17.377C693.908 0.386211 696.462 1.68921 701.044 17.377C706.169 34.1945 708.8 34.5445 713.254 17.377C717.83 -6.57872 720.397 -2.22347 724.974 17.377C730.935 42.7403 732.983 36.1021 736.207 17.377C740.307 0.273054 743.317 2.16743 749.393 17.377C754.154 34.1071 756.827 34.3819 761.602 17.377C765.984 0.542118 768.661 2.50289 773.043 17.4913" stroke="#FF0066" stroke-width="2"/>
<path d="M772.96 17.1231C778.486 36.1167 780.379 32.1674 785.232 17.377C789.817 0.386211 792.37 1.68921 796.953 17.377C802.077 34.1945 804.708 34.5445 809.162 17.377C813.739 -6.57872 816.305 -2.22347 820.883 17.377C826.843 42.7403 828.892 36.1021 832.115 17.377C836.215 0.273054 839.225 2.16743 845.301 17.377C850.062 34.1071 852.735 34.3819 857.511 17.377C861.892 0.542118 864.362 2.38865 868.743 17.377" stroke="#FF0066" stroke-width="2"/>
<path d="M868.743 17.377C874.269 36.3707 877.076 32.1674 881.929 17.377C886.514 0.386212 889.068 1.68921 893.65 17.377C898.775 34.1945 901.405 34.5445 905.859 17.377C910.436 -6.57872 913.003 -2.22347 917.58 17.377C923.54 42.7403 925.589 36.1021 928.813 17.377C932.912 0.273055 935.922 2.16743 941.999 17.377C946.76 34.1071 949.433 34.3819 954.208 17.377C958.59 0.542118 961.059 2.38865 965.44 17.377" stroke="#FF0066" stroke-width="2"/>
<path d="M965.44 17.377C970.966 36.3707 973.773 32.1674 978.626 17.377C983.211 0.386212 985.765 1.68921 990.347 17.377C995.472 34.1945 998.102 34.5445 1002.56 17.377C1007.13 -6.57872 1009.7 -2.22347 1014.28 17.377C1020.24 42.7403 1022.29 36.1021 1025.51 17.377C1029.61 0.273055 1032.62 2.16743 1038.7 17.377C1043.46 34.1071 1046.13 34.3819 1050.9 17.377C1055.29 0.542118 1057.76 2.38865 1062.14 17.377" stroke="#FF0066" stroke-width="2"/>
<path d="M1062.14 17.377C1067.66 36.3707 1070.47 32.1674 1075.32 17.377C1079.91 0.386211 1082.46 1.68921 1087.04 17.377C1092.17 34.1945 1094.8 34.5445 1099.25 17.377C1103.83 -6.57872 1106.4 -2.22347 1110.97 17.377C1116.93 42.7403 1118.98 36.1021 1122.21 17.377C1126.31 0.273054 1129.32 2.16743 1135.39 17.377C1140.15 34.1071 1142.83 34.3819 1147.6 17.377C1151.98 0.542118 1154.66 2.50289 1159.04 17.4913" stroke="#FF0066" stroke-width="2"/>
<path d="M0.96009 17.1231C6.48618 36.1167 8.37901 32.1674 13.2319 17.377C17.8165 0.386211 20.3703 1.68921 24.9527 17.377C30.0773 34.1945 32.7081 34.5445 37.162 17.377C41.7389 -6.57872 44.3052 -2.22347 48.8828 17.377C54.8431 42.7403 56.8916 36.1021 60.1153 17.377C64.2152 0.273054 67.2252 2.16743 73.3013 17.377C78.0623 34.1071 80.7355 34.3819 85.5105 17.377C89.8922 0.542118 92.3618 2.38865 96.743 17.377" stroke="#FF0066" stroke-width="2"/>
<path d="M96.7432 17.377C102.269 36.3707 105.076 32.1674 109.929 17.377C114.514 0.386212 117.068 1.68921 121.65 17.377C126.775 34.1945 129.405 34.5445 133.859 17.377C138.436 -6.57872 141.003 -2.22347 145.58 17.377C151.54 42.7403 153.589 36.1021 156.813 17.377C160.912 0.273055 163.922 2.16743 169.999 17.377C174.76 34.1071 177.433 34.3819 182.208 17.377C186.59 0.542118 189.059 2.38865 193.44 17.377" stroke="#FF0066" stroke-width="2"/>
<path d="M193.44 17.377C198.966 36.3707 201.773 32.1674 206.626 17.377C211.211 0.386212 213.765 1.68921 218.347 17.377C223.472 34.1945 226.102 34.5445 230.556 17.377C235.133 -6.57872 237.7 -2.22347 242.277 17.377C248.237 42.7403 250.286 36.1021 253.51 17.377C257.61 0.273055 260.619 2.16743 266.696 17.377C271.457 34.1071 274.13 34.3819 278.905 17.377C283.287 0.542118 285.756 2.38865 290.137 17.377" stroke="#FF0066" stroke-width="2"/>
<path d="M290.137 17.377C295.664 36.3707 298.471 32.1674 303.323 17.377C307.908 0.386211 310.462 1.68921 315.044 17.377C320.169 34.1945 322.8 34.5445 327.254 17.377C331.83 -6.57872 334.397 -2.22347 338.974 17.377C344.935 42.7403 346.983 36.1021 350.207 17.377C354.307 0.273054 357.317 2.16743 363.393 17.377C368.154 34.1071 370.827 34.3819 375.602 17.377C379.984 0.542118 382.661 2.50289 387.043 17.4913" stroke="#FF0066" stroke-width="2"/>
<path d="M391.96 17.1231C397.486 36.1167 399.379 32.1674 404.232 17.377C408.817 0.386211 411.37 1.68921 415.953 17.377C421.077 34.1945 423.708 34.5445 428.162 17.377C432.739 -6.57872 435.305 -2.22347 439.883 17.377C445.843 42.7403 447.892 36.1021 451.115 17.377C455.215 0.273054 458.225 2.16743 464.301 17.377C469.062 34.1071 471.735 34.3819 476.511 17.377C480.892 0.542118 483.362 2.38865 487.743 17.377" stroke="white" stroke-width="2"/>
<path d="M487.743 17.377C493.269 36.3707 496.076 32.1674 500.929 17.377C505.514 0.386212 508.068 1.68921 512.65 17.377C517.775 34.1945 520.405 34.5445 524.859 17.377C529.436 -6.57872 532.003 -2.22347 536.58 17.377C542.54 42.7403 544.589 36.1021 547.813 17.377C551.912 0.273055 554.922 2.16743 560.999 17.377C565.76 34.1071 568.433 34.3819 573.208 17.377C577.59 0.542118 580.059 2.38865 584.44 17.377" stroke="white" stroke-width="2"/>
<path d="M584.44 17.377C589.966 36.3707 592.773 32.1674 597.626 17.377C602.211 0.386212 604.765 1.68921 609.347 17.377C614.472 34.1945 617.102 34.5445 621.556 17.377C626.133 -6.57872 628.7 -2.22347 633.277 17.377C639.237 42.7403 641.286 36.1021 644.51 17.377C648.61 0.273055 651.619 2.16743 657.696 17.377C662.457 34.1071 665.13 34.3819 669.905 17.377C674.287 0.542118 676.756 2.38865 681.137 17.377" stroke="white" stroke-width="2"/>
<path d="M681.137 17.377C686.664 36.3707 689.471 32.1674 694.323 17.377C698.908 0.386211 701.462 1.68921 706.044 17.377C711.169 34.1945 713.8 34.5445 718.254 17.377C722.83 -6.57872 725.397 -2.22347 729.974 17.377C735.935 42.7403 737.983 36.1021 741.207 17.377C745.307 0.273054 748.317 2.16743 754.393 17.377C759.154 34.1071 761.827 34.3819 766.602 17.377C770.984 0.542118 773.661 2.50289 778.043 17.4913" stroke="white" stroke-width="2"/>
<path d="M777.96 17.1231C783.486 36.1167 785.379 32.1674 790.232 17.377C794.817 0.386211 797.37 1.68921 801.953 17.377C807.077 34.1945 809.708 34.5445 814.162 17.377C818.739 -6.57872 821.305 -2.22347 825.883 17.377C831.843 42.7403 833.892 36.1021 837.115 17.377C841.215 0.273054 844.225 2.16743 850.301 17.377C855.062 34.1071 857.735 34.3819 862.511 17.377C866.892 0.542118 869.362 2.38865 873.743 17.377" stroke="white" stroke-width="2"/>
<path d="M873.743 17.377C879.269 36.3707 882.076 32.1674 886.929 17.377C891.514 0.386212 894.068 1.68921 898.65 17.377C903.775 34.1945 906.405 34.5445 910.859 17.377C915.436 -6.57872 918.003 -2.22347 922.58 17.377C928.54 42.7403 930.589 36.1021 933.813 17.377C937.912 0.273055 940.922 2.16743 946.999 17.377C951.76 34.1071 954.433 34.3819 959.208 17.377C963.59 0.542118 966.059 2.38865 970.44 17.377" stroke="white" stroke-width="2"/>
<path d="M970.44 17.377C975.966 36.3707 978.773 32.1674 983.626 17.377C988.211 0.386212 990.765 1.68921 995.347 17.377C1000.47 34.1945 1003.1 34.5445 1007.56 17.377C1012.13 -6.57872 1014.7 -2.22347 1019.28 17.377C1025.24 42.7403 1027.29 36.1021 1030.51 17.377C1034.61 0.273055 1037.62 2.16743 1043.7 17.377C1048.46 34.1071 1051.13 34.3819 1055.9 17.377C1060.29 0.542118 1062.76 2.38865 1067.14 17.377" stroke="white" stroke-width="2"/>
<path d="M1067.14 17.377C1072.66 36.3707 1075.47 32.1674 1080.32 17.377C1084.91 0.386211 1087.46 1.68921 1092.04 17.377C1097.17 34.1945 1099.8 34.5445 1104.25 17.377C1108.83 -6.57872 1111.4 -2.22347 1115.97 17.377C1121.93 42.7403 1123.98 36.1021 1127.21 17.377C1131.31 0.273054 1134.32 2.16743 1140.39 17.377C1145.15 34.1071 1147.83 34.3819 1152.6 17.377C1156.98 0.542118 1159.66 2.50289 1164.04 17.4913" stroke="white" stroke-width="2"/>
<path d="M5.96009 17.1231C11.4862 36.1167 13.379 32.1674 18.2319 17.377C22.8165 0.386211 25.3703 1.68921 29.9527 17.377C35.0773 34.1945 37.7081 34.5445 42.162 17.377C46.7389 -6.57872 49.3052 -2.22347 53.8828 17.377C59.8431 42.7403 61.8916 36.1021 65.1153 17.377C69.2152 0.273054 72.2252 2.16743 78.3013 17.377C83.0623 34.1071 85.7355 34.3819 90.5105 17.377C94.8922 0.542118 97.3618 2.38865 101.743 17.377" stroke="white" stroke-width="2"/>
<path d="M101.743 17.377C107.269 36.3707 110.076 32.1674 114.929 17.377C119.514 0.386212 122.068 1.68921 126.65 17.377C131.775 34.1945 134.405 34.5445 138.859 17.377C143.436 -6.57872 146.003 -2.22347 150.58 17.377C156.54 42.7403 158.589 36.1021 161.813 17.377C165.912 0.273055 168.922 2.16743 174.999 17.377C179.76 34.1071 182.433 34.3819 187.208 17.377C191.59 0.542118 194.059 2.38865 198.44 17.377" stroke="white" stroke-width="2"/>
<path d="M198.44 17.377C203.966 36.3707 206.773 32.1674 211.626 17.377C216.211 0.386212 218.765 1.68921 223.347 17.377C228.472 34.1945 231.102 34.5445 235.556 17.377C240.133 -6.57872 242.7 -2.22347 247.277 17.377C253.237 42.7403 255.286 36.1021 258.51 17.377C262.61 0.273055 265.619 2.16743 271.696 17.377C276.457 34.1071 279.13 34.3819 283.905 17.377C288.287 0.542118 290.756 2.38865 295.137 17.377" stroke="white" stroke-width="2"/>
<path d="M295.137 17.377C300.664 36.3707 303.471 32.1674 308.323 17.377C312.908 0.386211 315.462 1.68921 320.044 17.377C325.169 34.1945 327.8 34.5445 332.254 17.377C336.83 -6.57872 339.397 -2.22347 343.974 17.377C349.935 42.7403 351.983 36.1021 355.207 17.377C359.307 0.273054 362.317 2.16743 368.393 17.377C373.154 34.1071 375.827 34.3819 380.602 17.377C384.984 0.542118 387.661 2.50289 392.043 17.4913" stroke="white" stroke-width="2"/>
<path d="M1544.96 17.1231C1550.49 36.1167 1552.38 32.1674 1557.23 17.377C1561.82 0.386211 1564.37 1.68921 1568.95 17.377C1574.08 34.1945 1576.71 34.5445 1581.16 17.377C1585.74 -6.57872 1588.31 -2.22347 1592.88 17.377C1598.84 42.7403 1600.89 36.1021 1604.12 17.377C1608.22 0.273054 1611.23 2.16743 1617.3 17.377C1622.06 34.1071 1624.74 34.3819 1629.51 17.377C1633.89 0.542118 1636.36 2.38865 1640.74 17.377" stroke="#FF0066" stroke-width="2"/>
<path d="M1640.74 17.377C1646.27 36.3707 1649.08 32.1674 1653.93 17.377C1658.51 0.386212 1661.07 1.68921 1665.65 17.377C1670.77 34.1945 1673.41 34.5445 1677.86 17.377C1682.44 -6.57872 1685 -2.22347 1689.58 17.377C1695.54 42.7403 1697.59 36.1021 1700.81 17.377C1704.91 0.273055 1707.92 2.16743 1714 17.377C1718.76 34.1071 1721.43 34.3819 1726.21 17.377C1730.59 0.542118 1733.06 2.38865 1737.44 17.377" stroke="#FF0066" stroke-width="2"/>
<path d="M1737.44 17.377C1742.97 36.3707 1745.77 32.1674 1750.63 17.377C1755.21 0.386212 1757.76 1.68921 1762.35 17.377C1767.47 34.1945 1770.1 34.5445 1774.56 17.377C1779.13 -6.57872 1781.7 -2.22347 1786.28 17.377C1792.24 42.7403 1794.29 36.1021 1797.51 17.377C1801.61 0.273055 1804.62 2.16743 1810.7 17.377C1815.46 34.1071 1818.13 34.3819 1822.91 17.377C1827.29 0.542118 1829.76 2.38865 1834.14 17.377" stroke="#FF0066" stroke-width="2"/>
<path d="M1834.14 17.377C1839.66 36.3707 1842.47 32.1674 1847.32 17.377C1851.91 0.386211 1854.46 1.68921 1859.04 17.377C1864.17 34.1945 1866.8 34.5445 1871.25 17.377C1875.83 -6.57872 1878.4 -2.22347 1882.97 17.377C1888.93 42.7403 1890.98 36.1021 1894.21 17.377C1898.31 0.273054 1901.32 2.16743 1907.39 17.377C1912.15 34.1071 1914.83 34.3819 1919.6 17.377C1923.98 0.542118 1926.66 2.50289 1931.04 17.4913" stroke="#FF0066" stroke-width="2"/>
<path d="M1930.96 17.1231C1936.49 36.1167 1938.38 32.1674 1943.23 17.377C1947.82 0.386211 1950.37 1.68921 1954.95 17.377C1960.08 34.1945 1962.71 34.5445 1967.16 17.377C1971.74 -6.57872 1974.31 -2.22347 1978.88 17.377C1984.84 42.7403 1986.89 36.1021 1990.12 17.377C1994.22 0.273054 1997.23 2.16743 2003.3 17.377C2008.06 34.1071 2010.74 34.3819 2015.51 17.377C2019.89 0.542118 2022.36 2.38865 2026.74 17.377" stroke="#FF0066" stroke-width="2"/>
<path d="M2026.74 17.377C2032.27 36.3707 2035.08 32.1674 2039.93 17.377C2044.51 0.386212 2047.07 1.68921 2051.65 17.377C2056.77 34.1945 2059.41 34.5445 2063.86 17.377C2068.44 -6.57872 2071 -2.22347 2075.58 17.377C2081.54 42.7403 2083.59 36.1021 2086.81 17.377C2090.91 0.273055 2093.92 2.16743 2100 17.377C2104.76 34.1071 2107.43 34.3819 2112.21 17.377C2116.59 0.542118 2119.06 2.38865 2123.44 17.377" stroke="#FF0066" stroke-width="2"/>
<path d="M2123.44 17.377C2128.97 36.3707 2131.77 32.1674 2136.63 17.377C2141.21 0.386212 2143.76 1.68921 2148.35 17.377C2153.47 34.1945 2156.1 34.5445 2160.56 17.377C2165.13 -6.57872 2167.7 -2.22347 2172.28 17.377C2178.24 42.7403 2180.29 36.1021 2183.51 17.377C2187.61 0.273055 2190.62 2.16743 2196.7 17.377C2201.46 34.1071 2204.13 34.3819 2208.91 17.377C2213.29 0.542118 2215.76 2.38865 2220.14 17.377" stroke="#FF0066" stroke-width="2"/>
<path d="M2220.14 17.377C2225.66 36.3707 2228.47 32.1674 2233.32 17.377C2237.91 0.386211 2240.46 1.68921 2245.04 17.377C2250.17 34.1945 2252.8 34.5445 2257.25 17.377C2261.83 -6.57872 2264.4 -2.22347 2268.97 17.377C2274.93 42.7403 2276.98 36.1021 2280.21 17.377C2284.31 0.273054 2287.32 2.16743 2293.39 17.377C2298.15 34.1071 2300.83 34.3819 2305.6 17.377C2309.98 0.542118 2312.66 2.50289 2317.04 17.4913" stroke="#FF0066" stroke-width="2"/>
<path d="M1158.96 17.1231C1164.49 36.1167 1166.38 32.1674 1171.23 17.377C1175.82 0.386211 1178.37 1.68921 1182.95 17.377C1188.08 34.1945 1190.71 34.5445 1195.16 17.377C1199.74 -6.57872 1202.31 -2.22347 1206.88 17.377C1212.84 42.7403 1214.89 36.1021 1218.12 17.377C1222.22 0.273054 1225.23 2.16743 1231.3 17.377C1236.06 34.1071 1238.74 34.3819 1243.51 17.377C1247.89 0.542118 1250.36 2.38865 1254.74 17.377" stroke="#FF0066" stroke-width="2"/>
<path d="M1254.74 17.377C1260.27 36.3707 1263.08 32.1674 1267.93 17.377C1272.51 0.386212 1275.07 1.68921 1279.65 17.377C1284.77 34.1945 1287.41 34.5445 1291.86 17.377C1296.44 -6.57872 1299 -2.22347 1303.58 17.377C1309.54 42.7403 1311.59 36.1021 1314.81 17.377C1318.91 0.273055 1321.92 2.16743 1328 17.377C1332.76 34.1071 1335.43 34.3819 1340.21 17.377C1344.59 0.542118 1347.06 2.38865 1351.44 17.377" stroke="#FF0066" stroke-width="2"/>
<path d="M1351.44 17.377C1356.97 36.3707 1359.77 32.1674 1364.63 17.377C1369.21 0.386212 1371.76 1.68921 1376.35 17.377C1381.47 34.1945 1384.1 34.5445 1388.56 17.377C1393.13 -6.57872 1395.7 -2.22347 1400.28 17.377C1406.24 42.7403 1408.29 36.1021 1411.51 17.377C1415.61 0.273055 1418.62 2.16743 1424.7 17.377C1429.46 34.1071 1432.13 34.3819 1436.91 17.377C1441.29 0.542118 1443.76 2.38865 1448.14 17.377" stroke="#FF0066" stroke-width="2"/>
<path d="M1448.14 17.377C1453.66 36.3707 1456.47 32.1674 1461.32 17.377C1465.91 0.386211 1468.46 1.68921 1473.04 17.377C1478.17 34.1945 1480.8 34.5445 1485.25 17.377C1489.83 -6.57872 1492.4 -2.22347 1496.97 17.377C1502.93 42.7403 1504.98 36.1021 1508.21 17.377C1512.31 0.273054 1515.32 2.16743 1521.39 17.377C1526.15 34.1071 1528.83 34.3819 1533.6 17.377C1537.98 0.542118 1540.66 2.50289 1545.04 17.4913" stroke="#FF0066" stroke-width="2"/>
<path d="M1549.96 17.1231C1555.49 36.1167 1557.38 32.1674 1562.23 17.377C1566.82 0.386211 1569.37 1.68921 1573.95 17.377C1579.08 34.1945 1581.71 34.5445 1586.16 17.377C1590.74 -6.57872 1593.31 -2.22347 1597.88 17.377C1603.84 42.7403 1605.89 36.1021 1609.12 17.377C1613.22 0.273054 1616.23 2.16743 1622.3 17.377C1627.06 34.1071 1629.74 34.3819 1634.51 17.377C1638.89 0.542118 1641.36 2.38865 1645.74 17.377" stroke="white" stroke-width="2"/>
<path d="M1645.74 17.377C1651.27 36.3707 1654.08 32.1674 1658.93 17.377C1663.51 0.386212 1666.07 1.68921 1670.65 17.377C1675.77 34.1945 1678.41 34.5445 1682.86 17.377C1687.44 -6.57872 1690 -2.22347 1694.58 17.377C1700.54 42.7403 1702.59 36.1021 1705.81 17.377C1709.91 0.273055 1712.92 2.16743 1719 17.377C1723.76 34.1071 1726.43 34.3819 1731.21 17.377C1735.59 0.542118 1738.06 2.38865 1742.44 17.377" stroke="white" stroke-width="2"/>
<path d="M1742.44 17.377C1747.97 36.3707 1750.77 32.1674 1755.63 17.377C1760.21 0.386212 1762.76 1.68921 1767.35 17.377C1772.47 34.1945 1775.1 34.5445 1779.56 17.377C1784.13 -6.57872 1786.7 -2.22347 1791.28 17.377C1797.24 42.7403 1799.29 36.1021 1802.51 17.377C1806.61 0.273055 1809.62 2.16743 1815.7 17.377C1820.46 34.1071 1823.13 34.3819 1827.91 17.377C1832.29 0.542118 1834.76 2.38865 1839.14 17.377" stroke="white" stroke-width="2"/>
<path d="M1839.14 17.377C1844.66 36.3707 1847.47 32.1674 1852.32 17.377C1856.91 0.386211 1859.46 1.68921 1864.04 17.377C1869.17 34.1945 1871.8 34.5445 1876.25 17.377C1880.83 -6.57872 1883.4 -2.22347 1887.97 17.377C1893.93 42.7403 1895.98 36.1021 1899.21 17.377C1903.31 0.273054 1906.32 2.16743 1912.39 17.377C1917.15 34.1071 1919.83 34.3819 1924.6 17.377C1928.98 0.542118 1931.66 2.50289 1936.04 17.4913" stroke="white" stroke-width="2"/>
<path d="M1935.96 17.1231C1941.49 36.1167 1943.38 32.1674 1948.23 17.377C1952.82 0.386211 1955.37 1.68921 1959.95 17.377C1965.08 34.1945 1967.71 34.5445 1972.16 17.377C1976.74 -6.57872 1979.31 -2.22347 1983.88 17.377C1989.84 42.7403 1991.89 36.1021 1995.12 17.377C1999.22 0.273054 2002.23 2.16743 2008.3 17.377C2013.06 34.1071 2015.74 34.3819 2020.51 17.377C2024.89 0.542118 2027.36 2.38865 2031.74 17.377" stroke="white" stroke-width="2"/>
<path d="M2031.74 17.377C2037.27 36.3707 2040.08 32.1674 2044.93 17.377C2049.51 0.386212 2052.07 1.68921 2056.65 17.377C2061.77 34.1945 2064.41 34.5445 2068.86 17.377C2073.44 -6.57872 2076 -2.22347 2080.58 17.377C2086.54 42.7403 2088.59 36.1021 2091.81 17.377C2095.91 0.273055 2098.92 2.16743 2105 17.377C2109.76 34.1071 2112.43 34.3819 2117.21 17.377C2121.59 0.542118 2124.06 2.38865 2128.44 17.377" stroke="white" stroke-width="2"/>
<path d="M2128.44 17.377C2133.97 36.3707 2136.77 32.1674 2141.63 17.377C2146.21 0.386212 2148.76 1.68921 2153.35 17.377C2158.47 34.1945 2161.1 34.5445 2165.56 17.377C2170.13 -6.57872 2172.7 -2.22347 2177.28 17.377C2183.24 42.7403 2185.29 36.1021 2188.51 17.377C2192.61 0.273055 2195.62 2.16743 2201.7 17.377C2206.46 34.1071 2209.13 34.3819 2213.91 17.377C2218.29 0.542118 2220.76 2.38865 2225.14 17.377" stroke="white" stroke-width="2"/>
<path d="M2225.14 17.377C2230.66 36.3707 2233.47 32.1674 2238.32 17.377C2242.91 0.386211 2245.46 1.68921 2250.04 17.377C2255.17 34.1945 2257.8 34.5445 2262.25 17.377C2266.83 -6.57872 2269.4 -2.22347 2273.97 17.377C2279.93 42.7403 2281.98 36.1021 2285.21 17.377C2289.31 0.273054 2292.32 2.16743 2298.39 17.377C2303.15 34.1071 2305.83 34.3819 2310.6 17.377C2314.98 0.542118 2317.66 2.50289 2322.04 17.4913" stroke="white" stroke-width="2"/>
<path d="M1163.96 17.1231C1169.49 36.1167 1171.38 32.1674 1176.23 17.377C1180.82 0.386211 1183.37 1.68921 1187.95 17.377C1193.08 34.1945 1195.71 34.5445 1200.16 17.377C1204.74 -6.57872 1207.31 -2.22347 1211.88 17.377C1217.84 42.7403 1219.89 36.1021 1223.12 17.377C1227.22 0.273054 1230.23 2.16743 1236.3 17.377C1241.06 34.1071 1243.74 34.3819 1248.51 17.377C1252.89 0.542118 1255.36 2.38865 1259.74 17.377" stroke="white" stroke-width="2"/>
<path d="M1259.74 17.377C1265.27 36.3707 1268.08 32.1674 1272.93 17.377C1277.51 0.386212 1280.07 1.68921 1284.65 17.377C1289.77 34.1945 1292.41 34.5445 1296.86 17.377C1301.44 -6.57872 1304 -2.22347 1308.58 17.377C1314.54 42.7403 1316.59 36.1021 1319.81 17.377C1323.91 0.273055 1326.92 2.16743 1333 17.377C1337.76 34.1071 1340.43 34.3819 1345.21 17.377C1349.59 0.542118 1352.06 2.38865 1356.44 17.377" stroke="white" stroke-width="2"/>
<path d="M1356.44 17.377C1361.97 36.3707 1364.77 32.1674 1369.63 17.377C1374.21 0.386212 1376.76 1.68921 1381.35 17.377C1386.47 34.1945 1389.1 34.5445 1393.56 17.377C1398.13 -6.57872 1400.7 -2.22347 1405.28 17.377C1411.24 42.7403 1413.29 36.1021 1416.51 17.377C1420.61 0.273055 1423.62 2.16743 1429.7 17.377C1434.46 34.1071 1437.13 34.3819 1441.91 17.377C1446.29 0.542118 1448.76 2.38865 1453.14 17.377" stroke="white" stroke-width="2"/>
<path d="M1453.14 17.377C1458.66 36.3707 1461.47 32.1674 1466.32 17.377C1470.91 0.386211 1473.46 1.68921 1478.04 17.377C1483.17 34.1945 1485.8 34.5445 1490.25 17.377C1494.83 -6.57872 1497.4 -2.22347 1501.97 17.377C1507.93 42.7403 1509.98 36.1021 1513.21 17.377C1517.31 0.273054 1520.32 2.16743 1526.39 17.377C1531.15 34.1071 1533.83 34.3819 1538.6 17.377C1542.98 0.542118 1545.66 2.50289 1550.04 17.4913" stroke="white" stroke-width="2"/>
</svg>
