<svg width="1242" height="35" viewBox="0 0 1242 35" fill="none" xmlns="http://www.w3.org/2000/svg">
<path d="M0.90625 17.6263C9.76425 -1.36739 14.2638 2.83587 22.0426 17.6263C29.3915 34.6171 33.4851 33.3141 40.8305 17.6263C49.0448 0.808843 53.2619 0.458747 60.4012 17.6263C67.7378 41.582 71.8514 37.2268 79.1891 17.6263C88.7431 -7.73699 92.0266 -1.09878 97.1941 17.6263C103.766 34.7302 108.591 32.8359 118.33 17.6263C125.962 0.896164 130.247 0.621404 137.901 17.6263C144.925 34.4612 148.883 32.6146 155.906 17.6263" stroke="#FF6CA7" stroke-width="2"/>
<path d="M155.906 17.6263C164.764 -1.36739 169.264 2.83587 177.043 17.6263C184.392 34.6171 188.485 33.3141 195.83 17.6263C204.045 0.808843 208.262 0.458747 215.401 17.6263C222.738 41.582 226.851 37.2268 234.189 17.6263C243.743 -7.73699 247.027 -1.09878 252.194 17.6263C258.766 34.7302 263.591 32.8359 273.33 17.6263C280.962 0.896164 285.247 0.621404 292.901 17.6263C299.925 34.4612 303.883 32.6146 310.906 17.6263" stroke="#FF6CA7" stroke-width="2"/>
<path d="M310.906 17.6263C319.764 -1.36739 324.264 2.83587 332.043 17.6263C339.392 34.6171 343.485 33.3141 350.83 17.6263C359.045 0.808843 363.262 0.458747 370.401 17.6263C377.738 41.582 381.851 37.2268 389.189 17.6263C398.743 -7.73699 402.027 -1.09878 407.194 17.6263C413.766 34.7302 418.591 32.8359 428.33 17.6263C435.962 0.896164 440.247 0.621404 447.901 17.6263C454.925 34.4612 458.883 32.6146 465.906 17.6263" stroke="#FF6CA7" stroke-width="2"/>
<path d="M465.906 17.6263C474.764 -1.36739 479.264 2.83587 487.043 17.6263C494.392 34.6171 498.485 33.3141 505.83 17.6263C514.045 0.808843 518.262 0.458747 525.401 17.6263C532.738 41.582 536.851 37.2268 544.189 17.6263C553.743 -7.73699 557.027 -1.09878 562.194 17.6263C568.766 34.7302 573.591 32.8359 583.33 17.6263C590.962 0.896164 595.247 0.621404 602.901 17.6263C609.925 34.4612 613.883 32.6146 620.906 17.6263" stroke="#FF6CA7" stroke-width="2"/>
<path d="M620.906 17.6263C629.764 -1.36739 634.264 2.83587 642.043 17.6263C649.392 34.6171 653.485 33.3141 660.83 17.6263C669.045 0.808843 673.262 0.458747 680.401 17.6263C687.738 41.582 691.851 37.2268 699.189 17.6263C708.743 -7.73699 712.027 -1.09878 717.194 17.6263C723.766 34.7302 728.591 32.8359 738.33 17.6263C745.962 0.896164 750.247 0.621404 757.901 17.6263C764.925 34.4612 768.883 32.6146 775.906 17.6263" stroke="#FF6CA7" stroke-width="2"/>
<path d="M775.906 17.6263C784.764 -1.36739 789.264 2.83587 797.043 17.6263C804.392 34.6171 808.485 33.3141 815.83 17.6263C824.045 0.808843 828.262 0.458747 835.401 17.6263C842.738 41.582 846.851 37.2268 854.189 17.6263C863.743 -7.73699 867.027 -1.09878 872.194 17.6263C878.766 34.7302 883.591 32.8359 893.33 17.6263C900.962 0.896164 905.247 0.621404 912.901 17.6263C919.925 34.4612 923.883 32.6146 930.906 17.6263" stroke="#FF6CA7" stroke-width="2"/>
<path d="M930.906 17.6263C939.764 -1.36739 944.264 2.83587 952.043 17.6263C959.392 34.6171 963.485 33.3141 970.83 17.6263C979.045 0.808843 983.262 0.458747 990.401 17.6263C997.738 41.582 1001.85 37.2268 1009.19 17.6263C1018.74 -7.73699 1022.03 -1.09878 1027.19 17.6263C1033.77 34.7302 1038.59 32.8359 1048.33 17.6263C1055.96 0.896164 1060.25 0.621404 1067.9 17.6263C1074.92 34.4612 1078.88 32.6146 1085.91 17.6263" stroke="#FF6CA7" stroke-width="2"/>
<path d="M1085.91 17.6263C1094.76 -1.36739 1099.26 2.83587 1107.04 17.6263C1114.39 34.6171 1118.49 33.3141 1125.83 17.6263C1134.04 0.808843 1138.26 0.458747 1145.4 17.6263C1152.74 41.582 1156.85 37.2268 1164.19 17.6263C1173.74 -7.73699 1177.03 -1.09878 1182.19 17.6263C1188.77 34.7302 1193.59 32.8359 1203.33 17.6263C1210.96 0.896164 1215.25 0.621404 1222.9 17.6263C1229.92 34.4612 1233.88 32.6146 1240.91 17.6263" stroke="#FF6CA7" stroke-width="2"/>
</svg>
