<svg width="1268" height="29" viewBox="0 0 1268 29" fill="none" xmlns="http://www.w3.org/2000/svg">
<path d="M0.671631 16.404C24.6972 -5.38183 53.6259 -2.84847 78.6321 16.404C100.206 35.6574 138.451 27.5507 160.025 16.404C193.857 0.697883 215.431 3.74903 246.321 16.404C281.032 30.6242 298.294 26.3121 328.694 16.404C359.888 6.23697 377.564 3.74876 410.087 16.404C437.054 26.8977 459.609 27.423 490.009 16.404C522.361 4.67719 540.008 8.27059 571.401 16.404C597.388 23.1367 619.172 29 633.672 16.404" stroke="#FF82B4" stroke-width="2"/>
<path d="M633.672 16.404C657.697 -5.38183 686.626 -2.84847 711.632 16.404C733.206 35.6574 771.451 27.5507 793.025 16.404C826.857 0.697883 848.431 3.74903 879.321 16.404C914.032 30.6242 931.294 26.3121 961.694 16.404C992.888 6.23697 1010.56 3.74876 1043.09 16.404C1070.05 26.8977 1092.61 27.423 1123.01 16.404C1155.36 4.67719 1173.01 8.27059 1204.4 16.404C1230.39 23.1367 1252.17 29 1266.67 16.404" stroke="#FF82B4" stroke-width="2"/>
</svg>
