<svg width="723" height="723" viewBox="0 0 723 717" fill="none" xmlns="http://www.w3.org/2000/svg">
<circle cx="358.277" cy="358.292" r="318.762" transform="rotate(-0.479445 358.277 358.292)" fill="#00FF04"/>
<circle cx="358.277" cy="358.292" r="258.046" transform="rotate(-0.479445 358.277 358.292)" fill="#BDFFBF"/>
<rect x="346.172" y="0.152588" width="18.215" height="63.7525" transform="rotate(-0.479445 346.172 0.152588)" fill="white"/>
<rect x="506.075" y="29.1738" width="15.7154" height="63.7525" transform="rotate(29.8033 506.075 29.1738)" fill="white"/>
<rect x="616.181" y="111.35" width="15.7154" height="63.7525" transform="rotate(53.0069 616.181 111.35)" fill="white"/>
<rect width="15.7154" height="63.7525" transform="matrix(-0.588268 0.808666 0.808666 0.588268 92.3542 114.606)" fill="white"/>
<rect width="19.8048" height="63.7525" transform="matrix(-0.859298 0.511476 0.511476 0.859298 205.62 25.6162)" fill="white"/>
<rect width="18.215" height="63.7525" transform="matrix(0.999965 -0.00836779 -0.00836779 -0.999965 349.132 716.691)" fill="white"/>
<rect width="15.7154" height="63.7525" transform="matrix(0.859298 -0.511476 -0.511476 -0.859298 508.526 684.998)" fill="white"/>
<rect width="15.7154" height="63.7525" transform="matrix(0.588268 -0.808666 -0.808666 -0.588268 617.242 600.991)" fill="white"/>
<rect x="93.4344" y="606.501" width="15.7154" height="63.7525" transform="rotate(-126.993 93.4344 606.501)" fill="white"/>
<rect x="0.536255" y="369.53" width="15.7154" height="63.7525" transform="rotate(-91.9554 0.536255 369.53)" fill="white"/>
<rect x="659.213" y="354.911" width="15.7154" height="63.7525" transform="rotate(-91.9554 659.213 354.911)" fill="white"/>
<rect x="633.529" y="251.411" width="15.7154" height="63.7525" transform="rotate(-116.083 633.529 251.411)" fill="white"/>
<rect width="15.7154" height="63.7525" transform="matrix(0.424581 -0.90539 -0.90539 -0.424581 74.8975 256.662)" fill="white"/>
<rect width="15.7154" height="63.7525" transform="matrix(-0.454916 -0.890534 -0.890534 0.454916 89.3973 480.855)" fill="white"/>
<rect x="635.535" y="476.284" width="15.7154" height="63.7525" transform="rotate(-63.8994 635.535 476.284)" fill="white"/>
<rect x="208.174" y="693.583" width="19.8048" height="63.7525" transform="rotate(-150.197 208.174 693.583)" fill="white"/>
</svg>
