<svg width="1440" height="126" viewBox="0 0 1440 126" fill="none" xmlns="http://www.w3.org/2000/svg">
<rect y="49" width="1440" height="77" fill="#FF438E"/>
<path d="M840.209 21.0059C778.602 56 758.477 -8.03353 719.977 20.0212L720 56H1440V21.0059C1410.57 49.2068 1404.19 38.8758 1379.9 21.0059C1355.6 3.13605 1331.31 -13.2438 1297.25 21.0059C1263.19 55.2556 1240.4 2.39129 1195.33 21.0059C1150.25 39.6206 1141.73 -2.07583 1076.62 21.0059C1011.51 44.0877 999.235 -13.2436 963.172 21.0059C927.11 55.2555 901.816 -13.9882 840.209 21.0059Z" fill="#FF438E"/>
<path d="M120.209 20.0059C58.6017 55 47.7752 14.1869 0 20.0059V55H720V20.0059C690.567 48.2068 684.188 37.8758 659.896 20.0059C635.604 2.13605 611.311 -14.2438 577.252 20.0059C543.193 54.2556 520.404 1.39129 475.325 20.0059C430.247 38.6205 421.732 -3.07583 356.619 20.0059C291.506 43.0877 279.235 -14.2436 243.172 20.0059C207.11 54.2555 181.816 -14.9882 120.209 20.0059Z" fill="#FF438E"/>
</svg>
