<svg width="1797" height="74" viewBox="0 0 1797 74" fill="none" xmlns="http://www.w3.org/2000/svg">
<rect width="1795" height="74" fill="#D9D9D9"/>
<rect x="1.5" y="1.5" width="596" height="71" fill="#D2FFD3" stroke="#00DA04" stroke-width="3"/>
<path d="M1 36.1202C9.53869 55.1139 12.4634 51.1646 19.9619 36.3742C27.0459 19.3834 30.9919 20.6864 38.0725 36.3742C45.9907 53.1916 50.0558 53.5417 56.9377 36.3742C64.0099 12.4185 67.9752 16.7737 75.0483 36.3742C84.2579 61.7375 87.4231 55.0993 92.4043 36.3742C98.7393 19.2702 103.39 21.1646 112.779 36.3742C120.135 53.1043 124.266 53.3791 131.644 36.3742C138.414 19.5393 142.23 21.3858 149 36.3742" stroke="#00DA04" stroke-width="2"/>
<path d="M148.686 36.3742C157.264 55.3679 161.621 51.1646 169.154 36.3742C176.271 19.3834 180.235 20.6864 187.349 36.3742C195.304 53.1916 199.388 53.5417 206.302 36.3742C213.406 12.4185 217.39 16.7737 224.496 36.3742C233.748 61.7375 236.928 55.0993 241.932 36.3742C248.297 19.2702 252.969 21.1646 262.401 36.3742C269.792 53.1043 273.941 53.3791 281.354 36.3742C288.156 19.5393 291.989 21.3858 298.79 36.3742" stroke="#00DA04" stroke-width="2"/>
<path d="M298.791 36.3742C307.369 55.3679 311.726 51.1646 319.259 36.3742C326.376 19.3834 330.34 20.6864 337.454 36.3742C345.409 53.1916 349.493 53.5417 356.406 36.3742C363.511 12.4185 367.495 16.7737 374.601 36.3742C383.853 61.7375 387.033 55.0993 392.037 36.3742C398.402 19.2702 403.074 21.1646 412.506 36.3742C419.897 53.1043 424.046 53.3791 431.459 36.3742C438.261 19.5393 442.094 21.3858 448.895 36.3742" stroke="#00DA04" stroke-width="2"/>
<path d="M449 36.3742C457.458 55.3679 461.754 51.1646 469.182 36.3742C476.199 19.3834 480.108 20.6864 487.121 36.3742C494.965 53.1916 498.991 53.5417 505.808 36.3742C512.813 12.4185 516.741 16.7737 523.747 36.3742C532.87 61.7375 536.005 55.0993 540.939 36.3742C547.214 19.2702 551.821 21.1646 561.121 36.3742C568.408 53.1043 572.5 53.3791 579.808 36.3742C586.515 19.5393 590.294 21.3858 597 36.3742" stroke="#00DA04" stroke-width="2"/>
<rect x="600.5" y="1.5" width="596" height="71" fill="#FFD9E8" stroke="#FF1B76" stroke-width="3"/>
<path d="M600 36.1202C608.539 55.1139 611.463 51.1646 618.962 36.3742C626.046 19.3834 629.992 20.6864 637.072 36.3742C644.991 53.1916 649.056 53.5417 655.938 36.3742C663.01 12.4185 666.975 16.7737 674.048 36.3742C683.258 61.7375 686.423 55.0993 691.404 36.3742C697.739 19.2702 702.39 21.1646 711.779 36.3742C719.135 53.1043 723.266 53.3791 730.644 36.3742C737.414 19.5393 741.23 21.3858 748 36.3742" stroke="#FF1B76" stroke-width="2"/>
<path d="M747.686 36.3742C756.264 55.3679 760.621 51.1646 768.154 36.3742C775.271 19.3834 779.235 20.6864 786.349 36.3742C794.304 53.1916 798.388 53.5417 805.302 36.3742C812.406 12.4185 816.39 16.7737 823.496 36.3742C832.748 61.7375 835.928 55.0993 840.932 36.3742C847.297 19.2702 851.969 21.1646 861.401 36.3742C868.792 53.1043 872.941 53.3791 880.354 36.3742C887.156 19.5393 890.989 21.3858 897.79 36.3742" stroke="#FF1B76" stroke-width="2"/>
<path d="M897.791 36.3742C906.369 55.3679 910.726 51.1646 918.259 36.3742C925.376 19.3834 929.34 20.6864 936.454 36.3742C944.409 53.1916 948.493 53.5417 955.406 36.3742C962.511 12.4185 966.495 16.7737 973.601 36.3742C982.853 61.7375 986.033 55.0993 991.037 36.3742C997.402 19.2702 1002.07 21.1646 1011.51 36.3742C1018.9 53.1043 1023.05 53.3791 1030.46 36.3742C1037.26 19.5393 1041.09 21.3858 1047.9 36.3742" stroke="#FF1B76" stroke-width="2"/>
<path d="M1048 36.3742C1056.46 55.3679 1060.75 51.1646 1068.18 36.3742C1075.2 19.3834 1079.11 20.6864 1086.12 36.3742C1093.96 53.1916 1097.99 53.5417 1104.81 36.3742C1111.81 12.4185 1115.74 16.7737 1122.75 36.3742C1131.87 61.7375 1135.01 55.0993 1139.94 36.3742C1146.21 19.2702 1150.82 21.1646 1160.12 36.3742C1167.41 53.1043 1171.5 53.3791 1178.81 36.3742C1185.51 19.5393 1189.29 21.3858 1196 36.3742" stroke="#FF1B76" stroke-width="2"/>
<path d="M600 35.8671C608.539 67.5232 611.463 60.941 618.962 36.2904C626.046 7.97234 629.992 10.144 637.072 36.2904C644.991 64.3194 649.056 64.9029 655.938 36.2904C663.01 -3.63588 666.975 3.62287 674.048 36.2904C683.258 78.5625 686.423 67.4988 691.404 36.2904C697.739 7.78375 702.39 10.941 711.779 36.2904C719.135 64.1739 723.266 64.6318 730.644 36.2904C737.414 8.23219 741.23 11.3097 748 36.2904" stroke="#FF1B76" stroke-width="2"/>
<path d="M747.686 36.2904C756.264 67.9465 760.622 60.941 768.155 36.2904C775.272 7.97234 779.236 10.144 786.349 36.2904C794.304 64.3194 798.388 64.9029 805.302 36.2904C812.407 -3.63589 816.391 3.62286 823.497 36.2904C832.749 78.5625 835.929 67.4988 840.933 36.2904C847.297 7.78374 851.97 10.941 861.402 36.2904C868.792 64.1739 872.942 64.6318 880.354 36.2904C887.156 8.23218 890.99 11.3097 897.791 36.2904" stroke="#FF1B76" stroke-width="2"/>
<path d="M897.79 36.2904C906.368 67.9465 910.726 60.941 918.259 36.2904C925.376 7.97234 929.34 10.144 936.453 36.2904C944.408 64.3194 948.492 64.9029 955.406 36.2904C962.511 -3.63589 966.495 3.62286 973.601 36.2904C982.853 78.5625 986.033 67.4988 991.037 36.2904C997.401 7.78374 1002.07 10.941 1011.51 36.2904C1018.9 64.1739 1023.05 64.6318 1030.46 36.2904C1037.26 8.23218 1041.09 11.3097 1047.89 36.2904" stroke="#FF1B76" stroke-width="2"/>
<path d="M1048 36.2904C1056.46 67.9465 1060.75 60.941 1068.18 36.2904C1075.2 7.97234 1079.11 10.144 1086.12 36.2904C1093.96 64.3194 1097.99 64.9029 1104.81 36.2904C1111.81 -3.63589 1115.74 3.62286 1122.75 36.2904C1131.87 78.5625 1135.01 67.4988 1139.94 36.2904C1146.21 7.78374 1150.82 10.941 1160.12 36.2904C1167.41 64.1739 1171.5 64.6318 1178.81 36.2904C1185.51 8.23218 1189.29 11.3097 1196 36.2904" stroke="#FF1B76" stroke-width="2"/>
<rect x="1199.5" y="1.5" width="596" height="71" fill="#D2FFD3" stroke="#00DA04" stroke-width="3"/>
<path d="M1499 36.1202C1503.24 55.1139 1504.69 51.1646 1508.42 36.3742C1511.94 19.3834 1513.9 20.6864 1517.41 36.3742C1521.34 53.1916 1523.36 53.5417 1526.78 36.3742C1530.29 12.4185 1532.26 16.7737 1535.78 36.3742C1540.35 61.7375 1541.92 55.0993 1544.4 36.3742C1547.54 19.2702 1549.85 21.1646 1554.51 36.3742C1558.17 53.1043 1560.22 53.3791 1563.88 36.3742C1567.25 19.5393 1569.14 21.3858 1572.5 36.3742" stroke="#00DA04" stroke-width="2"/>
<path d="M1572.35 36.3742C1576.61 55.3679 1578.77 51.1646 1582.51 36.3742C1586.05 19.3834 1588.02 20.6864 1591.55 36.3742C1595.5 53.1916 1597.53 53.5417 1600.96 36.3742C1604.49 12.4185 1606.47 16.7737 1610 36.3742C1614.59 61.7375 1616.17 55.0993 1618.66 36.3742C1621.82 19.2702 1624.14 21.1646 1628.82 36.3742C1632.49 53.1043 1634.55 53.3791 1638.24 36.3742C1641.61 19.5393 1643.52 21.3858 1646.9 36.3742" stroke="#00DA04" stroke-width="2"/>
<path d="M1646.9 36.3742C1651.16 55.3679 1653.32 51.1646 1657.06 36.3742C1660.6 19.3834 1662.57 20.6864 1666.1 36.3742C1670.05 53.1916 1672.08 53.5417 1675.51 36.3742C1679.04 12.4185 1681.02 16.7737 1684.55 36.3742C1689.14 61.7375 1690.72 55.0993 1693.21 36.3742C1696.37 19.2702 1698.69 21.1646 1703.37 36.3742C1707.04 53.1043 1709.1 53.3791 1712.78 36.3742C1716.16 19.5393 1718.07 21.3858 1721.44 36.3742" stroke="#00DA04" stroke-width="2"/>
<path d="M1721.5 36.3742C1725.7 55.3679 1727.83 51.1646 1731.52 36.3742C1735 19.3834 1736.95 20.6864 1740.43 36.3742C1744.32 53.1916 1746.32 53.5417 1749.71 36.3742C1753.19 12.4185 1755.14 16.7737 1758.62 36.3742C1763.15 61.7375 1764.71 55.0993 1767.16 36.3742C1770.27 19.2702 1772.56 21.1646 1777.18 36.3742C1780.8 53.1043 1782.83 53.3791 1786.46 36.3742C1789.79 19.5393 1791.67 21.3858 1795 36.3742" stroke="#00DA04" stroke-width="2"/>
<path d="M1200 36.1202C1204.21 55.1139 1205.65 51.1646 1209.35 36.3742C1212.85 19.3834 1214.79 20.6864 1218.29 36.3742C1222.19 53.1916 1224.2 53.5417 1227.59 36.3742C1231.08 12.4185 1233.04 16.7737 1236.52 36.3742C1241.07 61.7375 1242.63 55.0993 1245.08 36.3742C1248.21 19.2702 1250.5 21.1646 1255.13 36.3742C1258.76 53.1043 1260.8 53.3791 1264.44 36.3742C1267.78 19.5393 1269.45 22.2715 1272.79 37.2599" stroke="#00DA04" stroke-width="2"/>
<path d="M1272.59 36.3742C1276.92 55.3679 1279.12 51.1646 1282.92 36.3742C1286.52 19.3834 1288.52 20.6864 1292.11 36.3742C1296.13 53.1916 1298.19 53.5417 1301.68 36.3742C1305.27 12.4185 1307.28 16.7737 1310.87 36.3742C1315.55 61.7375 1317.15 55.0993 1319.68 36.3742C1322.89 19.2702 1325.25 21.1646 1330.02 36.3742C1333.75 53.1043 1335.84 53.3791 1339.59 36.3742C1343.02 19.5393 1344.96 21.3858 1348.39 36.3742" stroke="#00DA04" stroke-width="2"/>
<path d="M1348.39 36.3742C1352.73 55.3679 1354.93 51.1646 1358.73 36.3742C1362.33 19.3834 1364.33 20.6864 1367.92 36.3742C1371.94 53.1916 1374 53.5417 1377.49 36.3742C1381.08 12.4185 1383.09 16.7737 1386.68 36.3742C1391.35 61.7375 1392.96 55.0993 1395.49 36.3742C1398.7 19.2702 1401.06 21.1646 1405.82 36.3742C1409.56 53.1043 1411.65 53.3791 1415.4 36.3742C1418.83 19.5393 1420.77 21.3858 1424.2 36.3742" stroke="#00DA04" stroke-width="2"/>
<path d="M1424.26 36.3742C1428.53 55.3679 1430.7 51.1646 1434.45 36.3742C1437.99 19.3834 1439.97 20.6864 1443.51 36.3742C1447.47 53.1916 1449.5 53.5417 1452.95 36.3742C1456.48 12.4185 1458.47 16.7737 1462.01 36.3742C1466.61 61.7375 1468.2 55.0993 1470.69 36.3742C1473.86 19.2702 1476.18 21.1646 1480.88 36.3742C1484.56 53.1043 1486.63 53.3791 1490.32 36.3742C1493.7 19.5393 1495.61 21.3858 1499 36.3742" stroke="#00DA04" stroke-width="2"/>
</svg>
