<svg width="1797" height="74" viewBox="0 0 1797 74" fill="none" xmlns="http://www.w3.org/2000/svg">
<rect width="1797" height="74" fill="#D9D9D9"/>
<rect x="1.5" y="1.5" width="596" height="71" fill="#D2FFD3" stroke="#00DA04" stroke-width="3"/>
<path d="M471.308 45.5385H468.846V48H466.385V45.5385H463.923V40.6154H461.462V33.2308H459V28.3077H463.923V33.2308H466.385V40.6154H468.846V33.2308H471.308V28.3077H476.231V33.2308H473.769V40.6154H471.308V45.5385ZM490.995 45.5385V48H483.611V45.5385H481.149V43.0769H478.688V33.2308H481.149V30.7692H483.611V28.3077H490.995V30.7692H493.457V33.2308H495.918V43.0769H493.457V45.5385H490.995ZM488.534 30.7692H486.072V33.2308H483.611V43.0769H486.072V45.5385H488.534V43.0769H490.995V33.2308H488.534V30.7692ZM498.375 48V28.3077H503.298V45.5385H510.683V48H498.375ZM513.156 48V28.3077H525.464V30.7692H527.925V38.1538H525.464V43.0769H527.925V48H523.002V43.0769H520.541V40.6154H518.079V48H513.156ZM523.002 30.7692H518.079V38.1538H523.002V30.7692ZM532.837 48V28.3077H537.76V48H532.837ZM552.526 45.5385V48H545.142V45.5385H542.68V43.0769H540.219V33.2308H542.68V30.7692H545.142V28.3077H552.526V30.7692H554.988V33.2308H557.45V43.0769H554.988V45.5385H552.526ZM550.065 30.7692H547.603V33.2308H545.142V43.0769H547.603V45.5385H550.065V43.0769H552.526V33.2308H550.065V30.7692ZM559.906 48V28.3077H564.829V30.7692H567.291V35.6923H569.752V38.1538H572.214V28.3077H577.137V48H572.214V45.5385H569.752V40.6154H567.291V38.1538H564.829V48H559.906Z" fill="#00DA04"/>
<path d="M31.3077 45.5385V48H21.4615V45.5385H19V43.0769H23.9231V45.5385H28.8462V38.1538H23.9231V35.6923H28.8462V30.7692H23.9231V33.2308H19V30.7692H21.4615V28.3077H31.3077V30.7692H33.7692V35.6923H31.3077V38.1538H33.7692V45.5385H31.3077ZM48.5264 45.5385V48H38.6803V45.5385H36.2188V33.2308H38.6803V30.7692H41.1418V28.3077H48.5264V30.7692H43.6034V33.2308H41.1418V35.6923H48.5264V38.1538H50.988V45.5385H48.5264ZM46.0649 45.5385V38.1538H41.1418V45.5385H46.0649ZM65.7452 45.5385H63.2837V48H55.899V45.5385H60.8221V43.0769H63.2837V40.6154H55.899V38.1538H53.4375V30.7692H55.899V28.3077H65.7452V30.7692H68.2067V43.0769H65.7452V45.5385ZM63.2837 30.7692H58.3606V38.1538H63.2837V30.7692ZM70.6562 48V43.0769H73.1178V40.6154H75.5793V38.1538H78.0409V35.6923H80.5024V30.7692H75.5793V33.2308H70.6562V30.7692H73.1178V28.3077H82.9639V30.7692H85.4255V35.6923H82.9639V38.1538H80.5024V40.6154H78.0409V43.0769H75.5793V45.5385H85.4255V48H70.6562ZM95.25 48V28.3077H100.173V35.6923H105.096V28.3077H110.019V48H105.096V38.1538H100.173V48H95.25ZM112.469 48V45.5385H114.93V43.0769H117.392V38.1538H119.853V35.6923H112.469V33.2308H127.238V35.6923H124.776V38.1538H122.315V43.0769H119.853V45.5385H127.238V48H112.469Z" fill="#00DA04"/>
<rect x="1199.5" y="1.5" width="596" height="71" fill="#D2FFD3" stroke="#00DA04" stroke-width="3"/>
<path d="M1669.31 45.5385H1666.85V48H1664.38V45.5385H1661.92V40.6154H1659.46V33.2308H1657V28.3077H1661.92V33.2308H1664.38V40.6154H1666.85V33.2308H1669.31V28.3077H1674.23V33.2308H1671.77V40.6154H1669.31V45.5385ZM1689 45.5385V48H1681.61V45.5385H1679.15V43.0769H1676.69V33.2308H1679.15V30.7692H1681.61V28.3077H1689V30.7692H1691.46V33.2308H1693.92V43.0769H1691.46V45.5385H1689ZM1686.53 30.7692H1684.07V33.2308H1681.61V43.0769H1684.07V45.5385H1686.53V43.0769H1689V33.2308H1686.53V30.7692ZM1696.38 48V28.3077H1701.3V45.5385H1708.68V48H1696.38ZM1711.16 48V28.3077H1723.46V30.7692H1725.93V38.1538H1723.46V43.0769H1725.93V48H1721V43.0769H1718.54V40.6154H1716.08V48H1711.16ZM1721 30.7692H1716.08V38.1538H1721V30.7692ZM1730.84 48V28.3077H1735.76V48H1730.84ZM1750.53 45.5385V48H1743.14V45.5385H1740.68V43.0769H1738.22V33.2308H1740.68V30.7692H1743.14V28.3077H1750.53V30.7692H1752.99V33.2308H1755.45V43.0769H1752.99V45.5385H1750.53ZM1748.06 30.7692H1745.6V33.2308H1743.14V43.0769H1745.6V45.5385H1748.06V43.0769H1750.53V33.2308H1748.06V30.7692ZM1757.91 48V28.3077H1762.83V30.7692H1765.29V35.6923H1767.75V38.1538H1770.21V28.3077H1775.14V48H1770.21V45.5385H1767.75V40.6154H1765.29V38.1538H1762.83V48H1757.91Z" fill="#00DA04"/>
<path d="M1229.31 45.5385V48H1219.46V45.5385H1217V43.0769H1221.92V45.5385H1226.85V38.1538H1217V28.3077H1231.77V30.7692H1221.92V35.6923H1229.31V38.1538H1231.77V45.5385H1229.31ZM1236.68 48V40.6154H1239.14V35.6923H1241.6V33.2308H1244.06V30.7692H1234.22V28.3077H1248.99V33.2308H1246.53V35.6923H1244.06V40.6154H1241.6V48H1236.68ZM1263.75 45.5385H1261.28V48H1253.9V45.5385H1258.82V43.0769H1261.28V40.6154H1253.9V38.1538H1251.44V30.7692H1253.9V28.3077H1263.75V30.7692H1266.21V43.0769H1263.75V45.5385ZM1261.28 30.7692H1256.36V38.1538H1261.28V30.7692ZM1280.96 45.5385V48H1271.12V45.5385H1268.66V33.2308H1271.12V30.7692H1273.58V28.3077H1280.96V30.7692H1276.04V33.2308H1273.58V35.6923H1280.96V38.1538H1283.43V45.5385H1280.96ZM1278.5 45.5385V38.1538H1273.58V45.5385H1278.5ZM1293.25 48V28.3077H1298.17V35.6923H1303.1V28.3077H1308.02V48H1303.1V38.1538H1298.17V48H1293.25ZM1310.47 48V45.5385H1312.93V43.0769H1315.39V38.1538H1317.85V35.6923H1310.47V33.2308H1325.24V35.6923H1322.78V38.1538H1320.31V43.0769H1317.85V45.5385H1325.24V48H1310.47Z" fill="#00DA04"/>
<rect x="600.5" y="1.5" width="596" height="71" fill="#FFD9E8" stroke="#FF0066" stroke-width="3"/>
<path d="M1070.31 45.5385H1067.85V48H1065.38V45.5385H1062.92V40.6154H1060.46V33.2308H1058V28.3077H1062.92V33.2308H1065.38V40.6154H1067.85V33.2308H1070.31V28.3077H1075.23V33.2308H1072.77V40.6154H1070.31V45.5385ZM1090 45.5385V48H1082.61V45.5385H1080.15V43.0769H1077.69V33.2308H1080.15V30.7692H1082.61V28.3077H1090V30.7692H1092.46V33.2308H1094.92V43.0769H1092.46V45.5385H1090ZM1087.53 30.7692H1085.07V33.2308H1082.61V43.0769H1085.07V45.5385H1087.53V43.0769H1090V33.2308H1087.53V30.7692ZM1097.38 48V28.3077H1102.3V45.5385H1109.68V48H1097.38ZM1112.16 48V28.3077H1124.46V30.7692H1126.93V38.1538H1124.46V43.0769H1126.93V48H1122V43.0769H1119.54V40.6154H1117.08V48H1112.16ZM1122 30.7692H1117.08V38.1538H1122V30.7692ZM1131.84 48V28.3077H1136.76V48H1131.84ZM1151.53 45.5385V48H1144.14V45.5385H1141.68V43.0769H1139.22V33.2308H1141.68V30.7692H1144.14V28.3077H1151.53V30.7692H1153.99V33.2308H1156.45V43.0769H1153.99V45.5385H1151.53ZM1149.06 30.7692H1146.6V33.2308H1144.14V43.0769H1146.6V45.5385H1149.06V43.0769H1151.53V33.2308H1149.06V30.7692ZM1158.91 48V28.3077H1163.83V30.7692H1166.29V35.6923H1168.75V38.1538H1171.21V28.3077H1176.14V48H1171.21V45.5385H1168.75V40.6154H1166.29V38.1538H1163.83V48H1158.91Z" fill="#FF0066"/>
<path d="M630.308 45.5385V48H620.462V45.5385H618V33.2308H620.462V30.7692H622.923V28.3077H630.308V30.7692H625.385V33.2308H622.923V35.6923H630.308V38.1538H632.769V45.5385H630.308ZM627.846 45.5385V38.1538H622.923V45.5385H627.846ZM637.68 48V40.6154H640.142V35.6923H642.603V33.2308H645.065V30.7692H635.219V28.3077H649.988V33.2308H647.526V35.6923H645.065V40.6154H642.603V48H637.68ZM664.745 45.5385V48H654.899V45.5385H652.438V43.0769H657.361V45.5385H662.284V38.1538H652.438V28.3077H667.207V30.7692H657.361V35.6923H664.745V38.1538H667.207V45.5385H664.745ZM681.964 45.5385V48H672.118V45.5385H669.656V43.0769H674.579V45.5385H679.502V38.1538H674.579V35.6923H679.502V30.7692H674.579V33.2308H669.656V30.7692H672.118V28.3077H681.964V30.7692H684.425V35.6923H681.964V38.1538H684.425V45.5385H681.964ZM694.25 48V28.3077H699.173V35.6923H704.096V28.3077H709.019V48H704.096V38.1538H699.173V48H694.25ZM711.469 48V45.5385H713.93V43.0769H716.392V38.1538H718.853V35.6923H711.469V33.2308H726.238V35.6923H723.776V38.1538H721.315V43.0769H718.853V45.5385H726.238V48H711.469Z" fill="#FF0066"/>
</svg>
