<svg width="197" height="49" viewBox="0 0 197 49" fill="none" xmlns="http://www.w3.org/2000/svg">
<path d="M183.222 46.9813L196.038 35.0787L195.747 13.7689L192.56 10.601L189.458 7.26728L183.299 1.29595L157.666 0.855934L137.042 0.654995L14.4109 0.714821L1.83405 12.5388L1.53835 35.8897L13.9154 47.2793L183.222 46.9813Z" fill="white"/>
<rect x="156.679" y="2.51953" width="144.536" height="2.51912" transform="rotate(-180 156.679 2.51953)" fill="#FF438E"/>
<rect x="184.57" y="2.52051" width="28.4459" height="2.51912" transform="rotate(-180 184.57 2.52051)" fill="#FF438E"/>
<rect x="184.671" y="48.4639" width="172.529" height="2.81686" transform="rotate(-180 184.671 48.4639)" fill="#FF438E"/>
<rect x="12.1426" y="5.74121" width="3.0357" height="2.81686" transform="rotate(-180 12.1426 5.74121)" fill="#FF438E"/>
<rect x="9.10693" y="8.55859" width="3.0357" height="2.81686" transform="rotate(-180 9.10693 8.55859)" fill="#FF438E"/>
<rect x="6.07129" y="11.375" width="3.0357" height="2.81686" transform="rotate(-180 6.07129 11.375)" fill="#FF438E"/>
<rect width="3.0357" height="2.81686" transform="matrix(1 0 0 -1 3.03516 40.0137)" fill="#FF438E"/>
<rect width="3.0357" height="2.81686" transform="matrix(1 0 0 -1 6.0708 42.8291)" fill="#FF438E"/>
<rect width="3.0357" height="2.81686" transform="matrix(1 0 0 -1 9.10693 45.6465)" fill="#FF438E"/>
<rect x="193.779" y="40.0127" width="3.0357" height="2.81686" transform="rotate(-180 193.779 40.0127)" fill="#FF438E"/>
<rect x="190.743" y="42.8301" width="3.0357" height="2.81686" transform="rotate(-180 190.743 42.8301)" fill="#FF438E"/>
<rect x="187.708" y="45.6475" width="3.0357" height="2.81686" transform="rotate(-180 187.708 45.6475)" fill="#FF438E"/>
<rect width="3.07523" height="3.35883" transform="matrix(-1 0 0 1 193.739 8.39844)" fill="#FF438E"/>
<path d="M190.684 5.33691L187.487 5.33691V8.64631H190.684V5.33691Z" fill="#FF438E"/>
<path d="M187.609 2.52148L184.534 2.52148L184.561 5.39984L187.597 5.36456L187.609 2.52148Z" fill="#FF438E"/>
<rect x="3.03564" y="37.1963" width="3.0357" height="25.8212" transform="rotate(-180 3.03564 37.1963)" fill="#FF438E"/>
<rect x="196.814" y="36.9482" width="3.07523" height="25.1912" transform="rotate(-180 196.814 36.9482)" fill="#FF438E"/>
<path d="M36.8018 35.1855V13.0317H50.6479V15.8009H53.4171V24.1086H50.6479V29.6471H53.4171V35.1855H47.8787V29.6471H45.1095V26.8779H42.3402V35.1855H36.8018ZM47.8787 15.8009H42.3402V24.1086H47.8787V15.8009ZM70.019 15.8009H64.4805V18.5702H67.2498V21.3394H64.4805V35.1855H58.9421V21.3394H56.1729V18.5702H58.9421V15.8009H61.7113V13.0317H70.019V15.8009ZM70.0244 35.1855V18.5702H75.5629V21.3394H78.3321V24.1086H75.5629V35.1855H70.0244ZM83.8706 21.3394H78.3321V18.5702H83.8706V21.3394ZM94.9502 35.1855V13.0317H100.489V35.1855H94.9502ZM117.093 32.4163V35.1855H108.786V32.4163H106.016V21.3394H103.247V18.5702H106.016V13.0317H111.555V18.5702H114.324V21.3394H111.555V32.4163H117.093ZM117.099 35.1855V13.0317H122.637V21.3394H125.406V18.5702H130.945V21.3394H128.176V24.1086H125.406V26.8779H128.176V29.6471H130.945V32.4163H133.714V35.1855H128.176V32.4163H125.406V29.6471H122.637V35.1855H117.099ZM150.316 15.8009H144.777V18.5702H147.547V21.3394H144.777V35.1855H139.239V21.3394H136.47V18.5702H139.239V15.8009H142.008V13.0317H150.316V15.8009ZM164.167 15.8009V21.3394H161.398V24.1086H158.629V29.6471H153.091V24.1086H155.86V21.3394H158.629V15.8009H150.321V13.0317H161.398V15.8009H164.167ZM153.091 35.1855V32.4163H158.629V35.1855H153.091Z" fill="#FF0066"/>
</svg>
