<svg width="333" height="72" viewBox="0 0 333 72" fill="none" xmlns="http://www.w3.org/2000/svg">
<path d="M279.306 69.4141L298.843 51.8275L298.4 20.3415L293.542 15.6607L288.812 10.735L279.423 1.91212L240.349 1.26197L208.908 0.965073L21.9675 1.05347L2.79517 18.5239L2.34436 53.0258L21.2122 69.8545L279.306 69.4141Z" fill="white"/>
<rect x="238.844" y="3.72266" width="220.333" height="3.72211" transform="rotate(-180 238.844 3.72266)" fill="#00FF04"/>
<rect x="281.361" y="3.72363" width="43.3634" height="3.72211" transform="rotate(-180 281.361 3.72363)" fill="#00FF04"/>
<rect x="281.516" y="71.6064" width="263.007" height="4.16203" transform="rotate(-180 281.516 71.6064)" fill="#00FF04"/>
<rect x="18.5107" y="8.4834" width="4.62768" height="4.16203" transform="rotate(-180 18.5107 8.4834)" fill="#00FF04"/>
<rect x="13.8828" y="12.6455" width="4.62768" height="4.16203" transform="rotate(-180 13.8828 12.6455)" fill="#00FF04"/>
<rect x="9.25488" y="16.8066" width="4.62768" height="4.16203" transform="rotate(-180 9.25488 16.8066)" fill="#00FF04"/>
<rect width="4.62768" height="4.16203" transform="matrix(1 0 0 -1 4.62695 59.123)" fill="#00FF04"/>
<rect width="4.62768" height="4.16203" transform="matrix(1 0 0 -1 9.25488 63.2832)" fill="#00FF04"/>
<rect width="4.62768" height="4.16203" transform="matrix(1 0 0 -1 13.8828 67.4443)" fill="#00FF04"/>
<rect x="295.399" y="59.1211" width="4.62768" height="4.16203" transform="rotate(-180 295.399 59.1211)" fill="#00FF04"/>
<rect x="290.771" y="63.2842" width="4.62768" height="4.16203" transform="rotate(-180 290.771 63.2842)" fill="#00FF04"/>
<rect x="286.144" y="67.4443" width="4.62768" height="4.16203" transform="rotate(-180 286.144 67.4443)" fill="#00FF04"/>
<rect width="4.68794" height="4.96281" transform="matrix(-1 0 0 1 295.339 12.4092)" fill="#00FF04"/>
<path d="M290.682 7.88477L285.808 7.88477V12.7745H290.682V7.88477Z" fill="#00FF04"/>
<path d="M285.994 3.72461L281.306 3.72461L281.348 7.9775L285.976 7.92538L285.994 3.72461Z" fill="#00FF04"/>
<rect x="4.62695" y="54.96" width="4.62768" height="38.152" transform="rotate(-180 4.62695 54.96)" fill="#00FF04"/>
<rect x="300.027" y="54.5918" width="4.68794" height="37.2211" transform="rotate(-180 300.027 54.5918)" fill="#00FF04"/>
<path d="M42.0273 48.751V27.0587H52.8735V34.2894H56.4889V37.9048H60.1043V34.2894H63.7197V27.0587H74.5658V48.751H67.335V37.9048H63.7197V45.1356H60.1043V48.751H56.4889V45.1356H52.8735V37.9048H49.2581V48.751H42.0273ZM78.1953 48.751V27.0587H85.4261V34.2894H92.6569V37.9048H96.2722V45.1356H92.6569V48.751H78.1953ZM89.0415 37.9048H85.4261V45.1356H89.0415V37.9048ZM107.118 27.0587V48.751H99.8876V27.0587H107.118ZM121.569 48.751V45.1356H125.185V41.5202H128.8V34.2894H125.185V30.6741H121.569V27.0587H128.8V30.6741H132.415V34.2894H136.031V27.0587H143.262V34.2894H146.877V30.6741H150.492V27.0587H157.723V30.6741H154.108V34.2894H150.492V41.5202H154.108V45.1356H157.723V48.751H150.492V45.1356H146.877V41.5202H143.262V48.751H136.031V41.5202H132.415V45.1356H128.8V48.751H121.569ZM161.317 52.3664V45.1356H164.933V37.9048H168.548V27.0587H190.24V52.3664H183.01V48.751H168.548V52.3664H161.317ZM183.01 30.6741H175.779V37.9048H172.164V45.1356H183.01V30.6741ZM211.936 45.1356V48.751H197.475V45.1356H193.859V30.6741H197.475V27.0587H211.936V30.6741H215.552V37.9048H201.09V45.1356H208.321V41.5202H215.552V45.1356H211.936ZM193.859 23.4433V16.2125H201.09V23.4433H193.859ZM211.936 16.2125V23.4433H204.706V16.2125H211.936ZM201.09 34.2894H208.321V30.6741H201.09V34.2894ZM219.149 48.751V27.0587H229.996V34.2894H233.611V37.9048H237.226V34.2894H240.842V27.0587H251.688V48.751H244.457V37.9048H240.842V45.1356H237.226V48.751H233.611V45.1356H229.996V37.9048H226.38V48.751H219.149Z" fill="#00DE04"/>
</svg>
