<svg width="185" height="49" viewBox="0 0 185 49" fill="none" xmlns="http://www.w3.org/2000/svg">
<path d="M172.039 46.9803L184.072 35.0777L183.8 13.7679L180.807 10.6L177.894 7.2663L172.111 1.29498L148.043 0.854958L128.677 0.654018L13.5314 0.713844L1.72218 12.5379L1.44452 35.8887L13.0662 47.2783L172.039 46.9803Z" fill="white"/>
<rect x="147.116" y="2.51953" width="135.714" height="2.51912" transform="rotate(-180 147.116 2.51953)" fill="#FF438E"/>
<rect x="173.304" y="2.52051" width="26.7096" height="2.51912" transform="rotate(-180 173.304 2.52051)" fill="#FF438E"/>
<rect x="173.4" y="48.4629" width="161.999" height="2.81686" transform="rotate(-180 173.4 48.4629)" fill="#FF438E"/>
<rect x="11.4014" y="5.74121" width="2.85041" height="2.81686" transform="rotate(-180 11.4014 5.74121)" fill="#FF438E"/>
<rect x="8.55078" y="8.55859" width="2.85041" height="2.81686" transform="rotate(-180 8.55078 8.55859)" fill="#FF438E"/>
<rect x="5.70068" y="11.375" width="2.85041" height="2.81686" transform="rotate(-180 5.70068 11.375)" fill="#FF438E"/>
<rect width="2.85041" height="2.81686" transform="matrix(1 0 0 -1 2.84961 40.0137)" fill="#FF438E"/>
<rect width="2.85041" height="2.81686" transform="matrix(1 0 0 -1 5.70068 42.8281)" fill="#FF438E"/>
<rect width="2.85041" height="2.81686" transform="matrix(1 0 0 -1 8.55078 45.6455)" fill="#FF438E"/>
<rect x="181.952" y="40.0127" width="2.85041" height="2.81686" transform="rotate(-180 181.952 40.0127)" fill="#FF438E"/>
<rect x="179.101" y="42.8301" width="2.85041" height="2.81686" transform="rotate(-180 179.101 42.8301)" fill="#FF438E"/>
<rect x="176.251" y="45.6465" width="2.85041" height="2.81686" transform="rotate(-180 176.251 45.6465)" fill="#FF438E"/>
<rect width="2.88753" height="3.35883" transform="matrix(-1 0 0 1 181.914 8.39844)" fill="#FF438E"/>
<path d="M179.046 5.33691L176.044 5.33691V8.64631H179.046V5.33691Z" fill="#FF438E"/>
<path d="M176.158 2.52148L173.27 2.52148L173.296 5.39984L176.147 5.36456L176.158 2.52148Z" fill="#FF438E"/>
<rect x="2.85059" y="37.1953" width="2.85041" height="25.8212" transform="rotate(-180 2.85059 37.1953)" fill="#FF438E"/>
<rect x="184.802" y="36.9473" width="2.88753" height="25.1912" transform="rotate(-180 184.802 36.9473)" fill="#FF438E"/>
<path d="M41 32.0029V15.3875H45.1538V21.6183H47.2308V23.6952H45.1538V32.0029H41ZM53.4615 21.6183V32.0029H49.3077V21.6183H47.2308V19.5414H51.3846V21.6183H53.4615ZM57.6052 34.0799V19.5414H61.7591V34.0799H59.6822V36.1568H53.4514V34.0799H57.6052ZM57.6052 15.3875H61.7591V17.4645H57.6052V15.3875ZM63.834 32.0029V15.3875H67.9878V21.6183H70.0648V23.6952H67.9878V29.926H72.1417V21.6183H70.0648V19.5414H74.2186V21.6183H76.2955V29.926H74.2186V32.0029H63.834ZM78.3623 32.0029V29.926H84.5931V27.8491H82.5162V25.7722H80.4392V23.6952H78.3623V21.6183H80.4392V19.5414H88.7469V21.6183H82.5162V23.6952H84.5931V25.7722H86.67V27.8491H88.7469V29.926H86.67V32.0029H78.3623ZM90.834 32.0029V19.5414H94.9878V21.6183H97.0648V23.6952H94.9878V32.0029H90.834ZM109.526 21.6183H111.603V32.0029H107.449V21.6183H105.372V19.5414H109.526V21.6183ZM105.372 23.6952H103.296V32.0029H99.1417V21.6183H97.0648V19.5414H101.219V21.6183H105.372V23.6952ZM113.668 32.0029V15.3875H117.822V21.6183H119.899V23.6952H117.822V32.0029H113.668ZM126.13 21.6183V32.0029H121.976V21.6183H119.899V19.5414H124.053V21.6183H126.13ZM136.504 29.926H134.427V27.8491H136.504V21.6183H132.35V29.926H134.427V32.0029H130.273V29.926H128.196V21.6183H130.273V19.5414H136.504V15.3875H140.658V32.0029H136.504V29.926ZM153.109 17.4645V21.6183H151.032V23.6952H148.955V27.8491H144.802V23.6952H146.878V21.6183H148.955V17.4645H142.725V15.3875H151.032V17.4645H153.109ZM144.802 32.0029V29.926H148.955V32.0029H144.802Z" fill="#FF0066"/>
</svg>
