<svg width="245" height="59" viewBox="0 0 245 59" fill="none" xmlns="http://www.w3.org/2000/svg">
<path d="M227.953 56.3932L243.897 42.1057L243.536 16.5262L239.571 12.7235L235.711 8.72181L228.049 1.55402L196.159 1.02583L170.499 0.784634L17.9304 0.856449L2.28319 15.0496L1.91528 43.0792L17.314 56.751L227.953 56.3932Z" fill="white"/>
<rect x="194.93" y="3.02344" width="179.821" height="3.02387" transform="rotate(-180 194.93 3.02344)" fill="#FF438E"/>
<rect x="229.63" y="3.02539" width="35.3903" height="3.02387" transform="rotate(-180 229.63 3.02539)" fill="#FF438E"/>
<rect x="229.756" y="58.1719" width="214.648" height="3.38127" transform="rotate(-180 229.756 58.1719)" fill="#FF438E"/>
<rect x="15.1074" y="6.89062" width="3.7768" height="3.38127" transform="rotate(-180 15.1074 6.89062)" fill="#FF438E"/>
<rect x="11.3311" y="10.2715" width="3.7768" height="3.38127" transform="rotate(-180 11.3311 10.2715)" fill="#FF438E"/>
<rect x="7.55371" y="13.6533" width="3.7768" height="3.38127" transform="rotate(-180 7.55371 13.6533)" fill="#FF438E"/>
<rect width="3.7768" height="3.38127" transform="matrix(1 0 0 -1 3.77734 48.0303)" fill="#FF438E"/>
<rect width="3.7768" height="3.38127" transform="matrix(1 0 0 -1 7.55371 51.4092)" fill="#FF438E"/>
<rect width="3.7768" height="3.38127" transform="matrix(1 0 0 -1 11.3311 54.791)" fill="#FF438E"/>
<rect x="241.087" y="48.0283" width="3.7768" height="3.38127" transform="rotate(-180 241.087 48.0283)" fill="#FF438E"/>
<rect x="237.31" y="51.4111" width="3.7768" height="3.38127" transform="rotate(-180 237.31 51.4111)" fill="#FF438E"/>
<rect x="233.533" y="54.792" width="3.7768" height="3.38127" transform="rotate(-180 233.533 54.792)" fill="#FF438E"/>
<rect width="3.82598" height="4.03183" transform="matrix(-1 0 0 1 241.037 10.0811)" fill="#FF438E"/>
<path d="M237.236 6.40527L233.259 6.40527V10.3778H237.236V6.40527Z" fill="#FF438E"/>
<path d="M233.411 3.02539L229.585 3.02539L229.619 6.48048L233.397 6.43813L233.411 3.02539Z" fill="#FF438E"/>
<rect x="3.77734" y="44.6475" width="3.7768" height="30.995" transform="rotate(-180 3.77734 44.6475)" fill="#FF438E"/>
<rect x="244.863" y="44.3496" width="3.82598" height="30.2387" transform="rotate(-180 244.863 44.3496)" fill="#FF438E"/>
<path d="M43.7617 38.9824V36.2132H46.5309V33.444H49.3002V27.9055H52.0694V25.1363H43.7617V22.367H60.3771V25.1363H57.6079V27.9055H54.8386V33.444H52.0694V36.2132H60.3771V38.9824H43.7617ZM71.4297 38.9824V16.8286H76.9681V25.1363H79.7374V22.367H85.2758V25.1363H82.5066V27.9055H79.7374V30.6747H82.5066V33.444H85.2758V36.2132H88.0451V38.9824H82.5066V36.2132H79.7374V33.444H76.9681V38.9824H71.4297ZM90.8008 38.9824V36.2132H99.1085V33.444H96.3392V30.6747H93.57V27.9055H90.8008V25.1363H93.57V22.367H104.647V25.1363H96.3392V27.9055H99.1085V30.6747H101.878V33.444H104.647V36.2132H101.878V38.9824H90.8008ZM110.199 41.7517V22.367H115.737V41.7517H112.968V44.5209H104.66V41.7517H110.199ZM110.199 16.8286H115.737V19.5978H110.199V16.8286ZM118.504 38.9824V16.8286H124.042V25.1363H126.812V27.9055H124.042V36.2132H129.581V25.1363H126.812V22.367H132.35V25.1363H135.119V36.2132H132.35V38.9824H118.504ZM151.721 36.2132H148.952V38.9824H143.413V33.444H140.644V27.9055H137.875V22.367H143.413V27.9055H146.183V30.6747H148.952V25.1363H151.721V30.6747H154.49V27.9055H157.26V22.367H162.798V27.9055H160.029V33.444H157.26V38.9824H151.721V36.2132ZM165.578 38.9824V16.8286H171.117V25.1363H173.886V27.9055H171.117V36.2132H176.655V25.1363H173.886V22.367H179.424V25.1363H182.194V36.2132H179.424V38.9824H165.578ZM198.795 19.5978V25.1363H196.026V27.9055H193.257V33.444H187.718V27.9055H190.488V25.1363H193.257V19.5978H184.949V16.8286H196.026V19.5978H198.795ZM187.718 38.9824V36.2132H193.257V38.9824H187.718Z" fill="#FF0066"/>
</svg>
