<svg width="301" height="72" viewBox="0 0 301 72" fill="none" xmlns="http://www.w3.org/2000/svg">
<path d="M279.309 69.4141L298.845 51.8275L298.403 20.3415L293.544 15.6607L288.814 10.735L279.426 1.91212L240.351 1.26197L208.911 0.965073L21.9699 1.05347L2.79761 18.5239L2.3468 53.0258L21.2147 69.8545L279.309 69.4141Z" fill="white"/>
<rect x="238.845" y="3.72168" width="220.333" height="3.72211" transform="rotate(-180 238.845 3.72168)" fill="#00FF04"/>
<rect x="281.363" y="3.72266" width="43.3634" height="3.72211" transform="rotate(-180 281.363 3.72266)" fill="#00FF04"/>
<rect x="281.518" y="71.6045" width="263.007" height="4.16203" transform="rotate(-180 281.518 71.6045)" fill="#00FF04"/>
<rect x="18.5117" y="8.48242" width="4.62768" height="4.16203" transform="rotate(-180 18.5117 8.48242)" fill="#00FF04"/>
<rect x="13.8838" y="12.6436" width="4.62768" height="4.16203" transform="rotate(-180 13.8838 12.6436)" fill="#00FF04"/>
<rect x="9.25586" y="16.8057" width="4.62768" height="4.16203" transform="rotate(-180 9.25586 16.8057)" fill="#00FF04"/>
<rect width="4.62768" height="4.16203" transform="matrix(1 0 0 -1 4.62793 59.1211)" fill="#00FF04"/>
<rect width="4.62768" height="4.16203" transform="matrix(1 0 0 -1 9.25586 63.2812)" fill="#00FF04"/>
<rect width="4.62768" height="4.16203" transform="matrix(1 0 0 -1 13.8838 67.4424)" fill="#00FF04"/>
<rect x="295.401" y="59.1201" width="4.62768" height="4.16203" transform="rotate(-180 295.401 59.1201)" fill="#00FF04"/>
<rect x="290.773" y="63.2832" width="4.62768" height="4.16203" transform="rotate(-180 290.773 63.2832)" fill="#00FF04"/>
<rect x="286.146" y="67.4434" width="4.62768" height="4.16203" transform="rotate(-180 286.146 67.4434)" fill="#00FF04"/>
<rect width="4.68794" height="4.96281" transform="matrix(-1 0 0 1 295.341 12.4082)" fill="#00FF04"/>
<path d="M290.684 7.88379L285.81 7.88379V12.7736H290.684V7.88379Z" fill="#00FF04"/>
<path d="M285.996 3.72363L281.308 3.72363L281.35 7.97653L285.978 7.9244L285.996 3.72363Z" fill="#00FF04"/>
<rect x="4.62793" y="54.958" width="4.62768" height="38.152" transform="rotate(-180 4.62793 54.958)" fill="#00FF04"/>
<rect x="300.029" y="54.5908" width="4.68794" height="37.2211" transform="rotate(-180 300.029 54.5908)" fill="#00FF04"/>
<path d="M31.6164 42.0759V44.999H19.9241V42.0759H17.001V39.1529H22.8471V42.0759H28.6933V36.2298H25.7702V33.3067H28.6933V30.3836H22.8471V33.3067H17.001V30.3836H19.9241V27.4606H31.6164V30.3836H34.5394V33.3067H31.6164V36.2298H34.5394V42.0759H31.6164ZM37.4482 44.999V27.4606H43.2944V33.3067H49.1406V27.4606H54.9867V44.999H49.1406V36.2298H43.2944V44.999H37.4482ZM75.434 30.3836V44.999H69.5878V42.0759H66.6647V39.1529H69.5878V36.2298H63.7417V42.0759H66.6647V44.999H60.8186V42.0759H57.8955V36.2298H60.8186V33.3067H69.5878V30.3836H60.8186V27.4606H72.5109V30.3836H75.434ZM78.3428 44.999V27.4606H84.1889V30.3836H87.112V27.4606H92.9582V30.3836H90.0351V33.3067H87.112V36.2298H90.0351V39.1529H92.9582V42.0759H95.8812V44.999H90.0351V42.0759H87.112V39.1529H84.1889V44.999H78.3428ZM95.8955 44.999V27.4606H101.742V36.2298H104.665V33.3067H107.588V30.3836H110.511V27.4606H116.357V44.999H110.511V36.2298H107.588V39.1529H104.665V42.0759H101.742V44.999H95.8955ZM128.032 27.4606H148.494V30.3836H145.571V44.999H139.725V30.3836H136.801V44.999H130.955V30.3836H128.032V27.4606ZM166.027 42.0759V44.999H154.334V42.0759H151.411V30.3836H154.334V27.4606H166.027V30.3836H168.95V42.0759H166.027ZM163.103 42.0759V30.3836H157.257V42.0759H163.103ZM171.858 44.999V27.4606H186.474V30.3836H189.397V33.3067H186.474V36.2298H189.397V42.0759H186.474V44.999H171.858ZM183.551 42.0759V36.2298H177.705V42.0759H183.551ZM183.551 30.3836H177.705V33.3067H183.551V30.3836ZM206.921 42.0759V44.999H195.229V42.0759H192.306V30.3836H195.229V27.4606H206.921V30.3836H198.152V42.0759H203.998V39.1529H209.844V42.0759H206.921ZM227.368 42.0759H230.291V30.3836H227.368V42.0759ZM212.753 44.999V27.4606H218.599V33.3067H221.522V30.3836H224.445V27.4606H233.214V30.3836H236.138V42.0759H233.214V44.999H224.445V42.0759H221.522V36.2298H218.599V44.999H212.753ZM239.063 47.9221V42.0759H241.987V36.2298H244.91V27.4606H262.448V47.9221H256.602V44.999H244.91V47.9221H239.063ZM256.602 30.3836H250.756V36.2298H247.833V42.0759H256.602V30.3836ZM265.374 47.9221H268.297V44.999H271.22V39.1529H268.297V33.3067H265.374V27.4606H271.22V33.3067H277.066V27.4606H282.912V33.3067H279.989V39.1529H277.066V44.999H274.143V47.9221H271.22V50.8452H265.374V47.9221Z" fill="#00DE04"/>
</svg>
