<svg width="163" height="49" viewBox="0 0 163 49" fill="none" xmlns="http://www.w3.org/2000/svg">
<path d="M151.558 46.9803L162.159 35.0777L161.919 13.7679L159.282 10.6L156.716 7.2663L151.621 1.29498L130.418 0.854958L113.358 0.654018L11.92 0.713844L1.51662 12.5379L1.27202 35.8887L11.5101 47.2783L151.558 46.9803Z" fill="white"/>
<rect x="129.602" y="2.51953" width="119.558" height="2.51912" transform="rotate(-180 129.602 2.51953)" fill="#00FF04"/>
<rect x="152.673" y="2.52051" width="23.53" height="2.51912" transform="rotate(-180 152.673 2.52051)" fill="#00FF04"/>
<rect x="152.757" y="48.4629" width="142.713" height="2.81686" transform="rotate(-180 152.757 48.4629)" fill="#00FF04"/>
<rect x="10.0439" y="5.74121" width="2.51108" height="2.81686" transform="rotate(-180 10.0439 5.74121)" fill="#00FF04"/>
<rect x="7.53223" y="8.55859" width="2.51108" height="2.81686" transform="rotate(-180 7.53223 8.55859)" fill="#00FF04"/>
<rect x="5.02148" y="11.375" width="2.51108" height="2.81686" transform="rotate(-180 5.02148 11.375)" fill="#00FF04"/>
<rect width="2.51108" height="2.81686" transform="matrix(1 0 0 -1 2.50977 40.0137)" fill="#00FF04"/>
<rect width="2.51108" height="2.81686" transform="matrix(1 0 0 -1 5.02148 42.8281)" fill="#00FF04"/>
<rect width="2.51108" height="2.81686" transform="matrix(1 0 0 -1 7.53223 45.6455)" fill="#00FF04"/>
<rect x="160.29" y="40.0127" width="2.51108" height="2.81686" transform="rotate(-180 160.29 40.0127)" fill="#00FF04"/>
<rect x="157.779" y="42.8301" width="2.51108" height="2.81686" transform="rotate(-180 157.779 42.8301)" fill="#00FF04"/>
<rect x="155.268" y="45.6465" width="2.51108" height="2.81686" transform="rotate(-180 155.268 45.6465)" fill="#00FF04"/>
<rect width="2.54378" height="3.35883" transform="matrix(-1 0 0 1 160.257 8.39844)" fill="#00FF04"/>
<path d="M157.73 5.33691L155.086 5.33691V8.64631H157.73V5.33691Z" fill="#00FF04"/>
<path d="M155.187 2.52148L152.643 2.52148L152.665 5.39984L155.177 5.36456L155.187 2.52148Z" fill="#00FF04"/>
<rect x="2.51074" y="37.1953" width="2.51108" height="25.8212" transform="rotate(-180 2.51074 37.1953)" fill="#00FF04"/>
<rect x="162.801" y="36.9473" width="2.54378" height="25.1912" transform="rotate(-180 162.801 36.9473)" fill="#00FF04"/>
<path d="M34.0521 33.0917L33.9161 17.4L39.1467 17.3546L39.192 22.5852L44.4226 22.5399L44.3773 17.3093L49.6078 17.264L49.7438 32.9557L44.5133 33.001L44.4453 25.1552L39.2147 25.2005L39.2827 33.0464L34.0521 33.0917ZM67.9247 19.7207L68.0381 32.7971L62.8075 32.8425L62.7848 30.2272L60.1695 30.2498L60.1469 27.6346L62.7622 27.6119L62.7395 24.9966L57.5089 25.0419L57.5543 30.2725L60.1695 30.2498L60.1922 32.8651L54.9616 32.9105L54.939 30.2952L52.3237 30.3178L52.2783 25.0873L54.8936 25.0646L54.871 22.4493L62.7168 22.3813L62.6942 19.766L54.8483 19.834L54.8256 17.2187L65.2868 17.1281L65.3094 19.7434L67.9247 19.7207ZM70.5046 17.0829L75.7352 17.0375L75.8032 24.8834L81.0337 24.838L80.9657 16.9922L86.1963 16.9469L86.3323 32.6386L81.1017 32.6839L81.0564 27.4533L73.2105 27.5213L73.1879 24.906L70.5726 24.9287L70.5046 17.0829ZM88.9348 32.616L88.7988 16.9243L94.0294 16.879L94.0747 22.1095L99.3053 22.0642L99.26 16.8336L104.491 16.7883L104.627 32.48L99.396 32.5254L99.328 24.6795L94.0974 24.7248L94.1654 32.5707L88.9348 32.616ZM107.229 32.4575L107.093 16.7657L112.324 16.7204L112.392 24.5663L115.007 24.5436L114.984 21.9283L117.6 21.9056L117.577 19.2904L120.192 19.2677L120.169 16.6524L125.4 16.6071L125.536 32.2988L120.305 32.3441L120.237 24.4983L117.622 24.5209L117.645 27.1362L115.03 27.1589L115.052 29.7742L112.437 29.7968L112.46 32.4121L107.229 32.4575ZM130.762 32.2535L130.739 29.6382L135.969 29.5929L135.992 32.2082L130.762 32.2535ZM130.716 27.0229L130.58 11.3312L135.811 11.2859L135.947 26.9776L130.716 27.0229Z" fill="#00DE04"/>
</svg>
