<svg width="245" height="59" viewBox="0 0 245 59" fill="none" xmlns="http://www.w3.org/2000/svg">
<path d="M227.952 56.3923L243.896 42.1048L243.536 16.5252L239.57 12.7225L235.71 8.72083L228.048 1.55304L196.158 1.02486L170.498 0.783657L17.9294 0.855473L2.28221 15.0486L1.91431 43.0782L17.313 56.75L227.952 56.3923Z" fill="white"/>
<rect x="194.929" y="3.02344" width="179.821" height="3.02387" transform="rotate(-180 194.929 3.02344)" fill="#FF438E"/>
<rect x="229.629" y="3.02441" width="35.3903" height="3.02387" transform="rotate(-180 229.629 3.02441)" fill="#FF438E"/>
<rect x="229.755" y="58.1719" width="214.648" height="3.38127" transform="rotate(-180 229.755 58.1719)" fill="#FF438E"/>
<rect x="15.1074" y="6.89062" width="3.7768" height="3.38127" transform="rotate(-180 15.1074 6.89062)" fill="#FF438E"/>
<rect x="11.3301" y="10.2715" width="3.7768" height="3.38127" transform="rotate(-180 11.3301 10.2715)" fill="#FF438E"/>
<rect x="7.55371" y="13.6523" width="3.7768" height="3.38127" transform="rotate(-180 7.55371 13.6523)" fill="#FF438E"/>
<rect width="3.7768" height="3.38127" transform="matrix(1 0 0 -1 3.77637 48.0293)" fill="#FF438E"/>
<rect width="3.7768" height="3.38127" transform="matrix(1 0 0 -1 7.55273 51.4092)" fill="#FF438E"/>
<rect width="3.7768" height="3.38127" transform="matrix(1 0 0 -1 11.3301 54.791)" fill="#FF438E"/>
<rect x="241.086" y="48.0283" width="3.7768" height="3.38127" transform="rotate(-180 241.086 48.0283)" fill="#FF438E"/>
<rect x="237.309" y="51.4111" width="3.7768" height="3.38127" transform="rotate(-180 237.309 51.4111)" fill="#FF438E"/>
<rect x="233.532" y="54.791" width="3.7768" height="3.38127" transform="rotate(-180 233.532 54.791)" fill="#FF438E"/>
<rect width="3.82598" height="4.03183" transform="matrix(-1 0 0 1 241.037 10.0801)" fill="#FF438E"/>
<path d="M237.236 6.40527L233.259 6.40527V10.3778H237.236V6.40527Z" fill="#FF438E"/>
<path d="M233.41 3.02539L229.584 3.02539L229.618 6.48048L233.396 6.43813L233.41 3.02539Z" fill="#FF438E"/>
<rect x="3.77637" y="44.6475" width="3.7768" height="30.995" transform="rotate(-180 3.77637 44.6475)" fill="#FF438E"/>
<rect x="244.863" y="44.3496" width="3.82598" height="30.2387" transform="rotate(-180 244.863 44.3496)" fill="#FF438E"/>
<path d="M61.8462 36.2298V30.6913H59.0769V27.9221H67.3846V38.999H53.5385V36.2298H50.7692V33.4606H48V22.3836H50.7692V19.6144H53.5385V16.8452H64.6154V19.6144H56.3077V22.3836H53.5385V33.4606H56.3077V36.2298H61.8462ZM72.9177 41.7683V22.3836H78.4561V41.7683H75.6869V44.5375H67.3792V41.7683H72.9177ZM72.9177 16.8452H78.4561V19.6144H72.9177V16.8452ZM81.2227 38.999V16.8452H86.7611V25.1529H89.5303V22.3836H95.0688V25.1529H92.2996V27.9221H89.5303V30.6913H92.2996V33.4606H95.0688V36.2298H97.838V38.999H92.2996V36.2298H89.5303V33.4606H86.7611V38.999H81.2227ZM114.44 19.6144H108.901V22.3836H111.671V25.1529H108.901V38.999H103.363V25.1529H100.594V22.3836H103.363V19.6144H106.132V16.8452H114.44V19.6144ZM114.445 38.999V33.4606H119.984V41.7683H117.215V38.999H114.445ZM114.445 41.7683H117.215V44.5375H114.445V41.7683ZM136.588 36.2298H133.819V38.999H125.511V36.2298H131.05V33.4606H133.819V30.6913H125.511V27.9221H122.742V19.6144H125.511V16.8452H136.588V19.6144H139.358V33.4606H136.588V36.2298ZM133.819 19.6144H128.281V27.9221H133.819V19.6144ZM155.959 36.2298V38.999H144.883V36.2298H142.113V25.1529H144.883V22.3836H155.959V25.1529H158.729V30.6913H147.652V36.2298H153.19V33.4606H158.729V36.2298H155.959ZM153.19 25.1529H147.652V27.9221H153.19V25.1529ZM164.254 41.7683V22.3836H169.792V41.7683H167.023V44.5375H158.715V41.7683H164.254ZM164.254 16.8452H169.792V19.6144H164.254V16.8452ZM172.559 38.999V22.3836H178.097V25.1529H180.866V27.9221H178.097V38.999H172.559ZM189.174 25.1529V38.999H183.636V25.1529H180.866V22.3836H186.405V25.1529H189.174ZM194.699 38.999V36.2298H200.237V38.999H194.699ZM194.699 33.4606V16.8452H200.237V33.4606H194.699Z" fill="#FF0066"/>
</svg>
