<svg width="245" height="59" viewBox="0 0 245 59" fill="none" xmlns="http://www.w3.org/2000/svg">
<path d="M227.952 56.3932L243.896 42.1057L243.536 16.5262L239.57 12.7235L235.71 8.72181L228.048 1.55402L196.158 1.02583L170.498 0.784634L17.9294 0.856449L2.28221 15.0496L1.91431 43.0792L17.313 56.751L227.952 56.3932Z" fill="white"/>
<rect x="194.929" y="3.02344" width="179.821" height="3.02387" transform="rotate(-180 194.929 3.02344)" fill="#FF438E"/>
<rect x="229.629" y="3.02441" width="35.3903" height="3.02387" transform="rotate(-180 229.629 3.02441)" fill="#FF438E"/>
<rect x="229.755" y="58.1719" width="214.648" height="3.38127" transform="rotate(-180 229.755 58.1719)" fill="#FF438E"/>
<rect x="15.1069" y="6.89062" width="3.7768" height="3.38127" transform="rotate(-180 15.1069 6.89062)" fill="#FF438E"/>
<rect x="11.3306" y="10.2715" width="3.7768" height="3.38127" transform="rotate(-180 11.3306 10.2715)" fill="#FF438E"/>
<rect x="7.55371" y="13.6523" width="3.7768" height="3.38127" transform="rotate(-180 7.55371 13.6523)" fill="#FF438E"/>
<rect width="3.7768" height="3.38127" transform="matrix(1 0 0 -1 3.77637 48.0303)" fill="#FF438E"/>
<rect width="3.7768" height="3.38127" transform="matrix(1 0 0 -1 7.55322 51.4092)" fill="#FF438E"/>
<rect width="3.7768" height="3.38127" transform="matrix(1 0 0 -1 11.3306 54.791)" fill="#FF438E"/>
<rect x="241.086" y="48.0293" width="3.7768" height="3.38127" transform="rotate(-180 241.086 48.0293)" fill="#FF438E"/>
<rect x="237.309" y="51.4111" width="3.7768" height="3.38127" transform="rotate(-180 237.309 51.4111)" fill="#FF438E"/>
<rect x="233.532" y="54.792" width="3.7768" height="3.38127" transform="rotate(-180 233.532 54.792)" fill="#FF438E"/>
<rect width="3.82598" height="4.03183" transform="matrix(-1 0 0 1 241.037 10.0801)" fill="#FF438E"/>
<path d="M237.236 6.40527L233.259 6.40527V10.3778H237.236V6.40527Z" fill="#FF438E"/>
<path d="M233.41 3.02539L229.584 3.02539L229.618 6.48048L233.396 6.43813L233.41 3.02539Z" fill="#FF438E"/>
<rect x="3.77686" y="44.6475" width="3.7768" height="30.995" transform="rotate(-180 3.77686 44.6475)" fill="#FF438E"/>
<rect x="244.863" y="44.3496" width="3.82598" height="30.2387" transform="rotate(-180 244.863 44.3496)" fill="#FF438E"/>
<path d="M56.1468 38.9026H53.0699V41.9795H49.993V38.9026H46.9161V32.7487H43.8391V23.518H40.7622V17.3641H46.9161V23.518H49.993V32.7487H53.0699V23.518H56.1468V17.3641H62.3007V23.518H59.2237V32.7487H56.1468V38.9026Z" fill="#FF0066"/>
<path d="M180.762 41.9795V17.3641H186.916V20.441H189.993V26.5949H193.07V29.6718H196.147V17.3641H202.301V41.9795H196.147V38.9026H193.07V32.7487H189.993V29.6718H186.916V41.9795H180.762Z" fill="#FF0066"/>
<path d="M94.7622 41.9795V17.3641H100.916V38.9026H110.147V41.9795H94.7622Z" fill="#FF0066"/>
<path d="M139.839 41.9795V17.3641H145.993V41.9795H139.839Z" fill="#FF0066"/>
<path d="M81.1606 17.9854H73.1626V16.3838H81.1606V17.9854ZM73.1626 40.3877H69.9595V38.7861H68.3579V37.1846H66.7563V33.9814H65.1646V24.3818H66.7563V21.1885H68.3579V19.5869H69.9595V17.9854H73.1626V19.5869H71.561V21.1885H69.9595V24.3818H68.3579V33.9814H69.9595V37.1846H71.561V38.7861H73.1626V40.3877ZM84.3638 40.3877H81.1606V38.7861H82.7622V37.1846H84.3638V33.9814H85.9556V24.3818H84.3638V21.1885H82.7622V19.5869H81.1606V17.9854H84.3638V19.5869H85.9556V21.1885H87.5571V24.3818H89.1587V33.9814H87.5571V37.1846H85.9556V38.7861H84.3638V40.3877ZM81.1606 41.9795H73.1626V40.3877H81.1606V41.9795Z" fill="#FF0066"/>
<path d="M168.161 17.9854H160.163V16.3838H168.161V17.9854ZM160.163 40.3877H156.959V38.7861H155.358V37.1846H153.756V33.9814H152.165V24.3818H153.756V21.1885H155.358V19.5869H156.959V17.9854H160.163V19.5869H158.561V21.1885H156.959V24.3818H155.358V33.9814H156.959V37.1846H158.561V38.7861H160.163V40.3877ZM171.364 40.3877H168.161V38.7861H169.762V37.1846H171.364V33.9814H172.956V24.3818H171.364V21.1885H169.762V19.5869H168.161V17.9854H171.364V19.5869H172.956V21.1885H174.557V24.3818H176.159V33.9814H174.557V37.1846H172.956V38.7861H171.364V40.3877ZM168.161 41.9795H160.163V40.3877H168.161V41.9795Z" fill="#FF0066"/>
<path d="M115.069 41.9795C114.904 41.9795 114.772 41.8475 114.772 41.6825V41.6165C114.772 41.4515 114.904 41.3195 115.069 41.3195H115.795C115.96 41.3195 116.092 41.1875 116.092 41.0225V40.9565C116.092 40.7915 116.224 40.6595 116.389 40.6595H117.115C117.28 40.6595 117.412 40.5275 117.412 40.3625V40.2965C117.412 40.1315 117.544 39.9995 117.709 39.9995H117.775C117.94 39.9995 118.072 39.8675 118.072 39.7025V38.9765C118.072 38.8115 118.204 38.6795 118.369 38.6795H118.435C118.6 38.6795 118.732 38.5475 118.732 38.3825V36.3365C118.732 36.1715 118.864 36.0395 119.029 36.0395H119.095C119.26 36.0395 119.392 35.9075 119.392 35.7425V34.3565C119.392 34.1915 119.524 34.0595 119.689 34.0595H119.755C119.92 34.0595 120.052 33.9275 120.052 33.7625V31.7165C120.052 31.5515 120.184 31.4195 120.349 31.4195H120.415C120.58 31.4195 120.712 31.2875 120.712 31.1225V29.7365C120.712 29.5715 120.844 29.4395 121.009 29.4395H121.075C121.24 29.4395 121.372 29.3075 121.372 29.1425V27.0965C121.372 26.9315 121.504 26.7995 121.669 26.7995H121.735C121.9 26.7995 122.032 26.6675 122.032 26.5025V25.1165C122.032 24.9515 122.164 24.8195 122.329 24.8195H122.395C122.56 24.8195 122.692 24.6875 122.692 24.5225V22.4765C122.692 22.3115 122.824 22.1795 122.989 22.1795H123.055C123.22 22.1795 123.352 22.0475 123.352 21.8825V20.4965C123.352 20.3315 123.484 20.1995 123.649 20.1995H123.715C123.88 20.1995 124.012 20.0675 124.012 19.9025V18.5165C124.012 18.3515 123.88 18.2195 123.715 18.2195H123.649C123.484 18.2195 123.352 18.0875 123.352 17.9225V17.8565C123.352 17.6915 123.22 17.5595 123.055 17.5595H122.329C122.164 17.5595 122.032 17.4275 122.032 17.2625V17.1965C122.032 17.0315 122.164 16.8995 122.329 16.8995H130.975C131.14 16.8995 131.272 17.0315 131.272 17.1965V17.2625C131.272 17.4275 131.404 17.5595 131.569 17.5595H132.295C132.46 17.5595 132.592 17.6915 132.592 17.8565V17.9225C132.592 18.0875 132.724 18.2195 132.889 18.2195H132.955C133.12 18.2195 133.252 18.3515 133.252 18.5165V19.2425C133.252 19.4075 133.384 19.5395 133.549 19.5395H133.615C133.78 19.5395 133.912 19.6715 133.912 19.8365V24.5225C133.912 24.6875 133.78 24.8195 133.615 24.8195H133.549C133.384 24.8195 133.252 24.9515 133.252 25.1165V26.5025C133.252 26.6675 133.12 26.7995 132.955 26.7995H132.889C132.724 26.7995 132.592 26.9315 132.592 27.0965V27.1625C132.592 27.3275 132.46 27.4595 132.295 27.4595H132.229C132.064 27.4595 131.932 27.5915 131.932 27.7565V27.8225C131.932 27.9875 131.8 28.1195 131.635 28.1195H131.569C131.404 28.1195 131.272 28.2515 131.272 28.4165V28.4825C131.272 28.6475 131.14 28.7795 130.975 28.7795H130.909C130.744 28.7795 130.612 28.9115 130.612 29.0765V29.1425C130.612 29.3075 130.48 29.4395 130.315 29.4395H130.249C130.084 29.4395 129.952 29.5715 129.952 29.7365V29.8025C129.952 29.9675 129.82 30.0995 129.655 30.0995H128.929C128.764 30.0995 128.632 30.2315 128.632 30.3965V30.4625C128.632 30.6275 128.5 30.7595 128.335 30.7595H128.269C128.104 30.7595 127.972 30.8915 127.972 31.0565V31.7825C127.972 31.9475 128.104 32.0795 128.269 32.0795H128.335C128.5 32.0795 128.632 32.2115 128.632 32.3765V34.4225C128.632 34.5875 128.764 34.7195 128.929 34.7195H128.995C129.16 34.7195 129.292 34.8515 129.292 35.0165V37.7225C129.292 37.8875 129.424 38.0195 129.589 38.0195H129.655C129.82 38.0195 129.952 38.1515 129.952 38.3165V40.3625C129.952 40.5275 130.084 40.6595 130.249 40.6595H130.315C130.48 40.6595 130.612 40.7915 130.612 40.9565V41.0225C130.612 41.1875 130.744 41.3195 130.909 41.3195H131.635C131.8 41.3195 131.932 41.4515 131.932 41.6165V41.6825C131.932 41.8475 131.8 41.9795 131.635 41.9795H125.629C125.464 41.9795 125.332 41.8475 125.332 41.6825V41.6165C125.332 41.4515 125.464 41.3195 125.629 41.3195H126.355C126.52 41.3195 126.652 41.1875 126.652 41.0225V40.9565C126.652 40.7915 126.784 40.6595 126.949 40.6595H127.015C127.18 40.6595 127.312 40.5275 127.312 40.3625V38.3165C127.312 38.1515 127.18 38.0195 127.015 38.0195H126.949C126.784 38.0195 126.652 37.8875 126.652 37.7225V35.0165C126.652 34.8515 126.52 34.7195 126.355 34.7195H126.289C126.124 34.7195 125.992 34.5875 125.992 34.4225V32.3765C125.992 32.2115 125.86 32.0795 125.695 32.0795H125.629C125.464 32.0795 125.332 31.9475 125.332 31.7825V31.0565C125.332 30.8915 125.2 30.7595 125.035 30.7595H123.649C123.484 30.7595 123.352 30.8915 123.352 31.0565V31.1225C123.352 31.2875 123.22 31.4195 123.055 31.4195H122.989C122.824 31.4195 122.692 31.5515 122.692 31.7165V33.7625C122.692 33.9275 122.56 34.0595 122.395 34.0595H122.329C122.164 34.0595 122.032 34.1915 122.032 34.3565V35.7425C122.032 35.9075 121.9 36.0395 121.735 36.0395H121.669C121.504 36.0395 121.372 36.1715 121.372 36.3365V38.3825C121.372 38.5475 121.24 38.6795 121.075 38.6795H121.009C120.844 38.6795 120.712 38.8115 120.712 38.9765V40.3625C120.712 40.5275 120.844 40.6595 121.009 40.6595H121.075C121.24 40.6595 121.372 40.7915 121.372 40.9565V41.0225C121.372 41.1875 121.504 41.3195 121.669 41.3195H122.395C122.56 41.3195 122.692 41.4515 122.692 41.6165V41.6825C122.692 41.8475 122.56 41.9795 122.395 41.9795H115.069ZM124.012 29.1425C124.012 29.3075 124.144 29.4395 124.309 29.4395H127.675C127.84 29.4395 127.972 29.3075 127.972 29.1425V29.0765C127.972 28.9115 128.104 28.7795 128.269 28.7795H128.335C128.5 28.7795 128.632 28.6475 128.632 28.4825V28.4165C128.632 28.2515 128.764 28.1195 128.929 28.1195H128.995C129.16 28.1195 129.292 27.9875 129.292 27.8225V27.7565C129.292 27.5915 129.424 27.4595 129.589 27.4595H129.655C129.82 27.4595 129.952 27.3275 129.952 27.1625V27.0965C129.952 26.9315 130.084 26.7995 130.249 26.7995H130.315C130.48 26.7995 130.612 26.6675 130.612 26.5025V25.1165C130.612 24.9515 130.744 24.8195 130.909 24.8195H130.975C131.14 24.8195 131.272 24.6875 131.272 24.5225V20.4965C131.272 20.3315 131.14 20.1995 130.975 20.1995H130.909C130.744 20.1995 130.612 20.0675 130.612 19.9025V19.1765C130.612 19.0115 130.48 18.8795 130.315 18.8795H130.249C130.084 18.8795 129.952 18.7475 129.952 18.5825V18.5165C129.952 18.3515 129.82 18.2195 129.655 18.2195H127.609C127.444 18.2195 127.312 18.3515 127.312 18.5165V18.5825C127.312 18.7475 127.18 18.8795 127.015 18.8795H126.949C126.784 18.8795 126.652 19.0115 126.652 19.1765V19.9025C126.652 20.0675 126.52 20.1995 126.355 20.1995H126.289C126.124 20.1995 125.992 20.3315 125.992 20.4965V21.8825C125.992 22.0475 125.86 22.1795 125.695 22.1795H125.629C125.464 22.1795 125.332 22.3115 125.332 22.4765V24.5225C125.332 24.6875 125.2 24.8195 125.035 24.8195H124.969C124.804 24.8195 124.672 24.9515 124.672 25.1165V26.5025C124.672 26.6675 124.54 26.7995 124.375 26.7995H124.309C124.144 26.7995 124.012 26.9315 124.012 27.0965V29.1425Z" fill="#FF0066"/>
</svg>
