<svg width="301" height="72" viewBox="0 0 301 72" fill="none" xmlns="http://www.w3.org/2000/svg">
<path d="M279.308 69.4141L298.844 51.8275L298.402 20.3415L293.543 15.6607L288.813 10.735L279.425 1.91212L240.35 1.26197L208.91 0.965073L21.969 1.05347L2.79663 18.5239L2.34583 53.0258L21.2137 69.8545L279.308 69.4141Z" fill="white"/>
<rect x="238.844" y="3.72168" width="220.333" height="3.72211" transform="rotate(-180 238.844 3.72168)" fill="#00FF04"/>
<rect x="281.362" y="3.72266" width="43.3634" height="3.72211" transform="rotate(-180 281.362 3.72266)" fill="#00FF04"/>
<rect x="281.517" y="71.6055" width="263.007" height="4.16203" transform="rotate(-180 281.517 71.6055)" fill="#00FF04"/>
<rect x="18.5107" y="8.48242" width="4.62768" height="4.16203" transform="rotate(-180 18.5107 8.48242)" fill="#00FF04"/>
<rect x="13.8833" y="12.6436" width="4.62768" height="4.16203" transform="rotate(-180 13.8833 12.6436)" fill="#00FF04"/>
<rect x="9.25488" y="16.8047" width="4.62768" height="4.16203" transform="rotate(-180 9.25488 16.8047)" fill="#00FF04"/>
<rect width="4.62768" height="4.16203" transform="matrix(1 0 0 -1 4.62695 59.1211)" fill="#00FF04"/>
<rect width="4.62768" height="4.16203" transform="matrix(1 0 0 -1 9.25439 63.2812)" fill="#00FF04"/>
<rect width="4.62768" height="4.16203" transform="matrix(1 0 0 -1 13.8828 67.4424)" fill="#00FF04"/>
<rect x="295.4" y="59.1201" width="4.62768" height="4.16203" transform="rotate(-180 295.4 59.1201)" fill="#00FF04"/>
<rect x="290.772" y="63.2832" width="4.62768" height="4.16203" transform="rotate(-180 290.772 63.2832)" fill="#00FF04"/>
<rect x="286.145" y="67.4434" width="4.62768" height="4.16203" transform="rotate(-180 286.145 67.4434)" fill="#00FF04"/>
<rect width="4.68794" height="4.96281" transform="matrix(-1 0 0 1 295.34 12.4072)" fill="#00FF04"/>
<path d="M290.683 7.88379L285.809 7.88379V12.7736H290.683V7.88379Z" fill="#00FF04"/>
<path d="M285.995 3.72363L281.307 3.72363L281.349 7.97653L285.977 7.9244L285.995 3.72363Z" fill="#00FF04"/>
<rect x="4.62744" y="54.958" width="4.62768" height="38.152" transform="rotate(-180 4.62744 54.958)" fill="#00FF04"/>
<rect x="300.028" y="54.5908" width="4.68794" height="37.2211" transform="rotate(-180 300.028 54.5908)" fill="#00FF04"/>
<path d="M42.538 42.6913V45.999H29.3072V42.6913H25.9995V29.4606H29.3072V26.1529H42.538V29.4606H32.6149V42.6913H39.2303V39.3836H45.8457V42.6913H42.538ZM49.1372 49.3067V42.6913H52.4449V36.0759H55.7526V26.1529H75.5987V49.3067H68.9834V45.999H55.7526V49.3067H49.1372ZM68.9834 29.4606H62.368V36.0759H59.0603V42.6913H68.9834V29.4606ZM95.4481 42.6913V45.999H82.2174V42.6913H78.9097V29.4606H82.2174V26.1529H95.4481V29.4606H98.7558V36.0759H85.5251V42.6913H92.1404V39.3836H98.7558V42.6913H95.4481ZM92.1404 29.4606H85.5251V32.7683H92.1404V29.4606ZM121.894 29.4606H115.278V42.6913H111.97V45.999H105.355V42.6913H108.663V26.1529H128.509V45.999H121.894V29.4606ZM102.047 42.6913V39.3836H105.355V42.6913H102.047ZM151.666 29.4606V45.999H145.051V42.6913H141.743V39.3836H145.051V36.0759H138.435V42.6913H141.743V45.999H135.128V42.6913H131.82V36.0759H135.128V32.7683H145.051V29.4606H135.128V26.1529H148.358V29.4606H151.666ZM154.958 45.999V26.1529H161.573V36.0759H164.881V32.7683H168.188V29.4606H171.496V26.1529H178.111V45.999H171.496V36.0759H168.188V39.3836H164.881V42.6913H161.573V45.999H154.958ZM158.265 16.2298H164.881V19.5375H168.188V16.2298H174.804V19.5375H171.496V22.8452H161.573V19.5375H158.265V16.2298ZM207.861 42.6913V45.999H194.63V42.6913H191.323V39.3836H197.938V42.6913H204.554V39.3836H207.861V36.0759H201.246V32.7683H204.554V29.4606H197.938V32.7683H191.323V29.4606H194.63V26.1529H207.861V29.4606H211.169V32.7683H214.477V39.3836H211.169V42.6913H207.861ZM217.778 26.1529H237.624V29.4606H231.009V45.999H224.393V29.4606H217.778V26.1529ZM257.454 42.6913V45.999H244.223V42.6913H240.916V29.4606H244.223V26.1529H257.454V29.4606H260.762V42.6913H257.454ZM254.146 42.6913V29.4606H247.531V42.6913H254.146ZM267.361 45.999V42.6913H273.976V45.999H267.361ZM267.361 39.3836V19.5375H273.976V39.3836H267.361Z" fill="#00DE04"/>
</svg>
