<svg width="182" height="49" viewBox="0 0 182 49" fill="none" xmlns="http://www.w3.org/2000/svg">
<path d="M169.431 46.9803L181.282 35.0777L181.013 13.7679L178.066 10.6L175.197 7.2663L169.502 1.29498L145.799 0.854958L126.727 0.654018L13.3264 0.713844L1.69626 12.5379L1.42281 35.8887L12.8682 47.2783L169.431 46.9803Z" fill="white"/>
<rect x="144.885" y="2.51953" width="133.656" height="2.51912" transform="rotate(-180 144.885 2.51953)" fill="#00FF04"/>
<rect x="170.677" y="2.52051" width="26.3047" height="2.51912" transform="rotate(-180 170.677 2.52051)" fill="#00FF04"/>
<rect x="170.771" y="48.4629" width="159.542" height="2.81686" transform="rotate(-180 170.771 48.4629)" fill="#00FF04"/>
<rect x="11.2285" y="5.74121" width="2.8072" height="2.81686" transform="rotate(-180 11.2285 5.74121)" fill="#00FF04"/>
<rect x="8.42139" y="8.55859" width="2.8072" height="2.81686" transform="rotate(-180 8.42139 8.55859)" fill="#00FF04"/>
<rect x="5.61426" y="11.375" width="2.8072" height="2.81686" transform="rotate(-180 5.61426 11.375)" fill="#00FF04"/>
<rect width="2.8072" height="2.81686" transform="matrix(1 0 0 -1 2.80664 40.0137)" fill="#00FF04"/>
<rect width="2.8072" height="2.81686" transform="matrix(1 0 0 -1 5.61426 42.8281)" fill="#00FF04"/>
<rect width="2.8072" height="2.81686" transform="matrix(1 0 0 -1 8.42139 45.6455)" fill="#00FF04"/>
<rect x="179.193" y="40.0127" width="2.8072" height="2.81686" transform="rotate(-180 179.193 40.0127)" fill="#00FF04"/>
<rect x="176.385" y="42.8301" width="2.8072" height="2.81686" transform="rotate(-180 176.385 42.8301)" fill="#00FF04"/>
<rect x="173.579" y="45.6465" width="2.8072" height="2.81686" transform="rotate(-180 173.579 45.6465)" fill="#00FF04"/>
<rect width="2.84375" height="3.35883" transform="matrix(-1 0 0 1 179.156 8.39844)" fill="#00FF04"/>
<path d="M176.332 5.33691L173.375 5.33691V8.64631H176.332V5.33691Z" fill="#00FF04"/>
<path d="M173.487 2.52148L170.644 2.52148L170.669 5.39984L173.477 5.36456L173.487 2.52148Z" fill="#00FF04"/>
<rect x="2.80713" y="37.1953" width="2.8072" height="25.8212" transform="rotate(-180 2.80713 37.1953)" fill="#00FF04"/>
<rect x="182" y="36.9473" width="2.84375" height="25.1912" transform="rotate(-180 182 36.9473)" fill="#00FF04"/>
<path d="M31.0256 16.3126L46.7179 16.3353L46.7141 18.9507L41.4834 18.9431L41.4644 32.02L36.2337 32.0124L36.2526 18.9355L31.0219 18.9279L31.0256 16.3126ZM49.2978 32.0314L49.3205 16.3391L54.5513 16.3466L54.5437 21.5774L59.7745 21.585L59.7707 24.2004L62.3861 24.2042L62.3785 29.4349L59.7631 29.4311L59.7593 32.0465L49.2978 32.0314ZM57.1553 24.1966L54.5399 24.1928L54.5324 29.4236L57.1477 29.4273L57.1553 24.1966ZM70.2436 16.3694L70.2209 32.0617L64.9901 32.0541L65.0128 16.3618L70.2436 16.3694ZM80.6747 32.0768L80.6975 16.3845L91.159 16.3997L91.1552 19.0151L85.9244 19.0075L85.9055 32.0844L80.6747 32.0768ZM93.753 34.7112L93.7605 29.4804L96.3759 29.4842L96.3835 24.2534L98.9989 24.2572L99.0102 16.4111L114.703 16.4338L114.676 34.7415L109.445 34.7339L109.449 32.1185L98.9875 32.1033L98.9837 34.7187L93.753 34.7112ZM109.468 19.0416L104.237 19.034L104.23 24.2648L101.614 24.261L101.607 29.4918L109.453 29.5031L109.468 19.0416ZM130.378 29.5334L130.375 32.1488L119.913 32.1337L119.917 29.5183L117.302 29.5145L117.317 19.053L119.932 19.0568L119.936 16.4414L130.397 16.4565L130.394 19.0719L133.009 19.0757L133.001 24.3065L122.54 24.2913L122.532 29.5221L127.763 29.5297L127.767 26.9143L132.998 26.9218L132.994 29.5372L130.378 29.5334ZM127.778 19.0681L122.547 19.0605L122.544 21.6759L127.774 21.6835L127.778 19.0681ZM148.696 13.8677L148.689 19.0984L146.073 19.0946L146.069 21.71L143.454 21.7062L143.446 26.937L138.216 26.9294L138.223 21.6986L140.839 21.7024L140.842 19.0871L143.458 19.0908L143.465 13.8601L135.619 13.8487L135.623 11.2333L146.084 11.2485L146.081 13.8639L148.696 13.8677ZM138.208 32.1602L138.212 29.5448L143.443 29.5524L143.439 32.1678L138.208 32.1602Z" fill="#00DE04"/>
</svg>
