<svg width="245" height="59" viewBox="0 0 245 59" fill="none" xmlns="http://www.w3.org/2000/svg">
<path d="M227.952 56.3932L243.896 42.1057L243.536 16.5262L239.57 12.7235L235.71 8.72181L228.048 1.55402L196.158 1.02583L170.498 0.784634L17.9294 0.856449L2.28221 15.0496L1.91431 43.0792L17.313 56.751L227.952 56.3932Z" fill="white"/>
<rect x="194.929" y="3.02441" width="179.821" height="3.02387" transform="rotate(-180 194.929 3.02441)" fill="#FF438E"/>
<rect x="229.629" y="3.02539" width="35.3903" height="3.02387" transform="rotate(-180 229.629 3.02539)" fill="#FF438E"/>
<rect x="229.755" y="58.1729" width="214.648" height="3.38127" transform="rotate(-180 229.755 58.1729)" fill="#FF438E"/>
<rect x="15.1069" y="6.8916" width="3.7768" height="3.38127" transform="rotate(-180 15.1069 6.8916)" fill="#FF438E"/>
<rect x="11.3306" y="10.2715" width="3.7768" height="3.38127" transform="rotate(-180 11.3306 10.2715)" fill="#FF438E"/>
<rect x="7.55371" y="13.6533" width="3.7768" height="3.38127" transform="rotate(-180 7.55371 13.6533)" fill="#FF438E"/>
<rect width="3.7768" height="3.38127" transform="matrix(1 0 0 -1 3.77637 48.0303)" fill="#FF438E"/>
<rect width="3.7768" height="3.38127" transform="matrix(1 0 0 -1 7.55322 51.4102)" fill="#FF438E"/>
<rect width="3.7768" height="3.38127" transform="matrix(1 0 0 -1 11.3306 54.792)" fill="#FF438E"/>
<rect x="241.086" y="48.0293" width="3.7768" height="3.38127" transform="rotate(-180 241.086 48.0293)" fill="#FF438E"/>
<rect x="237.309" y="51.4121" width="3.7768" height="3.38127" transform="rotate(-180 237.309 51.4121)" fill="#FF438E"/>
<rect x="233.532" y="54.792" width="3.7768" height="3.38127" transform="rotate(-180 233.532 54.792)" fill="#FF438E"/>
<rect width="3.82598" height="4.03183" transform="matrix(-1 0 0 1 241.037 10.0811)" fill="#FF438E"/>
<path d="M237.236 6.40527L233.259 6.40527V10.3778H237.236V6.40527Z" fill="#FF438E"/>
<path d="M233.41 3.02539L229.584 3.02539L229.618 6.48048L233.396 6.43813L233.41 3.02539Z" fill="#FF438E"/>
<rect x="3.77686" y="44.6475" width="3.7768" height="30.995" transform="rotate(-180 3.77686 44.6475)" fill="#FF438E"/>
<rect x="244.863" y="44.3506" width="3.82598" height="30.2387" transform="rotate(-180 244.863 44.3506)" fill="#FF438E"/>
<path d="M35 37.999V35.2298H37.7692V32.4606H40.5385V26.9221H37.7692V24.1529H35V21.3836H40.5385V24.1529H43.3077V26.9221H46.0769V24.1529H48.8462V21.3836H54.3846V24.1529H51.6154V26.9221H48.8462V32.4606H51.6154V35.2298H54.3846V37.999H48.8462V35.2298H46.0769V32.4606H43.3077V35.2298H40.5385V37.999H35ZM57.1484 37.999V21.3836H62.6869V24.1529H65.4561V26.9221H62.6869V37.999H57.1484ZM73.7638 24.1529V37.999H68.2254V24.1529H65.4561V21.3836H70.9946V24.1529H73.7638ZM79.2888 40.7683V21.3836H84.8272V40.7683H82.058V43.5375H73.7503V40.7683H79.2888ZM79.2888 15.8452H84.8272V18.6144H79.2888V15.8452ZM95.8906 37.999V15.8452H101.429V37.999H95.8906ZM118.034 35.2298V37.999H109.726V35.2298H106.957V24.1529H104.188V21.3836H106.957V15.8452H112.495V21.3836H115.264V24.1529H112.495V35.2298H118.034ZM118.039 37.999V15.8452H123.578V24.1529H126.347V21.3836H131.885V24.1529H129.116V26.9221H126.347V29.6913H129.116V32.4606H131.885V35.2298H134.654V37.999H129.116V35.2298H126.347V32.4606H123.578V37.999H118.039ZM151.256 18.6144H145.718V21.3836H148.487V24.1529H145.718V37.999H140.179V24.1529H137.41V21.3836H140.179V18.6144H142.949V15.8452H151.256V18.6144ZM165.108 35.2298V37.999H156.8V35.2298H154.031V24.1529H151.262V21.3836H154.031V15.8452H159.569V21.3836H162.339V24.1529H159.569V35.2298H165.108ZM165.113 37.999V21.3836H170.652V37.999H165.113ZM170.652 15.8452V18.6144H165.113V15.8452H170.652ZM173.41 37.999V21.3836H178.949V24.1529H181.718V26.9221H178.949V37.999H173.41ZM198.333 24.1529H201.102V37.999H195.564V24.1529H192.795V21.3836H198.333V24.1529ZM192.795 26.9221H190.026V37.999H184.487V24.1529H181.718V21.3836H187.256V24.1529H192.795V26.9221ZM217.702 18.6144V24.1529H214.932V26.9221H212.163V32.4606H206.625V26.9221H209.394V24.1529H212.163V18.6144H203.855V15.8452H214.932V18.6144H217.702ZM206.625 37.999V35.2298H212.163V37.999H206.625Z" fill="#FF0066"/>
</svg>
