<svg width="297" height="287" viewBox="0 0 297 287" fill="none" xmlns="http://www.w3.org/2000/svg">
<g clip-path="url(#clip0_415_1662)">
<path d="M149.721 114.462C149.807 111.379 150.31 110.179 153.891 111.138L160.842 113.354C162.689 114.213 162.507 115.267 161.347 117.539L154.397 130.343C152.628 134.036 149.721 134.774 149.721 128.742V114.462Z" fill="#FF8CBB" stroke="#FF80B4" stroke-width="0.2"/>
<path d="M148.197 114.414C148.111 111.331 147.608 110.132 144.027 111.09L137.077 113.306C135.229 114.166 135.411 115.22 136.571 117.492L143.522 130.295C145.291 133.988 148.197 134.727 148.197 128.695V114.414Z" fill="#FF8CBB" stroke="#FF80B4" stroke-width="0.2"/>
<path d="M126.097 125.251C123.576 123.385 122.87 122.287 125.758 120.013L131.66 115.806C133.455 114.846 134.227 115.605 135.445 117.848L142.065 130.817C144.112 134.371 143.032 137.102 138.003 133.582L126.097 125.251Z" fill="#FF8CBB" stroke="#FF80B4" stroke-width="0.2"/>
<path d="M125.743 125.62C123.229 123.745 121.955 123.372 120.467 126.687L117.864 133.345C117.388 135.284 118.343 135.81 120.886 136.36L135.475 139.15C139.535 140.133 141.952 138.396 137.139 134.602L125.743 125.62Z" fill="#FF8CBB" stroke="#FF80B4" stroke-width="0.2"/>
<path d="M172.003 125.251C174.523 123.385 175.229 122.287 172.341 120.013L166.439 115.806C164.645 114.846 163.872 115.605 162.655 117.848L156.035 130.817C153.988 134.371 155.068 137.102 160.097 133.582L172.003 125.251Z" fill="#FF8CBB" stroke="#FF80B4" stroke-width="0.2"/>
<path d="M172.356 125.62C174.87 123.745 176.144 123.372 177.632 126.687L180.235 133.345C180.711 135.284 179.756 135.81 177.213 136.36L162.624 139.15C158.564 140.133 156.146 138.396 160.96 134.602L172.356 125.62Z" fill="#FF8CBB" stroke="#FF80B4" stroke-width="0.2"/>
<path d="M149.467 172.233C149.553 175.316 150.056 176.515 153.638 175.557L160.588 173.341C162.435 172.481 162.254 171.427 161.093 169.155L154.143 156.352C152.374 152.659 149.467 151.92 149.467 157.952V172.233Z" fill="#FF8CBB" stroke="#FF80B4" stroke-width="0.2"/>
<path d="M147.944 172.281C147.859 175.364 147.355 176.563 143.774 175.605L136.824 173.389C134.976 172.529 135.158 171.475 136.318 169.203L143.269 156.4C145.038 152.707 147.944 151.968 147.944 158V172.281Z" fill="#FF8CBB" stroke="#FF80B4" stroke-width="0.2"/>
<path d="M125.843 161.443C123.323 163.309 122.617 164.407 125.505 166.682L131.407 170.888C133.201 171.849 133.974 171.09 135.192 168.846L141.811 155.878C143.858 152.323 142.779 149.593 137.749 153.112L125.843 161.443Z" fill="#FF8CBB" stroke="#FF80B4" stroke-width="0.2"/>
<path d="M125.492 161.076C122.978 162.951 121.704 163.324 120.216 160.009L117.613 153.351C117.137 151.411 118.092 150.886 120.635 150.336L135.224 147.546C139.284 146.563 141.702 148.299 136.888 152.094L125.492 161.076Z" fill="#FF8CBB" stroke="#FF80B4" stroke-width="0.2"/>
<path d="M171.75 161.443C174.27 163.309 174.976 164.407 172.088 166.682L166.186 170.888C164.391 171.849 163.619 171.09 162.401 168.846L155.782 155.878C153.734 152.323 154.814 149.593 159.844 153.112L171.75 161.443Z" fill="#FF8CBB" stroke="#FF80B4" stroke-width="0.2"/>
<path d="M172.103 161.076C174.617 162.951 175.891 163.324 177.379 160.009L179.982 153.351C180.458 151.411 179.503 150.886 176.96 150.336L162.371 147.546C158.311 146.563 155.893 148.299 160.707 152.094L172.103 161.076Z" fill="#FF8CBB" stroke="#FF80B4" stroke-width="0.2"/>
<path d="M162.105 145.607C158.946 144.746 158.819 142.037 162.737 140.929L177.522 137.729C179.774 137.371 180.68 137.781 181.819 139.329C183.262 142.457 183.687 144.196 182.198 147.208C181.165 148.746 180.05 149.504 176.89 148.808C172.046 147.741 162.307 145.607 162.105 145.607Z" fill="#FF8CBB" stroke="#FF80B4" stroke-width="0.2"/>
<path d="M135.991 145.605C139.15 144.743 139.277 142.035 135.359 140.927L120.574 137.726C118.322 137.368 117.417 137.779 116.277 139.327C114.835 142.455 114.409 144.193 115.898 147.206C116.931 148.744 118.047 149.502 121.206 148.806C126.05 147.739 135.789 145.605 135.991 145.605Z" fill="#FF8CBB" stroke="#FF80B4" stroke-width="0.2"/>
<path d="M132.66 176.755C130.133 182.664 129.441 186.857 126.468 192.39C123.846 197.427 122.121 197.975 118.633 195.467C114.468 193.61 111.971 193.462 107.007 195.96C104.764 197.073 103.58 197.858 99.2981 194.483C97.5526 192.327 98.0344 191.035 100.815 186.85C102.509 183.38 103.064 181.415 100.815 177.74C97.5289 173.677 101.886 165.122 112.314 166.291C116.106 166.642 117.195 166.251 119.138 165.552C120.781 164.651 122.045 165.552 123.814 167.399C125.792 169.191 127.078 170.104 130.133 171.338C132.989 172.475 133.892 173.479 132.66 176.755Z" fill="#FF8CBB" stroke="#FF80B4" stroke-width="0.2"/>
<path d="M121.792 182.171C119.98 186.244 117.748 188.573 113.831 188.45C111.453 188.344 110.16 187.604 107.891 185.741C106.432 183.583 105.211 182.468 107.891 179.34C111.683 175.4 113.325 171.337 118.001 171.83C120.313 172.804 121.605 173.356 122.677 176.139C123.604 178.098 121.792 180.078 121.792 182.171Z" fill="#FF8CBB" stroke="#FF80B4" stroke-width="0.2"/>
<path d="M132.671 110.008C130.143 104.099 129.452 99.9063 126.479 94.3734C123.857 89.3359 122.132 88.7885 118.644 91.2957C114.479 93.1529 111.982 93.3006 107.017 90.8033C104.775 89.6897 103.59 88.9055 99.3088 92.2806C97.5633 94.4357 98.0451 95.7276 100.825 99.9133C102.52 103.383 103.075 105.349 100.825 109.023C97.5396 113.086 101.897 121.641 112.325 120.472C116.117 120.121 117.206 120.512 119.149 121.211C120.792 122.112 122.056 121.211 123.825 119.364C125.803 117.572 127.089 116.659 130.143 115.425C133 114.288 133.903 113.284 132.671 110.008Z" fill="#FF8CBB" stroke="#FF80B4" stroke-width="0.2"/>
<path d="M121.804 104.592C119.992 100.519 117.76 98.1906 113.843 98.3136C111.465 98.4189 110.172 99.1592 107.903 101.022C106.443 103.18 105.223 104.296 107.903 107.424C111.694 111.363 113.337 115.426 118.013 114.933C120.325 113.959 121.617 113.408 122.689 110.624C123.616 108.666 121.804 106.685 121.804 104.592Z" fill="#FF8CBB" stroke="#FF80B4" stroke-width="0.2"/>
<path d="M165.549 110.008C168.076 104.099 168.768 99.9063 171.741 94.3734C174.363 89.3359 176.088 88.7885 179.576 91.2957C183.741 93.1529 186.238 93.3006 191.202 90.8033C193.445 89.6897 194.629 88.9055 198.911 92.2806C200.656 94.4357 200.175 95.7276 197.394 99.9133C195.7 103.383 195.145 105.349 197.394 109.023C200.68 113.086 196.323 121.641 185.895 120.472C182.103 120.121 181.014 120.512 179.071 121.211C177.428 122.112 176.164 121.211 174.395 119.364C172.417 117.572 171.131 116.659 168.076 115.425C165.22 114.288 164.317 113.284 165.549 110.008Z" fill="#FF8CBB" stroke="#FF80B4" stroke-width="0.2"/>
<path d="M176.417 104.592C178.229 100.519 180.461 98.1906 184.378 98.3136C186.756 98.4189 188.049 99.1592 190.318 101.022C191.777 103.18 192.998 104.296 190.318 107.424C186.526 111.363 184.884 115.426 180.208 114.933C177.896 113.959 176.604 113.408 175.532 110.624C174.605 108.666 176.417 106.685 176.417 104.592Z" fill="#FF8CBB" stroke="#FF80B4" stroke-width="0.2"/>
<path d="M165.549 176.739C168.076 182.648 168.768 186.841 171.741 192.374C174.363 197.411 176.088 197.959 179.576 195.451C183.741 193.594 186.238 193.446 191.202 195.944C193.445 197.057 194.629 197.842 198.911 194.467C200.656 192.311 200.175 191.019 197.394 186.834C195.7 183.364 195.145 181.399 197.394 177.724C200.68 173.661 196.323 165.106 185.895 166.275C182.103 166.626 181.014 166.235 179.071 165.536C177.428 164.635 176.164 165.536 174.395 167.383C172.417 169.175 171.131 170.088 168.076 171.322C165.22 172.459 164.317 173.463 165.549 176.739Z" fill="#FF8CBB" stroke="#FF80B4" stroke-width="0.2"/>
<path d="M176.417 182.155C178.229 186.228 180.461 188.557 184.378 188.434C186.756 188.328 188.049 187.588 190.318 185.725C191.777 183.567 192.998 182.451 190.318 179.324C186.526 175.384 184.884 171.321 180.208 171.814C177.896 172.788 176.604 173.34 175.532 176.123C174.605 178.082 176.417 180.062 176.417 182.155Z" fill="#FF8CBB" stroke="#FF80B4" stroke-width="0.2"/>
<path d="M115.474 151.887C113.233 145.387 113.373 141.519 114.968 134.405C108.523 134.036 107.386 129.973 105.617 129.112C102.004 127.294 100.099 126.131 94.7491 126.403C91.7161 126.649 89.0215 126.896 87.2932 132.682C87.0404 134.405 84.9832 136.826 79.5845 137.729C74.5298 139.576 74.0242 146.839 81.9856 149.671C89.6942 152.256 87.2932 155.58 90.7052 158.904C93.6117 161.858 101.091 161.969 107.386 155.58C110.293 152.748 112.313 152.633 115.474 151.887Z" fill="#FF8CBB" stroke="#FF80B4" stroke-width="0.2"/>
<path d="M93.9898 149.3C87.5449 147.577 88.6824 138.836 94.1162 137.235C96.0117 136.62 99.0798 136.663 101.698 137.728C104.582 139.462 107.006 140.682 106.753 144.006C106.501 145.853 105.323 147.263 102.457 148.561C99.6446 149.359 98.2524 149.995 93.9898 149.3Z" fill="#FF8CBB" stroke="#FF80B4" stroke-width="0.2"/>
<path d="M182.703 151.557C184.944 145.057 184.804 141.188 183.209 134.075C189.654 133.706 190.791 129.643 192.56 128.781C196.173 126.964 198.078 125.801 203.428 126.073C206.461 126.319 209.156 126.565 210.884 132.352C211.137 134.075 213.194 136.496 218.593 137.399C223.647 139.246 224.153 146.509 216.192 149.341C208.483 151.926 210.884 155.25 207.472 158.574C204.566 161.528 197.087 161.639 190.791 155.25C187.885 152.418 185.864 152.303 182.703 151.557Z" fill="#FF8CBB" stroke="#FF80B4" stroke-width="0.2"/>
<path d="M204.186 148.971C210.631 147.248 209.494 138.507 204.06 136.907C202.165 136.291 199.097 136.334 196.478 137.399C193.594 139.134 191.17 140.354 191.423 143.678C191.676 145.524 192.853 146.935 195.72 148.233C198.532 149.03 199.924 149.666 204.186 148.971Z" fill="#FF8CBB" stroke="#FF80B4" stroke-width="0.2"/>
<path d="M135.188 112.122C139.789 111.536 142.189 110.886 145.803 108.552C147.439 107.532 147.972 106.861 145.803 104.858C128.238 95.502 137.084 83.3143 147.952 82.945L148.331 74.2043C148.331 72.727 146.562 71.9885 144.666 72.727C139.232 74.2043 138.853 70.2649 135.188 81.837C134.054 84.6761 130.892 86.2691 126.595 87.0075C123.689 87.1308 123.183 86.8846 122.046 85.284L119.771 81.837C117.949 78.3937 116.608 78.3389 113.958 79.7441L106.249 82.945C102.952 84.1505 101.18 83.4351 98.0352 81.837C93.4859 78.1439 87.5465 85.284 89.9475 88.608C92.475 92.1783 94.876 93.6556 92.475 96.6102C85.7773 105.966 89.1893 105.843 90.8321 108.552C94.7703 113.073 93.9914 118.277 88.4311 123.694C79.8379 123.694 77.8159 123.694 76.1731 128.988C75.5412 132.681 74.4039 137.236 71.8765 137.236C67.8128 137.809 64.7105 137.432 64.6733 141.422V144.253C64.7104 148.469 67.552 148.272 71.371 149.054C74.0248 149.424 75.4531 152.336 76.1731 156.441C77.3606 161.211 78.2086 163.602 82.8708 162.966C86.413 162.876 88.7226 162.489 89.9475 164.812L92.475 170.598C93.7104 173.602 93.3262 174.951 91.464 177C87.8418 180.589 87.2417 182.796 90.5794 187.341C94.0137 190.964 94.5142 192.894 91.9695 196.082C89.7956 198.769 88.547 200.273 91.464 203.468L92.9804 205.315C94.3665 206.556 95.1687 206.987 96.7716 205.931C100.959 202.775 103.321 201.336 107.766 203.838L112.694 206.546C116.024 208.442 117.762 209.185 119.266 206.546L121.667 201.622C122.748 199.276 123.761 199.061 125.963 199.775C132.156 202.226 135.595 203.613 136.705 208.146C138.372 211.976 139.582 213.891 145.172 214.425C147.203 214.63 148.085 214.452 148.078 212.332V205.315C147.99 203.765 147.903 202.909 144.666 202.483C132.914 201.252 134.683 187.957 144.034 182.417C146.067 181.467 146.519 180.731 146.309 178.847C146.183 177.616 140.266 175.246 135.441 174.784" stroke="#FF80B4" stroke-width="0.5"/>
<path d="M162.736 112.043C158.136 111.457 155.736 110.807 152.121 108.473C150.486 107.453 149.953 106.783 152.121 104.779C169.687 95.4232 160.841 83.2354 149.973 82.8661L149.594 74.1254C149.594 72.6481 151.363 71.9096 153.259 72.6481C158.693 74.1254 159.072 70.1861 162.736 81.7581C163.871 84.5973 167.033 86.1902 171.33 86.9287C174.236 87.052 174.742 86.8057 175.879 85.2052L178.154 81.7581C179.976 78.3149 181.317 78.26 183.967 79.6653L191.675 82.8661C194.973 84.0717 196.745 83.3562 199.89 81.7581C204.439 78.065 210.378 85.2052 207.977 88.5291C205.45 92.0994 203.049 93.5767 205.45 96.5313C212.148 105.888 208.735 105.764 207.093 108.473C203.154 112.994 203.933 118.198 209.494 123.615C218.087 123.615 220.109 123.615 221.752 128.909C222.384 132.602 223.521 137.157 226.048 137.157C230.112 137.73 233.214 137.353 233.251 141.343V144.174C233.214 148.39 230.373 148.193 226.554 148.976C223.9 149.345 222.472 152.257 221.752 156.362C220.564 161.132 219.716 163.523 215.054 162.887C211.512 162.797 209.202 162.41 207.977 164.733L205.45 170.52C204.214 173.523 204.599 174.872 206.461 176.921C210.083 180.51 210.683 182.717 207.345 187.262C203.911 190.886 203.411 192.815 205.955 196.003C208.129 198.691 209.378 200.194 206.461 203.39L204.944 205.236C203.558 206.477 202.756 206.908 201.153 205.852C196.966 202.697 194.603 201.257 190.159 203.759L185.23 206.467C181.901 208.363 180.162 209.106 178.659 206.467L176.258 201.543C175.177 199.197 174.164 198.982 171.962 199.696C165.768 202.147 162.33 203.534 161.22 208.068C159.553 211.897 158.343 213.812 152.753 214.346C150.722 214.551 149.84 214.373 149.847 212.253V205.236C149.935 203.686 150.022 202.83 153.259 202.405C165.011 201.174 163.242 187.878 153.89 182.338C151.858 181.388 151.406 180.652 151.616 178.768C151.742 177.537 157.659 175.167 162.484 174.705" stroke="#FF80B4" stroke-width="0.5"/>
<path d="M149.595 219.596C149.974 214.672 155.661 216.765 159.579 214.056C164.76 209.994 162.359 204.208 170.573 201.869C172.69 201.086 173.772 201.112 175.249 203.223L177.65 207.285C178.895 209.496 178.389 210.237 176.386 211.102L166.908 214.672C164.379 215.29 162.904 215.565 162.359 218.734V222.797C162.359 225.259 159.462 225.928 155.661 226.244C151.112 226.244 149.677 226.031 149.595 222.797V219.596Z" fill="#FF8CBB" stroke="#FF80B4" stroke-width="0.2"/>
<path d="M148.248 219.576C147.869 214.652 142.182 216.745 138.265 214.037C133.084 209.974 135.485 204.188 127.27 201.849C125.154 201.066 124.071 201.092 122.595 203.203L120.194 207.266C118.948 209.477 119.454 210.217 121.457 211.082L130.935 214.652C133.465 215.27 134.939 215.545 135.485 218.715V222.777C135.485 225.239 138.382 225.909 142.182 226.224C146.732 226.224 148.166 226.011 148.248 222.777V219.576Z" fill="#FF8CBB" stroke="#FF80B4" stroke-width="0.2"/>
<path d="M148.248 219.576C147.869 214.652 142.182 216.745 138.265 214.037C133.084 209.974 135.485 204.188 127.27 201.849C125.154 201.066 124.071 201.092 122.595 203.203L120.194 207.266C118.948 209.477 119.454 210.217 121.457 211.082L130.935 214.652C133.465 215.27 134.939 215.545 135.485 218.715V222.777C135.485 225.239 138.382 225.909 142.182 226.224C146.732 226.224 148.166 226.011 148.248 222.777V219.576Z" fill="#FF8CBB" stroke="#FF80B4" stroke-width="0.2"/>
<path d="M138.22 227.72C135.739 227.773 134.36 227.829 133.67 232.029C132.783 236.626 131.05 236.914 127.099 235.845L111.935 232.029C109.869 231.369 108.803 231.6 107.385 235.106C106.253 237.543 106.289 238.709 108.902 240.031L123.308 244.216C126.088 244.832 129.085 244.829 130.764 240.769C132.123 237.832 133.535 237.422 136.451 237.445H143.527C145.969 237.527 147.407 237.66 147.824 235.106C148.077 234.244 147.571 233.26 147.824 232.275C148.097 230.01 147.393 229.108 143.907 228.458L138.22 227.72Z" fill="#FF8CBB" stroke="#FF80B4" stroke-width="0.2"/>
<path d="M160.029 227.228C162.51 227.281 163.889 227.337 164.579 231.537C165.466 236.134 167.199 236.422 171.15 235.353L186.314 231.537C188.38 230.878 189.446 231.109 190.864 234.615C191.996 237.051 191.96 238.218 189.347 239.539L174.941 243.725C172.161 244.34 169.164 244.337 167.485 240.278C166.126 237.341 164.714 236.93 161.798 236.954H154.722C152.28 237.035 150.842 237.168 150.425 234.615C150.172 233.753 150.678 232.768 150.425 231.783C150.152 229.519 150.856 228.617 154.342 227.967L160.029 227.228Z" fill="#FF8CBB" stroke="#FF80B4" stroke-width="0.2"/>
<path d="M103.468 242.987C104.716 241.072 105.559 240.264 108.523 241.509C113.327 243.451 125.204 245.572 125.204 245.572C125.507 245.572 128.49 246.557 130.891 242.987C132.634 240.586 134.05 239.17 136.451 239.17H143.781C146.21 239.258 147.535 239.401 147.319 246.064C147.319 248.404 146.744 248.513 143.149 248.773L132.913 249.142C129.754 249.512 128.443 250.776 126.215 252.835C124.911 253.829 124.487 254.532 119.897 253.943C113.968 252.569 110.618 251.917 104.985 249.142C102.711 247.527 101.962 246.374 103.468 242.987Z" fill="#FF8CBB" stroke="#FF80B4" stroke-width="0.2"/>
<path d="M194.732 243.111C193.484 241.196 192.641 240.389 189.677 241.634C184.873 243.575 172.996 245.696 172.996 245.696C172.693 245.696 169.71 246.681 167.309 243.111C165.566 240.71 164.15 239.295 161.749 239.295H154.42C151.99 239.382 150.665 239.525 150.881 246.189C150.881 248.528 151.457 248.637 155.051 248.897L165.287 249.266C168.447 249.636 169.758 250.9 171.985 252.96C173.29 253.953 173.714 254.656 178.304 254.068C184.233 252.693 187.582 252.041 193.215 249.266C195.489 247.651 196.238 246.498 194.732 243.111Z" fill="#FF8CBB" stroke="#FF80B4" stroke-width="0.2"/>
<path d="M105.87 251.481C102.704 249.507 101.073 248.923 99.4253 252.466C98.5482 255.329 99.0205 256.704 101.574 258.744C107.769 261.375 111.58 262.156 118.381 263.546C121.667 264.217 123.791 263.256 126.216 260.714C127.859 258.991 130.888 258.522 134.051 258.744C136.915 258.785 142.695 258.843 142.897 258.744C147.194 258.744 147.699 256.652 147.699 253.697C147.699 251.727 146.941 250.127 137.589 250.127C132.661 250.127 129.628 252.096 128.238 254.066C126.848 256.036 123.501 255.592 119.139 255.174C113.518 254.335 110.475 253.715 105.87 251.481Z" fill="#FF8CBB" stroke="#FF80B4" stroke-width="0.2"/>
<path d="M192.687 251.46C195.854 249.486 197.484 248.902 199.132 252.445C200.009 255.308 199.537 256.682 196.984 258.723C190.789 261.354 186.977 262.135 180.177 263.524C176.891 264.196 174.767 263.235 172.342 260.693C170.699 258.969 167.669 258.501 164.507 258.723C161.642 258.764 155.863 258.822 155.661 258.723C151.364 258.723 150.859 256.63 150.859 253.676C150.859 251.706 151.617 250.105 160.968 250.105C165.897 250.105 168.93 252.075 170.32 254.045C171.71 256.015 175.056 255.571 179.418 255.153C185.039 254.314 188.082 253.694 192.687 251.46Z" fill="#FF8CBB" stroke="#FF80B4" stroke-width="0.2"/>
<path d="M100.688 260.713C96.3911 257.39 92.8526 262.314 96.3911 266.376C99.1712 269.085 107.512 272.286 116.737 273.024C120.781 273.886 123.687 269.085 126.973 269.085H141.885C145.862 269.214 147.819 268.989 147.824 264.776C147.989 261.943 147.495 260.697 142.769 260.713H131.775C130.132 260.713 127.352 262.068 125.709 263.668C124.264 264.917 118.483 265.758 116.737 264.776C109.913 262.437 104.984 263.668 100.688 260.713Z" fill="#FF8CBB" stroke="#FF80B4" stroke-width="0.2"/>
<path d="M198.273 260.824C202.569 257.501 206.108 262.425 202.569 266.487C199.789 269.196 191.449 272.397 182.224 273.135C178.18 273.997 175.273 269.196 171.988 269.196H157.076C153.099 269.325 151.142 269.1 151.136 264.887C150.971 262.054 151.465 260.808 156.191 260.824H167.185C168.828 260.824 171.608 262.179 173.251 263.779C174.697 265.028 180.478 265.869 182.224 264.887C189.048 262.548 193.976 263.779 198.273 260.824Z" fill="#FF8CBB" stroke="#FF80B4" stroke-width="0.2"/>
<path d="M113.996 215.998C112.53 218.652 111.025 218.254 108.183 217.106L98.1998 210.828C95.167 208.366 97.4169 206.826 100.727 204.672C103.378 203.207 104.127 203.981 105.782 204.672L113.996 208.366C116.962 209.844 117.049 210.647 116.018 212.059L113.996 215.998Z" fill="#FF8CBB" stroke="#FF80B4" stroke-width="0.2"/>
<path d="M116.212 217.246C115.141 220.073 116.443 220.908 119.208 222.224L130.647 225.357C134.549 225.941 134.245 223.279 133.71 219.436C133.082 216.531 131.991 216.496 130.364 215.745L122.084 212.193C118.983 211.006 118.308 211.474 117.904 213.161L116.212 217.246Z" fill="#FF8CBB" stroke="#FF80B4" stroke-width="0.2"/>
<path d="M127.985 234.368C131.397 234.368 132.787 232.768 132.535 229.321C132.233 227.604 131.736 226.872 129.881 226.243L116.359 222.304C114.273 221.804 113.242 222.327 111.81 225.505C110.795 228.065 110.25 229.497 114.211 231.168C119.187 232.965 123.562 234.368 127.985 234.368Z" fill="#FF8CBB" stroke="#FF80B4" stroke-width="0.2"/>
<path d="M92.7354 219.233C90.469 216.748 90.774 214.673 93.587 212.568C95.1047 211.647 95.9968 211.523 97.7111 212.456L109.715 219.687C111.484 220.874 111.768 221.973 110.281 225.126C108.99 227.566 108.254 228.914 104.34 227.139C99.6564 224.709 95.6731 222.454 92.7354 219.233Z" fill="#FF8CBB" stroke="#FF80B4" stroke-width="0.2"/>
<path d="M183.69 216.244C185.156 218.898 186.661 218.5 189.503 217.352L199.487 211.074C202.519 208.612 200.27 207.072 196.959 204.918C194.309 203.453 193.559 204.227 191.904 204.918L183.69 208.612C180.724 210.09 180.637 210.893 181.668 212.305L183.69 216.244Z" fill="#FF8CBB" stroke="#FF80B4" stroke-width="0.2"/>
<path d="M181.473 217.493C182.543 220.32 181.241 221.156 178.477 222.471L167.037 225.604C163.135 226.188 163.44 223.526 163.975 219.684C164.602 216.779 165.693 216.743 167.321 215.993L175.6 212.44C178.701 211.254 179.376 211.721 179.78 213.409L181.473 217.493Z" fill="#FF8CBB" stroke="#FF80B4" stroke-width="0.2"/>
<path d="M169.701 234.616C166.289 234.616 164.899 233.016 165.152 229.569C165.453 227.852 165.95 227.12 167.805 226.491L181.327 222.552C183.413 222.052 184.444 222.575 185.876 225.752C186.891 228.313 187.436 229.744 183.475 231.415C178.499 233.212 174.124 234.616 169.701 234.616Z" fill="#FF8CBB" stroke="#FF80B4" stroke-width="0.2"/>
<path d="M204.95 219.481C207.217 216.996 206.912 214.921 204.099 212.815C202.581 211.895 201.689 211.771 199.974 212.704L187.97 219.934C186.201 221.122 185.918 222.22 187.405 225.373C188.696 227.813 189.432 229.161 193.345 227.386C198.029 224.956 202.012 222.702 204.95 219.481Z" fill="#FF8CBB" stroke="#FF80B4" stroke-width="0.2"/>
<path d="M149.846 66.6628C150.225 71.5871 155.912 69.4944 159.83 72.2027C165.011 76.2654 162.61 82.0515 170.824 84.3904C172.941 85.1731 174.023 85.1469 175.5 83.0362L177.901 78.9736C179.146 76.7627 178.64 76.0221 176.637 75.1573L167.159 71.5871C164.63 70.9689 163.155 70.6944 162.61 67.5245V63.462C162.61 60.9999 159.713 60.3308 155.912 60.0149C151.363 60.0149 149.928 60.2281 149.846 63.462V66.6628Z" fill="#FF8CBB" stroke="#FF80B4" stroke-width="0.2"/>
<path d="M148.502 66.6826C148.123 71.6069 142.436 69.5142 138.519 72.2224C133.337 76.2851 135.738 82.0712 127.524 84.4102C125.407 85.1929 124.325 85.1667 122.849 83.056L120.448 78.9934C119.202 76.7825 119.708 76.0418 121.711 75.1771L131.189 71.6069C133.719 70.9887 135.193 70.7142 135.738 67.5443V63.4817C135.738 61.0197 138.635 60.3505 142.436 60.0347C146.986 60.0347 148.42 60.2479 148.502 63.4817V66.6826Z" fill="#FF8CBB" stroke="#FF80B4" stroke-width="0.2"/>
<path d="M148.502 66.6826C148.123 71.6069 142.436 69.5142 138.519 72.2224C133.337 76.2851 135.738 82.0712 127.524 84.4102C125.407 85.1929 124.325 85.1667 122.849 83.056L120.448 78.9934C119.202 76.7825 119.708 76.0418 121.711 75.1771L131.189 71.6069C133.719 70.9887 135.193 70.7142 135.738 67.5443V63.4817C135.738 61.0197 138.635 60.3505 142.436 60.0347C146.986 60.0347 148.42 60.2479 148.502 63.4817V66.6826Z" fill="#FF8CBB" stroke="#FF80B4" stroke-width="0.2"/>
<path d="M138.473 58.537C135.993 58.4839 134.613 58.428 133.924 54.2282C133.037 49.6307 131.303 49.343 127.353 50.4118L112.188 54.2282C110.123 54.8872 109.056 54.6566 107.639 51.1505C106.507 48.7137 106.542 47.5473 109.155 46.2261L123.561 42.0404C126.342 41.4249 129.338 41.4281 131.017 45.4875C132.376 48.4244 133.789 48.8347 136.704 48.8114H143.781C146.223 48.7301 147.661 48.5971 148.077 51.1505C148.33 52.0122 147.825 52.9971 148.077 53.982C148.351 56.2465 147.646 57.1483 144.16 57.7983L138.473 58.537Z" fill="#FF8CBB" stroke="#FF80B4" stroke-width="0.2"/>
<path d="M160.282 59.03C162.762 58.977 164.142 58.9211 164.831 54.7212C165.718 50.1237 167.452 49.836 171.402 50.9049L186.567 54.7212C188.632 55.3803 189.699 55.1496 191.116 51.6435C192.248 49.2067 192.213 48.0403 189.6 46.7192L175.193 42.5335C172.413 41.9179 169.417 41.9212 167.738 45.9805C166.379 48.9175 164.966 49.3277 162.051 49.3045H154.974C152.532 49.2231 151.094 49.0901 150.677 51.6435C150.425 52.5053 150.93 53.4901 150.677 54.475C150.404 56.7395 151.109 57.6414 154.595 58.2914L160.282 59.03Z" fill="#FF8CBB" stroke="#FF80B4" stroke-width="0.2"/>
<path d="M103.721 43.2723C104.968 45.1874 105.812 45.9946 108.776 44.7496C113.579 42.8084 125.457 40.687 125.457 40.687C125.76 40.687 128.742 39.7021 131.143 43.2723C132.886 45.6735 134.303 47.0886 136.704 47.0886H144.033C146.463 47.0007 147.788 46.8585 147.571 40.1945C147.571 37.8555 146.996 37.7464 143.401 37.4862L133.165 37.1168C130.006 36.7475 128.695 35.4834 126.468 33.4236C125.163 32.4303 124.739 31.7271 120.149 32.3156C114.22 33.6898 110.871 34.3422 105.237 37.1168C102.963 38.7323 102.215 39.8853 103.721 43.2723Z" fill="#FF8CBB" stroke="#FF80B4" stroke-width="0.2"/>
<path d="M194.984 43.148C193.736 45.0631 192.893 45.8703 189.929 44.6253C185.125 42.6842 173.248 40.5627 173.248 40.5627C172.945 40.5627 169.962 39.5778 167.561 43.148C165.818 45.5492 164.402 46.9644 162.001 46.9644H154.672C152.242 46.8764 150.917 46.7343 151.133 40.0703C151.133 37.7312 151.709 37.6222 155.303 37.3619L165.539 36.9926C168.699 36.6232 170.01 35.3591 172.237 33.2993C173.542 32.3061 173.966 31.6029 178.556 32.1913C184.485 33.5655 187.834 34.2179 193.467 36.9926C195.741 38.608 196.49 39.761 194.984 43.148Z" fill="#FF8CBB" stroke="#FF80B4" stroke-width="0.2"/>
<path d="M106.124 34.7774C102.957 36.7511 101.327 37.3348 99.6787 33.7925C98.8017 30.9289 99.2739 29.5546 101.827 27.514C108.022 24.8834 111.834 24.1021 118.634 22.7128C121.92 22.0415 124.044 23.0025 126.469 25.5443C128.112 27.2677 131.142 27.7363 134.304 27.514C137.169 27.473 142.948 27.4155 143.15 27.514C147.447 27.514 147.952 29.6068 147.952 32.5614C147.952 34.5311 147.194 36.1316 137.843 36.1316C132.914 36.1316 129.881 34.1619 128.491 32.1921C127.101 30.2223 123.755 30.6662 119.393 31.0841C113.772 31.9235 110.729 32.5428 106.124 34.7774Z" fill="#FF8CBB" stroke="#FF80B4" stroke-width="0.2"/>
<path d="M192.939 34.7986C196.105 36.7723 197.736 37.3561 199.384 33.8138C200.261 30.9501 199.789 29.5759 197.235 27.5352C191.04 24.9046 187.229 24.1234 180.428 22.734C177.142 22.0627 175.018 23.0238 172.593 25.5655C170.95 27.2889 167.921 27.7576 164.758 27.5352C161.894 27.4942 156.114 27.4367 155.912 27.5352C151.616 27.5352 151.11 29.628 151.11 32.5827C151.11 34.5523 151.868 36.1528 161.22 36.1528C166.148 36.1528 169.181 34.1832 170.571 32.2134C171.961 30.2435 175.308 30.6875 179.67 31.1054C185.291 31.9447 188.334 32.5641 192.939 34.7986Z" fill="#FF8CBB" stroke="#FF80B4" stroke-width="0.2"/>
<path d="M100.94 25.5448C96.6436 28.8684 93.1051 23.9442 96.6435 19.8818C99.4237 17.1734 107.764 13.9722 116.989 13.234C121.033 12.3718 123.94 17.1734 127.225 17.1734H142.137C146.114 17.0446 148.071 17.2693 148.077 21.4822C148.242 24.3148 147.748 25.5614 143.022 25.5448H132.027C130.385 25.5448 127.604 24.1902 125.962 22.5902C124.516 21.3408 118.735 20.5001 116.989 21.4822C110.165 23.8209 105.237 22.5902 100.94 25.5448Z" fill="#FF8CBB" stroke="#FF80B4" stroke-width="0.2"/>
<path d="M90.3615 79.0014C91.8725 77.0841 92.6917 76.0013 89.7622 72.8478C86.6383 69.2949 87.4939 67.7979 90.8232 65.4669L103.374 56.3394C105.195 55.1833 105.678 54.2289 103.76 50.9567C102.519 48.5711 101.563 47.8674 98.8694 49.0247L86.4978 57.345C84.2642 59.0711 82.3903 61.3489 84.5873 65.1665C86.0869 68.0376 85.5306 69.3674 83.6862 71.5671L79.2544 76.9419C77.6602 78.7455 76.653 79.7546 78.4356 81.67C78.967 82.4017 80.0717 82.6345 80.7016 83.4432C82.3428 85.0688 83.5056 85.0987 86.2091 82.8578L90.3615 79.0014Z" fill="#FF8CBB" stroke="#FF80B4" stroke-width="0.2"/>
<path d="M99.9078 43.0477C100.659 45.1944 100.777 46.3407 97.9246 47.812C93.3627 50.2449 84.227 57.9371 84.227 57.9371C84.0371 58.1674 81.3812 59.8158 82.7347 63.8752C83.5648 66.7028 83.8104 68.6647 82.3068 70.4882L77.7168 76.055C76.1248 77.8453 75.1814 78.7624 69.9836 74.425C68.1117 72.9602 68.3848 72.4549 70.4277 69.5616L76.5424 61.556C78.2252 58.9254 78.0346 57.138 77.7811 54.1563C77.8031 52.5435 77.5058 51.7812 80.8513 48.6635C85.664 45.0209 88.2835 42.8858 94.032 40.3447C96.7489 39.6293 98.1405 39.7827 99.9078 43.0477Z" fill="#FF8CBB" stroke="#FF80B4" stroke-width="0.2"/>
<path d="M91.6063 39.5511C95.1689 38.382 96.657 37.5094 94.8542 34.0394C93.1117 31.5799 91.7161 31.078 88.4842 31.7392C82.4993 34.7969 79.487 37.2026 74.1163 41.4976C71.5216 43.5727 70.9603 45.788 71.4758 49.2215C71.8262 51.5485 70.3041 54.1429 68.1455 56.4058C66.3189 58.5556 62.6536 62.9091 62.6058 63.1243C59.9151 66.3876 61.2734 68.0821 63.638 69.9324C65.2143 71.1659 66.97 71.5923 72.8262 64.4899C75.9127 60.7467 76.2357 57.2098 75.5298 54.9204C74.8239 52.631 77.2749 50.3672 80.341 47.316C84.5327 43.5726 86.934 41.6494 91.6063 39.5511Z" fill="#FF8CBB" stroke="#FF80B4" stroke-width="0.2"/>
<path d="M87.4621 29.8351C92.8125 28.6532 91.0877 22.8819 85.6207 23.0254C81.7122 23.4408 73.9271 27.7707 67.5592 34.3148C64.3368 36.8463 66.3593 42.0608 64.3017 44.5562L54.9633 55.8817C52.3695 58.8218 51.3239 60.4487 54.6921 63.0911C56.8554 64.9906 58.1624 65.396 61.1089 61.7961L67.994 53.4459C69.0228 52.1982 69.6797 49.2383 69.4281 46.9886C69.3332 45.1085 72.2807 40.1914 74.1602 39.4803C80.3053 35.7619 82.4068 31.248 87.4621 29.8351Z" fill="#FF8CBB" stroke="#FF80B4" stroke-width="0.2"/>
<path d="M91.0835 207.28C92.6633 209.144 93.5213 210.198 90.7084 213.451C87.7157 217.109 88.6252 218.576 92.0372 220.79L104.912 229.479C106.774 230.571 107.292 231.508 105.494 234.845C104.34 237.272 103.411 238.008 100.677 236.944L88.01 229.056C85.715 227.408 83.7594 225.197 85.8162 221.306C87.2104 218.385 86.606 217.075 84.6827 214.94L80.0582 209.722C78.3995 207.974 77.3562 207.001 79.068 205.025C79.5724 204.275 80.668 204.004 81.2681 203.175C82.8491 201.493 84.0101 201.423 86.7934 203.569L91.0835 207.28Z" fill="#FF8CBB" stroke="#FF80B4" stroke-width="0.2"/>
<path d="M101.93 242.882C102.603 240.711 102.679 239.561 99.7751 238.19C95.1276 235.916 85.7178 228.544 85.7178 228.544C85.5196 228.32 82.8054 226.764 84.0104 222.661C84.7371 219.806 84.9111 217.837 83.3422 216.067L78.5526 210.662C76.8965 208.928 75.9203 208.044 70.8836 212.558C69.0661 214.086 69.3574 214.582 71.5043 217.403L77.9063 225.192C79.6838 227.763 79.5583 229.556 79.4134 232.545C79.4941 234.156 79.2248 234.928 82.6815 237.928C87.6237 241.402 90.3193 243.446 96.1566 245.787C98.8978 246.408 100.283 246.206 101.93 242.882Z" fill="#FF8CBB" stroke="#FF80B4" stroke-width="0.2"/>
<path d="M93.7636 246.663C97.3665 247.709 98.8854 248.529 97.2099 252.06C95.558 254.578 94.1816 255.127 90.9276 254.578C84.8353 251.729 81.7374 249.429 76.2138 245.322C73.5452 243.338 72.9036 241.143 73.2939 237.694C73.5595 235.356 71.944 232.816 69.7044 230.629C67.8007 228.544 63.9794 224.32 63.9238 224.106C61.1161 220.938 62.4118 219.198 64.7076 217.267C66.2381 215.98 67.9772 215.493 74.0881 222.389C77.3088 226.023 77.7602 229.547 77.1381 231.859C76.5159 234.171 79.0478 236.349 82.223 239.292C86.5482 242.889 89.0179 244.728 93.7636 246.663Z" fill="#FF8CBB" stroke="#FF80B4" stroke-width="0.2"/>
<path d="M89.9757 256.517C95.3658 257.514 93.8519 263.341 88.3832 263.386C84.462 263.106 76.5243 259.047 69.9223 252.727C66.6098 250.309 68.4414 245.028 66.2943 242.605L56.5498 231.609C53.8506 228.76 52.7466 227.17 56.0165 224.413C58.1093 222.44 59.4008 221.99 62.4764 225.486L69.6609 233.593C70.7344 234.805 71.4986 237.74 71.329 239.997C71.3026 241.879 74.4271 246.691 76.3313 247.337C82.6078 250.841 84.8722 255.28 89.9757 256.517Z" fill="#FF8CBB" stroke="#FF80B4" stroke-width="0.2"/>
<path d="M207.106 207.034C205.527 208.898 204.669 209.952 207.482 213.204C210.474 216.863 209.565 218.329 206.153 220.544L193.278 229.233C191.416 230.325 190.898 231.262 192.696 234.598C193.85 237.026 194.779 237.762 197.513 236.698L210.18 228.81C212.475 227.162 214.431 224.951 212.374 221.06C210.98 218.139 211.584 216.829 213.507 214.694L218.132 209.476C219.79 207.728 220.834 206.754 219.122 204.779C218.618 204.029 217.522 203.758 216.922 202.928C215.341 201.247 214.18 201.177 211.397 203.323L207.106 207.034Z" fill="#FF8CBB" stroke="#FF80B4" stroke-width="0.2"/>
<path d="M196.258 242.637C195.585 240.466 195.509 239.316 198.413 237.944C203.06 235.67 212.47 228.298 212.47 228.298C212.668 228.075 215.383 226.519 214.178 222.416C213.451 219.561 213.277 217.592 214.846 215.821L219.635 210.417C221.292 208.682 222.268 207.798 227.304 212.313C229.122 213.841 228.831 214.337 226.684 217.158L220.282 224.947C218.504 227.518 218.63 229.311 218.775 232.299C218.694 233.91 218.963 234.682 215.506 237.683C210.564 241.157 207.869 243.2 202.031 245.541C199.29 246.162 197.905 245.961 196.258 242.637Z" fill="#FF8CBB" stroke="#FF80B4" stroke-width="0.2"/>
<path d="M204.428 246.416C200.825 247.462 199.306 248.283 200.981 251.813C202.633 254.331 204.01 254.88 207.264 254.331C213.356 251.482 216.454 249.182 221.978 245.075C224.646 243.091 225.288 240.896 224.897 237.447C224.632 235.109 226.247 232.569 228.487 230.382C230.391 228.297 234.212 224.073 234.268 223.859C237.075 220.691 235.78 218.951 233.484 217.02C231.953 215.733 230.214 215.246 224.103 222.142C220.883 225.776 220.431 229.3 221.053 231.612C221.676 233.924 219.144 236.102 215.968 239.045C211.643 242.642 209.173 244.481 204.428 246.416Z" fill="#FF8CBB" stroke="#FF80B4" stroke-width="0.2"/>
<path d="M208.216 256.272C202.826 257.268 204.339 263.095 209.808 263.141C213.729 262.86 221.667 258.802 228.269 252.482C231.582 250.063 229.75 244.782 231.897 242.359L241.642 231.363C244.341 228.515 245.445 226.925 242.175 224.168C240.082 222.195 238.791 221.744 235.715 225.24L228.531 233.348C227.457 234.559 226.693 237.494 226.862 239.751C226.889 241.634 223.764 246.446 221.86 247.092C215.584 250.595 213.319 255.034 208.216 256.272Z" fill="#FF8CBB" stroke="#FF80B4" stroke-width="0.2"/>
<path d="M206.501 80.2324C204.99 78.3152 204.171 77.2324 207.1 74.0788C210.224 70.526 209.368 69.029 206.039 66.698L193.488 57.5704C191.667 56.4144 191.184 55.46 193.102 52.1878C194.344 49.8021 195.299 49.0985 197.993 50.2557L210.364 58.5761C212.598 60.3022 214.472 62.58 212.275 66.3975C210.775 69.2686 211.332 70.5985 213.176 72.7982L217.608 78.173C219.202 79.9766 220.209 80.9857 218.427 82.9011C217.895 83.6327 216.791 83.8656 216.161 84.6743C214.519 86.2999 213.357 86.3297 210.653 84.0889L206.501 80.2324Z" fill="#FF8CBB" stroke="#FF80B4" stroke-width="0.2"/>
<path d="M196.953 44.2795C196.202 46.4263 196.084 47.5725 198.936 49.0438C203.498 51.4767 212.634 59.1689 212.634 59.1689C212.824 59.3992 215.48 61.0476 214.126 65.107C213.296 67.9346 213.05 69.8965 214.554 71.72L219.144 77.2868C220.736 79.0772 221.679 79.9942 226.877 75.6569C228.749 74.192 228.476 73.6867 226.433 70.7934L220.318 62.7879C218.636 60.1572 218.826 58.3698 219.08 55.3881C219.058 53.7753 219.355 53.013 216.01 49.8953C211.197 46.2528 208.577 44.1176 202.829 41.5765C200.112 40.8611 198.72 41.0145 196.953 44.2795Z" fill="#FF8CBB" stroke="#FF80B4" stroke-width="0.2"/>
<path d="M205.256 40.7829C201.693 39.6138 200.205 38.7412 202.008 35.2712C203.75 32.8117 205.146 32.3098 208.378 32.971C214.362 36.0287 217.375 38.4344 222.745 42.7295C225.34 44.8045 225.902 47.0198 225.386 50.4534C225.036 52.7804 226.558 55.3747 228.716 57.6376C230.543 59.7874 234.208 64.1409 234.256 64.3561C236.947 67.6194 235.588 69.3139 233.224 71.1642C231.648 72.3977 229.892 72.8241 224.036 65.7217C220.949 61.9785 220.626 58.4416 221.332 56.1522C222.038 53.8628 219.587 51.5991 216.521 48.5478C212.329 44.8045 209.928 42.8812 205.256 40.7829Z" fill="#FF8CBB" stroke="#FF80B4" stroke-width="0.2"/>
<path d="M209.401 31.0661C204.05 29.8842 205.775 24.113 211.242 24.2565C215.151 24.6719 222.936 29.0018 229.304 35.5459C232.526 38.0773 230.504 43.2918 232.561 45.7873L241.899 57.1128C244.493 60.0529 245.539 61.6798 242.171 64.3222C240.007 66.2216 238.7 66.6271 235.754 63.0272L228.869 54.677C227.84 53.4293 227.183 50.4694 227.435 48.2197C227.53 46.3396 224.582 41.4225 222.703 40.7113C216.557 36.993 214.456 32.4791 209.401 31.0661Z" fill="#FF8CBB" stroke="#FF80B4" stroke-width="0.2"/>
<path d="M198.526 25.4352C202.822 28.7588 206.361 23.8345 202.822 19.7722C200.042 17.0638 191.702 13.8626 182.477 13.1244C178.433 12.2622 175.526 17.0638 172.241 17.0638H157.329C153.351 16.935 151.395 17.1597 151.389 21.3726C151.224 24.2052 151.718 25.4518 156.444 25.4352H167.438C169.081 25.4352 171.861 24.0806 173.504 22.4806C174.949 21.2312 180.73 20.3905 182.477 21.3726C189.301 23.7113 194.229 22.4806 198.526 25.4352Z" fill="#FF8CBB" stroke="#FF80B4" stroke-width="0.2"/>
<path d="M114.25 70.2615C112.784 67.6081 111.279 68.0059 108.437 69.1535L98.4537 75.4321C95.4209 77.8942 97.6708 79.434 100.981 81.5875C103.632 83.0525 104.381 82.2792 106.036 81.5875L114.25 77.8942C117.216 76.4158 117.303 75.6131 116.272 74.201L114.25 70.2615Z" fill="#FF8CBB" stroke="#FF80B4" stroke-width="0.2"/>
<path d="M116.465 69.0119C115.394 66.1849 116.696 65.3495 119.461 64.034L130.9 60.9011C134.802 60.3167 134.497 62.9788 133.963 66.8214C133.335 69.7264 132.244 69.762 130.617 70.5122L122.337 74.0648C119.236 75.2516 118.561 74.7838 118.157 73.0962L116.465 69.0119Z" fill="#FF8CBB" stroke="#FF80B4" stroke-width="0.2"/>
<path d="M128.238 51.8885C131.65 51.8885 133.04 53.4889 132.787 56.9359C132.485 58.6525 131.988 59.3846 130.133 60.0134L116.612 63.9529C114.525 64.4527 113.494 63.9294 112.062 60.7523C111.047 58.1915 110.502 56.7601 114.463 55.0893C119.439 53.2922 123.815 51.8885 128.238 51.8885Z" fill="#FF8CBB" stroke="#FF80B4" stroke-width="0.2"/>
<path d="M92.9878 67.025C90.7215 69.51 91.0264 71.5852 93.8395 73.6906C95.3572 74.6109 96.2492 74.7352 97.9635 73.8021L109.968 66.5713C111.737 65.384 112.02 64.2856 110.533 61.1323C109.242 58.6925 108.506 57.3446 104.593 59.1196C99.9088 61.5498 95.9255 63.8039 92.9878 67.025Z" fill="#FF8CBB" stroke="#FF80B4" stroke-width="0.2"/>
<path d="M183.942 70.0146C185.408 67.3611 186.913 67.759 189.755 68.9066L199.738 75.1851C202.771 77.6473 200.521 79.1871 197.211 81.3406C194.56 82.8055 193.811 82.0323 192.156 81.3406L183.942 77.6473C180.976 76.1688 180.889 75.3661 181.92 73.954L183.942 70.0146Z" fill="#FF8CBB" stroke="#FF80B4" stroke-width="0.2"/>
<path d="M181.724 68.7658C182.795 65.9388 181.493 65.1035 178.729 63.7879L167.289 60.655C163.387 60.0706 163.692 62.7327 164.227 66.5753C164.854 69.4803 165.945 69.5159 167.573 70.2661L175.852 73.8187C178.953 75.0055 179.628 74.5377 180.032 72.8501L181.724 68.7658Z" fill="#FF8CBB" stroke="#FF80B4" stroke-width="0.2"/>
<path d="M169.952 51.6436C166.54 51.6436 165.15 53.244 165.403 56.6911C165.705 58.4076 166.202 59.1398 168.057 59.7685L181.578 63.708C183.665 64.2078 184.695 63.6845 186.128 60.5074C187.142 57.9466 187.688 56.5153 183.727 54.8444C178.751 53.0473 174.375 51.6436 169.952 51.6436Z" fill="#FF8CBB" stroke="#FF80B4" stroke-width="0.2"/>
<path d="M205.204 67.025C207.47 69.51 207.165 71.5852 204.352 73.6906C202.834 74.6109 201.942 74.7352 200.228 73.8021L188.224 66.5713C186.455 65.384 186.171 64.2856 187.658 61.1323C188.949 58.6925 189.685 57.3446 193.598 59.1196C198.283 61.5498 202.266 63.8039 205.204 67.025Z" fill="#FF8CBB" stroke="#FF80B4" stroke-width="0.2"/>
<path d="M66.5679 149.67C64.1616 150.019 63.6595 150.895 63.9141 153.364C64.6886 158.129 65.1776 161.489 66.5679 164.69C67.8904 166.84 68.9569 167.058 71.2436 166.29C74.9721 164.755 76.5512 164.69 77.6886 166.29C78.4468 167.275 83.628 178.601 83.628 178.601C84.5126 180.571 83.034 182.894 81.1006 184.633C79.0879 186.718 77.6507 187.831 79.0786 190.542C80.3015 193.283 81.9852 196.082 83.628 197.067C85.4049 198.13 86.5727 198.313 89.3147 197.067C91.0839 195.59 90.9069 193.883 91.3366 191.897" stroke="#FF80B4" stroke-width="0.5"/>
<path d="M56.7167 116.85C54.365 116.243 53.5484 116.853 52.7796 119.219C51.5559 123.894 50.6405 127.168 50.6177 130.644C50.9589 133.128 51.85 133.74 54.2621 133.915C58.3096 133.943 59.7866 134.491 60.1812 136.399C60.4777 137.596 60.637 149.995 60.637 149.995C60.6495 152.145 58.3483 153.708 55.8661 154.561C53.1709 155.7 51.399 156.168 51.6095 159.209C51.6199 162.197 52.0293 165.417 53.1382 166.955C54.3384 168.616 55.3369 169.233 58.361 169.146C60.5858 168.471 61.1161 166.836 62.3176 165.177" stroke="#FF80B4" stroke-width="0.5"/>
<path d="M46.578 116.984C44.2263 116.377 43.4097 116.988 42.6409 119.353C41.4172 124.028 40.5019 127.302 40.479 130.778C40.8203 133.263 41.7113 133.874 44.1234 134.05C48.1709 134.077 49.6479 134.625 50.0426 136.534C50.339 137.73 50.4983 150.129 50.4983 150.129C50.5109 152.279 48.2097 153.843 45.7275 154.695C43.0322 155.835 41.2604 156.303 41.4709 159.343C41.4812 162.331 41.8906 165.551 42.9995 167.089C44.1998 168.75 45.1983 169.368 48.2223 169.281C50.4471 168.606 50.9774 166.97 52.179 165.311" stroke="#FF80B4" stroke-width="0.5"/>
<path d="M35.9623 117.477C33.6106 116.87 32.794 117.481 32.0252 119.846C30.8015 124.521 29.8861 127.796 29.8633 131.271C30.2046 133.756 31.0956 134.367 33.5077 134.543C37.5552 134.57 39.0322 135.119 39.4269 137.027C39.7233 138.223 39.8826 150.622 39.8826 150.622C39.8951 152.772 37.5939 154.336 35.1117 155.188C32.4165 156.328 30.6446 156.796 30.8551 159.836C30.8655 162.824 31.2749 166.045 32.3838 167.582C33.584 169.243 34.5825 169.861 37.6066 169.774C39.8314 169.099 40.3617 167.463 41.5633 165.804" stroke="#FF80B4" stroke-width="0.5"/>
<path d="M24.3368 118.216C21.9851 117.61 21.1685 118.22 20.3997 120.586C19.176 125.261 18.2606 128.535 18.2378 132.011C18.5791 134.495 19.4701 135.106 21.8822 135.282C25.9297 135.31 27.4067 135.858 27.8014 137.766C28.0978 138.963 28.2571 151.362 28.2571 151.362C28.2697 153.512 25.9684 155.075 23.4862 155.928C20.791 157.067 19.0192 157.535 19.2296 160.576C19.24 163.564 19.6494 166.784 20.7583 168.322C21.9586 169.983 22.9571 170.6 25.9811 170.513C28.2059 169.838 28.7362 168.203 29.9378 166.544" stroke="#FF80B4" stroke-width="0.5"/>
<path d="M65.8697 136.133C63.4634 135.784 62.9613 134.909 63.2159 132.44C63.9904 127.675 64.4793 124.315 65.8697 121.114C67.1922 118.963 68.2587 118.746 70.5454 119.514C74.2739 121.048 75.853 121.114 76.9903 119.514C77.7485 118.529 82.9298 107.203 82.9298 107.203C83.8144 105.233 82.3358 102.91 80.4023 101.17C78.3897 99.0853 76.9524 97.9726 78.3804 95.2613C79.6033 92.521 81.2869 89.7214 82.9298 88.7365C84.7066 87.6735 85.8745 87.4911 88.6164 88.7365C90.3856 90.2138 90.2086 91.9202 90.6384 93.9071" stroke="#FF80B4" stroke-width="0.5"/>
<path d="M232.241 137.366C234.647 137.017 235.15 136.142 234.895 133.673C234.12 128.907 233.632 125.547 232.241 122.347C230.919 120.196 229.852 119.978 227.565 120.746C223.837 122.281 222.258 122.347 221.121 120.746C220.362 119.761 215.181 108.435 215.181 108.435C214.296 106.466 215.775 104.143 217.709 102.403C219.721 100.318 221.158 99.2051 219.73 96.4938C218.508 93.7535 216.824 90.9539 215.181 89.9691C213.404 88.906 212.236 88.7236 209.494 89.9691C207.725 91.4464 207.902 93.1528 207.472 95.1396" stroke="#FF80B4" stroke-width="0.5"/>
<path d="M231.989 150.41C234.395 150.759 234.897 151.634 234.643 154.103C233.868 158.868 233.379 162.228 231.989 165.429C230.666 167.58 229.6 167.798 227.313 167.03C223.585 165.495 222.005 165.429 220.868 167.03C220.11 168.014 214.929 179.34 214.929 179.34C214.044 181.31 215.523 183.633 217.456 185.373C219.469 187.458 220.906 188.571 219.478 191.282C218.255 194.022 216.571 196.822 214.929 197.807C213.152 198.87 211.984 199.052 209.242 197.807C207.473 196.329 207.65 194.623 207.22 192.636" stroke="#FF80B4" stroke-width="0.5"/>
<path d="M73.2657 102.889C74.4931 100.115 75.4495 99.4923 77.8151 100.673C81.6535 103.076 82.3569 104.596 81.4799 107.567L76.1723 118.154C75.4138 120.001 73.3587 119.268 71.2438 118.154C68.3108 116.445 68.2681 115.509 68.7164 113.846L73.2657 102.889Z" fill="#FF8CBB" stroke="#FF80B4" stroke-width="0.2"/>
<path d="M225.122 103.95C223.895 101.176 222.938 100.553 220.573 101.734C216.734 104.137 216.031 105.656 216.908 108.628L222.215 119.215C222.974 121.062 225.029 120.329 227.144 119.215C230.077 117.506 230.12 116.569 229.671 114.906L225.122 103.95Z" fill="#FF8CBB" stroke="#FF80B4" stroke-width="0.2"/>
<path d="M224.87 183.791C223.642 186.564 222.686 187.188 220.32 186.007C216.482 183.604 215.778 182.084 216.655 179.113L221.963 168.526C222.721 166.679 224.777 167.412 226.891 168.526C229.824 170.235 229.867 171.171 229.419 172.834L224.87 183.791Z" fill="#FF8CBB" stroke="#FF80B4" stroke-width="0.2"/>
<path d="M73.4747 182.806C74.702 185.58 75.6584 186.203 78.0241 185.022C81.8625 182.619 82.5659 181.1 81.6888 178.128L76.3813 167.541C75.6228 165.694 73.5677 166.427 71.4528 167.541C68.5197 169.25 68.477 170.187 68.9254 171.85L73.4747 182.806Z" fill="#FF8CBB" stroke="#FF80B4" stroke-width="0.2"/>
<path d="M78.2603 192.06C76.7634 190.132 75.909 189.076 72.0109 190.991C67.6661 192.983 66.4113 191.783 64.9871 188.037L59.2814 173.828C58.6202 171.811 57.8037 171.104 54.0563 172.038C51.3659 172.571 50.4161 173.282 50.8471 176.119L55.8014 189.946C56.9174 192.502 58.675 194.866 63.036 193.815C66.2753 193.168 67.444 194.043 69.1321 196.359L73.2765 201.947C74.6389 203.923 75.3706 205.136 77.739 203.97C78.6041 203.665 79.1275 202.689 80.095 202.312C82.1391 201.201 82.477 200.117 80.9761 196.983L78.2603 192.06Z" fill="#FF8CBB" stroke="#FF80B4" stroke-width="0.2"/>
<path d="M45.2062 173.558C47.5303 173.421 48.6959 173.615 49.3957 176.684C50.594 181.614 55.7846 192.235 55.7846 192.235C55.9622 192.475 56.8894 195.407 61.2661 195.212C64.2848 195.182 66.2918 195.472 67.6978 197.367L71.9903 203.155C73.3402 205.125 73.9976 206.255 68.3263 209.987C66.3801 211.357 65.9524 210.966 63.6306 208.28L57.3286 200.413C55.1712 198.135 53.3515 197.84 50.3332 197.288C48.7428 196.839 47.9094 196.916 45.7108 192.947C43.3819 187.46 41.9634 184.434 40.9727 178.36C40.9852 175.619 41.506 174.352 45.2062 173.558Z" fill="#FF8CBB" stroke="#FF80B4" stroke-width="0.2"/>
<path d="M39.5458 180.428C39.3335 176.772 38.8644 175.142 34.9519 175.916C32.0556 176.9 31.1887 178.078 30.986 181.289C32.4253 187.722 34.0075 191.189 36.8343 197.373C38.2 200.36 40.2437 201.475 43.7787 201.901C46.1748 202.189 48.3389 204.307 50.0062 206.935C51.6496 209.22 54.9864 213.818 55.1868 213.92C57.703 217.312 59.7404 216.486 62.1988 214.756C63.8377 213.602 64.7253 212.066 59.2487 204.682C56.3623 200.79 52.9473 199.549 50.4942 199.605C48.0411 199.661 46.4506 196.758 44.2437 193.069C41.6503 188.139 40.3836 185.373 39.5458 180.428Z" fill="#FF8CBB" stroke="#FF80B4" stroke-width="0.2"/>
<path d="M28.8286 181.745C29.0777 176.406 22.9082 176.496 21.6004 181.669C20.9751 185.45 23.1961 193.911 27.9844 201.628C29.6353 205.326 35.3327 204.809 37.2569 207.404L45.9899 219.179C48.212 222.395 49.5449 223.808 53.0535 221.345C55.5071 219.817 56.255 218.697 53.4734 214.974L47.0347 206.293C46.0725 204.996 43.3173 203.594 41.0239 203.233C39.1379 202.824 35.0528 198.751 34.8474 196.797C32.7968 190.039 28.8865 186.868 28.8286 181.745Z" fill="#FF8CBB" stroke="#FF80B4" stroke-width="0.2"/>
<path d="M78.2603 192.06C76.7634 190.132 75.909 189.076 72.0109 190.991C67.6661 192.983 66.4113 191.783 64.9871 188.037L59.2814 173.828C58.6202 171.811 57.8037 171.104 54.0563 172.038C51.3659 172.571 50.4161 173.282 50.8471 176.119L55.8014 189.946C56.9174 192.502 58.675 194.866 63.036 193.815C66.2753 193.168 67.444 194.043 69.1321 196.359L73.2765 201.947C74.6389 203.923 75.3706 205.136 77.739 203.97C78.6041 203.665 79.1275 202.689 80.095 202.312C82.1391 201.201 82.477 200.117 80.9761 196.983L78.2603 192.06Z" fill="#FF8CBB" stroke="#FF80B4" stroke-width="0.2"/>
<path d="M45.2062 173.558C47.5303 173.421 48.6959 173.615 49.3957 176.684C50.594 181.614 55.7846 192.235 55.7846 192.235C55.9622 192.475 56.8894 195.407 61.2661 195.212C64.2848 195.182 66.2918 195.472 67.6978 197.367L71.9903 203.155C73.3402 205.125 73.9976 206.255 68.3263 209.987C66.3801 211.357 65.9524 210.966 63.6306 208.28L57.3286 200.413C55.1712 198.135 53.3515 197.84 50.3332 197.288C48.7428 196.839 47.9094 196.916 45.7108 192.947C43.3819 187.46 41.9634 184.434 40.9727 178.36C40.9852 175.619 41.506 174.352 45.2062 173.558Z" fill="#FF8CBB" stroke="#FF80B4" stroke-width="0.2"/>
<path d="M39.5458 180.428C39.3335 176.772 38.8644 175.142 34.9519 175.916C32.0556 176.9 31.1887 178.078 30.986 181.289C32.4253 187.722 34.0075 191.189 36.8343 197.373C38.2 200.36 40.2437 201.475 43.7787 201.901C46.1748 202.189 48.3389 204.307 50.0062 206.935C51.6496 209.22 54.9864 213.818 55.1868 213.92C57.703 217.312 59.7404 216.486 62.1988 214.756C63.8377 213.602 64.7253 212.066 59.2487 204.682C56.3623 200.79 52.9473 199.549 50.4942 199.605C48.0411 199.661 46.4506 196.758 44.2437 193.069C41.6503 188.139 40.3836 185.373 39.5458 180.428Z" fill="#FF8CBB" stroke="#FF80B4" stroke-width="0.2"/>
<path d="M28.8286 181.745C29.0777 176.406 22.9082 176.496 21.6004 181.669C20.9751 185.45 23.1961 193.911 27.9844 201.628C29.6353 205.326 35.3327 204.809 37.2569 207.404L45.9899 219.179C48.212 222.395 49.5449 223.808 53.0535 221.345C55.5071 219.817 56.255 218.697 53.4734 214.974L47.0347 206.293C46.0725 204.996 43.3173 203.594 41.0239 203.233C39.1379 202.824 35.0528 198.751 34.8474 196.797C32.7968 190.039 28.8865 186.868 28.8286 181.745Z" fill="#FF8CBB" stroke="#FF80B4" stroke-width="0.2"/>
<path d="M77.7555 94.491C76.2586 96.4187 75.4041 97.4753 71.506 95.5599C67.1612 93.5678 65.9064 94.7684 64.4822 98.5138L58.7766 112.723C58.1153 114.74 57.2988 115.447 53.5515 114.513C50.8611 113.98 49.9112 113.269 50.3423 110.432L55.2965 96.6048C56.4126 94.049 58.1701 91.6848 62.5311 92.7361C65.7705 93.3833 66.9391 92.5081 68.6272 90.1923L72.7717 84.6041C74.134 82.6284 74.8657 81.4147 77.2342 82.5812C78.0992 82.8863 78.6226 83.8622 79.5901 84.2395C81.6342 85.35 81.9721 86.4343 80.4712 89.5679L77.7555 94.491Z" fill="#FF8CBB" stroke="#FF80B4" stroke-width="0.2"/>
<path d="M44.7009 112.994C47.0249 113.13 48.1906 112.937 48.8904 109.867C50.0886 104.937 55.2792 94.3159 55.2792 94.3159C55.4568 94.0764 56.384 91.1447 60.7607 91.3395C63.7795 91.3694 65.7864 91.0797 67.1925 89.1839L71.4849 83.3962C72.8348 81.4261 73.4923 80.2968 67.821 76.5647C65.8748 75.1948 65.447 75.5854 63.1252 78.2715L56.8232 86.138C54.6658 88.4163 52.8461 88.7113 49.8278 89.2639C48.2374 89.7123 47.404 89.6352 45.2055 93.6044C42.8766 99.0909 41.458 102.118 40.4673 108.191C40.4798 110.933 41.0006 112.199 44.7009 112.994Z" fill="#FF8CBB" stroke="#FF80B4" stroke-width="0.2"/>
<path d="M39.0409 106.122C38.8286 109.778 38.3596 111.407 34.447 110.634C31.5507 109.65 30.6838 108.472 30.4811 105.261C31.9205 98.8283 33.5027 95.3609 36.3294 89.1771C37.6951 86.1896 39.7388 85.0748 43.2739 84.6485C45.6699 84.3606 47.834 82.243 49.5013 79.6153C51.1447 77.3294 54.4815 72.7321 54.6819 72.6301C57.1982 69.2373 59.2355 70.0638 61.6939 71.7942C63.3328 72.9477 64.2204 74.4838 58.7438 81.868C55.8575 85.7598 52.4424 87.0011 49.9893 86.9452C47.5362 86.8893 45.9457 89.7919 43.7388 93.4811C41.1454 98.411 39.8787 101.177 39.0409 106.122Z" fill="#FF8CBB" stroke="#FF80B4" stroke-width="0.2"/>
<path d="M28.3227 104.805C28.5718 110.144 22.4023 110.054 21.0945 104.881C20.4692 101.1 22.6902 92.6387 27.4786 84.9219C29.1295 81.2237 34.8269 81.7407 36.7511 79.1462L45.4841 67.3712C47.7061 64.1551 49.0391 62.7416 52.5476 65.2046C55.0013 66.7329 55.7492 67.8531 52.9675 71.5754L46.5288 80.2569C45.5667 81.5542 42.8114 82.9562 40.518 83.3164C38.632 83.7259 34.547 87.7985 34.3415 89.7524C32.2909 96.5106 28.3806 99.6816 28.3227 104.805Z" fill="#FF8CBB" stroke="#FF80B4" stroke-width="0.2"/>
<path d="M242.266 117.094C244.617 116.487 245.434 117.098 246.203 119.464C247.427 124.139 248.342 127.413 248.365 130.888C248.023 133.373 247.132 133.984 244.72 134.16C240.673 134.188 239.196 134.736 238.801 136.644C238.505 137.841 238.345 150.239 238.345 150.239C238.333 152.389 240.634 153.953 243.116 154.806C245.812 155.945 247.583 156.413 247.373 159.454C247.363 162.442 246.953 165.662 245.844 167.199C244.644 168.86 243.645 169.478 240.621 169.391C238.397 168.716 237.866 167.08 236.665 165.421" stroke="#FF80B4" stroke-width="0.5"/>
<path d="M252.405 117.231C254.757 116.624 255.574 117.234 256.342 119.6C257.566 124.275 258.482 127.549 258.504 131.025C258.163 133.51 257.272 134.121 254.86 134.297C250.812 134.324 249.335 134.872 248.941 136.78C248.644 137.977 248.485 150.376 248.485 150.376C248.473 152.526 250.774 154.09 253.256 154.942C255.951 156.082 257.723 156.55 257.513 159.59C257.502 162.578 257.093 165.798 255.984 167.336C254.784 168.997 253.785 169.615 250.761 169.527C248.536 168.853 248.006 167.217 246.804 165.558" stroke="#FF80B4" stroke-width="0.5"/>
<path d="M263.021 117.723C265.372 117.116 266.189 117.726 266.958 120.092C268.181 124.767 269.097 128.041 269.12 131.517C268.778 134.002 267.887 134.613 265.475 134.789C261.428 134.816 259.951 135.364 259.556 137.272C259.26 138.469 259.1 150.868 259.1 150.868C259.088 153.018 261.389 154.581 263.871 155.434C266.566 156.574 268.338 157.042 268.128 160.082C268.117 163.07 267.708 166.29 266.599 167.828C265.399 169.489 264.4 170.106 261.376 170.019C259.152 169.344 258.621 167.709 257.42 166.05" stroke="#FF80B4" stroke-width="0.5"/>
<path d="M274.648 118.462C276.999 117.855 277.816 118.466 278.585 120.831C279.808 125.506 280.724 128.78 280.747 132.256C280.405 134.741 279.514 135.352 277.102 135.528C273.055 135.555 271.578 136.103 271.183 138.012C270.887 139.208 270.727 151.607 270.727 151.607C270.715 153.757 273.016 155.321 275.498 156.173C278.193 157.313 279.965 157.781 279.755 160.821C279.744 163.809 279.335 167.029 278.226 168.567C277.026 170.228 276.027 170.846 273.003 170.759C270.778 170.084 270.248 168.448 269.047 166.789" stroke="#FF80B4" stroke-width="0.5"/>
<path d="M220.722 192.305C222.218 190.377 223.073 189.321 226.971 191.236C231.316 193.228 232.571 192.028 233.995 188.282L239.7 174.073C240.362 172.056 241.178 171.349 244.926 172.283C247.616 172.816 248.566 173.527 248.135 176.364L243.181 190.191C242.064 192.747 240.307 195.111 235.946 194.06C232.707 193.413 231.538 194.288 229.85 196.604L225.705 202.192C224.343 204.168 223.611 205.381 221.243 204.215C220.378 203.91 219.854 202.934 218.887 202.557C216.843 201.446 216.505 200.362 218.006 197.228L220.722 192.305Z" fill="#FF8CBB" stroke="#FF80B4" stroke-width="0.2"/>
<path d="M253.775 173.804C251.451 173.668 250.286 173.861 249.586 176.93C248.387 181.861 243.197 192.482 243.197 192.482C243.019 192.721 242.092 195.653 237.715 195.458C234.697 195.428 232.69 195.718 231.284 197.614L226.991 203.401C225.641 205.372 224.984 206.501 230.655 210.233C232.601 211.603 233.029 211.212 235.351 208.526L241.653 200.66C243.81 198.381 245.63 198.086 248.648 197.534C250.239 197.085 251.072 197.162 253.271 193.193C255.599 187.707 257.018 184.68 258.009 178.606C257.996 175.865 257.475 174.598 253.775 173.804Z" fill="#FF8CBB" stroke="#FF80B4" stroke-width="0.2"/>
<path d="M259.439 180.674C259.651 177.018 260.12 175.389 264.033 176.162C266.929 177.146 267.796 178.324 267.999 181.535C266.56 187.968 264.977 191.435 262.151 197.619C260.785 200.606 258.741 201.721 255.206 202.147C252.81 202.435 250.646 204.553 248.979 207.181C247.335 209.467 243.998 214.064 243.798 214.166C241.282 217.559 239.244 216.732 236.786 215.002C235.147 213.848 234.26 212.312 239.736 204.928C242.623 201.036 246.038 199.795 248.491 199.851C250.944 199.907 252.534 197.004 254.741 193.315C257.335 188.385 258.601 185.619 259.439 180.674Z" fill="#FF8CBB" stroke="#FF80B4" stroke-width="0.2"/>
<path d="M270.155 181.991C269.906 176.652 276.075 176.742 277.383 181.915C278.008 185.696 275.787 194.157 270.999 201.874C269.348 205.572 263.651 205.055 261.726 207.65L252.993 219.425C250.771 222.641 249.438 224.054 245.93 221.591C243.476 220.063 242.728 218.943 245.51 215.221L251.949 206.539C252.911 205.242 255.666 203.84 257.96 203.48C259.846 203.07 263.931 198.997 264.136 197.043C266.187 190.285 270.097 187.114 270.155 181.991Z" fill="#FF8CBB" stroke="#FF80B4" stroke-width="0.2"/>
<path d="M220.722 192.305C222.218 190.377 223.073 189.321 226.971 191.236C231.316 193.228 232.571 192.028 233.995 188.282L239.7 174.073C240.362 172.056 241.178 171.349 244.926 172.283C247.616 172.816 248.566 173.527 248.135 176.364L243.181 190.191C242.064 192.747 240.307 195.111 235.946 194.06C232.707 193.413 231.538 194.288 229.85 196.604L225.705 202.192C224.343 204.168 223.611 205.381 221.243 204.215C220.378 203.91 219.854 202.934 218.887 202.557C216.843 201.446 216.505 200.362 218.006 197.228L220.722 192.305Z" fill="#FF8CBB" stroke="#FF80B4" stroke-width="0.2"/>
<path d="M253.775 173.804C251.451 173.668 250.286 173.861 249.586 176.93C248.387 181.861 243.197 192.482 243.197 192.482C243.019 192.721 242.092 195.653 237.715 195.458C234.697 195.428 232.69 195.718 231.284 197.614L226.991 203.401C225.641 205.372 224.984 206.501 230.655 210.233C232.601 211.603 233.029 211.212 235.351 208.526L241.653 200.66C243.81 198.381 245.63 198.086 248.648 197.534C250.239 197.085 251.072 197.162 253.271 193.193C255.599 187.707 257.018 184.68 258.009 178.606C257.996 175.865 257.475 174.598 253.775 173.804Z" fill="#FF8CBB" stroke="#FF80B4" stroke-width="0.2"/>
<path d="M259.439 180.674C259.651 177.018 260.12 175.389 264.033 176.162C266.929 177.146 267.796 178.324 267.999 181.535C266.56 187.968 264.977 191.435 262.151 197.619C260.785 200.606 258.741 201.721 255.206 202.147C252.81 202.435 250.646 204.553 248.979 207.181C247.335 209.467 243.998 214.064 243.798 214.166C241.282 217.559 239.244 216.732 236.786 215.002C235.147 213.848 234.26 212.312 239.736 204.928C242.623 201.036 246.038 199.795 248.491 199.851C250.944 199.907 252.534 197.004 254.741 193.315C257.335 188.385 258.601 185.619 259.439 180.674Z" fill="#FF8CBB" stroke="#FF80B4" stroke-width="0.2"/>
<path d="M270.155 181.991C269.906 176.652 276.075 176.742 277.383 181.915C278.008 185.696 275.787 194.157 270.999 201.874C269.348 205.572 263.651 205.055 261.726 207.65L252.993 219.425C250.771 222.641 249.438 224.054 245.93 221.591C243.476 220.063 242.728 218.943 245.51 215.221L251.949 206.539C252.911 205.242 255.666 203.84 257.96 203.48C259.846 203.07 263.931 198.997 264.136 197.043C266.187 190.285 270.097 187.114 270.155 181.991Z" fill="#FF8CBB" stroke="#FF80B4" stroke-width="0.2"/>
<path d="M221.227 94.7366C222.724 96.6643 223.578 97.7209 227.476 95.8055C231.821 93.8134 233.076 95.014 234.5 98.7594L240.206 112.969C240.867 114.986 241.684 115.693 245.431 114.759C248.121 114.226 249.071 113.515 248.64 110.678L243.686 96.8504C242.57 94.2946 240.812 91.9304 236.451 92.9817C233.212 93.6289 232.043 92.7537 230.355 90.4379L226.211 84.8497C224.848 82.874 224.117 81.6604 221.748 82.8268C220.883 83.1319 220.36 84.1079 219.392 84.4851C217.348 85.5956 217.01 86.6799 218.511 89.8135L221.227 94.7366Z" fill="#FF8CBB" stroke="#FF80B4" stroke-width="0.2"/>
<path d="M254.281 113.239C251.957 113.375 250.791 113.182 250.092 110.113C248.893 105.182 243.703 94.5613 243.703 94.5613C243.525 94.3218 242.598 91.39 238.221 91.5849C235.202 91.6147 233.196 91.3251 231.789 89.4293L227.497 83.6416C226.147 81.6715 225.49 80.5421 231.161 76.81C233.107 75.4402 233.535 75.8307 235.857 78.5169L242.159 86.3834C244.316 88.6617 246.136 88.9566 249.154 89.5092C250.745 89.9576 251.578 89.8805 253.776 93.8497C256.105 99.3363 257.524 102.363 258.515 108.437C258.502 111.178 257.981 112.445 254.281 113.239Z" fill="#FF8CBB" stroke="#FF80B4" stroke-width="0.2"/>
<path d="M259.943 106.367C260.156 110.024 260.625 111.653 264.537 110.88C267.434 109.895 268.301 108.717 268.503 105.506C267.064 99.0738 265.482 95.6063 262.655 89.4226C261.289 86.435 259.246 85.3203 255.711 84.894C253.314 84.6061 251.15 82.4884 249.483 79.8607C247.84 77.5748 244.503 72.9776 244.302 72.8756C241.786 69.4828 239.749 70.3093 237.29 72.0397C235.652 73.1932 234.764 74.7292 240.241 82.1135C243.127 86.0053 246.542 87.2466 248.995 87.1907C251.448 87.1348 253.039 90.0374 255.246 93.7265C257.839 98.6565 259.106 101.422 259.943 106.367Z" fill="#FF8CBB" stroke="#FF80B4" stroke-width="0.2"/>
<path d="M270.661 105.052C270.412 110.392 276.582 110.302 277.889 105.129C278.515 101.347 276.294 92.8864 271.505 85.1696C269.854 81.4714 264.157 81.9884 262.233 79.3939L253.5 67.6189C251.278 64.4028 249.945 62.9893 246.436 65.4523C243.983 66.9806 243.235 68.1007 246.016 71.823L252.455 80.5046C253.417 81.8018 256.172 83.2038 258.466 83.5641C260.352 83.9735 264.437 88.0461 264.642 90.0001C266.693 96.7583 270.603 99.9293 270.661 105.052Z" fill="#FF8CBB" stroke="#FF80B4" stroke-width="0.2"/>
<path d="M32.335 76.8928C40.105 61.6018 46.5236 53.9872 60.5038 41.6318" stroke="#FF80B4" stroke-width="0.5"/>
<path d="M266.007 76.8928C258.237 61.6018 251.819 53.9872 237.839 41.6318" stroke="#FF80B4" stroke-width="0.5"/>
<path d="M266.007 210.381C258.237 225.672 251.819 233.287 237.839 245.642" stroke="#FF80B4" stroke-width="0.5"/>
<path d="M30.4136 210.381C38.1836 225.672 44.6022 233.287 58.5824 245.642" stroke="#FF80B4" stroke-width="0.5"/>
<path d="M13.685 123.488C10.4687 140.288 10.8972 150.17 14.4317 168.326" stroke="#FF80B4" stroke-width="0.5"/>
<path d="M283.316 122.229C286.532 139.028 286.104 148.91 282.569 167.066" stroke="#FF80B4" stroke-width="0.5"/>
<path d="M126.442 11.7134C143.476 8.31859 153.529 8.60364 172.036 11.8291" stroke="#FF80B4" stroke-width="0.5"/>
<path d="M126.442 276.287C143.476 279.681 153.529 279.396 172.036 276.171" stroke="#FF80B4" stroke-width="0.2"/>
<ellipse cx="148.501" cy="142.618" rx="60.7769" ry="59.8502" fill="white"/>
<ellipse cx="148.501" cy="142.618" rx="33.4273" ry="32.9176" fill="#D9D9D9"/>
<ellipse cx="148.501" cy="94.7379" rx="4.55827" ry="4.48877" fill="#D9D9D9"/>
<ellipse cx="172.812" cy="100.723" rx="4.55827" ry="4.48877" fill="#D9D9D9"/>
<ellipse cx="183.447" cy="108.204" rx="4.55827" ry="4.48877" fill="#D9D9D9"/>
<ellipse cx="191.044" cy="117.182" rx="4.55827" ry="4.48877" fill="#D9D9D9"/>
<ellipse cx="172.812" cy="187.506" rx="4.55827" ry="4.48877" fill="#D9D9D9"/>
<ellipse cx="160.656" cy="191.995" rx="4.55827" ry="4.48877" fill="#D9D9D9"/>
<ellipse cx="148.501" cy="193.491" rx="4.55827" ry="4.48877" fill="#D9D9D9"/>
<ellipse cx="124.19" cy="186.01" rx="4.55827" ry="4.48877" fill="#D9D9D9"/>
<ellipse cx="113.553" cy="178.528" rx="4.55827" ry="4.48877" fill="#D9D9D9"/>
<ellipse cx="105.957" cy="168.054" rx="4.55827" ry="4.48877" fill="#D9D9D9"/>
<ellipse cx="98.3595" cy="144.114" rx="4.55827" ry="4.48877" fill="#D9D9D9"/>
<ellipse cx="101.399" cy="130.648" rx="4.55827" ry="4.48877" fill="#D9D9D9"/>
<ellipse cx="105.957" cy="118.678" rx="4.55827" ry="4.48877" fill="#D9D9D9"/>
<ellipse cx="134.826" cy="96.234" rx="4.55827" ry="4.48877" fill="#D9D9D9"/>
<ellipse cx="122.671" cy="102.219" rx="4.55827" ry="4.48877" fill="#D9D9D9"/>
<path d="M200.921 134.392C202.693 133.394 207.283 130.507 207.283 130.538C212.791 152.672 202.274 174.197 191.53 183.769L181.928 168.806C190.845 156.691 192.546 149.074 191.044 134.392L197.882 130.651L200.921 134.392Z" fill="#D9D9D9" stroke="#D9D9D9"/>
<ellipse cx="148.5" cy="142.618" rx="24.3108" ry="23.9401" fill="#939393"/>
<rect x="146.981" y="162.069" width="3.03884" height="8.97753" fill="#D9D9D9"/>
<rect x="146.981" y="114.189" width="3.03884" height="8.97753" fill="#D9D9D9"/>
<rect x="169.772" y="144.114" width="2.99251" height="9.11653" transform="rotate(-90 169.772 144.114)" fill="#D9D9D9"/>
<rect x="119.632" y="144.114" width="2.99251" height="9.11653" transform="rotate(-90 119.632 144.114)" fill="#D9D9D9"/>
<rect width="3.01423" height="9.05192" transform="matrix(0.688774 -0.724977 0.73545 0.677579 127.229 123.856)" fill="#D9D9D9"/>
<rect width="3.01423" height="9.05192" transform="matrix(0.688774 -0.724977 0.73545 0.677579 162.175 158.27)" fill="#D9D9D9"/>
<rect width="3.01242" height="9.05733" transform="matrix(0.659831 0.751414 -0.761358 0.648331 132.461 154.753)" fill="#D9D9D9"/>
<rect width="3.01242" height="9.05733" transform="matrix(0.659831 0.751414 -0.761358 0.648331 169.071 121.671)" fill="#D9D9D9"/>
<ellipse cx="148.501" cy="142.618" rx="60.7769" ry="59.8502" fill="white"/>
<ellipse cx="148.501" cy="142.618" rx="33.4273" ry="32.9176" fill="#D9D9D9"/>
<ellipse cx="148.501" cy="94.7379" rx="4.55827" ry="4.48877" fill="#D9D9D9"/>
<ellipse cx="172.812" cy="100.723" rx="4.55827" ry="4.48877" fill="#D9D9D9"/>
<ellipse cx="183.447" cy="108.204" rx="4.55827" ry="4.48877" fill="#D9D9D9"/>
<ellipse cx="191.044" cy="117.182" rx="4.55827" ry="4.48877" fill="#D9D9D9"/>
<ellipse cx="172.812" cy="187.506" rx="4.55827" ry="4.48877" fill="#D9D9D9"/>
<ellipse cx="160.656" cy="191.995" rx="4.55827" ry="4.48877" fill="#D9D9D9"/>
<ellipse cx="148.501" cy="193.491" rx="4.55827" ry="4.48877" fill="#D9D9D9"/>
<ellipse cx="124.19" cy="186.01" rx="4.55827" ry="4.48877" fill="#D9D9D9"/>
<ellipse cx="113.553" cy="178.528" rx="4.55827" ry="4.48877" fill="#D9D9D9"/>
<ellipse cx="105.957" cy="168.054" rx="4.55827" ry="4.48877" fill="#D9D9D9"/>
<ellipse cx="98.3595" cy="144.114" rx="4.55827" ry="4.48877" fill="#D9D9D9"/>
<ellipse cx="101.399" cy="130.648" rx="4.55827" ry="4.48877" fill="#D9D9D9"/>
<ellipse cx="105.957" cy="118.678" rx="4.55827" ry="4.48877" fill="#D9D9D9"/>
<ellipse cx="134.826" cy="96.234" rx="4.55827" ry="4.48877" fill="#D9D9D9"/>
<ellipse cx="122.671" cy="102.219" rx="4.55827" ry="4.48877" fill="#D9D9D9"/>
<path d="M200.921 134.392C202.693 133.394 207.283 130.507 207.283 130.538C212.791 152.672 202.274 174.197 191.53 183.769L181.928 168.806C190.845 156.691 192.546 149.074 191.044 134.392L197.882 130.651L200.921 134.392Z" fill="#D9D9D9" stroke="#D9D9D9"/>
<ellipse cx="148.5" cy="142.618" rx="24.3108" ry="23.9401" fill="#FF0066"/>
<rect x="146.981" y="162.069" width="3.03884" height="8.97753" fill="#D9D9D9"/>
<rect x="146.981" y="114.189" width="3.03884" height="8.97753" fill="#D9D9D9"/>
<rect x="169.772" y="144.114" width="2.99251" height="9.11653" transform="rotate(-90 169.772 144.114)" fill="#D9D9D9"/>
<rect x="119.632" y="144.114" width="2.99251" height="9.11653" transform="rotate(-90 119.632 144.114)" fill="#D9D9D9"/>
<rect width="3.01423" height="9.05192" transform="matrix(0.688774 -0.724977 0.73545 0.677579 127.229 123.856)" fill="#D9D9D9"/>
<rect width="3.01423" height="9.05192" transform="matrix(0.688774 -0.724977 0.73545 0.677579 162.175 158.27)" fill="#D9D9D9"/>
<rect width="3.01242" height="9.05733" transform="matrix(0.659831 0.751414 -0.761358 0.648331 132.461 154.753)" fill="#D9D9D9"/>
<rect width="3.01242" height="9.05733" transform="matrix(0.659831 0.751414 -0.761358 0.648331 169.071 121.671)" fill="#D9D9D9"/>
</g>
<defs>
<clipPath id="clip0_415_1662">
<rect width="297" height="287" fill="white"/>
</clipPath>
</defs>
</svg>
