<svg width="297" height="287" viewBox="0 0 297 287" fill="none" xmlns="http://www.w3.org/2000/svg">
<circle cx="147.5" cy="143.5" r="135" stroke="#287621"/>
<path d="M152.856 57.6557C145.87 54.4668 146.197 53.1679 148.369 46.3641C150.128 46.6517 150.54 44.1925 152.422 44.0478C157.895 43.4518 159.95 44.3373 160.384 46.9431C161.22 52.3781 161.832 55.7738 159.95 57.6557C158.357 58.6691 156.719 59.0884 152.856 57.6557Z" fill="#C2FFB7" stroke="#C2FFB7"/>
<path d="M139.039 57.6886C146.025 54.4996 145.698 53.2007 143.527 46.3969C141.767 46.6845 141.355 44.2253 139.473 44.0807C134 43.4846 131.946 44.3701 131.511 46.976C130.675 52.411 130.063 55.8066 131.946 57.6886C133.538 58.7019 135.177 59.1212 139.039 57.6886Z" fill="#C2FFB7" stroke="#C2FFB7"/>
<path d="M157.199 79.949C156.186 81.5413 153.58 81.8308 151.408 82.2652C148.224 82.8443 146.486 85.3053 146.776 88.0558C147.103 95.0868 148.503 95.3936 151.119 95.5836C153.596 95.6439 154.726 95.4593 156.764 95.1493C165.563 92.7352 163.573 87.4107 164.582 80.5281C164.872 78.7907 163.781 77.877 161.397 78.5013C159.696 77.9818 158.757 77.9685 157.199 79.949Z" fill="#C2FFB7" stroke="#C2FFB7"/>
<path d="M135.241 80.1007C136.254 81.693 138.86 81.9825 141.032 82.417C144.216 82.996 145.954 85.457 145.664 88.2076C145.337 95.2385 143.937 95.5453 141.321 95.7353C138.843 95.7956 137.714 95.611 135.676 95.3011C126.877 92.887 128.867 87.5624 127.858 80.6798C127.568 78.9425 128.659 78.0287 131.043 78.6531C132.744 78.1336 133.683 78.1202 135.241 80.1007Z" fill="#C2FFB7" stroke="#C2FFB7"/>
<path d="M151.119 99.4919C149.093 98.0444 147.935 99.2026 147.935 101.953L148.369 112.955C148.473 115.36 149.672 116.719 152.857 114.692C157.229 110.758 160.593 109.654 160.529 100.36C160.529 99.3473 158.792 98.913 157.779 100.071C155.728 101.373 154.68 102.383 151.119 99.4919Z" fill="#C2FFB7" stroke="#C2FFB7"/>
<path d="M142.144 99.5398C144.171 98.0924 145.329 99.2505 145.329 102.001L144.895 113.003C144.791 115.408 143.592 116.767 140.407 114.74C136.035 110.806 132.67 109.702 132.734 100.408C132.734 99.3953 134.471 98.961 135.485 100.119C137.536 101.421 138.583 102.431 142.144 99.5398Z" fill="#C2FFB7" stroke="#C2FFB7"/>
<path d="M167.912 140.605C170.372 140.605 169.793 138.723 170.952 136.262C171.964 133.222 173.846 131.05 176.164 128.879C177.186 127.534 177.447 126.743 176.164 125.115C174.85 124.008 173.908 123.576 170.952 124.247C167.933 125.053 166.243 125.72 163.28 128.879C158.357 135.538 160.638 140.395 167.912 140.605Z" fill="#C2FFB7" stroke="#C2FFB7"/>
<path d="M125.35 140.491C122.89 140.491 123.469 138.609 122.31 136.148C121.297 133.107 119.416 130.936 117.098 128.765C116.076 127.42 115.815 126.629 117.098 125.001C118.412 123.894 119.354 123.462 122.31 124.132C125.329 124.939 127.019 125.606 129.982 128.765C134.905 135.424 132.624 140.28 125.35 140.491Z" fill="#C2FFB7" stroke="#C2FFB7"/>
<path d="M158.358 114.259C157.2 115.706 154.304 117.299 150.975 118.312C148.648 119.425 147.737 120.424 147.79 123.813C148.369 131.92 164.583 124.392 165.451 116.72C165.451 114.982 164.82 113.593 162.122 112.521C161.119 112.086 160.24 111.942 158.358 114.259Z" fill="#C2FFB7" stroke="#C2FFB7"/>
<path d="M134.907 114.227C136.065 115.675 138.96 117.267 142.29 118.281C144.617 119.394 145.528 120.393 145.475 123.782C144.895 131.888 128.682 124.361 127.813 116.688C127.813 114.951 128.444 113.561 131.143 112.49C132.145 112.055 133.025 111.911 134.907 114.227Z" fill="#C2FFB7" stroke="#C2FFB7"/>
<path d="M153.58 63.8803C150.539 63.1565 148.947 65.0385 148.947 67.4995C148.168 77.1071 149.755 76.6639 152.277 76.7644C155.172 76.7644 155.172 77.054 156.33 76.7644C159.371 75.9435 160.79 74.4136 162.265 67.789C162.787 65.3417 162.008 64.7395 159.515 64.4594C156.798 64.3879 155.602 64.221 153.58 63.8803Z" fill="#C2FFB7" stroke="#C2FFB7"/>
<path d="M138.678 63.748C141.718 63.0242 143.31 64.9062 143.31 67.3671C144.089 76.9748 142.502 76.5316 139.981 76.6321C137.085 76.6321 137.085 76.9217 135.927 76.6321C132.886 75.8111 131.467 74.2813 129.992 67.6567C129.47 65.2093 130.249 64.6072 132.742 64.3271C135.459 64.2556 136.655 64.0886 138.678 63.748Z" fill="#C2FFB7" stroke="#C2FFB7"/>
<path d="M153.654 226.361C146.667 229.55 146.995 230.849 149.166 237.653C150.926 237.365 151.338 239.824 153.22 239.969C158.693 240.565 160.747 239.68 161.182 237.074C162.018 231.639 162.629 228.243 160.747 226.361C159.155 225.348 157.516 224.928 153.654 226.361Z" fill="#C2FFB7" stroke="#C2FFB7"/>
<path d="M139.907 226.361C146.893 229.55 146.566 230.849 144.395 237.653C142.635 237.365 142.223 239.824 140.341 239.969C134.868 240.565 132.813 239.68 132.379 237.074C131.543 231.639 130.931 228.243 132.813 226.361C134.406 225.348 136.045 224.928 139.907 226.361Z" fill="#C2FFB7" stroke="#C2FFB7"/>
<path d="M143.591 35.0723C140.986 26.821 130.997 28.1238 130.273 33.1904C129.23 39.1577 130.566 40.1356 133.892 40.7181C136.932 41.0079 138.09 41.7315 140.986 41.7315C144.938 41.1529 144.583 39.057 143.591 35.0723Z" fill="#C2FFB7" stroke="#C2FFB7"/>
<path d="M147.574 35.0745C150.18 26.8232 160.169 28.126 160.893 33.1926C161.935 39.1599 160.599 40.1377 157.273 40.7203C154.234 41.0101 153.076 41.7337 150.18 41.7337C146.227 41.1551 146.583 39.0592 147.574 35.0745Z" fill="#C2FFB7" stroke="#C2FFB7"/>
<path d="M135.05 24.5047C130.707 24.3599 131.687 22.6227 130.707 20.596C130.175 19.4948 130.279 18.8554 130.707 17.7007C131.682 15.5671 133.77 15.535 137.367 15.3845C141.523 15.2334 141.5 16.5951 142.433 18.4246C143.303 21.0303 142.441 22.431 140.841 23.6361L140.809 23.6483C139.032 24.3159 138.026 24.6942 135.05 24.5047Z" fill="#C2FFB7" stroke="#C2FFB7"/>
<path d="M156.387 23.7922C160.73 23.6474 159.75 21.9102 160.73 19.8835C161.262 18.7823 161.158 18.1429 160.73 16.9882C159.755 14.8545 157.667 14.8225 154.07 14.672C149.914 14.5209 149.937 15.8826 149.004 17.712C148.134 20.3178 148.996 21.7185 150.596 22.9236L150.628 22.9357C152.405 23.6034 153.411 23.9817 156.387 23.7922Z" fill="#C2FFB7" stroke="#C2FFB7"/>
<path d="M144.951 250.05C142.345 258.301 132.356 256.998 131.632 251.931C130.59 245.964 131.926 244.986 135.251 244.404C138.291 244.114 139.449 243.39 142.345 243.39C146.298 243.969 145.942 246.065 144.951 250.05Z" fill="#C2FFB7" stroke="#C2FFB7"/>
<path d="M148.935 250.047C151.54 258.299 161.529 256.996 162.253 251.929C163.295 245.962 161.96 244.984 158.634 244.401C155.594 244.112 154.436 243.388 151.54 243.388C147.587 243.967 147.943 246.063 148.935 250.047Z" fill="#C2FFB7" stroke="#C2FFB7"/>
<path d="M136.409 260.617C132.066 260.762 133.046 262.499 132.066 264.526C131.534 265.627 131.637 266.266 132.066 267.421C133.041 269.555 135.128 269.587 138.725 269.737C142.882 269.888 142.859 268.527 143.792 266.697C144.662 264.091 143.799 262.691 142.2 261.486L142.167 261.474C140.391 260.806 139.384 260.428 136.409 260.617Z" fill="#C2FFB7" stroke="#C2FFB7"/>
<path d="M157.747 261.33C162.09 261.474 161.11 263.211 162.09 265.238C162.622 266.339 162.519 266.979 162.09 268.133C161.115 270.267 159.027 270.299 155.43 270.45C151.274 270.601 151.297 269.239 150.364 267.41C149.494 264.804 150.357 263.403 151.956 262.198L151.988 262.186C153.765 261.518 154.771 261.14 157.747 261.33Z" fill="#C2FFB7" stroke="#C2FFB7"/>
<path d="M157.954 204.023C156.941 202.431 154.336 202.141 152.164 201.707C148.979 201.128 147.242 198.667 147.531 195.916C147.858 188.885 149.258 188.579 151.874 188.389C154.352 188.328 155.482 188.513 157.52 188.823C166.319 191.237 164.329 196.561 165.337 203.444C165.627 205.181 164.537 206.095 162.152 205.471C160.452 205.99 159.513 206.004 157.954 204.023Z" fill="#C2FFB7" stroke="#C2FFB7"/>
<path d="M135.241 204.007C136.254 202.414 138.86 202.125 141.032 201.69C144.216 201.111 145.954 198.65 145.664 195.9C145.337 188.869 143.937 188.562 141.321 188.372C138.843 188.312 137.714 188.496 135.676 188.806C126.877 191.22 128.867 196.545 127.858 203.428C127.568 205.165 128.659 206.079 131.043 205.454C132.744 205.974 133.683 205.987 135.241 204.007Z" fill="#C2FFB7" stroke="#C2FFB7"/>
<path d="M142.144 184.566C144.171 186.014 145.329 184.855 145.329 182.105L144.895 171.103C144.791 168.698 143.592 167.339 140.407 169.366L132.299 179.547C130.327 178.865 128.892 179.736 124.771 187.219C117.52 184.673 116.289 189.093 114.204 197.208C113.701 199.972 114.204 200.999 116.375 201.985C118.591 201.23 119.295 201.706 120.284 202.999C121.297 204.012 124.771 204.012 125.35 202.999C124.964 191.932 128.002 188.21 135.485 183.987C137.536 182.685 138.583 181.675 142.144 184.566Z" fill="#C2FFB7" stroke="#C2FFB7"/>
<path d="M150.975 184.586C148.948 186.034 147.79 184.876 147.79 182.125L148.224 171.123C148.328 168.718 149.527 167.359 152.712 169.386L160.819 179.567C162.792 178.885 164.227 179.756 168.347 187.239C175.599 184.694 176.83 189.113 178.915 197.228C179.418 199.992 178.914 201.02 176.744 202.005C174.528 201.25 173.824 201.726 172.835 203.019C171.822 204.032 168.347 204.032 167.768 203.019C168.155 191.952 165.116 188.23 157.634 184.007C155.583 182.705 154.535 181.695 150.975 184.586Z" fill="#C2FFB7" stroke="#C2FFB7"/>
<path d="M167.912 143.501C170.372 143.501 169.793 145.383 170.952 147.844C171.964 150.884 173.846 153.055 176.164 155.227C177.186 156.572 177.447 157.363 176.164 158.991C174.85 160.098 173.908 160.53 170.952 159.859C167.933 159.052 166.243 158.386 163.28 155.227C158.357 148.568 160.638 143.711 167.912 143.501Z" fill="#C2FFB7" stroke="#C2FFB7"/>
<path d="M125.35 143.616C122.89 143.616 123.469 145.498 122.31 147.959C121.297 150.999 119.416 153.171 117.098 155.342C116.076 156.687 115.815 157.478 117.098 159.106C118.412 160.213 119.354 160.645 122.31 159.974C125.329 159.168 127.019 158.501 129.982 155.342C134.905 148.683 132.624 143.826 125.35 143.616Z" fill="#C2FFB7" stroke="#C2FFB7"/>
<path d="M158.358 169.848C157.2 168.4 154.304 166.808 150.975 165.795C148.648 164.682 147.737 163.682 147.79 160.293C148.369 152.187 164.583 159.715 165.451 167.387C165.451 169.124 164.82 170.514 162.122 171.585C161.119 172.021 160.24 172.164 158.358 169.848Z" fill="#C2FFB7" stroke="#C2FFB7"/>
<path d="M134.907 169.88C136.065 168.433 138.96 166.84 142.29 165.827C144.617 164.714 145.528 163.715 145.475 160.326C144.895 152.219 128.682 159.747 127.813 167.419C127.813 169.157 128.444 170.546 131.143 171.617C132.145 172.053 133.025 172.197 134.907 169.88Z" fill="#C2FFB7" stroke="#C2FFB7"/>
<path d="M153.58 220.226C150.539 220.95 148.947 219.068 148.947 216.607C148.168 206.999 149.755 207.443 152.277 207.342C155.172 207.342 155.172 207.053 156.33 207.342C159.371 208.163 160.79 209.693 162.265 216.318C162.787 218.765 162.008 219.367 159.515 219.647C156.798 219.719 155.602 219.886 153.58 220.226Z" fill="#C2FFB7" stroke="#C2FFB7"/>
<path d="M139.547 220.21C142.587 220.934 144.18 219.052 144.18 216.591C144.959 206.983 143.372 207.426 140.85 207.326C137.955 207.326 137.955 207.036 136.797 207.326C133.756 208.147 132.336 209.676 130.861 216.301C130.339 218.748 131.118 219.351 133.612 219.631C136.328 219.702 137.524 219.869 139.547 220.21Z" fill="#C2FFB7" stroke="#C2FFB7"/>
<path d="M230.785 134.039C234.041 140.961 235.307 140.608 241.925 138.304C241.61 136.55 244.009 136.09 244.114 134.206C244.593 128.722 243.686 126.685 241.127 126.302C235.791 125.573 232.455 125.028 230.649 126.947C229.688 128.559 229.309 130.205 230.785 134.039Z" fill="#C2FFB7" stroke="#C2FFB7"/>
<path d="M231.049 147.782C234.037 140.735 235.315 141.037 242.017 143.074C241.769 144.839 244.184 145.202 244.362 147.081C245.051 152.541 244.223 154.613 241.681 155.098C236.377 156.041 233.064 156.719 231.186 154.874C230.163 153.302 229.721 151.672 231.049 147.782Z" fill="#C2FFB7" stroke="#C2FFB7"/>
<path d="M254.141 142.273C262.268 144.716 261.185 154.729 256.239 155.552C250.418 156.711 249.435 155.395 248.801 152.081C248.459 149.048 247.728 147.904 247.672 145.009C248.163 141.046 250.221 141.36 254.141 142.273Z" fill="#C2FFB7" stroke="#C2FFB7"/>
<path d="M254.062 138.291C262.089 135.524 260.622 125.563 255.648 124.939C249.787 124.014 248.855 125.368 248.349 128.705C248.124 131.75 247.438 132.922 247.494 135.817C248.136 139.758 250.181 139.361 254.062 138.291Z" fill="#C2FFB7" stroke="#C2FFB7"/>
<path d="M264.65 150.606C264.875 154.946 266.557 153.932 268.56 154.872C269.648 155.382 270.272 155.266 271.394 154.815C273.464 153.798 273.455 151.711 273.533 148.112C273.601 143.953 272.269 144.003 270.46 143.105C267.893 142.287 266.538 143.177 265.389 144.8L265.378 144.833C264.759 146.622 264.408 147.635 264.65 150.606Z" fill="#C2FFB7" stroke="#C2FFB7"/>
<path d="M264.937 129.259C264.995 124.914 266.714 125.859 268.68 124.84C269.747 124.286 270.375 124.377 271.514 124.783C273.621 125.716 273.693 127.802 273.909 131.396C274.137 135.548 272.804 135.552 271.031 136.521C268.497 137.442 267.109 136.607 265.899 135.031L265.886 134.999C265.198 133.236 264.809 132.237 264.937 129.259Z" fill="#C2FFB7" stroke="#C2FFB7"/>
<path d="M208.837 130.178C207.297 131.222 207.064 133.833 206.681 136.013C206.175 139.208 203.799 140.993 201.101 140.758C194.212 140.569 193.885 139.176 193.649 136.564C193.542 134.088 193.701 132.954 193.965 130.911C196.159 122.066 201.41 123.951 208.128 122.808C209.823 122.484 210.738 123.556 210.173 125.952C210.714 127.642 210.745 128.581 208.837 130.178Z" fill="#C2FFB7" stroke="#C2FFB7"/>
<path d="M209.255 152.887C207.677 151.906 207.343 149.306 206.876 147.143C206.248 143.97 203.805 142.282 201.119 142.625C194.242 143.09 193.969 144.496 193.833 147.115C193.822 149.594 194.024 150.72 194.367 152.751C196.899 161.501 202.073 159.407 208.83 160.28C210.536 160.536 211.41 159.427 210.753 157.056C211.228 155.345 211.223 154.406 209.255 152.887Z" fill="#C2FFB7" stroke="#C2FFB7"/>
<path d="M190.094 146.367C191.472 144.312 190.316 143.177 187.623 143.231L176.862 143.882C174.509 144.032 173.202 145.258 175.248 148.403L185.37 156.309C184.741 158.294 185.62 159.712 193.025 163.684C190.672 170.985 195.023 172.128 203.006 174.054C205.721 174.502 206.718 173.979 207.641 171.789C206.859 169.588 207.311 168.875 208.558 167.861C209.53 166.828 209.463 163.354 208.46 162.795C197.634 163.399 193.933 160.435 189.655 153.036C188.341 151.012 187.332 149.984 190.094 146.367Z" fill="#C2FFB7" stroke="#C2FFB7"/>
<path d="M189.942 137.537C191.398 139.535 190.287 140.716 187.595 140.77L176.816 140.552C174.46 140.496 173.107 139.323 175.029 136.099L184.84 127.793C184.135 125.835 184.959 124.382 192.206 120.116C189.574 112.916 193.877 111.598 201.78 109.354C204.476 108.797 205.492 109.28 206.498 111.431C205.801 113.662 206.281 114.356 207.566 115.319C208.577 116.313 208.644 119.786 207.663 120.385C196.822 120.216 193.237 123.327 189.248 130.891C188.012 132.967 187.044 134.034 189.942 137.537Z" fill="#C2FFB7" stroke="#C2FFB7"/>
<path d="M224.78 134.233C225.547 137.258 223.735 138.887 221.326 138.935C211.936 139.903 212.34 138.307 212.193 135.788C212.137 132.893 211.854 132.899 212.115 131.736C212.86 128.679 214.33 127.23 220.787 125.625C223.172 125.055 223.777 125.822 224.099 128.31C224.221 131.024 224.408 132.217 224.78 134.233Z" fill="#C2FFB7" stroke="#C2FFB7"/>
<path d="M225.035 148.264C225.686 145.21 223.813 143.655 221.404 143.703C211.984 143.113 212.448 144.691 212.398 147.214C212.454 150.109 212.17 150.115 212.476 151.267C213.338 154.291 214.863 155.68 221.376 157.025C223.782 157.498 224.357 156.708 224.583 154.209C224.6 151.492 224.741 150.293 225.035 148.264Z" fill="#C2FFB7" stroke="#C2FFB7"/>
<path d="M62.1876 135.79C58.9315 142.713 57.6664 142.359 51.0479 140.055C51.3632 138.301 48.9639 137.841 48.8585 135.957C48.3802 130.473 49.2865 128.436 51.8458 128.053C57.1822 127.324 60.5179 126.779 62.324 128.698C63.2853 130.31 63.6643 131.957 62.1876 135.79Z" fill="#C2FFB7" stroke="#C2FFB7"/>
<path d="M61.9244 149.535C58.9371 142.487 57.6594 142.789 50.9573 144.826C51.205 146.591 48.7898 146.955 48.612 148.833C47.9233 154.294 48.7506 156.365 51.2931 156.851C56.5973 157.793 59.9096 158.472 61.788 156.627C62.8106 155.054 63.2526 153.424 61.9244 149.535Z" fill="#C2FFB7" stroke="#C2FFB7"/>
<path d="M38.8314 144.025C30.7041 146.469 31.7873 156.481 36.733 157.304C42.5544 158.464 43.5373 157.147 44.1716 153.834C44.5137 150.8 45.2443 149.656 45.2999 146.761C44.8096 142.798 42.7511 143.112 38.8314 144.025Z" fill="#C2FFB7" stroke="#C2FFB7"/>
<path d="M38.9105 140.044C30.8834 137.276 32.3509 127.315 37.3244 126.691C43.1859 125.766 44.1174 127.121 44.6237 130.457C44.8489 133.502 45.535 134.674 45.4793 137.569C44.8369 141.51 42.7921 141.113 38.9105 140.044Z" fill="#C2FFB7" stroke="#C2FFB7"/>
<path d="M28.3236 152.359C28.0984 156.698 26.4167 155.685 24.4139 156.624C23.3257 157.135 22.7018 157.019 21.5797 156.567C19.5098 155.551 19.5186 153.463 19.4404 149.864C19.3724 145.705 20.7049 145.755 22.5138 144.858C25.0813 144.04 26.4358 144.929 27.5847 146.552L27.596 146.585C28.2154 148.374 28.5664 149.388 28.3236 152.359Z" fill="#C2FFB7" stroke="#C2FFB7"/>
<path d="M28.037 131.013C27.9788 126.668 26.2594 127.613 24.2943 126.594C23.2265 126.04 22.5987 126.131 21.4601 126.537C19.3527 127.47 19.2812 129.556 19.0647 133.149C18.8368 137.302 20.1702 137.306 21.9431 138.275C24.4772 139.196 25.8649 138.361 27.0753 136.785L27.0879 136.753C27.7756 134.99 28.1653 133.991 28.037 131.013Z" fill="#C2FFB7" stroke="#C2FFB7"/>
<path d="M85.8736 131.046C87.4128 132.09 87.6461 134.701 88.0296 136.881C88.5352 140.077 90.9109 141.862 93.609 141.627C100.498 141.438 100.825 140.044 101.061 137.433C101.168 134.956 101.009 133.823 100.745 131.779C98.5509 122.935 93.3005 124.82 86.5825 123.676C84.8874 123.352 83.972 124.425 84.5373 126.821C83.996 128.511 83.9649 129.449 85.8736 131.046Z" fill="#C2FFB7" stroke="#C2FFB7"/>
<path d="M85.4554 153.756C87.0336 152.774 87.3671 150.175 87.8341 148.012C88.4622 144.839 90.9047 143.151 93.5916 143.494C100.468 143.959 100.741 145.365 100.877 147.984C100.888 150.463 100.686 151.589 100.343 153.62C97.811 162.37 92.6371 160.276 85.8803 161.149C84.174 161.405 83.3006 160.296 83.9576 157.925C83.4817 156.214 83.4867 155.275 85.4554 153.756Z" fill="#C2FFB7" stroke="#C2FFB7"/>
<path d="M104.617 147.235C103.239 145.18 104.395 144.045 107.088 144.099L117.849 144.749C120.202 144.9 121.509 146.126 119.463 149.27L109.341 157.176C109.97 159.162 109.091 160.58 101.686 164.552C104.039 171.852 99.6884 172.996 91.7047 174.922C88.9897 175.37 87.9933 174.846 87.07 172.657C87.8523 170.456 87.3996 169.743 86.1532 168.729C85.1807 167.696 85.2475 164.222 86.2507 163.663C97.0766 164.267 100.778 161.302 105.056 153.904C106.37 151.879 107.379 150.852 104.617 147.235Z" fill="#C2FFB7" stroke="#C2FFB7"/>
<path d="M104.768 138.407C103.312 140.405 104.423 141.585 107.116 141.639L117.894 141.421C120.251 141.365 121.604 140.193 119.681 136.969L109.871 128.663C110.575 126.704 109.751 125.252 102.505 120.985C105.136 113.785 100.833 112.468 92.9299 110.223C90.2343 109.667 89.2185 110.15 88.2117 112.301C88.9088 114.531 88.429 115.225 87.1446 116.189C86.1331 117.182 86.0663 120.656 87.0472 121.254C97.8879 121.086 101.473 124.196 105.463 131.76C106.698 133.836 107.666 134.904 104.768 138.407Z" fill="#C2FFB7" stroke="#C2FFB7"/>
<path d="M68.1921 135.984C67.4251 139.009 69.2368 140.638 71.6458 140.687C81.0357 141.654 80.6324 140.059 80.7793 137.54C80.835 134.645 81.1184 134.651 80.8572 133.487C80.1121 130.431 78.6418 128.982 72.1853 127.377C69.7997 126.807 69.1953 127.574 68.8731 130.061C68.7509 132.776 68.5645 133.968 68.1921 135.984Z" fill="#C2FFB7" stroke="#C2FFB7"/>
<path d="M67.9389 150.016C67.2888 146.962 69.1617 145.407 71.5707 145.455C80.9906 144.865 80.5262 146.443 80.5762 148.966C80.5205 151.861 80.804 151.866 80.4982 153.019C79.6361 156.043 78.1112 157.432 71.598 158.777C69.1923 159.25 68.6178 158.46 68.3916 155.961C68.3739 153.244 68.2334 152.045 67.9389 150.016Z" fill="#C2FFB7" stroke="#C2FFB7"/>
<path d="M167.478 89.2148C167.764 91.6401 167.255 92.4685 166.031 93.7025C162.821 97.0344 163.587 98.0253 168.781 98.4798C175.439 98.4798 176.704 94.7147 177.467 86.6091C177.467 84.1481 176.197 82.6769 172.69 81.8318C168.47 80.7742 167.771 83.1866 167.478 89.2148Z" fill="#C2FFB7" stroke="#C2FFB7"/>
<path d="M181.665 91.8202C180.796 93.8469 178.48 100.361 175.584 100.651C171.267 102.016 169.811 103.981 167.767 108.179C169.773 109.015 173.093 111.758 172.834 112.522C172.95 112.753 173.558 109.481 178.48 107.6C181.665 106.586 183.616 103.587 184.994 100.361C185.573 98.4788 182.678 90.2273 181.665 91.8202Z" fill="#C2FFB7" stroke="#C2FFB7"/>
<path d="M180.652 110.639C179.494 113.824 178.779 114.172 177.033 115.85C179.21 117.075 180.182 117.977 181.376 120.048C185.33 118.018 186.788 116.571 187.745 113.389C189.392 108.93 191.851 107.966 195.418 105.427C193.274 103.922 191.815 103.405 188.614 103.256C184.857 105.173 182.947 106.543 180.652 110.639Z" fill="#C2FFB7" stroke="#C2FFB7"/>
<path d="M124.481 88.8761C124.194 91.3014 124.704 92.1298 125.928 93.3638C129.138 96.6957 128.372 97.6866 123.178 98.141C116.519 98.141 115.255 94.376 114.492 86.2703C114.492 83.8093 115.762 82.3382 119.269 81.4931C123.488 80.4355 124.188 82.8479 124.481 88.8761Z" fill="#C2FFB7" stroke="#C2FFB7"/>
<path d="M110.295 91.4822C111.164 93.5089 113.48 100.023 116.375 100.313C120.692 101.678 122.148 103.643 124.192 107.841C122.187 108.677 118.867 111.42 119.126 112.184C119.01 112.415 118.402 109.143 113.48 107.262C110.295 106.248 108.343 103.248 106.965 100.023C106.386 98.1408 109.282 89.8893 110.295 91.4822Z" fill="#C2FFB7" stroke="#C2FFB7"/>
<path d="M111.308 110.301C112.466 113.486 113.182 113.834 114.927 115.512C112.75 116.738 111.778 117.64 110.585 119.711C106.63 117.68 105.173 116.233 104.215 113.051C102.568 108.592 100.109 107.628 96.5423 105.089C98.6859 103.584 100.146 103.067 103.346 102.918C107.103 104.835 109.014 106.205 111.308 110.301Z" fill="#C2FFB7" stroke="#C2FFB7"/>
<path d="M181.665 191.418C180.796 189.391 178.48 182.877 175.584 182.587C171.267 181.222 169.811 179.257 167.767 175.059C169.773 174.223 173.093 171.48 172.834 170.716C172.95 170.485 173.558 173.757 178.48 175.638C181.665 176.652 183.616 179.652 184.994 182.877C185.573 184.759 182.678 193.011 181.665 191.418Z" fill="#C2FFB7" stroke="#C2FFB7"/>
<path d="M180.652 172.598C179.494 169.414 178.779 169.066 177.033 167.387C179.21 166.162 180.182 165.26 181.376 163.189C185.33 165.22 186.788 166.666 187.745 169.848C189.392 174.307 191.851 175.271 195.418 177.81C193.274 179.316 191.815 179.832 188.614 179.981C184.857 178.064 182.947 176.694 180.652 172.598Z" fill="#C2FFB7" stroke="#C2FFB7"/>
<path d="M111.742 192.865C112.611 190.838 114.927 184.324 117.823 184.034C122.14 182.669 123.596 180.704 125.64 176.507C123.634 175.67 120.314 172.927 120.573 172.164C120.457 171.932 119.849 175.204 114.927 177.086C111.742 178.1 109.791 181.099 108.413 184.324C107.834 186.207 110.729 194.458 111.742 192.865Z" fill="#C2FFB7" stroke="#C2FFB7"/>
<path d="M112.757 174.047C113.915 170.862 114.63 170.514 116.376 168.835C114.199 167.61 113.227 166.708 112.033 164.637C108.079 166.668 106.621 168.114 105.663 171.296C104.016 175.755 101.557 176.719 97.9906 179.258C100.134 180.764 101.594 181.28 104.795 181.43C108.551 179.512 110.462 178.142 112.757 174.047Z" fill="#C2FFB7" stroke="#C2FFB7"/>
<path d="M198.747 97.1751C197.214 94.5002 197.255 93.3467 198.747 91.8188C201.642 89.9367 202.222 87.7653 205.406 85.8834C209.214 84.4035 209.34 82.7916 210.763 80.3823C213.016 76.7657 214.477 75.8015 217.277 75.1708C222.489 74.8812 222.923 77.7766 220.607 79.5138C219.304 80.5271 217.711 80.0927 216.264 83.4224C215.211 85.458 214.397 85.8356 212.934 86.4625C213.976 91.5797 212.451 94.2391 206.42 98.6227C202.402 100.868 200.919 100.008 198.747 97.1751Z" fill="#C2FFB7" stroke="#C2FFB7"/>
<path d="M219.159 88.3451C220.546 95.8704 219.159 98.0444 216.553 95.5834C214.264 93.242 211.628 95.8947 206.13 102.966C204.248 105.572 206.564 107.454 209.894 107.02C221.151 105.724 225.077 102.184 225.239 87.7661C230.45 87.7661 231.174 83.1336 226.252 82.265C222.891 82.0541 218.435 85.0158 219.159 88.3451Z" fill="#C2FFB7" stroke="#C2FFB7"/>
<path d="M226.685 113.968C223.645 123.812 212.643 122.51 211.196 114.403C210.459 110.364 213.05 109.598 218.434 108.612C222.681 107.951 224.63 106.903 227.988 104.848C231.463 103.256 232.331 106.73 229.581 109.191C227.676 110.804 227.211 111.905 226.685 113.968Z" fill="#C2FFB7" stroke="#C2FFB7"/>
<path d="M236.091 111.654C232.327 106.876 227.694 115.418 226.247 121.642C225.813 124.827 235.662 124.103 239.999 121.642C244.24 122.24 243.666 119.862 242.895 115.852C239.076 114.662 237.946 113.604 236.091 111.654Z" fill="#C2FFB7" stroke="#C2FFB7"/>
<path d="M249.704 108.902C247.099 110.494 245.072 108.902 245.506 113.534C246.069 115.651 246.207 116.639 246.375 118.311C246.718 122 249.125 122.509 254.337 120.483C259.548 121.207 257.377 120.048 258.101 117.298C258.493 113.549 258.231 111.625 255.061 109.191C253.125 107.95 251.947 107.944 249.704 108.902Z" fill="#C2FFB7" stroke="#C2FFB7"/>
<path d="M263.023 118.457C258.679 105.572 264.615 100.795 269.538 104.993C273.445 109.191 274.459 113.969 272.288 117.877C270.839 120.194 266.634 122.517 263.023 118.457Z" fill="#C2FFB7" stroke="#C2FFB7"/>
<path d="M173.464 61.2414C163.665 64.4238 165.127 75.4059 173.254 76.736C177.303 77.414 178.031 74.8117 178.939 69.4146C179.538 65.1584 180.558 63.1943 182.564 59.8066C184.106 56.3093 180.619 55.4911 178.198 58.2772C176.614 60.2055 175.519 60.6864 173.464 61.2414Z" fill="#C2FFB7" stroke="#C2FFB7"/>
<path d="M175.644 51.8034C180.476 55.4977 172.003 60.2534 165.799 61.7911C162.621 62.2715 163.202 52.413 165.6 48.0399C164.941 43.8088 167.327 44.3476 171.348 45.061C172.593 48.8617 173.668 49.977 175.644 51.8034Z" fill="#C2FFB7" stroke="#C2FFB7"/>
<path d="M178.197 38.1526C176.643 40.7812 178.264 42.7846 173.626 42.4175C171.501 41.8856 170.511 41.7616 168.837 41.6182C165.143 41.3284 164.599 38.9288 166.55 33.6884C165.751 28.4879 166.94 30.6424 169.68 29.8788C173.423 29.4325 175.351 29.6661 177.83 32.8011C179.099 34.7188 179.122 35.8965 178.197 38.1526Z" fill="#C2FFB7" stroke="#C2FFB7"/>
<path d="M168.449 24.9722C181.395 29.1291 186.086 23.1248 181.817 18.2634C177.562 14.4171 172.771 13.473 168.894 15.6998C166.599 17.1819 164.337 21.4204 168.449 24.9722Z" fill="#C2FFB7" stroke="#C2FFB7"/>
<path d="M235.082 104.559C226.831 96.1627 232.477 91.675 236.095 88.9244C244.058 97.6103 238.267 96.8865 235.082 104.559Z" fill="#C2FFB7" stroke="#C2FFB7"/>
<path d="M247.1 103.401C241.887 108.033 239.426 102.677 245.073 98.0445C248.402 95.1492 246.756 88.9901 245.941 81.9756C249.475 87.374 252.288 90.0496 251.732 97.1759C250.988 102.834 248.836 101.374 247.1 103.401Z" fill="#C2FFB7" stroke="#C2FFB7"/>
<path d="M258.824 82.1205C255.459 77.1589 254.027 76.2703 253.757 84.1472C253.757 92.8329 256.797 100.795 269.392 96.4522C268.942 93.8846 268.754 92.4277 266.496 90.3721C263.283 87.8824 261.284 87.1541 258.824 82.1205Z" fill="#C2FFB7" stroke="#C2FFB7"/>
<path d="M191.834 90.0425C194.651 91.2956 195.794 91.138 197.162 89.498C198.74 86.4264 200.842 85.6296 202.39 82.27C203.475 78.3315 205.066 78.0422 207.318 76.3823C210.687 73.7728 211.498 72.2217 211.84 69.3718C211.599 64.1579 208.674 64.0201 207.182 66.5009C206.306 67.9001 206.9 69.4401 203.735 71.2187C201.817 72.4728 201.524 73.3209 201.049 74.8401C195.852 74.3235 193.361 76.1111 189.614 82.5568C187.788 86.7824 188.795 88.1694 191.834 90.0425Z" fill="#C2FFB7" stroke="#C2FFB7"/>
<path d="M198.545 68.8393C190.918 68.2244 188.896 69.8252 191.609 72.1673C194.171 74.2067 191.8 77.0984 185.324 83.2869C182.922 85.4238 180.815 83.3107 180.909 79.9545C181.053 68.6238 184.176 64.3585 198.503 62.7318C197.973 57.5472 202.508 56.3563 203.872 61.1645C204.424 64.4867 201.93 69.2209 198.545 68.8393Z" fill="#C2FFB7" stroke="#C2FFB7"/>
<path d="M184.203 53.6826C193.394 61.0378 197.285 54.965 199.653 51.0853C190.203 44.0471 191.512 49.7341 184.203 53.6826Z" fill="#C2FFB7" stroke="#C2FFB7"/>
<path d="M182.465 41.784C178.386 47.4402 183.965 49.344 187.999 43.2557C190.541 39.6499 196.836 40.661 203.897 40.7583C198.167 37.7915 195.219 35.2658 188.186 36.5427C182.634 37.858 184.304 39.8505 182.465 41.784Z" fill="#C2FFB7" stroke="#C2FFB7"/>
<path d="M202.555 28.1658C207.833 31.0086 208.863 32.3432 201.054 33.4123C192.413 34.2952 184.183 32.0802 187.224 19.1095C189.824 19.2956 191.292 19.3345 193.566 21.3717C196.37 24.3151 197.298 26.23 202.555 28.1658Z" fill="#C2FFB7" stroke="#C2FFB7"/>
<path d="M94.1913 98.6241C95.7243 95.9492 95.6837 94.7956 94.1913 93.2678C91.296 91.3857 90.7169 89.2142 87.5321 87.3324C83.7243 85.8525 83.5982 84.2406 82.1758 81.8313C79.9223 78.2147 78.4616 77.2505 75.6614 76.6198C70.4498 76.3302 70.0155 79.2256 72.3318 80.9627C73.6347 81.976 75.2271 81.5417 76.6747 84.8714C77.7274 86.907 78.5413 87.2846 80.0043 87.9115C78.9622 93.0287 80.4874 95.6881 86.5187 100.072C90.5369 102.317 92.019 101.457 94.1913 98.6241Z" fill="#C2FFB7" stroke="#C2FFB7"/>
<path d="M73.7788 89.7924C72.3918 97.3176 73.7788 99.4917 76.3846 97.0307C78.6739 94.6893 81.3095 97.342 86.8077 104.414C88.6894 107.02 86.373 108.902 83.0438 108.467C71.7866 107.171 67.8607 103.632 67.6987 89.2133C62.4872 89.2133 61.7633 84.5809 66.6853 83.7123C70.0464 83.5014 74.5027 86.4631 73.7788 89.7924Z" fill="#C2FFB7" stroke="#C2FFB7"/>
<path d="M66.2514 115.417C69.2914 125.261 80.2936 123.958 81.7412 115.851C82.4779 111.812 79.8864 111.046 74.503 110.06C70.2559 109.399 68.3068 108.351 64.9485 106.296C61.4739 104.704 60.6053 108.178 63.3561 110.639C65.2612 112.252 65.7262 113.353 66.2514 115.417Z" fill="#C2FFB7" stroke="#C2FFB7"/>
<path d="M56.8459 113.1C60.6098 108.323 65.2423 116.864 66.69 123.089C67.1242 126.274 57.2752 125.55 52.9373 123.089C48.6971 123.686 49.2704 121.309 50.042 117.298C53.8603 116.109 54.991 115.05 56.8459 113.1Z" fill="#C2FFB7" stroke="#C2FFB7"/>
<path d="M43.2332 110.35C45.839 111.942 47.8657 110.35 47.4314 114.982C46.8688 117.099 46.7305 118.087 46.5628 119.76C46.2196 123.448 43.8123 123.958 38.6007 121.931C33.3892 122.655 35.5607 121.497 34.8368 118.746C34.4448 114.997 34.7064 113.073 37.8769 110.639C39.8129 109.398 40.9907 109.392 43.2332 110.35Z" fill="#C2FFB7" stroke="#C2FFB7"/>
<path d="M29.9136 119.904C34.2576 107.02 28.3218 102.243 23.3991 106.441C19.4916 110.639 18.4782 115.417 20.6486 119.325C22.0973 121.642 26.3026 123.965 29.9136 119.904Z" fill="#C2FFB7" stroke="#C2FFB7"/>
<path d="M119.473 62.6887C129.272 65.8711 127.81 76.8532 119.683 78.1832C115.634 78.8613 114.905 76.2589 113.998 70.8618C113.398 66.6056 112.379 64.6415 110.373 61.2538C108.831 57.7565 112.318 56.9384 114.738 59.7245C116.323 61.6528 117.418 62.1337 119.473 62.6887Z" fill="#C2FFB7" stroke="#C2FFB7"/>
<path d="M117.294 53.2508C112.463 56.9451 120.936 61.7008 127.139 63.2385C130.317 63.7189 129.736 53.8604 127.338 49.4873C127.997 45.2562 125.611 45.795 121.59 46.5084C120.345 50.3091 119.271 51.4244 117.294 53.2508Z" fill="#C2FFB7" stroke="#C2FFB7"/>
<path d="M114.74 39.6001C116.295 42.2287 114.673 44.2321 119.312 43.865C121.437 43.3331 122.426 43.2091 124.101 43.0657C127.794 42.7759 128.338 40.3763 126.388 35.1359C127.187 29.9354 125.997 32.0899 123.258 31.3263C119.514 30.88 117.587 31.1136 115.108 34.2486C113.838 36.1663 113.816 37.344 114.74 39.6001Z" fill="#C2FFB7" stroke="#C2FFB7"/>
<path d="M124.488 26.4202C111.542 30.5771 106.851 24.5728 111.12 19.7114C115.374 15.8651 120.166 14.921 124.043 17.1478C126.338 18.6299 128.6 22.8684 124.488 26.4202Z" fill="#C2FFB7" stroke="#C2FFB7"/>
<path d="M57.8554 106.006C66.1068 97.6098 60.4609 93.1221 56.842 90.3716C48.8797 99.0575 54.6703 98.3337 57.8554 106.006Z" fill="#C2FFB7" stroke="#C2FFB7"/>
<path d="M45.838 104.848C51.0503 109.48 53.5113 104.124 47.8647 99.4916C44.5359 96.5963 46.1816 90.4373 46.9961 83.4227C43.4623 88.8211 40.65 91.4968 41.2055 98.6231C41.9495 104.281 44.1015 102.821 45.838 104.848Z" fill="#C2FFB7" stroke="#C2FFB7"/>
<path d="M34.1136 83.5688C37.4782 78.6072 38.9106 77.7186 39.1804 85.5955C39.1804 94.2812 36.1404 102.243 23.5458 97.9005C23.9952 95.3329 24.1832 93.8759 26.4411 91.8204C29.6542 89.3306 31.6534 88.6024 34.1136 83.5688Z" fill="#C2FFB7" stroke="#C2FFB7"/>
<path d="M101.104 91.4892C98.287 92.7424 97.1435 92.5848 95.7753 90.9448C94.1973 87.8732 92.0959 87.0764 90.5475 83.7168C89.4623 79.7783 87.8716 79.489 85.6194 77.829C82.2506 75.2196 81.4398 73.6685 81.097 70.8186C81.3387 65.6046 84.2632 65.4669 85.7559 67.9477C86.6316 69.3469 86.0376 70.8869 89.2029 72.6655C91.121 73.9196 91.4139 74.7677 91.8888 76.2868C97.0854 75.7703 99.576 77.5579 103.324 84.0036C105.149 88.2292 104.143 89.6162 101.104 91.4892Z" fill="#C2FFB7" stroke="#C2FFB7"/>
<path d="M94.3935 70.2861C102.021 69.6712 104.042 71.272 101.329 73.6141C98.7674 75.6535 101.138 78.5452 107.615 84.7336C110.016 86.8705 112.124 84.7574 112.03 81.4013C111.885 70.0706 108.763 65.8053 94.4354 64.1786C94.9652 58.994 90.4303 57.8031 89.0659 62.6113C88.5144 65.9335 91.0078 70.6677 94.3935 70.2861Z" fill="#C2FFB7" stroke="#C2FFB7"/>
<path d="M108.735 55.1307C99.5431 62.4859 95.6525 56.4131 93.2841 52.5334C102.734 45.4952 101.426 51.1822 108.735 55.1307Z" fill="#C2FFB7" stroke="#C2FFB7"/>
<path d="M110.473 43.2314C114.551 48.8876 108.973 50.7914 104.938 44.7031C102.396 41.0972 96.1018 42.1084 89.0408 42.2057C94.7704 39.2389 97.7181 36.7131 104.751 37.9901C110.304 39.3053 108.633 41.2979 110.473 43.2314Z" fill="#C2FFB7" stroke="#C2FFB7"/>
<path d="M90.3816 29.6138C85.1037 32.4566 84.0741 33.7912 91.8827 34.8603C100.523 35.7432 108.753 33.5282 105.713 20.5575C103.113 20.7436 101.645 20.7825 99.3703 22.8197C96.5668 25.7631 95.6392 27.678 90.3816 29.6138Z" fill="#C2FFB7" stroke="#C2FFB7"/>
<path d="M94.4794 186.596C96.0124 189.271 95.9718 190.424 94.4794 191.952C91.5841 193.834 91.005 196.005 87.8202 197.887C84.0124 199.367 83.8863 200.979 82.4639 203.388C80.2104 207.005 78.7497 207.969 75.9495 208.6C70.7379 208.89 70.3036 205.994 72.6199 204.257C73.9227 203.244 75.5152 203.678 76.9628 200.348C78.0155 198.313 78.8294 197.935 80.2924 197.308C79.2503 192.191 80.7755 189.532 86.8068 185.148C90.825 182.902 92.3071 183.763 94.4794 186.596Z" fill="#C2FFB7" stroke="#C2FFB7"/>
<path d="M74.0686 195.427C72.6816 187.901 74.0686 185.727 76.6744 188.188C78.9637 190.53 81.5993 187.877 87.0975 180.805C88.9792 178.199 86.6628 176.317 83.3336 176.752C72.0763 178.048 68.1505 181.587 67.9885 196.006C62.777 196.006 62.0531 200.638 66.9751 201.507C70.3362 201.718 74.7925 198.756 74.0686 195.427Z" fill="#C2FFB7" stroke="#C2FFB7"/>
<path d="M66.5412 169.803C69.5812 159.959 80.5834 161.262 82.031 169.369C82.7677 173.408 80.1762 174.174 74.7928 175.159C70.5457 175.821 68.5966 176.869 65.2383 178.923C61.7637 180.516 60.8951 177.041 63.6459 174.58C65.551 172.968 66.016 171.867 66.5412 169.803Z" fill="#C2FFB7" stroke="#C2FFB7"/>
<path d="M57.1357 172.119C60.8996 176.896 65.5321 168.355 66.9797 162.13C67.414 158.945 57.565 159.669 53.2271 162.13C48.9869 161.533 49.5602 163.91 50.3318 167.921C54.1501 169.11 55.2808 170.169 57.1357 172.119Z" fill="#C2FFB7" stroke="#C2FFB7"/>
<path d="M43.5237 174.869C46.1295 173.277 48.1562 174.869 47.7219 170.237C47.1594 168.12 47.021 167.132 46.8533 165.459C46.5101 161.771 44.1028 161.261 38.8913 163.288C33.6798 162.564 35.8512 163.722 35.1274 166.473C34.7354 170.222 34.9969 172.146 38.1674 174.58C40.1034 175.821 41.2812 175.827 43.5237 174.869Z" fill="#C2FFB7" stroke="#C2FFB7"/>
<path d="M30.2041 165.314C34.5481 178.199 28.6124 182.976 23.6897 178.778C19.7821 174.58 18.7687 169.802 20.9391 165.894C22.3879 163.577 26.5931 161.254 30.2041 165.314Z" fill="#C2FFB7" stroke="#C2FFB7"/>
<path d="M119.764 222.53C129.563 219.348 128.101 208.366 119.974 207.036C115.924 206.358 115.196 208.96 114.289 214.357C113.689 218.613 112.669 220.577 110.663 223.965C109.122 227.462 112.608 228.281 115.029 225.494C116.614 223.566 117.708 223.085 119.764 222.53Z" fill="#C2FFB7" stroke="#C2FFB7"/>
<path d="M117.584 231.968C112.753 228.274 121.226 223.518 127.429 221.98C130.607 221.5 130.026 231.359 127.628 235.732C128.287 239.963 125.901 239.424 121.88 238.711C120.635 234.91 119.561 233.795 117.584 231.968Z" fill="#C2FFB7" stroke="#C2FFB7"/>
<path d="M115.031 245.619C116.585 242.991 114.964 240.987 119.602 241.354C121.727 241.886 122.717 242.01 124.391 242.154C128.085 242.443 128.629 244.843 126.678 250.083C127.477 255.284 126.288 253.129 123.548 253.893C119.805 254.339 117.877 254.106 115.398 250.971C114.129 249.053 114.106 247.875 115.031 245.619Z" fill="#C2FFB7" stroke="#C2FFB7"/>
<path d="M124.777 258.799C111.831 254.642 107.14 260.646 111.409 265.508C115.663 269.354 120.455 270.298 124.332 268.071C126.627 266.589 128.889 262.351 124.777 258.799Z" fill="#C2FFB7" stroke="#C2FFB7"/>
<path d="M58.1452 179.211C66.3966 187.608 60.7506 192.095 57.1318 194.846C49.1695 186.16 54.9601 186.884 58.1452 179.211Z" fill="#C2FFB7" stroke="#C2FFB7"/>
<path d="M46.1278 180.369C51.3401 175.737 53.8011 181.093 48.1545 185.726C44.8257 188.621 46.4714 194.78 47.2859 201.795C43.7521 196.396 40.9398 193.721 41.4953 186.594C42.2393 180.937 44.3913 182.396 46.1278 180.369Z" fill="#C2FFB7" stroke="#C2FFB7"/>
<path d="M34.4027 201.65C37.7673 206.612 39.1997 207.501 39.4695 199.624C39.4695 190.938 36.4294 182.976 23.8349 187.319C24.2843 189.886 24.4723 191.343 26.7302 193.399C29.9433 195.889 31.9425 196.617 34.4027 201.65Z" fill="#C2FFB7" stroke="#C2FFB7"/>
<path d="M101.394 193.729C98.5768 192.476 97.4333 192.633 96.0651 194.273C94.4871 197.345 92.3857 198.142 90.8373 201.501C89.7521 205.44 88.1614 205.729 85.9092 207.389C82.5404 209.999 81.7296 211.55 81.3868 214.4C81.6285 219.614 84.553 219.751 86.0457 217.271C86.9214 215.871 86.3274 214.331 89.4927 212.553C91.4108 211.299 91.7037 210.451 92.1786 208.931C97.3752 209.448 99.8658 207.66 103.614 201.215C105.439 196.989 104.433 195.602 101.394 193.729Z" fill="#C2FFB7" stroke="#C2FFB7"/>
<path d="M94.6818 214.932C102.309 215.547 104.331 213.946 101.618 211.604C99.0558 209.565 101.427 206.673 107.903 200.485C110.304 198.348 112.412 200.461 112.318 203.817C112.173 215.148 109.051 219.413 94.7238 221.04C95.2535 226.224 90.7186 227.415 89.3542 222.607C88.8027 219.285 91.2961 214.551 94.6818 214.932Z" fill="#C2FFB7" stroke="#C2FFB7"/>
<path d="M109.024 230.089C99.8322 222.734 95.9416 228.807 93.5731 232.686C103.023 239.725 101.715 234.038 109.024 230.089Z" fill="#C2FFB7" stroke="#C2FFB7"/>
<path d="M110.763 241.988C114.841 236.332 109.263 234.428 105.228 240.516C102.686 244.122 96.3916 243.111 89.3306 243.013C95.0602 245.98 98.0079 248.506 105.041 247.229C110.594 245.914 108.923 243.921 110.763 241.988Z" fill="#C2FFB7" stroke="#C2FFB7"/>
<path d="M90.6721 255.604C85.3942 252.762 84.3646 251.427 92.1733 250.358C100.814 249.475 109.044 251.69 106.004 264.661C103.404 264.475 101.935 264.436 99.6608 262.399C96.8574 259.455 95.9297 257.54 90.6721 255.604Z" fill="#C2FFB7" stroke="#C2FFB7"/>
<path d="M200.194 187.174C198.661 189.848 198.702 191.002 200.194 192.53C203.09 194.412 203.669 196.583 206.854 198.465C210.661 199.945 210.788 201.557 212.21 203.966C214.463 207.583 215.924 208.547 218.724 209.178C223.936 209.467 224.37 206.572 222.054 204.835C220.751 203.822 219.159 204.256 217.711 200.926C216.658 198.891 215.844 198.513 214.381 197.886C215.424 192.769 213.898 190.11 207.867 185.726C203.849 183.48 202.367 184.341 200.194 187.174Z" fill="#C2FFB7" stroke="#C2FFB7"/>
<path d="M220.606 196.005C221.993 188.48 220.606 186.306 218 188.767C215.711 191.108 213.075 188.456 207.577 181.384C205.696 178.778 208.012 176.896 211.341 177.331C222.598 178.626 226.524 182.166 226.686 196.584C231.898 196.584 232.622 201.217 227.7 202.085C224.339 202.296 219.882 199.335 220.606 196.005Z" fill="#C2FFB7" stroke="#C2FFB7"/>
<path d="M228.134 170.383C225.094 160.539 214.092 161.841 212.645 169.948C211.908 173.987 214.499 174.753 219.883 175.739C224.13 176.4 226.079 177.448 229.437 179.503C232.912 181.095 233.78 177.621 231.03 175.16C229.125 173.547 228.66 172.446 228.134 170.383Z" fill="#C2FFB7" stroke="#C2FFB7"/>
<path d="M237.539 172.697C233.775 177.475 229.143 168.934 227.695 162.709C227.261 159.524 237.11 160.248 241.448 162.709C245.688 162.111 245.115 164.489 244.343 168.499C240.525 169.689 239.394 170.747 237.539 172.697Z" fill="#C2FFB7" stroke="#C2FFB7"/>
<path d="M251.152 175.448C248.546 173.856 246.519 175.448 246.954 170.815C247.516 168.698 247.655 167.71 247.822 166.038C248.165 162.349 250.573 161.84 255.784 163.867C260.996 163.143 258.824 164.301 259.548 167.051C259.94 170.801 259.679 172.725 256.508 175.158C254.572 176.399 253.394 176.405 251.152 175.448Z" fill="#C2FFB7" stroke="#C2FFB7"/>
<path d="M264.471 165.894C260.127 178.778 266.063 183.555 270.986 179.357C274.893 175.159 275.907 170.382 273.736 166.473C272.288 164.157 268.082 161.833 264.471 165.894Z" fill="#C2FFB7" stroke="#C2FFB7"/>
<path d="M174.911 223.109C165.112 219.927 166.574 208.944 174.701 207.614C178.75 206.936 179.479 209.539 180.386 214.936C180.986 219.192 182.006 221.156 184.011 224.544C185.553 228.041 182.067 228.859 179.646 226.073C178.061 224.145 176.967 223.664 174.911 223.109Z" fill="#C2FFB7" stroke="#C2FFB7"/>
<path d="M177.092 232.548C181.923 228.853 173.45 224.098 167.247 222.56C164.068 222.079 164.649 231.938 167.047 236.311C166.389 240.542 168.774 240.003 172.795 239.29C174.04 235.489 175.115 234.374 177.092 232.548Z" fill="#C2FFB7" stroke="#C2FFB7"/>
<path d="M179.644 246.198C178.09 243.569 179.711 241.566 175.073 241.933C172.948 242.465 171.958 242.589 170.283 242.732C166.59 243.022 166.046 245.422 167.997 250.662C167.198 255.862 168.387 253.708 171.127 254.472C174.87 254.918 176.797 254.684 179.277 251.549C180.546 249.632 180.569 248.454 179.644 246.198Z" fill="#C2FFB7" stroke="#C2FFB7"/>
<path d="M169.899 259.378C182.845 255.221 187.535 261.226 183.266 266.087C179.012 269.933 174.221 270.877 170.344 268.651C168.049 267.168 165.786 262.93 169.899 259.378Z" fill="#C2FFB7" stroke="#C2FFB7"/>
<path d="M236.53 179.791C228.278 188.188 233.924 192.675 237.543 195.426C245.505 186.74 239.715 187.464 236.53 179.791Z" fill="#C2FFB7" stroke="#C2FFB7"/>
<path d="M248.547 180.95C243.335 176.317 240.874 181.673 246.52 186.306C249.849 189.201 248.203 195.36 247.389 202.375C250.923 196.977 253.735 194.301 253.18 187.175C252.436 181.517 250.283 182.976 248.547 180.95Z" fill="#C2FFB7" stroke="#C2FFB7"/>
<path d="M260.272 202.231C256.908 207.192 255.475 208.081 255.205 200.204C255.205 191.518 258.245 183.556 270.84 187.899C270.39 190.466 270.203 191.923 267.945 193.979C264.732 196.469 262.732 197.197 260.272 202.231Z" fill="#C2FFB7" stroke="#C2FFB7"/>
<path d="M193.281 194.308C196.098 193.055 197.241 193.213 198.61 194.853C200.188 197.925 202.289 198.721 203.837 202.081C204.923 206.019 206.513 206.309 208.766 207.969C212.134 210.578 212.945 212.129 213.288 214.979C213.046 220.193 210.122 220.331 208.629 217.85C207.753 216.451 208.347 214.911 205.182 213.132C203.264 211.878 202.971 211.03 202.496 209.511C197.3 210.027 194.809 208.24 191.061 201.794C189.236 197.569 190.242 196.182 193.281 194.308Z" fill="#C2FFB7" stroke="#C2FFB7"/>
<path d="M199.993 215.512C192.366 216.127 190.344 214.526 193.057 212.184C195.619 210.144 193.248 207.253 186.772 201.064C184.371 198.927 182.263 201.04 182.357 204.396C182.502 215.727 185.624 219.992 199.951 221.619C199.421 226.804 203.956 227.995 205.321 223.186C205.872 219.864 203.379 215.13 199.993 215.512Z" fill="#C2FFB7" stroke="#C2FFB7"/>
<path d="M185.65 230.668C194.842 223.313 198.732 229.386 201.101 233.266C191.651 240.304 192.959 234.617 185.65 230.668Z" fill="#C2FFB7" stroke="#C2FFB7"/>
<path d="M183.912 242.568C179.833 236.912 185.412 235.008 189.447 241.096C191.988 244.702 198.283 243.691 205.344 243.593C199.614 246.56 196.667 249.086 189.634 247.809C184.081 246.494 185.752 244.501 183.912 242.568Z" fill="#C2FFB7" stroke="#C2FFB7"/>
<path d="M204.003 256.184C209.281 253.341 210.311 252.006 202.502 250.937C193.862 250.055 185.632 252.27 188.672 265.24C191.272 265.054 192.74 265.015 195.015 262.978C197.818 260.035 198.746 258.12 204.003 256.184Z" fill="#C2FFB7" stroke="#C2FFB7"/>
<circle cx="146.743" cy="144.257" r="60.5587" fill="white"/>
<circle cx="146.743" cy="144.257" r="33.3073" fill="#D9D9D9"/>
<circle cx="146.743" cy="95.8101" r="4.5419" fill="#D9D9D9"/>
<circle cx="170.966" cy="101.866" r="4.5419" fill="#D9D9D9"/>
<circle cx="181.564" cy="109.436" r="4.5419" fill="#D9D9D9"/>
<circle cx="189.134" cy="118.52" r="4.5419" fill="#D9D9D9"/>
<circle cx="170.966" cy="189.676" r="4.5419" fill="#D9D9D9"/>
<circle cx="158.855" cy="194.218" r="4.5419" fill="#D9D9D9"/>
<circle cx="146.743" cy="195.732" r="4.5419" fill="#D9D9D9"/>
<circle cx="122.519" cy="188.162" r="4.5419" fill="#D9D9D9"/>
<circle cx="111.922" cy="180.592" r="4.5419" fill="#D9D9D9"/>
<circle cx="104.352" cy="169.994" r="4.5419" fill="#D9D9D9"/>
<circle cx="96.7821" cy="145.771" r="4.5419" fill="#D9D9D9"/>
<circle cx="99.81" cy="132.145" r="4.5419" fill="#D9D9D9"/>
<circle cx="104.352" cy="120.033" r="4.5419" fill="#D9D9D9"/>
<circle cx="133.117" cy="97.324" r="4.5419" fill="#D9D9D9"/>
<circle cx="121.006" cy="103.38" r="4.5419" fill="#D9D9D9"/>
<path d="M198.975 135.933C200.741 134.924 205.315 132.002 205.315 132.034C210.803 154.43 200.323 176.21 189.618 185.895L180.05 170.754C188.936 158.496 190.63 150.789 189.134 135.933L195.947 132.148L198.975 135.933Z" fill="#D9D9D9" stroke="#D9D9D9"/>
<circle cx="146.743" cy="144.257" r="24.2235" fill="#939393"/>
<rect x="145.229" y="163.939" width="3.02793" height="9.0838" fill="#D9D9D9"/>
<rect x="145.229" y="115.492" width="3.02793" height="9.0838" fill="#D9D9D9"/>
<rect x="167.938" y="145.771" width="3.02793" height="9.0838" transform="rotate(-90 167.938 145.771)" fill="#D9D9D9"/>
<rect x="117.978" y="145.771" width="3.02793" height="9.0838" transform="rotate(-90 117.978 145.771)" fill="#D9D9D9"/>
<rect x="125.547" y="125.272" width="3.02793" height="9.0838" transform="rotate(-46.9063 125.547 125.272)" fill="#D9D9D9"/>
<rect x="160.369" y="160.094" width="3.02793" height="9.0838" transform="rotate(-46.9063 160.369 160.094)" fill="#D9D9D9"/>
<rect x="130.761" y="156.535" width="3.02793" height="9.0838" transform="rotate(49.149 130.761 156.535)" fill="#D9D9D9"/>
<rect x="167.24" y="123.061" width="3.02793" height="9.0838" transform="rotate(49.149 167.24 123.061)" fill="#D9D9D9"/>
<circle cx="146.743" cy="144.257" r="60.5587" fill="white"/>
<circle cx="146.743" cy="144.257" r="33.3073" fill="#D9D9D9"/>
<circle cx="146.743" cy="95.8101" r="4.5419" fill="#D9D9D9"/>
<circle cx="170.966" cy="101.866" r="4.5419" fill="#D9D9D9"/>
<circle cx="181.564" cy="109.436" r="4.5419" fill="#D9D9D9"/>
<circle cx="189.134" cy="118.52" r="4.5419" fill="#D9D9D9"/>
<circle cx="170.966" cy="189.676" r="4.5419" fill="#D9D9D9"/>
<circle cx="158.855" cy="194.218" r="4.5419" fill="#D9D9D9"/>
<circle cx="146.743" cy="195.732" r="4.5419" fill="#D9D9D9"/>
<circle cx="122.519" cy="188.162" r="4.5419" fill="#D9D9D9"/>
<circle cx="111.922" cy="180.592" r="4.5419" fill="#D9D9D9"/>
<circle cx="104.352" cy="169.994" r="4.5419" fill="#D9D9D9"/>
<circle cx="96.7821" cy="145.771" r="4.5419" fill="#D9D9D9"/>
<circle cx="99.81" cy="132.145" r="4.5419" fill="#D9D9D9"/>
<circle cx="104.352" cy="120.033" r="4.5419" fill="#D9D9D9"/>
<circle cx="133.117" cy="97.324" r="4.5419" fill="#D9D9D9"/>
<circle cx="121.006" cy="103.38" r="4.5419" fill="#D9D9D9"/>
<path d="M198.975 135.933C200.741 134.924 205.315 132.002 205.315 132.034C210.803 154.43 200.323 176.21 189.618 185.895L180.05 170.754C188.936 158.496 190.63 150.789 189.134 135.933L195.947 132.148L198.975 135.933Z" fill="#D9D9D9" stroke="#D9D9D9"/>
<circle cx="146.743" cy="144.257" r="24.2235" fill="#287621"/>
<rect x="145.229" y="163.939" width="3.02793" height="9.0838" fill="#D9D9D9"/>
<rect x="145.229" y="115.492" width="3.02793" height="9.0838" fill="#D9D9D9"/>
<rect x="167.938" y="145.771" width="3.02793" height="9.0838" transform="rotate(-90 167.938 145.771)" fill="#D9D9D9"/>
<rect x="117.978" y="145.771" width="3.02793" height="9.0838" transform="rotate(-90 117.978 145.771)" fill="#D9D9D9"/>
<rect x="125.547" y="125.272" width="3.02793" height="9.0838" transform="rotate(-46.9063 125.547 125.272)" fill="#D9D9D9"/>
<rect x="160.369" y="160.094" width="3.02793" height="9.0838" transform="rotate(-46.9063 160.369 160.094)" fill="#D9D9D9"/>
<rect x="130.761" y="156.535" width="3.02793" height="9.0838" transform="rotate(49.149 130.761 156.535)" fill="#D9D9D9"/>
<rect x="167.24" y="123.061" width="3.02793" height="9.0838" transform="rotate(49.149 167.24 123.061)" fill="#D9D9D9"/>
</svg>
