<svg width="297" height="297" viewBox="0 0 297 297" fill="none" xmlns="http://www.w3.org/2000/svg">
<g clip-path="url(#clip0_474_1111)">
<path d="M152.103 209.538C148.659 209.813 147.159 244.966 147.449 248.498L148.793 273.928C149.093 278.157 152.285 278.633 155.954 278.456L168.665 277.235C175.496 275.65 176.567 270.955 172.947 260.192C168.596 245.854 190.783 240.778 196.878 257.456C199.444 266.424 204.311 270.663 210.165 269.168L223.111 264.131C224.974 262.958 228.295 259.018 226.268 256.274L207.546 227.908L188.661 207.105C185.764 203.364 180.026 203.264 176.262 204.128L152.103 209.538Z" fill="#C2FFB7" stroke="#15FF00"/>
<path d="M151.196 194.988C148.395 195.322 147.175 226.051 147.301 228.964L147.348 247.319C147.462 250.809 149.213 252.155 152.194 251.895L162.538 250.491C168.126 248.967 169.139 245.049 166.535 236.256C163.449 224.527 181.596 219.638 186.024 233.25C187.828 240.591 191.643 243.948 196.436 242.529L207.088 237.96C208.636 236.931 211.45 233.568 209.891 231.361L180.913 191.841C178.679 188.836 174.03 188.93 170.951 189.762L151.196 194.988Z" fill="#C2FFB7" stroke="#15FF00"/>
<path d="M152.422 183.325C150.073 183.712 149.534 184.62 149.535 187.102L147.323 228.128C147.292 231.102 148.704 232.188 151.199 231.857L159.876 230.283C164.592 228.78 165.292 226.19 163.438 218.78L157.553 203.012C155.403 193.113 171.958 187.102 175.159 198.558L179.49 215.38C180.73 221.581 184.386 223.642 188.435 222.257L197.614 218.071C198.942 217.137 199.227 216.452 198.007 214.625L174.515 180.823C172.761 178.339 171.684 177.326 169.086 178.148L152.422 183.325Z" fill="#C2FFB7" stroke="#15FF00"/>
<path d="M188.468 195.331C185.923 197.618 205.89 226.032 208.243 228.621L224.599 247.714C227.379 250.843 230.178 249.295 232.958 246.949L242.227 238.346C246.649 232.994 244.668 228.676 235.344 222.432C223.294 213.829 237.701 196.506 252.531 205.891C259.946 211.366 266.325 211.755 270.033 207.063L277.191 195.331C277.952 193.292 278.195 188.211 274.949 187.283L243.15 176.349L215.774 171.431C211.244 170.247 206.667 173.62 204.225 176.561L188.468 195.331Z" fill="#C2FFB7" stroke="#15FF00"/>
<path d="M179.886 184.93C177.906 186.906 195.228 212.06 197.059 214.297L208.008 228.848C210.171 231.551 212.335 231.551 214.498 229.524L221.709 222.091C225.149 217.468 223.608 213.737 216.354 208.343C206.98 200.91 218.188 185.945 229.725 194.053C235.493 198.782 240.456 199.119 243.341 195.065L248.909 184.93C249.501 183.168 249.69 178.778 247.165 177.976L201.129 164.282C197.605 163.258 194.045 166.173 192.145 168.714L179.886 184.93Z" fill="#C2FFB7" stroke="#15FF00"/>
<path d="M173.805 174.55C172.18 176.299 172.303 177.355 173.805 179.336L196.881 213.434C198.656 215.826 200.431 215.826 202.206 214.032L208.123 207.451C210.947 203.358 209.934 200.861 203.982 196.085L189.781 187.112C182.089 180.532 191.556 165.577 201.023 172.755L214.632 183.523C219.366 187.711 223.508 187.112 225.874 183.523L230.608 174.55C231.094 172.99 230.905 172.268 228.833 171.559L189.781 158.996C186.889 158.09 185.423 157.943 183.864 160.193L173.805 174.55Z" fill="#C2FFB7" stroke="#15FF00"/>
<path d="M103.459 99.9969C105.797 97.4452 83.0416 70.664 80.4325 68.2742L62.1908 50.5579C59.1009 47.6648 56.4392 49.4943 53.8713 52.1283L45.3861 61.6975C41.4566 67.5216 43.8576 71.6928 53.814 77.1074C66.7314 84.6436 53.9196 103.506 38.1359 95.4456C30.1697 90.6257 23.7276 90.8411 20.4527 95.9321L14.3853 108.458C13.8159 110.59 14.0564 115.743 17.4034 116.37L50.3705 124.376L78.3242 126.73C82.9855 127.494 87.2582 123.651 89.4298 120.449L103.459 99.9969Z" fill="#C2FFB7" stroke="#15FF00"/>
<path d="M113.999 110.038C115.824 107.881 95.8657 84.5333 93.7962 82.4849L81.3066 69.0682C78.8553 66.5887 76.6579 66.7974 74.6509 69.0223L68.0245 77.1107C64.9641 82.0409 66.8803 85.6034 74.7555 90.269C84.9758 96.757 74.9969 112.724 62.5157 105.773C56.2118 101.625 51.1386 101.769 48.5895 106.08L43.8852 116.698C43.4495 118.508 43.6698 122.892 46.31 123.446L94.3597 132.625C98.0361 133.303 101.379 130.06 103.07 127.35L113.999 110.038Z" fill="#C2FFB7" stroke="#15FF00"/>
<path d="M121.014 119.419C122.472 117.533 122.251 116.499 120.567 114.681L94.3476 83.1115C92.3522 80.9108 90.5806 81.0791 88.9769 83.0241L83.6868 90.0996C81.252 94.4194 82.4962 96.7953 88.8833 100.959L103.895 108.496C112.187 114.282 104.137 129.985 94.0174 123.776L79.4284 114.406C74.3126 110.709 70.2348 111.694 68.2083 115.472L64.323 124.804C63.9841 126.394 64.24 127.091 66.3743 127.597L106.524 136.331C109.495 136.954 110.972 136.961 112.318 134.586L121.014 119.419Z" fill="#C2FFB7" stroke="#15FF00"/>
<path d="M143.998 88.1824C147.401 87.5835 145.59 52.4451 144.969 48.9565L141.24 23.7661C140.543 19.5847 137.32 19.4126 133.685 19.9361L121.145 22.3531C114.493 24.5776 113.868 29.353 118.485 39.7252C124.165 53.5877 102.554 60.7401 94.9174 44.7125C91.5193 36.0267 86.276 32.2669 80.5885 34.309L68.174 40.5479C66.429 41.8921 63.4936 46.1286 65.7695 48.6684L87.0757 75.1377L107.833 94.0617C111.068 97.512 116.79 97.0698 120.456 95.8536L143.998 88.1824Z" fill="#C2FFB7" stroke="#15FF00"/>
<path d="M146.272 102.581C149.029 101.984 147.354 71.2759 146.954 68.3874L145.182 50.119C144.741 46.6556 142.87 45.4805 139.927 46.0216L129.762 48.3975C124.342 50.4429 123.701 54.4394 127.121 62.9472C131.296 74.3323 113.69 80.9153 108.001 67.783C105.515 60.6449 101.401 57.664 96.7629 59.5296L86.5878 65.0859C85.1442 66.2562 82.6589 69.8704 84.4185 71.9207L116.983 108.524C119.49 111.305 124.109 110.771 127.096 109.652L146.272 102.581Z" fill="#C2FFB7" stroke="#15FF00"/>
<path d="M146.148 114.307C148.45 113.7 148.901 112.745 148.668 110.274L147.012 69.2222C146.763 66.2582 145.255 65.3108 142.802 65.8758L134.312 68.2633C129.759 70.206 129.305 72.8507 131.847 80.0525L139.189 95.1937C142.26 104.845 126.344 112.395 122.08 101.293L116.186 84.9549C114.369 78.8996 110.535 77.1931 106.635 78.9547L97.8901 83.9903C96.6563 85.0457 96.4368 85.7546 97.8236 87.4584L124.388 118.888C126.369 121.195 127.536 122.101 130.045 121.038L146.148 114.307Z" fill="#C2FFB7" stroke="#15FF00"/>
<path d="M86.1978 132.126C86.5604 128.678 51.7909 120.919 48.2163 120.574L22.6145 117.359C18.3431 116.901 17.279 119.966 16.7781 123.618L15.6471 136.38C15.966 143.406 20.4489 145.301 31.8476 143.65C46.9456 141.917 47.9089 164.72 30.1555 167.757C20.7402 168.688 15.6153 172.733 16.0246 178.778L18.6554 192.454C19.4808 194.502 22.7954 198.483 25.9052 196.973L57.6435 183.562L81.8711 168.639C86.1358 166.448 87.2962 160.803 87.1299 156.934L86.1978 132.126Z" fill="#C2FFB7" stroke="#15FF00"/>
<path d="M100.871 133.828C101.055 131.004 70.6446 124.312 67.7167 123.917L49.4091 120.685C45.909 120.174 44.2428 121.662 43.952 124.65L43.4411 135.109C43.9281 140.896 47.6471 142.596 56.8948 141.596C69.1583 140.645 70.6804 159.428 56.2922 161.367C48.6397 161.836 44.5885 165.002 45.1177 169.986L47.7057 181.314C48.4453 183.025 51.2784 186.403 53.7672 185.258L98.5189 163.718C101.928 162.05 102.693 157.445 102.432 154.258L100.871 133.828Z" fill="#C2FFB7" stroke="#15FF00"/>
<path d="M112.271 137.119C112.32 134.733 111.514 134.039 109.039 133.595L68.5465 124.086C65.5871 123.524 64.2437 124.724 64.1125 127.245L64.0788 136.09C64.7068 141.012 67.1595 142.166 74.8897 141.66L91.6968 138.668C101.962 138.314 104.898 155.725 92.8854 156.839L75.314 158.109C68.9036 158.225 66.1732 161.465 66.8061 165.708L69.2841 175.515C69.9701 176.992 70.6003 177.396 72.6475 176.517L110.686 159.371C113.486 158.083 114.695 157.2 114.356 154.49L112.271 137.119Z" fill="#C2FFB7" stroke="#15FF00"/>
<path d="M188.469 96.3508C185.924 93.9806 205.891 64.5341 208.244 61.8505L224.6 42.063C227.38 38.8209 230.179 40.425 232.959 42.8566L242.228 51.7723C246.65 57.3181 244.669 61.7939 235.345 68.265C223.295 77.1807 237.702 95.1333 252.532 85.4071C259.947 79.7334 266.326 79.3299 270.034 84.193L277.192 96.3508C277.953 98.4644 278.196 103.731 274.95 104.692L243.151 116.024L215.775 121.12C211.245 122.347 206.668 118.851 204.226 115.803L188.469 96.3508Z" fill="#C2FFB7" stroke="#15FF00"/>
<path d="M179.886 106.742C177.906 104.682 195.228 78.4576 197.059 76.1253L208.008 60.9549C210.171 58.1372 212.335 58.1372 214.498 60.2505L221.709 67.9991C225.149 72.8189 223.608 76.7088 216.354 82.3328C206.98 90.0814 218.188 105.684 229.725 97.2309C235.493 92.3 240.456 91.9493 243.341 96.1758L248.909 106.742C249.501 108.579 249.69 113.156 247.165 113.991L201.129 128.269C197.605 129.336 194.045 126.297 192.145 123.648L179.886 106.742Z" fill="#C2FFB7" stroke="#15FF00"/>
<path d="M173.805 116.99C172.18 115.285 172.303 114.255 173.805 112.324L196.881 79.0786C198.656 76.7455 200.431 76.7455 202.206 78.4953L208.123 84.9111C210.947 88.9019 209.934 91.3364 203.982 95.993L189.781 104.742C182.089 111.158 191.556 125.739 201.023 118.74L214.632 108.241C219.366 104.159 223.508 104.742 225.874 108.241L230.608 116.99C231.094 118.511 230.905 119.215 228.833 119.906L189.781 132.155C186.889 133.038 185.423 133.182 183.864 130.988L173.805 116.99Z" fill="#C2FFB7" stroke="#15FF00"/>
<path d="M147.358 87.4632C143.914 87.1889 142.413 52.0356 142.703 48.5039L144.047 23.0731C144.348 18.8444 147.54 18.3684 151.209 18.5457L163.92 19.7661C170.751 21.3516 171.822 26.0466 168.201 36.8092C163.851 51.147 186.038 56.2238 192.133 39.5456C194.699 30.577 199.566 26.3381 205.42 27.8333L218.366 32.8704C220.229 34.0436 223.55 37.9835 221.523 40.7273L202.8 69.0935L183.916 89.8962C181.018 93.6371 175.28 93.738 171.516 92.8739L147.358 87.4632Z" fill="#C2FFB7" stroke="#15FF00"/>
<path d="M146.451 102.013C143.65 101.679 142.43 70.9501 142.557 68.0367L142.603 49.6821C142.717 46.1923 144.469 44.8456 147.449 45.106L157.793 46.5099C163.381 48.0337 164.394 51.9518 161.79 60.7451C158.704 72.4742 176.851 77.3629 181.279 63.7513C183.083 56.4097 186.899 53.0531 191.691 54.4718L202.344 59.0411C203.891 60.0697 206.705 63.4328 205.146 65.6403L176.168 105.16C173.934 108.165 169.285 108.071 166.206 107.239L146.451 102.013Z" fill="#C2FFB7" stroke="#15FF00"/>
<path d="M147.675 113.676C145.327 113.289 144.788 112.381 144.788 109.899L142.576 68.8734C142.545 65.8991 143.957 64.8133 146.452 65.1439L155.13 66.7178C159.845 68.2212 160.546 70.8112 158.691 78.2214L152.807 93.9894C150.657 103.888 167.211 109.9 170.413 98.4433L174.744 81.6209C175.984 75.4207 179.64 73.3593 183.688 74.7442L192.868 78.9304C194.195 79.8644 194.48 80.5493 193.26 82.3767L169.769 116.179C168.014 118.663 166.937 119.675 164.339 118.854L147.675 113.676Z" fill="#C2FFB7" stroke="#15FF00"/>
<path d="M209.391 129.506C208.706 126.107 242.591 115.095 246.117 114.414L271.302 108.792C275.512 107.931 276.859 110.882 277.701 114.471L280.027 127.069C280.37 134.093 276.086 136.405 264.583 135.839C249.389 135.541 250.574 158.334 268.534 159.678C277.995 159.714 283.477 163.257 283.638 169.314L282.305 183.177C281.676 185.295 278.75 189.572 275.512 188.362L242.654 178.012L217.132 165.447C212.68 163.669 210.994 158.159 210.796 154.292L209.391 129.506Z" fill="#C2FFB7" stroke="#15FF00"/>
<path d="M194.941 132.588C194.492 129.794 224.138 120.257 227.015 119.586L244.938 114.637C248.374 113.797 250.173 115.121 250.743 118.068L252.235 128.433C252.295 134.24 248.752 136.284 239.451 136.163C227.153 136.376 227.404 155.219 241.91 155.789C249.573 155.532 253.904 158.301 253.845 163.312L252.334 174.835C251.759 176.608 249.256 180.239 246.671 179.335L200.093 162.123C196.542 160.785 195.348 156.272 195.308 153.075L194.941 132.588Z" fill="#C2FFB7" stroke="#15FF00"/>
<path d="M183.901 136.943C183.629 134.572 184.366 133.804 186.788 133.129L226.206 119.833C229.099 118.994 230.549 120.061 230.917 122.559L231.782 131.361C231.62 136.321 229.287 137.701 221.543 137.928L204.53 136.539C194.277 137.157 192.991 154.769 205.055 154.741L222.668 154.344C229.06 153.854 232.083 156.821 231.852 161.105L230.307 171.102C229.763 172.638 229.174 173.099 227.053 172.419L187.572 158.945C184.663 157.928 183.377 157.164 183.46 154.434L183.901 136.943Z" fill="#C2FFB7" stroke="#15FF00"/>
<path d="M107.862 197.168C110.564 199.327 92.2031 229.31 89.993 232.075L74.6965 252.402C72.0888 255.739 69.1774 254.343 66.2349 252.138L56.3788 243.997C51.6 238.851 53.3303 234.358 62.3341 227.467C73.9369 218.022 58.3756 201.369 44.0216 211.776C36.8926 217.771 30.4945 218.555 26.4754 214.032L18.5529 202.595C17.6623 200.577 17.1068 195.449 20.3173 194.311L51.6572 181.298L78.9137 174.646C83.4017 173.17 88.2145 176.305 90.8529 179.132L107.862 197.168Z" fill="#C2FFB7" stroke="#15FF00"/>
<path d="M116.728 185.616C118.863 187.464 102.737 213.622 101.008 215.966L90.7325 231.155C88.6921 233.984 86.489 234.118 84.1636 232.231L76.3718 225.265C72.5893 220.867 73.9343 217.051 80.9971 211.222C90.0964 203.23 77.7797 188.999 66.5179 197.799C60.9279 202.873 55.8932 203.515 52.7113 199.651L46.4293 189.888C45.7202 188.168 45.2631 183.801 47.7865 182.846L93.8478 166.339C97.3758 165.101 101.177 167.787 103.266 170.203L116.728 185.616Z" fill="#C2FFB7" stroke="#15FF00"/>
<path d="M122.217 175.26C123.948 176.898 123.888 177.953 122.504 180.01L101.458 215.26C99.8248 217.743 98.0485 217.851 96.1646 216.177L89.849 210.005C86.7786 206.114 87.6422 203.574 93.312 198.472L106.984 188.701C114.286 181.702 103.916 167.433 94.8731 175.134L81.9009 186.65C77.4154 191.094 73.2349 190.752 70.6512 187.333L65.3763 178.714C64.7967 177.195 64.9423 176.468 66.9732 175.637L105.298 160.793C108.137 159.718 109.595 159.483 111.29 161.621L122.217 175.26Z" fill="#C2FFB7" stroke="#15FF00"/>
<path d="M145.423 208.616C148.857 208.998 149.259 244.181 148.859 247.702L146.721 273.078C146.288 277.295 143.083 277.671 139.422 277.378L126.755 275.759C119.977 273.96 119.053 269.234 123.008 258.59C127.805 244.396 105.787 238.625 99.1736 255.103C96.3284 263.987 91.3321 268.071 85.5274 266.392L72.7453 260.951C70.9192 259.72 67.7232 255.677 69.8349 252.999L89.4342 225.235L108.96 205.035C111.972 201.387 117.711 201.467 121.446 202.449L145.423 208.616Z" fill="#C2FFB7" stroke="#15FF00"/>
<path d="M146.787 194.102C149.576 194.524 149.835 225.276 149.618 228.184L148.998 246.528C148.775 250.013 146.982 251.304 144.012 250.95L133.717 249.222C128.179 247.523 127.289 243.575 130.166 234.868C133.617 223.242 115.632 217.785 110.781 231.251C108.748 238.532 104.83 241.767 100.084 240.199L89.5793 235.297C88.0649 234.22 85.3574 230.771 86.9845 228.613L117.183 190.024C119.509 187.09 124.153 187.33 127.204 188.258L146.787 194.102Z" fill="#C2FFB7" stroke="#15FF00"/>
<path d="M145.926 182.405C148.261 182.865 148.771 183.79 148.694 186.271L149.623 227.346C149.561 230.319 148.116 231.36 145.632 230.951L137.008 229.106C132.342 227.455 131.723 224.844 133.807 217.496L140.182 201.92C142.64 192.095 126.281 185.566 122.724 196.916L117.869 213.594C116.436 219.752 112.717 221.697 108.714 220.186L99.67 215.714C98.3723 214.738 98.1087 214.045 99.3856 212.257L123.921 179.209C125.752 176.782 126.861 175.803 129.431 176.706L145.926 182.405Z" fill="#C2FFB7" stroke="#15FF00"/>
<ellipse cx="147.08" cy="146.28" rx="41.1652" ry="40.5651" fill="#15FF00"/>
<path d="M145.652 158.284C145.652 154.098 142.715 152.304 139.778 156.49L126.854 174.43C125.19 177.091 125.541 178.044 127.442 179.214C132.476 182.139 135.217 183.87 142.715 183.998C145.235 183.827 145.738 182.607 145.652 179.214V158.284Z" fill="#C2FFB7" stroke="#C2FFB7" stroke-width="0.2"/>
<path d="M139.246 155.425C141.72 152.081 140.399 148.876 135.543 150.447L114.458 156.978C111.535 158.099 111.257 159.072 112.107 161.154C114.46 166.529 115.659 169.566 121.663 174.193C123.807 175.577 124.937 174.907 126.873 172.144L139.246 155.425Z" fill="#C2FFB7" stroke="#C2FFB7" stroke-width="0.2"/>
<path d="M145.67 158.284C145.67 154.098 148.817 152.304 151.964 156.49L165.811 174.43C167.594 177.091 167.217 178.044 165.181 179.214C159.787 182.139 156.85 183.87 148.817 183.998C146.118 183.827 145.578 182.607 145.67 179.214V158.284Z" fill="#C2FFB7" stroke="#C2FFB7" stroke-width="0.2"/>
<path d="M153.753 155.425C151.278 152.081 152.599 148.876 157.456 150.447L178.54 156.978C181.463 158.099 181.741 159.072 180.892 161.154C178.539 166.529 177.34 169.566 171.336 174.193C169.192 175.577 168.062 174.907 166.126 172.144L153.753 155.425Z" fill="#C2FFB7" stroke="#C2FFB7" stroke-width="0.2"/>
<path d="M145.67 133.051C145.67 137.037 148.817 138.746 151.964 134.759L165.811 117.674C167.594 115.139 167.217 114.232 165.181 113.118C159.787 110.332 156.85 108.683 148.817 108.562C146.118 108.724 145.578 109.886 145.67 113.118V133.051Z" fill="#C2FFB7" stroke="#C2FFB7" stroke-width="0.2"/>
<path d="M153.753 135.483C151.278 138.827 152.599 142.032 157.456 140.461L178.54 133.93C181.463 132.809 181.741 131.836 180.892 129.754C178.539 124.379 177.34 121.342 171.336 116.715C169.192 115.331 168.062 116.001 166.126 118.764L153.753 135.483Z" fill="#C2FFB7" stroke="#C2FFB7" stroke-width="0.2"/>
<path d="M145.652 133.051C145.652 137.037 142.715 138.746 139.778 134.759L126.854 117.674C125.19 115.139 125.541 114.232 127.442 113.118C132.476 110.332 135.217 108.683 142.715 108.562C145.235 108.724 145.738 109.886 145.652 113.118V133.051Z" fill="#C2FFB7" stroke="#C2FFB7" stroke-width="0.2"/>
<path d="M139.246 135.483C141.72 138.827 140.399 142.032 135.543 140.461L114.458 133.93C111.535 132.809 111.257 131.836 112.107 129.754C114.46 124.379 115.659 121.342 121.663 116.715C123.807 115.331 124.937 116.001 126.873 118.764L139.246 135.483Z" fill="#C2FFB7" stroke="#C2FFB7" stroke-width="0.2"/>
<path d="M134.253 142.057C138.26 143.149 139.199 146.487 134.415 148.266L113.821 156.216C110.832 157.149 110.013 156.556 109.397 154.394C107.93 148.711 106.998 145.581 108.861 138.221C109.691 135.803 110.993 135.629 114.218 136.598L134.253 142.057Z" fill="#C2FFB7" stroke="#C2FFB7" stroke-width="0.2"/>
<path d="M159.393 142.057C155.386 143.149 154.446 146.487 159.231 148.266L179.825 156.216C182.813 157.149 183.632 156.556 184.249 154.394C185.716 148.711 186.648 145.581 184.785 138.221C183.954 135.803 182.653 135.629 179.428 136.598L159.393 142.057Z" fill="#C2FFB7" stroke="#C2FFB7" stroke-width="0.2"/>
<ellipse cx="147.72" cy="148.5" rx="62.3256" ry="60.7617" fill="white"/>
<ellipse cx="147.719" cy="148.501" rx="34.2791" ry="33.4189" fill="#D9D9D9"/>
<ellipse cx="147.72" cy="99.8914" rx="4.67442" ry="4.55713" fill="#D9D9D9"/>
<ellipse cx="172.65" cy="105.967" rx="4.67442" ry="4.55713" fill="#D9D9D9"/>
<ellipse cx="183.557" cy="113.563" rx="4.67442" ry="4.55713" fill="#D9D9D9"/>
<ellipse cx="191.347" cy="122.677" rx="4.67442" ry="4.55713" fill="#D9D9D9"/>
<ellipse cx="172.65" cy="194.072" rx="4.67442" ry="4.55713" fill="#D9D9D9"/>
<ellipse cx="160.185" cy="198.629" rx="4.67442" ry="4.55713" fill="#D9D9D9"/>
<ellipse cx="147.72" cy="200.148" rx="4.67442" ry="4.55713" fill="#D9D9D9"/>
<ellipse cx="122.79" cy="192.553" rx="4.67442" ry="4.55713" fill="#D9D9D9"/>
<ellipse cx="111.882" cy="184.958" rx="4.67442" ry="4.55713" fill="#D9D9D9"/>
<ellipse cx="104.091" cy="174.324" rx="4.67442" ry="4.55713" fill="#D9D9D9"/>
<ellipse cx="96.3009" cy="150.02" rx="4.67442" ry="4.55713" fill="#D9D9D9"/>
<ellipse cx="99.4181" cy="136.348" rx="4.67442" ry="4.55713" fill="#D9D9D9"/>
<ellipse cx="104.091" cy="124.196" rx="4.67442" ry="4.55713" fill="#D9D9D9"/>
<ellipse cx="133.697" cy="101.41" rx="4.67442" ry="4.55713" fill="#D9D9D9"/>
<ellipse cx="121.232" cy="107.487" rx="4.67442" ry="4.55713" fill="#D9D9D9"/>
<path d="M201.475 140.149C203.293 139.136 208 136.205 208 136.237C213.648 158.708 202.863 180.561 191.846 190.279L181.999 175.087C191.143 162.788 192.887 155.055 191.347 140.149L198.359 136.352L201.475 140.149Z" fill="#D9D9D9" stroke="#D9D9D9"/>
<ellipse cx="147.72" cy="148.501" rx="24.9302" ry="24.3047" fill="#939393"/>
<rect x="146.162" y="168.248" width="3.11628" height="9.11426" fill="#D9D9D9"/>
<rect x="146.162" y="119.639" width="3.11628" height="9.11426" fill="#D9D9D9"/>
<rect x="169.534" y="150.02" width="3.03809" height="9.34883" transform="rotate(-90 169.534 150.02)" fill="#D9D9D9"/>
<rect x="118.115" y="150.02" width="3.03809" height="9.34883" transform="rotate(-90 118.115 150.02)" fill="#D9D9D9"/>
<rect width="3.07483" height="9.24009" transform="matrix(0.692403 -0.721511 0.738832 0.67389 125.906 129.453)" fill="#D9D9D9"/>
<rect width="3.07483" height="9.24009" transform="matrix(0.692404 -0.72151 0.738833 0.673889 161.743 164.39)" fill="#D9D9D9"/>
<rect width="3.07178" height="9.2492" transform="matrix(0.663569 0.748115 -0.764563 0.644549 131.272 160.82)" fill="#D9D9D9"/>
<rect width="3.07178" height="9.2492" transform="matrix(0.663568 0.748116 -0.764562 0.644551 168.815 127.234)" fill="#D9D9D9"/>
<ellipse cx="147.72" cy="148.5" rx="62.3256" ry="60.7617" fill="white"/>
<ellipse cx="147.719" cy="148.501" rx="34.2791" ry="33.4189" fill="#D9D9D9"/>
<ellipse cx="147.72" cy="99.8914" rx="4.67442" ry="4.55713" fill="#D9D9D9"/>
<ellipse cx="172.65" cy="105.967" rx="4.67442" ry="4.55713" fill="#D9D9D9"/>
<ellipse cx="183.557" cy="113.563" rx="4.67442" ry="4.55713" fill="#D9D9D9"/>
<ellipse cx="191.347" cy="122.677" rx="4.67442" ry="4.55713" fill="#D9D9D9"/>
<ellipse cx="172.65" cy="194.072" rx="4.67442" ry="4.55713" fill="#D9D9D9"/>
<ellipse cx="160.185" cy="198.629" rx="4.67442" ry="4.55713" fill="#D9D9D9"/>
<ellipse cx="147.72" cy="200.148" rx="4.67442" ry="4.55713" fill="#D9D9D9"/>
<ellipse cx="122.79" cy="192.553" rx="4.67442" ry="4.55713" fill="#D9D9D9"/>
<ellipse cx="111.882" cy="184.958" rx="4.67442" ry="4.55713" fill="#D9D9D9"/>
<ellipse cx="104.091" cy="174.324" rx="4.67442" ry="4.55713" fill="#D9D9D9"/>
<ellipse cx="96.3009" cy="150.02" rx="4.67442" ry="4.55713" fill="#D9D9D9"/>
<ellipse cx="99.4181" cy="136.348" rx="4.67442" ry="4.55713" fill="#D9D9D9"/>
<ellipse cx="104.091" cy="124.196" rx="4.67442" ry="4.55713" fill="#D9D9D9"/>
<ellipse cx="133.697" cy="101.41" rx="4.67442" ry="4.55713" fill="#D9D9D9"/>
<ellipse cx="121.232" cy="107.487" rx="4.67442" ry="4.55713" fill="#D9D9D9"/>
<path d="M201.475 140.149C203.293 139.136 208 136.205 208 136.237C213.648 158.708 202.863 180.561 191.846 190.279L181.999 175.087C191.143 162.788 192.887 155.055 191.347 140.149L198.359 136.352L201.475 140.149Z" fill="#D9D9D9" stroke="#D9D9D9"/>
<ellipse cx="147.72" cy="148.501" rx="24.9302" ry="24.3047" fill="#287621"/>
<rect x="146.162" y="168.248" width="3.11628" height="9.11426" fill="#D9D9D9"/>
<rect x="146.162" y="119.639" width="3.11628" height="9.11426" fill="#D9D9D9"/>
<rect x="169.534" y="150.02" width="3.03809" height="9.34883" transform="rotate(-90 169.534 150.02)" fill="#D9D9D9"/>
<rect x="118.115" y="150.02" width="3.03809" height="9.34883" transform="rotate(-90 118.115 150.02)" fill="#D9D9D9"/>
<rect width="3.07483" height="9.24009" transform="matrix(0.692403 -0.721511 0.738832 0.67389 125.906 129.453)" fill="#D9D9D9"/>
<rect width="3.07483" height="9.24009" transform="matrix(0.692404 -0.72151 0.738833 0.673889 161.743 164.39)" fill="#D9D9D9"/>
<rect width="3.07178" height="9.2492" transform="matrix(0.663569 0.748115 -0.764563 0.644549 131.272 160.82)" fill="#D9D9D9"/>
<rect width="3.07178" height="9.2492" transform="matrix(0.663568 0.748116 -0.764562 0.644551 168.815 127.234)" fill="#D9D9D9"/>
</g>
<defs>
<clipPath id="clip0_474_1111">
<rect width="297" height="297" fill="white"/>
</clipPath>
</defs>
</svg>
