<svg width="297" height="297" viewBox="0 0 297 297" fill="none" xmlns="http://www.w3.org/2000/svg">
<g clip-path="url(#clip0_474_912)">
<path d="M149.721 118.866C149.807 115.773 150.31 114.57 153.891 115.531L160.842 117.754C162.689 118.617 162.507 119.674 161.347 121.954L154.397 134.798C152.628 138.504 149.721 139.245 149.721 133.193V118.866Z" fill="#FF8CBB" stroke="#FF80B4" stroke-width="0.2"/>
<path d="M148.197 118.818C148.111 115.725 147.608 114.522 144.027 115.483L137.077 117.706C135.229 118.569 135.411 119.626 136.571 121.906L143.522 134.751C145.291 138.456 148.197 139.197 148.197 133.145V118.818Z" fill="#FF8CBB" stroke="#FF80B4" stroke-width="0.2"/>
<path d="M126.097 129.691C123.576 127.818 122.87 126.717 125.758 124.435L131.66 120.215C133.455 119.251 134.227 120.012 135.445 122.263L142.065 135.274C144.112 138.84 143.032 141.579 138.003 138.049L126.097 129.691Z" fill="#FF8CBB" stroke="#FF80B4" stroke-width="0.2"/>
<path d="M125.743 130.06C123.229 128.18 121.955 127.805 120.467 131.131L117.864 137.81C117.388 139.756 118.343 140.283 120.886 140.836L135.475 143.634C139.535 144.621 141.952 142.878 137.139 139.072L125.743 130.06Z" fill="#FF8CBB" stroke="#FF80B4" stroke-width="0.2"/>
<path d="M172.003 129.691C174.523 127.818 175.229 126.717 172.341 124.435L166.439 120.215C164.645 119.251 163.872 120.012 162.655 122.263L156.035 135.274C153.988 138.84 155.068 141.579 160.097 138.049L172.003 129.691Z" fill="#FF8CBB" stroke="#FF80B4" stroke-width="0.2"/>
<path d="M172.356 130.06C174.87 128.18 176.144 127.805 177.632 131.131L180.235 137.81C180.711 139.756 179.756 140.283 177.213 140.836L162.624 143.634C158.564 144.621 156.146 142.878 160.96 139.072L172.356 130.06Z" fill="#FF8CBB" stroke="#FF80B4" stroke-width="0.2"/>
<path d="M149.467 176.825C149.553 179.918 150.056 181.121 153.638 180.159L160.588 177.936C162.435 177.074 162.254 176.016 161.093 173.737L154.143 160.892C152.374 157.187 149.467 156.446 149.467 162.498V176.825Z" fill="#FF8CBB" stroke="#FF80B4" stroke-width="0.2"/>
<path d="M147.944 176.873C147.859 179.966 147.355 181.169 143.774 180.208L136.824 177.985C134.976 177.122 135.158 176.065 136.318 173.785L143.269 160.94C145.038 157.235 147.944 156.494 147.944 162.546V176.873Z" fill="#FF8CBB" stroke="#FF80B4" stroke-width="0.2"/>
<path d="M125.843 166C123.323 167.872 122.617 168.973 125.505 171.255L131.407 175.476C133.201 176.439 133.974 175.678 135.192 173.427L141.811 160.416C143.858 156.85 142.779 154.111 137.749 157.642L125.843 166Z" fill="#FF8CBB" stroke="#FF80B4" stroke-width="0.2"/>
<path d="M125.492 165.632C122.978 167.512 121.704 167.887 120.216 164.561L117.613 157.882C117.137 155.936 118.092 155.409 120.635 154.856L135.224 152.058C139.284 151.071 141.702 152.814 136.888 156.62L125.492 165.632Z" fill="#FF8CBB" stroke="#FF80B4" stroke-width="0.2"/>
<path d="M171.75 166C174.27 167.872 174.976 168.973 172.088 171.255L166.186 175.476C164.391 176.439 163.619 175.678 162.401 173.427L155.782 160.416C153.734 156.85 154.814 154.111 159.844 157.642L171.75 166Z" fill="#FF8CBB" stroke="#FF80B4" stroke-width="0.2"/>
<path d="M172.103 165.632C174.617 167.512 175.891 167.887 177.379 164.561L179.982 157.882C180.458 155.936 179.503 155.409 176.96 154.856L162.371 152.058C158.311 151.071 155.893 152.814 160.707 156.62L172.103 165.632Z" fill="#FF8CBB" stroke="#FF80B4" stroke-width="0.2"/>
<path d="M162.105 150.113C158.946 149.248 158.819 146.531 162.737 145.419L177.522 142.208C179.774 141.849 180.68 142.261 181.819 143.814C183.262 146.952 183.687 148.696 182.198 151.718C181.165 153.261 180.05 154.022 176.89 153.324C172.046 152.254 162.307 150.113 162.105 150.113Z" fill="#FF8CBB" stroke="#FF80B4" stroke-width="0.2"/>
<path d="M135.991 150.11C139.15 149.246 139.277 146.529 135.359 145.417L120.574 142.206C118.322 141.847 117.417 142.258 116.277 143.811C114.835 146.95 114.409 148.694 115.898 151.716C116.931 153.259 118.047 154.02 121.206 153.322C126.05 152.251 135.789 150.11 135.991 150.11Z" fill="#FF8CBB" stroke="#FF80B4" stroke-width="0.2"/>
<path d="M132.66 181.361C130.133 187.29 129.441 191.496 126.468 197.047C123.846 202.101 122.121 202.65 118.633 200.134C114.468 198.271 111.971 198.123 107.007 200.629C104.764 201.746 103.58 202.532 99.2981 199.146C97.5526 196.984 98.0344 195.688 100.815 191.489C102.509 188.008 103.064 186.036 100.815 182.349C97.5289 178.274 101.886 169.691 112.314 170.863C116.106 171.216 117.195 170.823 119.138 170.122C120.781 169.218 122.045 170.122 123.814 171.975C125.792 173.773 127.078 174.689 130.133 175.927C132.989 177.068 133.892 178.075 132.66 181.361Z" fill="#FF8CBB" stroke="#FF80B4" stroke-width="0.2"/>
<path d="M121.792 186.795C119.98 190.882 117.748 193.218 113.831 193.094C111.453 192.989 110.16 192.246 107.891 190.377C106.432 188.212 105.211 187.093 107.891 183.954C111.683 180.002 113.325 175.926 118.001 176.42C120.313 177.398 121.605 177.951 122.677 180.743C123.604 182.709 121.792 184.695 121.792 186.795Z" fill="#FF8CBB" stroke="#FF80B4" stroke-width="0.2"/>
<path d="M132.671 114.398C130.143 108.469 129.452 104.263 126.479 98.7122C123.857 93.6584 122.132 93.1092 118.644 95.6245C114.479 97.4877 111.982 97.636 107.017 95.1305C104.775 94.0134 103.59 93.2266 99.3088 96.6126C97.5633 98.7748 98.0451 100.071 100.825 104.27C102.52 107.751 103.075 109.723 100.825 113.41C97.5396 117.486 101.897 126.068 112.325 124.896C116.117 124.544 117.206 124.936 119.149 125.637C120.792 126.541 122.056 125.637 123.825 123.784C125.803 121.986 127.089 121.07 130.143 119.832C133 118.691 133.903 117.684 132.671 114.398Z" fill="#FF8CBB" stroke="#FF80B4" stroke-width="0.2"/>
<path d="M121.804 108.964C119.992 104.878 117.76 102.542 113.843 102.665C111.465 102.771 110.172 103.514 107.903 105.382C106.443 107.548 105.223 108.667 107.903 111.805C111.694 115.757 113.337 119.833 118.013 119.339C120.325 118.362 121.617 117.808 122.689 115.016C123.616 113.051 121.804 111.064 121.804 108.964Z" fill="#FF8CBB" stroke="#FF80B4" stroke-width="0.2"/>
<path d="M165.549 114.398C168.076 108.469 168.768 104.263 171.741 98.7122C174.363 93.6584 176.088 93.1092 179.576 95.6245C183.741 97.4877 186.238 97.636 191.202 95.1305C193.445 94.0134 194.629 93.2266 198.911 96.6126C200.656 98.7748 200.175 100.071 197.394 104.27C195.7 107.751 195.145 109.723 197.394 113.41C200.68 117.486 196.323 126.068 185.895 124.896C182.103 124.544 181.014 124.936 179.071 125.637C177.428 126.541 176.164 125.637 174.395 123.784C172.417 121.986 171.131 121.07 168.076 119.832C165.22 118.691 164.317 117.684 165.549 114.398Z" fill="#FF8CBB" stroke="#FF80B4" stroke-width="0.2"/>
<path d="M176.417 108.964C178.229 104.878 180.461 102.542 184.378 102.665C186.756 102.771 188.049 103.514 190.318 105.382C191.777 107.548 192.998 108.667 190.318 111.805C186.526 115.757 184.884 119.833 180.208 119.339C177.896 118.362 176.604 117.808 175.532 115.016C174.605 113.051 176.417 111.064 176.417 108.964Z" fill="#FF8CBB" stroke="#FF80B4" stroke-width="0.2"/>
<path d="M165.549 181.345C168.076 187.274 168.768 191.48 171.741 197.031C174.363 202.085 176.088 202.634 179.576 200.119C183.741 198.255 186.238 198.107 191.202 200.613C193.445 201.73 194.629 202.517 198.911 199.131C200.656 196.968 200.175 195.672 197.394 191.473C195.7 187.992 195.145 186.02 197.394 182.333C200.68 178.258 196.323 169.675 185.895 170.847C182.103 171.2 181.014 170.807 179.071 170.106C177.428 169.202 176.164 170.106 174.395 171.959C172.417 173.757 171.131 174.673 168.076 175.911C165.22 177.052 164.317 178.059 165.549 181.345Z" fill="#FF8CBB" stroke="#FF80B4" stroke-width="0.2"/>
<path d="M176.417 186.779C178.229 190.865 180.461 193.201 184.378 193.078C186.756 192.972 188.049 192.229 190.318 190.361C191.777 188.195 192.998 187.076 190.318 183.938C186.526 179.986 184.884 175.91 180.208 176.404C177.896 177.381 176.604 177.935 175.532 180.727C174.605 182.692 176.417 184.679 176.417 186.779Z" fill="#FF8CBB" stroke="#FF80B4" stroke-width="0.2"/>
<path d="M115.474 156.412C113.233 149.891 113.373 146.01 114.968 138.874C108.523 138.503 107.386 134.428 105.617 133.563C102.004 131.74 100.099 130.573 94.7491 130.846C91.7161 131.093 89.0215 131.34 87.2932 137.145C87.0404 138.874 84.9832 141.303 79.5845 142.209C74.5298 144.061 74.0242 151.348 81.9856 154.189C89.6942 156.783 87.2932 160.117 90.7052 163.452C93.6117 166.416 101.091 166.527 107.386 160.117C110.293 157.277 112.313 157.161 115.474 156.412Z" fill="#FF8CBB" stroke="#FF80B4" stroke-width="0.2"/>
<path d="M93.9898 153.817C87.5449 152.088 88.6824 143.319 94.1162 141.714C96.0117 141.096 99.0798 141.139 101.698 142.208C104.582 143.948 107.006 145.172 106.753 148.507C106.501 150.359 105.323 151.774 102.457 153.076C99.6446 153.876 98.2524 154.515 93.9898 153.817Z" fill="#FF8CBB" stroke="#FF80B4" stroke-width="0.2"/>
<path d="M182.703 156.081C184.944 149.56 184.804 145.679 183.209 138.543C189.654 138.172 190.791 134.097 192.56 133.232C196.173 131.409 198.078 130.242 203.428 130.515C206.461 130.762 209.156 131.009 210.884 136.814C211.137 138.543 213.194 140.972 218.593 141.878C223.647 143.73 224.153 151.017 216.192 153.858C208.483 156.452 210.884 159.786 207.472 163.121C204.566 166.085 197.087 166.196 190.791 159.786C187.885 156.946 185.864 156.83 182.703 156.081Z" fill="#FF8CBB" stroke="#FF80B4" stroke-width="0.2"/>
<path d="M204.186 153.488C210.631 151.758 209.494 142.989 204.06 141.384C202.165 140.766 199.097 140.81 196.478 141.878C193.594 143.618 191.17 144.842 191.423 148.177C191.676 150.029 192.853 151.444 195.72 152.747C198.532 153.547 199.924 154.185 204.186 153.488Z" fill="#FF8CBB" stroke="#FF80B4" stroke-width="0.2"/>
<path d="M135.188 116.518C139.789 115.93 142.189 115.279 145.803 112.936C147.439 111.913 147.972 111.241 145.803 109.231C128.238 99.8445 137.084 87.6172 147.952 87.2467L148.331 78.4776C148.331 76.9955 146.562 76.2546 144.666 76.9955C139.232 78.4776 138.853 74.5254 135.188 86.1351C134.054 88.9834 130.892 90.5815 126.595 91.3224C123.689 91.4461 123.183 91.1991 122.046 89.5933L119.771 86.1351C117.949 82.6807 116.608 82.6256 113.958 84.0354L106.249 87.2467C102.952 88.4561 101.18 87.7384 98.0352 86.1351C93.4859 82.43 87.5465 89.5933 89.9475 92.928C92.475 96.5099 94.876 97.992 92.475 100.956C85.7773 110.343 89.1893 110.219 90.8321 112.936C94.7703 117.473 93.9914 122.694 88.4311 128.128C79.8379 128.128 77.8159 128.128 76.1731 133.439C75.5412 137.144 74.4039 141.714 71.8765 141.714C67.8128 142.289 64.7105 141.911 64.6733 145.913V148.754C64.7104 152.983 67.552 152.786 71.371 153.571C74.0248 153.941 75.4531 156.863 76.1731 160.981C77.3606 165.767 78.2086 168.165 82.8708 167.527C86.413 167.437 88.7226 167.049 89.9475 169.38L92.475 175.185C93.7104 178.198 93.3262 179.551 91.464 181.607C87.8418 185.208 87.2417 187.422 90.5794 191.982C94.0137 195.617 94.5142 197.552 91.9695 200.751C89.7956 203.447 88.547 204.956 91.464 208.161L92.9804 210.014C94.3665 211.259 95.1687 211.691 96.7716 210.632C100.959 207.466 103.321 206.022 107.766 208.532L112.694 211.249C116.024 213.151 117.762 213.897 119.266 211.249L121.667 206.309C122.748 203.955 123.761 203.74 125.963 204.456C132.156 206.914 135.595 208.307 136.705 212.855C138.372 216.696 139.582 218.618 145.172 219.154C147.203 219.359 148.085 219.18 148.078 217.054V210.014C147.99 208.459 147.903 207.6 144.666 207.173C132.914 205.938 134.683 192.599 144.034 187.041C146.067 186.089 146.519 185.35 146.309 183.46C146.183 182.225 140.266 179.848 135.441 179.384" stroke="#FF80B4" stroke-width="0.5"/>
<path d="M162.736 116.439C158.136 115.851 155.736 115.199 152.121 112.857C150.486 111.834 149.953 111.162 152.121 109.152C169.687 99.7654 160.841 87.5381 149.973 87.1676L149.594 78.3985C149.594 76.9164 151.363 76.1755 153.259 76.9164C158.693 78.3985 159.072 74.4463 162.736 86.056C163.871 88.9043 167.033 90.5024 171.33 91.2433C174.236 91.367 174.742 91.12 175.879 89.5142L178.154 86.056C179.976 82.6016 181.317 82.5465 183.967 83.9563L191.675 87.1676C194.973 88.377 196.745 87.6593 199.89 86.056C204.439 82.3509 210.378 89.5142 207.977 92.8489C205.45 96.4308 203.049 97.9129 205.45 100.877C212.148 110.264 208.735 110.14 207.093 112.857C203.154 117.394 203.933 122.615 209.494 128.049C218.087 128.049 220.109 128.049 221.752 133.36C222.384 137.065 223.521 141.635 226.048 141.635C230.112 142.21 233.214 141.832 233.251 145.834V148.675C233.214 152.904 230.373 152.706 226.554 153.492C223.9 153.862 222.472 156.784 221.752 160.902C220.564 165.688 219.716 168.086 215.054 167.448C211.512 167.358 209.202 166.97 207.977 169.301L205.45 175.106C204.214 178.119 204.599 179.472 206.461 181.528C210.083 185.129 210.683 187.343 207.345 191.903C203.911 195.538 203.411 197.473 205.955 200.672C208.129 203.368 209.378 204.877 206.461 208.082L204.944 209.935C203.558 211.18 202.756 211.612 201.153 210.552C196.966 207.387 194.603 205.943 190.159 208.453L185.23 211.17C181.901 213.072 180.162 213.818 178.659 211.17L176.258 206.23C175.177 203.876 174.164 203.661 171.962 204.377C165.768 206.835 162.33 208.228 161.22 212.776C159.553 216.617 158.343 218.539 152.753 219.074C150.722 219.28 149.84 219.101 149.847 216.975V209.935C149.935 208.38 150.022 207.521 153.259 207.094C165.011 205.859 163.242 192.52 153.89 186.962C151.858 186.01 151.406 185.271 151.616 183.381C151.742 182.146 157.659 179.768 162.484 179.305" stroke="#FF80B4" stroke-width="0.5"/>
<path d="M149.595 224.341C149.974 219.401 155.661 221.501 159.579 218.784C164.76 214.708 162.359 208.903 170.573 206.556C172.69 205.771 173.772 205.797 175.249 207.915L177.65 211.991C178.895 214.209 178.389 214.952 176.386 215.819L166.908 219.401C164.379 220.021 162.904 220.297 162.359 223.477V227.553C162.359 230.023 159.462 230.694 155.661 231.011C151.112 231.011 149.677 230.797 149.595 227.553V224.341Z" fill="#FF8CBB" stroke="#FF80B4" stroke-width="0.2"/>
<path d="M148.248 224.322C147.869 219.382 142.182 221.481 138.265 218.764C133.084 214.688 135.485 208.883 127.27 206.537C125.154 205.752 124.071 205.778 122.595 207.895L120.194 211.971C118.948 214.189 119.454 214.932 121.457 215.8L130.935 219.382C133.465 220.002 134.939 220.277 135.485 223.457V227.533C135.485 230.003 138.382 230.675 142.182 230.991C146.732 230.991 148.166 230.778 148.248 227.533V224.322Z" fill="#FF8CBB" stroke="#FF80B4" stroke-width="0.2"/>
<path d="M148.248 224.322C147.869 219.382 142.182 221.481 138.265 218.764C133.084 214.688 135.485 208.883 127.27 206.537C125.154 205.752 124.071 205.778 122.595 207.895L120.194 211.971C118.948 214.189 119.454 214.932 121.457 215.8L130.935 219.382C133.465 220.002 134.939 220.277 135.485 223.457V227.533C135.485 230.003 138.382 230.675 142.182 230.991C146.732 230.991 148.166 230.778 148.248 227.533V224.322Z" fill="#FF8CBB" stroke="#FF80B4" stroke-width="0.2"/>
<path d="M138.22 232.491C135.739 232.545 134.36 232.601 133.67 236.814C132.783 241.427 131.05 241.715 127.099 240.643L111.935 236.814C109.869 236.153 108.803 236.384 107.385 239.902C106.253 242.347 106.289 243.517 108.902 244.842L123.308 249.042C126.088 249.659 129.085 249.656 130.764 245.583C132.123 242.637 133.535 242.225 136.451 242.249H143.527C145.969 242.33 147.407 242.464 147.824 239.902C148.077 239.037 147.571 238.049 147.824 237.061C148.097 234.789 147.393 233.885 143.907 233.233L138.22 232.491Z" fill="#FF8CBB" stroke="#FF80B4" stroke-width="0.2"/>
<path d="M160.029 231.998C162.51 232.052 163.889 232.108 164.579 236.321C165.466 240.934 167.199 241.222 171.15 240.15L186.314 236.321C188.38 235.66 189.446 235.891 190.864 239.409C191.996 241.853 191.96 243.024 189.347 244.349L174.941 248.548C172.161 249.166 169.164 249.163 167.485 245.09C166.126 242.144 164.714 241.732 161.798 241.755H154.722C152.28 241.837 150.842 241.97 150.425 239.409C150.172 238.544 150.678 237.556 150.425 236.568C150.152 234.296 150.856 233.391 154.342 232.739L160.029 231.998Z" fill="#FF8CBB" stroke="#FF80B4" stroke-width="0.2"/>
<path d="M103.468 247.808C104.716 245.887 105.559 245.077 108.523 246.326C113.327 248.274 125.204 250.402 125.204 250.402C125.507 250.402 128.49 251.39 130.891 247.808C132.634 245.399 134.05 243.979 136.451 243.979H143.781C146.21 244.068 147.535 244.21 147.319 250.896C147.319 253.243 146.744 253.352 143.149 253.613L132.913 253.984C129.754 254.354 128.443 255.622 126.215 257.689C124.911 258.685 124.487 259.391 119.897 258.8C113.968 257.422 110.618 256.767 104.985 253.984C102.711 252.363 101.962 251.206 103.468 247.808Z" fill="#FF8CBB" stroke="#FF80B4" stroke-width="0.2"/>
<path d="M194.732 247.933C193.484 246.011 192.641 245.201 189.677 246.45C184.873 248.398 172.996 250.526 172.996 250.526C172.693 250.526 169.71 251.514 167.309 247.933C165.566 245.524 164.15 244.104 161.749 244.104H154.42C151.99 244.192 150.665 244.335 150.881 251.02C150.881 253.367 151.457 253.476 155.051 253.737L165.287 254.108C168.447 254.478 169.758 255.747 171.985 257.813C173.29 258.81 173.714 259.515 178.304 258.925C184.233 257.546 187.582 256.892 193.215 254.108C195.489 252.487 196.238 251.331 194.732 247.933Z" fill="#FF8CBB" stroke="#FF80B4" stroke-width="0.2"/>
<path d="M105.87 256.33C102.704 254.35 101.073 253.764 99.4253 257.318C98.5482 260.191 99.0205 261.569 101.574 263.617C107.769 266.256 111.58 267.04 118.381 268.434C121.667 269.107 123.791 268.143 126.216 265.593C127.859 263.864 130.888 263.394 134.051 263.617C136.915 263.658 142.695 263.716 142.897 263.617C147.194 263.617 147.699 261.517 147.699 258.553C147.699 256.577 146.941 254.971 137.589 254.971C132.661 254.971 129.628 256.947 128.238 258.923C126.848 260.9 123.501 260.454 119.139 260.035C113.518 259.193 110.475 258.572 105.87 256.33Z" fill="#FF8CBB" stroke="#FF80B4" stroke-width="0.2"/>
<path d="M192.687 256.309C195.854 254.328 197.484 253.743 199.132 257.297C200.009 260.17 199.537 261.548 196.984 263.596C190.789 266.235 186.977 267.018 180.177 268.412C176.891 269.086 174.767 268.122 172.342 265.572C170.699 263.843 167.669 263.372 164.507 263.596C161.642 263.637 155.863 263.694 155.661 263.596C151.364 263.596 150.859 261.496 150.859 258.532C150.859 256.556 151.617 254.95 160.968 254.95C165.897 254.95 168.93 256.926 170.32 258.902C171.71 260.878 175.056 260.433 179.418 260.014C185.039 259.172 188.082 258.55 192.687 256.309Z" fill="#FF8CBB" stroke="#FF80B4" stroke-width="0.2"/>
<path d="M100.688 265.592C96.3911 262.258 92.8526 267.198 96.3911 271.274C99.1712 273.991 107.512 277.203 116.737 277.943C120.781 278.808 123.687 273.991 126.973 273.991H141.885C145.862 274.12 147.819 273.895 147.824 269.668C147.989 266.826 147.495 265.576 142.769 265.592H131.775C130.132 265.592 127.352 266.951 125.709 268.557C124.264 269.81 118.483 270.653 116.737 269.668C109.913 267.322 104.984 268.557 100.688 265.592Z" fill="#FF8CBB" stroke="#FF80B4" stroke-width="0.2"/>
<path d="M198.273 265.704C202.569 262.369 206.108 267.31 202.569 271.385C199.789 274.102 191.449 277.314 182.224 278.055C178.18 278.92 175.273 274.102 171.988 274.102H157.076C153.099 274.232 151.142 274.006 151.136 269.779C150.971 266.938 151.465 265.687 156.191 265.704H167.185C168.828 265.704 171.608 267.063 173.251 268.668C174.697 269.921 180.478 270.765 182.224 269.779C189.048 267.433 193.976 268.668 198.273 265.704Z" fill="#FF8CBB" stroke="#FF80B4" stroke-width="0.2"/>
<path d="M113.996 220.732C112.53 223.394 111.025 222.995 108.183 221.844L98.1998 215.545C95.167 213.074 97.4169 211.53 100.727 209.369C103.378 207.899 104.127 208.675 105.782 209.369L113.996 213.074C116.962 214.558 117.049 215.363 116.018 216.78L113.996 220.732Z" fill="#FF8CBB" stroke="#FF80B4" stroke-width="0.2"/>
<path d="M116.212 221.983C115.141 224.82 116.443 225.658 119.208 226.978L130.647 230.121C134.549 230.707 134.245 228.036 133.71 224.181C133.082 221.267 131.991 221.231 130.364 220.478L122.084 216.914C118.983 215.724 118.308 216.193 117.904 217.886L116.212 221.983Z" fill="#FF8CBB" stroke="#FF80B4" stroke-width="0.2"/>
<path d="M127.985 239.162C131.397 239.162 132.787 237.556 132.535 234.098C132.233 232.376 131.736 231.641 129.881 231.01L116.359 227.058C114.273 226.557 113.242 227.082 111.81 230.269C110.795 232.838 110.25 234.274 114.211 235.95C119.187 237.753 123.562 239.162 127.985 239.162Z" fill="#FF8CBB" stroke="#FF80B4" stroke-width="0.2"/>
<path d="M92.7354 223.977C90.469 221.484 90.774 219.402 93.587 217.29C95.1047 216.367 95.9968 216.242 97.7111 217.178L109.715 224.433C111.484 225.624 111.768 226.726 110.281 229.889C108.99 232.337 108.254 233.689 104.34 231.909C99.6564 229.471 95.6731 227.209 92.7354 223.977Z" fill="#FF8CBB" stroke="#FF80B4" stroke-width="0.2"/>
<path d="M183.69 220.979C185.156 223.641 186.661 223.242 189.503 222.091L199.487 215.792C202.519 213.322 200.27 211.777 196.959 209.616C194.309 208.147 193.559 208.922 191.904 209.616L183.69 213.322C180.724 214.805 180.637 215.61 181.668 217.027L183.69 220.979Z" fill="#FF8CBB" stroke="#FF80B4" stroke-width="0.2"/>
<path d="M181.473 222.232C182.543 225.068 181.241 225.906 178.477 227.226L167.037 230.369C163.135 230.956 163.44 228.285 163.975 224.43C164.602 221.515 165.693 221.48 167.321 220.727L175.6 217.163C178.701 215.972 179.376 216.441 179.78 218.135L181.473 222.232Z" fill="#FF8CBB" stroke="#FF80B4" stroke-width="0.2"/>
<path d="M169.701 239.41C166.289 239.41 164.899 237.805 165.152 234.346C165.453 232.624 165.95 231.89 167.805 231.259L181.327 227.307C183.413 226.805 184.444 227.33 185.876 230.518C186.891 233.087 187.436 234.523 183.475 236.199C178.499 238.002 174.124 239.41 169.701 239.41Z" fill="#FF8CBB" stroke="#FF80B4" stroke-width="0.2"/>
<path d="M204.95 224.226C207.217 221.733 206.912 219.651 204.099 217.539C202.581 216.615 201.689 216.491 199.974 217.427L187.97 224.681C186.201 225.872 185.918 226.974 187.405 230.138C188.696 232.586 189.432 233.938 193.345 232.157C198.029 229.719 202.012 227.458 204.95 224.226Z" fill="#FF8CBB" stroke="#FF80B4" stroke-width="0.2"/>
<path d="M149.846 70.9119C150.225 75.8523 155.912 73.7527 159.83 76.4698C165.011 80.5457 162.61 86.3506 170.824 88.6971C172.941 89.4823 174.023 89.456 175.5 87.3385L177.901 83.2628C179.146 81.0446 178.64 80.3016 176.637 79.434L167.159 75.8523C164.63 75.232 163.155 74.9567 162.61 71.7765V67.7007C162.61 65.2307 159.713 64.5593 155.912 64.2425C151.363 64.2425 149.928 64.4564 149.846 67.7007V70.9119Z" fill="#FF8CBB" stroke="#FF80B4" stroke-width="0.2"/>
<path d="M148.502 70.9315C148.123 75.8718 142.436 73.7722 138.519 76.4893C133.337 80.5652 135.738 86.3701 127.524 88.7166C125.407 89.5019 124.325 89.4756 122.849 87.3581L120.448 83.2823C119.202 81.0642 119.708 80.3211 121.711 79.4535L131.189 75.8718C133.719 75.2516 135.193 74.9762 135.738 71.796V67.7202C135.738 65.2502 138.635 64.5789 142.436 64.262C146.986 64.262 148.42 64.4759 148.502 67.7202V70.9315Z" fill="#FF8CBB" stroke="#FF80B4" stroke-width="0.2"/>
<path d="M148.502 70.9315C148.123 75.8718 142.436 73.7722 138.519 76.4893C133.337 80.5652 135.738 86.3701 127.524 88.7166C125.407 89.5019 124.325 89.4756 122.849 87.3581L120.448 83.2823C119.202 81.0642 119.708 80.3211 121.711 79.4535L131.189 75.8718C133.719 75.2516 135.193 74.9762 135.738 71.796V67.7202C135.738 65.2502 138.635 64.5789 142.436 64.262C146.986 64.262 148.42 64.4759 148.502 67.7202V70.9315Z" fill="#FF8CBB" stroke="#FF80B4" stroke-width="0.2"/>
<path d="M138.473 62.7593C135.993 62.7061 134.613 62.65 133.924 58.4365C133.037 53.8241 131.303 53.5354 127.353 54.6077L112.188 58.4365C110.123 59.0977 109.056 58.8663 107.639 55.3488C106.507 52.9041 106.542 51.7339 109.155 50.4085L123.561 46.2092C126.342 45.5916 129.338 45.5949 131.017 49.6674C132.376 52.6139 133.789 53.0255 136.704 53.0021H143.781C146.223 52.9206 147.661 52.7871 148.077 55.3488C148.33 56.2133 147.825 57.2014 148.077 58.1895C148.351 60.4613 147.646 61.3661 144.16 62.0182L138.473 62.7593Z" fill="#FF8CBB" stroke="#FF80B4" stroke-width="0.2"/>
<path d="M160.282 63.2542C162.762 63.2009 164.142 63.1448 164.831 58.9314C165.718 54.3189 167.452 54.0303 171.402 55.1026L186.567 58.9314C188.632 59.5926 189.699 59.3612 191.116 55.8437C192.248 53.399 192.213 52.2288 189.6 50.9033L175.193 46.704C172.413 46.0865 169.417 46.0898 167.738 50.1623C166.379 53.1088 164.966 53.5204 162.051 53.497H154.974C152.532 53.4154 151.094 53.282 150.677 55.8437C150.425 56.7082 150.93 57.6963 150.677 58.6843C150.404 60.9562 151.109 61.861 154.595 62.5131L160.282 63.2542Z" fill="#FF8CBB" stroke="#FF80B4" stroke-width="0.2"/>
<path d="M103.721 47.4452C104.968 49.3665 105.812 50.1763 108.776 48.9273C113.579 46.9798 125.457 44.8515 125.457 44.8515C125.76 44.8515 128.742 43.8634 131.143 47.4452C132.886 49.8542 134.303 51.2739 136.704 51.2739H144.033C146.463 51.1857 147.788 51.0431 147.571 44.3575C147.571 42.0108 146.996 41.9014 143.401 41.6403L133.165 41.2698C130.006 40.8992 128.695 39.631 126.468 37.5645C125.163 36.5681 124.739 35.8626 120.149 36.4529C114.22 37.8316 110.871 38.4861 105.237 41.2698C102.963 42.8905 102.215 44.0472 103.721 47.4452Z" fill="#FF8CBB" stroke="#FF80B4" stroke-width="0.2"/>
<path d="M194.984 47.3207C193.736 49.242 192.893 50.0518 189.929 48.8028C185.125 46.8553 173.248 44.727 173.248 44.727C172.945 44.727 169.962 43.7389 167.561 47.3207C165.818 49.7297 164.402 51.1494 162.001 51.1494H154.672C152.242 51.0612 150.917 50.9186 151.133 44.233C151.133 41.8863 151.709 41.7769 155.303 41.5158L165.539 41.1452C168.699 40.7747 170.01 39.5065 172.237 37.44C173.542 36.4435 173.966 35.738 178.556 36.3284C184.485 37.707 187.834 38.3616 193.467 41.1452C195.741 42.766 196.49 43.9227 194.984 47.3207Z" fill="#FF8CBB" stroke="#FF80B4" stroke-width="0.2"/>
<path d="M106.124 38.9227C102.957 40.9027 101.327 41.4884 99.6787 37.9346C98.8017 35.0616 99.2739 33.6829 101.827 31.6357C108.022 28.9965 111.834 28.2127 118.634 26.8188C121.92 26.1454 124.044 27.1096 126.469 29.6595C128.112 31.3886 131.142 31.8587 134.304 31.6357C137.169 31.5945 142.948 31.5369 143.15 31.6357C147.447 31.6357 147.952 33.7352 147.952 36.6995C147.952 38.6755 147.194 40.2812 137.843 40.2812C132.914 40.2812 129.881 38.3052 128.491 36.329C127.101 34.3528 123.755 34.7981 119.393 35.2174C113.772 36.0595 110.729 36.6808 106.124 38.9227Z" fill="#FF8CBB" stroke="#FF80B4" stroke-width="0.2"/>
<path d="M192.939 38.9441C196.105 40.9242 197.736 41.5099 199.384 37.9561C200.261 35.0831 199.789 33.7044 197.235 31.6572C191.04 29.018 187.229 28.2342 180.428 26.8403C177.142 26.1669 175.018 27.131 172.593 29.681C170.95 31.4101 167.921 31.8802 164.758 31.6572C161.894 31.616 156.114 31.5583 155.912 31.6572C151.616 31.6572 151.11 33.7567 151.11 36.721C151.11 38.697 151.868 40.3027 161.22 40.3027C166.148 40.3027 169.181 38.3267 170.571 36.3505C171.961 34.3742 175.308 34.8196 179.67 35.2389C185.291 36.081 188.334 36.7023 192.939 38.9441Z" fill="#FF8CBB" stroke="#FF80B4" stroke-width="0.2"/>
<path d="M100.94 29.66C96.6436 32.9944 93.1051 28.0542 96.6435 23.9787C99.4237 21.2615 107.764 18.0499 116.989 17.3092C121.033 16.4443 123.94 21.2615 127.225 21.2615H142.137C146.114 21.1322 148.071 21.3577 148.077 25.5843C148.242 28.426 147.748 29.6766 143.022 29.66H132.027C130.385 29.66 127.604 28.301 125.962 26.6958C124.516 25.4424 118.735 24.599 116.989 25.5843C110.165 27.9305 105.237 26.6958 100.94 29.66Z" fill="#FF8CBB" stroke="#FF80B4" stroke-width="0.2"/>
<path d="M90.3615 83.2903C91.8725 81.3668 92.6917 80.2806 89.7622 77.1168C86.6383 73.5524 87.4939 72.0505 90.8232 69.7119L103.374 60.5547C105.195 59.3949 105.678 58.4374 103.76 55.1546C102.519 52.7612 101.563 52.0552 98.8694 53.2163L86.4978 61.5637C84.2642 63.2953 82.3903 65.5806 84.5873 69.4105C86.0869 72.2909 85.5306 73.6251 83.6862 75.8319L79.2544 81.2242C77.6602 83.0336 76.653 84.046 78.4356 85.9677C78.967 86.7017 80.0717 86.9353 80.7016 87.7466C82.3428 89.3775 83.5056 89.4074 86.2091 87.1593L90.3615 83.2903Z" fill="#FF8CBB" stroke="#FF80B4" stroke-width="0.2"/>
<path d="M99.9078 47.2198C100.659 49.3736 100.777 50.5235 97.9246 51.9996C93.3627 54.4405 84.227 62.1576 84.227 62.1576C84.0371 62.3887 81.3812 64.0424 82.7347 68.1149C83.5648 70.9517 83.8104 72.9201 82.3068 74.7494L77.7168 80.3343C76.1248 82.1305 75.1814 83.0505 69.9836 78.6991C68.1117 77.2295 68.3848 76.7225 70.4277 73.8199L76.5424 65.7883C78.2252 63.1491 78.0346 61.3559 77.7811 58.3645C77.8031 56.7465 77.5058 55.9817 80.8513 52.8538C85.664 49.1995 88.2835 47.0574 94.032 44.508C96.7489 43.7904 98.1405 43.9442 99.9078 47.2198Z" fill="#FF8CBB" stroke="#FF80B4" stroke-width="0.2"/>
<path d="M91.6063 43.7119C95.1689 42.539 96.657 41.6635 94.8542 38.1823C93.1117 35.7148 91.7161 35.2113 88.4842 35.8746C82.4993 38.9423 79.487 41.3558 74.1163 45.6647C71.5216 47.7465 70.9603 49.9691 71.4758 53.4137C71.8262 55.7483 70.3041 58.351 68.1455 60.6213C66.3189 62.7781 62.6536 67.1457 62.6058 67.3616C59.9151 70.6355 61.2734 72.3355 63.638 74.1919C65.2143 75.4293 66.97 75.8571 72.8262 68.7316C75.9127 64.9763 76.2357 61.4279 75.5298 59.131C74.8239 56.8342 77.2749 54.5631 80.341 51.502C84.5327 47.7465 86.934 45.817 91.6063 43.7119Z" fill="#FF8CBB" stroke="#FF80B4" stroke-width="0.2"/>
<path d="M87.4621 33.9644C92.8125 32.7787 91.0877 26.9887 85.6207 27.1326C81.7122 27.5494 73.9271 31.8934 67.5592 38.4588C64.3368 40.9984 66.3593 46.2298 64.3017 48.7334L54.9633 60.0957C52.3695 63.0453 51.3239 64.6774 54.6921 67.3284C56.8554 69.2341 58.1624 69.6408 61.1089 66.0292L67.994 57.6519C69.0228 56.4002 69.6797 53.4307 69.4281 51.1737C69.3332 49.2875 72.2807 44.3544 74.1602 43.6409C80.3053 39.9105 82.4068 35.382 87.4621 33.9644Z" fill="#FF8CBB" stroke="#FF80B4" stroke-width="0.2"/>
<path d="M91.0835 211.986C92.6633 213.856 93.5213 214.913 90.7084 218.176C87.7157 221.846 88.6252 223.318 92.0372 225.539L104.912 234.256C106.774 235.352 107.292 236.292 105.494 239.64C104.34 242.074 103.411 242.813 100.677 241.746L88.01 233.832C85.715 232.179 83.7594 229.96 85.8162 226.057C87.2104 223.126 86.606 221.812 84.6827 219.671L80.0582 214.435C78.3995 212.682 77.3562 211.705 79.068 209.723C79.5724 208.971 80.668 208.699 81.2681 207.867C82.8491 206.18 84.0101 206.11 86.7934 208.263L91.0835 211.986Z" fill="#FF8CBB" stroke="#FF80B4" stroke-width="0.2"/>
<path d="M101.93 247.704C102.603 245.525 102.679 244.372 99.7751 242.996C95.1276 240.714 85.7178 233.318 85.7178 233.318C85.5196 233.094 82.8054 231.533 84.0104 227.416C84.7371 224.553 84.9111 222.577 83.3422 220.801L78.5526 215.379C76.8965 213.639 75.9203 212.752 70.8836 217.281C69.0661 218.814 69.3574 219.311 71.5043 222.141L77.9063 229.956C79.6838 232.535 79.5583 234.334 79.4134 237.332C79.4941 238.949 79.2248 239.723 82.6815 242.733C87.6237 246.219 90.3193 248.269 96.1566 250.617C98.8978 251.24 100.283 251.038 101.93 247.704Z" fill="#FF8CBB" stroke="#FF80B4" stroke-width="0.2"/>
<path d="M93.7636 251.497C97.3665 252.546 98.8854 253.369 97.2099 256.91C95.558 259.437 94.1816 259.988 90.9276 259.437C84.8353 256.579 81.7374 254.271 76.2138 250.151C73.5452 248.16 72.9036 245.959 73.2939 242.498C73.5595 240.153 71.944 237.605 69.7044 235.411C67.8007 233.318 63.9794 229.081 63.9238 228.866C61.1161 225.688 62.4118 223.942 64.7076 222.005C66.2381 220.713 67.9772 220.225 74.0881 227.143C77.3088 230.789 77.7602 234.324 77.1381 236.644C76.5159 238.964 79.0478 241.149 82.223 244.102C86.5482 247.71 89.0179 249.555 93.7636 251.497Z" fill="#FF8CBB" stroke="#FF80B4" stroke-width="0.2"/>
<path d="M89.9757 261.382C95.3658 262.382 93.8519 268.228 88.3832 268.274C84.462 267.992 76.5243 263.921 69.9223 257.58C66.6098 255.154 68.4414 249.856 66.2943 247.425L56.5498 236.393C53.8506 233.535 52.7466 231.94 56.0165 229.174C58.1093 227.195 59.4008 226.743 62.4764 230.25L69.6609 238.384C70.7344 239.599 71.4986 242.544 71.329 244.808C71.3026 246.697 74.4271 251.525 76.3313 252.173C82.6078 255.688 84.8722 260.141 89.9757 261.382Z" fill="#FF8CBB" stroke="#FF80B4" stroke-width="0.2"/>
<path d="M207.106 211.739C205.527 213.609 204.669 214.666 207.482 217.929C210.474 221.6 209.565 223.071 206.153 225.293L193.278 234.009C191.416 235.105 190.898 236.046 192.696 239.393C193.85 241.828 194.779 242.566 197.513 241.499L210.18 233.586C212.475 231.932 214.431 229.714 212.374 225.81C210.98 222.879 211.584 221.565 213.507 219.424L218.132 214.188C219.79 212.435 220.834 211.458 219.122 209.476C218.618 208.724 217.522 208.453 216.922 207.62C215.341 205.933 214.18 205.863 211.397 208.016L207.106 211.739Z" fill="#FF8CBB" stroke="#FF80B4" stroke-width="0.2"/>
<path d="M196.258 247.457C195.585 245.279 195.509 244.126 198.413 242.749C203.06 240.468 212.47 233.072 212.47 233.072C212.668 232.848 215.383 231.287 214.178 227.17C213.451 224.306 213.277 222.331 214.846 220.555L219.635 215.132C221.292 213.392 222.268 212.505 227.304 217.034C229.122 218.568 228.831 219.065 226.684 221.895L220.282 229.71C218.504 232.289 218.63 234.088 218.775 237.086C218.694 238.702 218.963 239.477 215.506 242.487C210.564 245.972 207.869 248.022 202.031 250.371C199.29 250.994 197.905 250.792 196.258 247.457Z" fill="#FF8CBB" stroke="#FF80B4" stroke-width="0.2"/>
<path d="M204.428 251.249C200.825 252.298 199.306 253.121 200.981 256.663C202.633 259.189 204.01 259.74 207.264 259.19C213.356 256.331 216.454 254.023 221.978 249.903C224.646 247.913 225.288 245.711 224.897 242.25C224.632 239.905 226.247 237.357 228.487 235.163C230.391 233.071 234.212 228.833 234.268 228.619C237.075 225.44 235.78 223.694 233.484 221.757C231.953 220.466 230.214 219.977 224.103 226.895C220.883 230.542 220.431 234.077 221.053 236.396C221.676 238.716 219.144 240.901 215.968 243.854C211.643 247.462 209.173 249.307 204.428 251.249Z" fill="#FF8CBB" stroke="#FF80B4" stroke-width="0.2"/>
<path d="M208.216 261.136C202.826 262.136 204.339 267.982 209.808 268.027C213.729 267.746 221.667 263.675 228.269 257.334C231.582 254.908 229.75 249.609 231.897 247.179L241.642 236.147C244.341 233.289 245.445 231.694 242.175 228.928C240.082 226.949 238.791 226.497 235.715 230.004L228.531 238.138C227.457 239.353 226.693 242.298 226.862 244.562C226.889 246.451 223.764 251.279 221.86 251.926C215.584 255.442 213.319 259.895 208.216 261.136Z" fill="#FF8CBB" stroke="#FF80B4" stroke-width="0.2"/>
<path d="M206.501 84.5254C204.99 82.6019 204.171 81.5157 207.1 78.3519C210.224 74.7875 209.368 73.2856 206.039 70.947L193.488 61.7899C191.667 60.6301 191.184 59.6725 193.102 56.3897C194.344 53.9963 195.299 53.2904 197.993 54.4514L210.364 62.7988C212.598 64.5304 214.472 66.8157 212.275 70.6456C210.775 73.526 211.332 74.8602 213.176 77.067L217.608 82.4593C219.202 84.2688 220.209 85.2812 218.427 87.2028C217.895 87.9368 216.791 88.1704 216.161 88.9817C214.519 90.6126 213.357 90.6425 210.653 88.3944L206.501 84.5254Z" fill="#FF8CBB" stroke="#FF80B4" stroke-width="0.2"/>
<path d="M196.953 48.4559C196.202 50.6097 196.084 51.7596 198.936 53.2357C203.498 55.6765 212.634 63.3937 212.634 63.3937C212.824 63.6248 215.48 65.2785 214.126 69.351C213.296 72.1878 213.05 74.1561 214.554 75.9855L219.144 81.5704C220.736 83.3666 221.679 84.2866 226.877 79.9352C228.749 78.4656 228.476 77.9586 226.433 75.056L220.318 67.0244C218.636 64.3852 218.826 62.5919 219.08 59.6006C219.058 57.9826 219.355 57.2177 216.01 54.0899C211.197 50.4356 208.577 48.2935 202.829 45.7441C200.112 45.0265 198.72 45.1803 196.953 48.4559Z" fill="#FF8CBB" stroke="#FF80B4" stroke-width="0.2"/>
<path d="M205.256 44.9477C201.693 43.7748 200.205 42.8994 202.008 39.4181C203.75 36.9506 205.146 36.4471 208.378 37.1104C214.362 40.1781 217.375 42.5916 222.745 46.9006C225.34 48.9824 225.902 51.2049 225.386 54.6496C225.036 56.9841 226.558 59.5869 228.716 61.8571C230.543 64.0139 234.208 68.3815 234.256 68.5975C236.947 71.8713 235.588 73.5713 233.224 75.4277C231.648 76.6652 229.892 77.093 224.036 69.9675C220.949 66.2121 220.626 62.6637 221.332 60.3669C222.038 58.0701 219.587 55.799 216.521 52.7378C212.329 48.9823 209.928 47.0528 205.256 44.9477Z" fill="#FF8CBB" stroke="#FF80B4" stroke-width="0.2"/>
<path d="M209.401 35.1995C204.05 34.0138 205.775 28.2238 211.242 28.3677C215.151 28.7845 222.936 33.1285 229.304 39.6939C232.526 42.2335 230.504 47.4649 232.561 49.9685L241.899 61.3308C244.493 64.2804 245.539 65.9125 242.171 68.5636C240.007 70.4692 238.7 70.8759 235.754 67.2643L228.869 58.887C227.84 57.6353 227.183 54.6658 227.435 52.4088C227.53 50.5226 224.582 45.5895 222.703 44.876C216.557 41.1457 214.456 36.6171 209.401 35.1995Z" fill="#FF8CBB" stroke="#FF80B4" stroke-width="0.2"/>
<path d="M198.526 29.5502C202.822 32.8845 206.361 27.9443 202.822 23.8688C200.042 21.1516 191.702 17.94 182.477 17.1994C178.433 16.3344 175.526 21.1516 172.241 21.1516H157.329C153.351 21.0223 151.395 21.2478 151.389 25.4744C151.224 28.3161 151.718 29.5668 156.444 29.5502H167.438C169.081 29.5502 171.861 28.1912 173.504 26.586C174.949 25.3325 180.73 24.4891 182.477 25.4744C189.301 27.8207 194.229 26.586 198.526 29.5502Z" fill="#FF8CBB" stroke="#FF80B4" stroke-width="0.2"/>
<path d="M114.25 74.5222C112.784 71.8602 111.279 72.2593 108.437 73.4106L98.4537 79.7096C95.4209 82.1797 97.6708 83.7245 100.981 85.885C103.632 87.3547 104.381 86.5789 106.036 85.885L114.25 82.1797C117.216 80.6965 117.303 79.8912 116.272 78.4745L114.25 74.5222Z" fill="#FF8CBB" stroke="#FF80B4" stroke-width="0.2"/>
<path d="M116.465 73.2687C115.394 70.4324 116.696 69.5944 119.461 68.2746L130.9 65.1315C134.802 64.5452 134.497 67.2159 133.963 71.0711C133.335 73.9855 132.244 74.0212 130.617 74.7739L122.337 78.338C119.236 79.5286 118.561 79.0593 118.157 77.3662L116.465 73.2687Z" fill="#FF8CBB" stroke="#FF80B4" stroke-width="0.2"/>
<path d="M128.238 56.0894C131.65 56.0894 133.04 57.695 132.787 61.1532C132.485 62.8753 131.988 63.6099 130.133 64.2407L116.612 68.193C114.525 68.6944 113.494 68.1694 112.062 64.982C111.047 62.4128 110.502 60.9769 114.463 59.3006C119.439 57.4976 123.815 56.0894 128.238 56.0894Z" fill="#FF8CBB" stroke="#FF80B4" stroke-width="0.2"/>
<path d="M92.9878 71.2752C90.7215 73.7683 91.0264 75.8502 93.8395 77.9625C95.3572 78.8857 96.2492 79.0104 97.9635 78.0743L109.968 70.8201C111.737 69.6288 112.02 68.5269 110.533 65.3633C109.242 62.9156 108.506 61.5633 104.593 63.3441C99.9088 65.7822 95.9255 68.0437 92.9878 71.2752Z" fill="#FF8CBB" stroke="#FF80B4" stroke-width="0.2"/>
<path d="M183.942 74.2744C185.408 71.6124 186.913 72.0115 189.755 73.1628L199.738 79.4618C202.771 81.9319 200.521 83.4767 197.211 85.6372C194.56 87.1069 193.811 86.3311 192.156 85.6372L183.942 81.9319C180.976 80.4486 180.889 79.6433 181.92 78.2267L183.942 74.2744Z" fill="#FF8CBB" stroke="#FF80B4" stroke-width="0.2"/>
<path d="M181.725 73.0214C182.795 70.1851 181.493 69.3471 178.729 68.0273L167.289 64.8842C163.387 64.2979 163.692 66.9686 164.227 70.8238C164.854 73.7382 165.945 73.7739 167.573 74.5265L175.852 78.0907C178.953 79.2813 179.628 78.812 180.032 77.1189L181.725 73.0214Z" fill="#FF8CBB" stroke="#FF80B4" stroke-width="0.2"/>
<path d="M169.952 55.8438C166.54 55.8438 165.15 57.4494 165.403 60.9076C165.705 62.6297 166.202 63.3643 168.057 63.9951L181.578 67.9474C183.665 68.4488 184.695 67.9238 186.128 64.7364C187.142 62.1672 187.688 60.7313 183.727 59.055C178.751 57.252 174.375 55.8438 169.952 55.8438Z" fill="#FF8CBB" stroke="#FF80B4" stroke-width="0.2"/>
<path d="M205.204 71.2752C207.47 73.7683 207.165 75.8502 204.352 77.9625C202.834 78.8857 201.942 79.0104 200.228 78.0743L188.224 70.8201C186.455 69.6288 186.171 68.5269 187.658 65.3633C188.949 62.9156 189.685 61.5633 193.598 63.3441C198.283 65.7822 202.266 68.0437 205.204 71.2752Z" fill="#FF8CBB" stroke="#FF80B4" stroke-width="0.2"/>
<path d="M66.5679 154.189C64.1616 154.539 63.6595 155.417 63.9141 157.894C64.6886 162.675 65.1776 166.046 66.5679 169.257C67.8904 171.414 68.9569 171.633 71.2436 170.862C74.9721 169.323 76.5512 169.257 77.6886 170.862C78.4468 171.85 83.628 183.213 83.628 183.213C84.5126 185.189 83.034 187.52 81.1006 189.265C79.0879 191.357 77.6507 192.473 79.0786 195.193C80.3015 197.943 81.9852 200.751 83.628 201.739C85.4049 202.806 86.5727 202.989 89.3147 201.739C91.0839 200.257 90.9069 198.545 91.3366 196.552" stroke="#FF80B4" stroke-width="0.5"/>
<path d="M56.7167 121.262C54.365 120.653 53.5484 121.265 52.7796 123.638C51.5559 128.329 50.6405 131.614 50.6177 135.1C50.9589 137.593 51.85 138.206 54.2621 138.383C58.3096 138.41 59.7866 138.96 60.1812 140.875C60.4777 142.075 60.637 154.514 60.637 154.514C60.6495 156.671 58.3483 158.24 55.8661 159.095C53.1709 160.238 51.399 160.708 51.6095 163.758C51.6199 166.756 52.0293 169.987 53.1382 171.529C54.3384 173.196 55.3369 173.815 58.361 173.728C60.5858 173.051 61.1161 171.41 62.3176 169.745" stroke="#FF80B4" stroke-width="0.5"/>
<path d="M46.578 121.396C44.2263 120.787 43.4097 121.4 42.6409 123.773C41.4172 128.463 40.5019 131.748 40.479 135.235C40.8203 137.728 41.7113 138.341 44.1234 138.518C48.1709 138.545 49.6479 139.095 50.0426 141.009C50.339 142.21 50.4983 154.649 50.4983 154.649C50.5109 156.806 48.2097 158.375 45.7275 159.23C43.0322 160.373 41.2604 160.843 41.4708 163.893C41.4812 166.891 41.8906 170.121 42.9995 171.664C44.1998 173.33 45.1983 173.95 48.2223 173.863C50.4471 173.186 50.9774 171.545 52.179 169.88" stroke="#FF80B4" stroke-width="0.5"/>
<path d="M35.9623 121.891C33.6106 121.282 32.794 121.895 32.0252 124.268C30.8015 128.958 29.8861 132.243 29.8633 135.73C30.2046 138.223 31.0956 138.836 33.5077 139.012C37.5552 139.04 39.0322 139.59 39.4269 141.504C39.7233 142.705 39.8826 155.144 39.8826 155.144C39.8951 157.301 37.5939 158.869 35.1117 159.725C32.4165 160.868 30.6446 161.337 30.8551 164.388C30.8655 167.385 31.2749 170.616 32.3838 172.159C33.584 173.825 34.5825 174.445 37.6066 174.357C39.8314 173.68 40.3617 172.039 41.5633 170.375" stroke="#FF80B4" stroke-width="0.5"/>
<path d="M24.3368 122.633C21.9851 122.024 21.1685 122.636 20.3997 125.01C19.176 129.7 18.2606 132.985 18.2378 136.472C18.5791 138.965 19.4701 139.578 21.8822 139.754C25.9297 139.782 27.4067 140.332 27.8014 142.246C28.0978 143.447 28.2571 155.886 28.2571 155.886C28.2697 158.043 25.9684 159.611 23.4862 160.467C20.791 161.61 19.0192 162.079 19.2296 165.13C19.24 168.127 19.6494 171.358 20.7583 172.901C21.9586 174.567 22.9571 175.187 25.9811 175.099C28.2059 174.422 28.7362 172.781 29.9378 171.117" stroke="#FF80B4" stroke-width="0.5"/>
<path d="M65.8697 140.608C63.4634 140.258 62.9613 139.379 63.2159 136.902C63.9904 132.122 64.4793 128.751 65.8697 125.54C67.1922 123.382 68.2587 123.163 70.5454 123.934C74.2739 125.474 75.853 125.54 76.9903 123.934C77.7485 122.946 82.9298 111.583 82.9298 111.583C83.8144 109.607 82.3358 107.277 80.4023 105.531C78.3897 103.439 76.9524 102.323 78.3804 99.6029C79.6033 96.8537 81.2869 94.0451 82.9298 93.057C84.7066 91.9905 85.8745 91.8075 88.6164 93.057C90.3856 94.5391 90.2086 96.251 90.6384 98.2443" stroke="#FF80B4" stroke-width="0.5"/>
<path d="M232.241 141.844C234.647 141.494 235.15 140.616 234.895 138.139C234.12 133.358 233.632 129.987 232.241 126.776C230.919 124.619 229.852 124.4 227.565 125.171C223.837 126.71 222.258 126.776 221.121 125.171C220.362 124.183 215.181 112.82 215.181 112.82C214.296 110.844 215.775 108.513 217.709 106.768C219.721 104.676 221.158 103.56 219.73 100.84C218.508 98.0903 216.824 95.2816 215.181 94.2936C213.404 93.2271 212.236 93.0441 209.494 94.2936C207.725 95.7757 207.902 97.4876 207.472 99.4809" stroke="#FF80B4" stroke-width="0.5"/>
<path d="M231.989 154.931C234.395 155.281 234.897 156.159 234.643 158.636C233.868 163.417 233.379 166.787 231.989 169.999C230.666 172.156 229.6 172.375 227.313 171.604C223.585 170.065 222.005 169.999 220.868 171.604C220.11 172.592 214.929 183.955 214.929 183.955C214.044 185.931 215.523 188.262 217.456 190.007C219.469 192.099 220.906 193.215 219.478 195.935C218.255 198.685 216.571 201.493 214.929 202.481C213.152 203.548 211.984 203.731 209.242 202.481C207.473 200.999 207.65 199.287 207.22 197.294" stroke="#FF80B4" stroke-width="0.5"/>
<path d="M73.2657 107.255C74.4931 104.473 75.4495 103.848 77.8151 105.032C81.6535 107.443 82.3569 108.968 81.4799 111.949L76.1723 122.57C75.4138 124.423 73.3587 123.688 71.2438 122.57C68.3108 120.855 68.2681 119.916 68.7164 118.248L73.2657 107.255Z" fill="#FF8CBB" stroke="#FF80B4" stroke-width="0.2"/>
<path d="M225.122 108.32C223.895 105.537 222.938 104.912 220.573 106.096C216.734 108.508 216.031 110.032 216.908 113.013L222.215 123.635C222.974 125.487 225.029 124.752 227.144 123.635C230.077 121.92 230.12 120.98 229.671 119.312L225.122 108.32Z" fill="#FF8CBB" stroke="#FF80B4" stroke-width="0.2"/>
<path d="M224.87 188.42C223.642 191.203 222.686 191.828 220.32 190.643C216.482 188.232 215.778 186.708 216.655 183.727L221.963 173.105C222.721 171.253 224.777 171.988 226.891 173.105C229.824 174.82 229.867 175.759 229.419 177.428L224.87 188.42Z" fill="#FF8CBB" stroke="#FF80B4" stroke-width="0.2"/>
<path d="M73.4747 187.432C74.702 190.215 75.6584 190.84 78.0241 189.655C81.8625 187.244 82.5659 185.72 81.6888 182.739L76.3813 172.117C75.6228 170.265 73.5677 171 71.4528 172.117C68.5197 173.832 68.477 174.771 68.9254 176.44L73.4747 187.432Z" fill="#FF8CBB" stroke="#FF80B4" stroke-width="0.2"/>
<path d="M78.2603 196.716C76.7634 194.782 75.909 193.722 72.0109 195.644C67.6661 197.642 66.4113 196.438 64.9871 192.68L59.2814 178.425C58.6202 176.401 57.8037 175.692 54.0563 176.629C51.3659 177.164 50.4161 177.877 50.8471 180.723L55.8014 194.596C56.9174 197.16 58.675 199.532 63.036 198.477C66.2753 197.828 67.444 198.706 69.1321 201.029L73.2765 206.635C74.6389 208.617 75.3706 209.835 77.739 208.665C78.6041 208.359 79.1275 207.379 80.095 207.001C82.1391 205.887 82.477 204.799 80.9761 201.655L78.2603 196.716Z" fill="#FF8CBB" stroke="#FF80B4" stroke-width="0.2"/>
<path d="M45.2062 178.154C47.5303 178.017 48.6959 178.211 49.3957 181.29C50.594 186.236 55.7846 196.892 55.7846 196.892C55.9622 197.132 56.8894 200.074 61.2661 199.878C64.2848 199.848 66.2918 200.139 67.6978 202.041L71.9903 207.847C73.3402 209.824 73.9976 210.957 68.3263 214.701C66.3801 216.075 65.9524 215.683 63.6306 212.989L57.3286 205.096C55.1712 202.811 53.3515 202.515 50.3332 201.961C48.7428 201.511 47.9094 201.588 45.7108 197.606C43.3819 192.102 41.9634 189.065 40.9727 182.972C40.9852 180.221 41.506 178.951 45.2062 178.154Z" fill="#FF8CBB" stroke="#FF80B4" stroke-width="0.2"/>
<path d="M39.5458 185.046C39.3335 181.378 38.8644 179.744 34.9519 180.519C32.0556 181.507 31.1887 182.689 30.986 185.91C32.4253 192.363 34.0075 195.842 36.8343 202.046C38.2 205.043 40.2437 206.162 43.7787 206.589C46.1748 206.878 48.3389 209.003 50.0062 211.639C51.6496 213.932 54.9864 218.544 55.1868 218.647C57.703 222.05 59.7404 221.221 62.1988 219.485C63.8377 218.328 64.7253 216.787 59.2487 209.379C56.3623 205.474 52.9473 204.229 50.4942 204.285C48.0411 204.341 46.4506 201.429 44.2437 197.728C41.6503 192.782 40.3836 190.008 39.5458 185.046Z" fill="#FF8CBB" stroke="#FF80B4" stroke-width="0.2"/>
<path d="M28.8286 186.368C29.0777 181.011 22.9082 181.101 21.6004 186.291C20.9751 190.085 23.1961 198.573 27.9844 206.315C29.6353 210.025 35.3327 209.507 37.2569 212.109L45.9899 223.923C48.212 227.149 49.5449 228.567 53.0535 226.096C55.5071 224.563 56.255 223.439 53.4734 219.705L47.0347 210.995C46.0725 209.694 43.3173 208.287 41.0239 207.926C39.1379 207.515 35.0528 203.429 34.8474 201.469C32.7968 194.689 28.8865 191.507 28.8286 186.368Z" fill="#FF8CBB" stroke="#FF80B4" stroke-width="0.2"/>
<path d="M78.2603 196.716C76.7634 194.782 75.909 193.722 72.0109 195.644C67.6661 197.642 66.4113 196.438 64.9871 192.68L59.2814 178.425C58.6202 176.401 57.8037 175.692 54.0563 176.629C51.3659 177.164 50.4161 177.877 50.8471 180.723L55.8014 194.596C56.9174 197.16 58.675 199.532 63.036 198.477C66.2753 197.828 67.444 198.706 69.1321 201.029L73.2765 206.635C74.6389 208.617 75.3706 209.835 77.739 208.665C78.6041 208.359 79.1275 207.379 80.095 207.001C82.1391 205.887 82.477 204.799 80.9761 201.655L78.2603 196.716Z" fill="#FF8CBB" stroke="#FF80B4" stroke-width="0.2"/>
<path d="M45.2062 178.154C47.5303 178.017 48.6959 178.211 49.3957 181.29C50.594 186.236 55.7846 196.892 55.7846 196.892C55.9622 197.132 56.8894 200.074 61.2661 199.878C64.2848 199.848 66.2918 200.139 67.6978 202.041L71.9903 207.847C73.3402 209.824 73.9976 210.957 68.3263 214.701C66.3801 216.075 65.9524 215.683 63.6306 212.989L57.3286 205.096C55.1712 202.811 53.3515 202.515 50.3332 201.961C48.7428 201.511 47.9094 201.588 45.7108 197.606C43.3819 192.102 41.9634 189.065 40.9727 182.972C40.9852 180.221 41.506 178.951 45.2062 178.154Z" fill="#FF8CBB" stroke="#FF80B4" stroke-width="0.2"/>
<path d="M39.5458 185.046C39.3335 181.378 38.8644 179.744 34.9519 180.519C32.0556 181.507 31.1887 182.689 30.986 185.91C32.4253 192.363 34.0075 195.842 36.8343 202.046C38.2 205.043 40.2437 206.162 43.7787 206.589C46.1748 206.878 48.3389 209.003 50.0062 211.639C51.6496 213.932 54.9864 218.544 55.1868 218.647C57.703 222.05 59.7404 221.221 62.1988 219.485C63.8377 218.328 64.7253 216.787 59.2487 209.379C56.3623 205.474 52.9473 204.229 50.4942 204.285C48.0411 204.341 46.4506 201.429 44.2437 197.728C41.6503 192.782 40.3836 190.008 39.5458 185.046Z" fill="#FF8CBB" stroke="#FF80B4" stroke-width="0.2"/>
<path d="M28.8286 186.368C29.0777 181.011 22.9082 181.101 21.6004 186.291C20.9751 190.085 23.1961 198.573 27.9844 206.315C29.6353 210.025 35.3327 209.507 37.2569 212.109L45.9899 223.923C48.212 227.149 49.5449 228.567 53.0535 226.096C55.5071 224.563 56.255 223.439 53.4734 219.705L47.0347 210.995C46.0725 209.694 43.3173 208.287 41.0239 207.926C39.1379 207.515 35.0528 203.429 34.8474 201.469C32.7968 194.689 28.8865 191.507 28.8286 186.368Z" fill="#FF8CBB" stroke="#FF80B4" stroke-width="0.2"/>
<path d="M77.7555 98.8304C76.2586 100.764 75.4041 101.824 71.506 99.9028C67.1612 97.9042 65.9064 99.1087 64.4822 102.866L58.7766 117.122C58.1153 119.146 57.2988 119.855 53.5515 118.918C50.8611 118.383 49.9112 117.669 50.3423 114.823L55.2965 100.951C56.4126 98.387 58.1701 96.0151 62.5311 97.0698C65.7705 97.7191 66.9391 96.841 68.6272 94.5177L72.7717 88.9115C74.134 86.9293 74.8657 85.7117 77.2342 86.882C78.0992 87.1881 78.6226 88.1672 79.5901 88.5456C81.6342 89.6597 81.9721 90.7475 80.4712 93.8913L77.7555 98.8304Z" fill="#FF8CBB" stroke="#FF80B4" stroke-width="0.2"/>
<path d="M44.7009 117.393C47.0249 117.53 48.1906 117.336 48.8904 114.256C50.0886 109.31 55.2792 98.6546 55.2792 98.6546C55.4568 98.4143 56.384 95.473 60.7607 95.6685C63.7795 95.6985 65.7864 95.4079 67.1925 93.5059L71.4849 87.6994C72.8348 85.7229 73.4923 84.5899 67.821 80.8457C65.8748 79.4714 65.447 79.8632 63.1252 82.5581L56.8232 90.4501C54.6658 92.7358 52.8461 93.0318 49.8278 93.5861C48.2374 94.036 47.404 93.9586 45.2055 97.9407C42.8766 103.445 41.458 106.482 40.4673 112.575C40.4798 115.325 41.0006 116.596 44.7009 117.393Z" fill="#FF8CBB" stroke="#FF80B4" stroke-width="0.2"/>
<path d="M39.0409 110.499C38.8286 114.167 38.3596 115.801 34.447 115.026C31.5507 114.038 30.6838 112.856 30.4811 109.635C31.9205 103.181 33.5027 99.7028 36.3294 93.499C37.6951 90.5017 39.7388 89.3834 43.2739 88.9557C45.6699 88.6669 47.834 86.5423 49.5013 83.9061C51.1447 81.6128 54.4815 77.0006 54.6819 76.8983C57.1982 73.4945 59.2355 74.3236 61.6939 76.0596C63.3328 77.2169 64.2204 78.7579 58.7438 86.1662C55.8575 90.0706 52.4424 91.316 49.9893 91.2598C47.5362 91.2037 45.9457 94.1158 43.7388 97.8169C41.1454 102.763 39.8787 105.537 39.0409 110.499Z" fill="#FF8CBB" stroke="#FF80B4" stroke-width="0.2"/>
<path d="M28.3227 109.178C28.5718 114.534 22.4023 114.444 21.0945 109.254C20.4692 105.46 22.6902 96.9721 27.4786 89.2302C29.1295 85.52 34.8269 86.0386 36.7511 83.4357L45.4841 71.6225C47.7061 68.396 49.0391 66.9779 52.5476 69.4489C55.0013 70.9821 55.7492 72.1059 52.9675 75.8403L46.5288 84.55C45.5667 85.8515 42.8114 87.2581 40.518 87.6194C38.632 88.0303 34.547 92.1161 34.3415 94.0764C32.2909 100.857 28.3806 104.038 28.3227 109.178Z" fill="#FF8CBB" stroke="#FF80B4" stroke-width="0.2"/>
<path d="M242.266 121.507C244.617 120.898 245.434 121.51 246.203 123.884C247.427 128.574 248.342 131.859 248.365 135.346C248.023 137.839 247.132 138.452 244.72 138.628C240.673 138.656 239.196 139.206 238.801 141.12C238.505 142.321 238.345 154.76 238.345 154.76C238.333 156.917 240.634 158.485 243.116 159.341C245.812 160.484 247.583 160.953 247.373 164.004C247.363 167.001 246.953 170.232 245.844 171.775C244.644 173.441 243.645 174.061 240.621 173.973C238.397 173.296 237.866 171.655 236.665 169.991" stroke="#FF80B4" stroke-width="0.5"/>
<path d="M252.405 121.644C254.757 121.035 255.574 121.647 256.342 124.021C257.566 128.711 258.482 131.996 258.504 135.483C258.163 137.976 257.272 138.589 254.86 138.765C250.812 138.793 249.335 139.343 248.941 141.257C248.644 142.458 248.485 154.897 248.485 154.897C248.473 157.054 250.774 158.622 253.256 159.478C255.951 160.621 257.723 161.09 257.513 164.141C257.502 167.138 257.093 170.369 255.984 171.912C254.784 173.578 253.785 174.198 250.761 174.11C248.536 173.433 248.006 171.792 246.804 170.128" stroke="#FF80B4" stroke-width="0.5"/>
<path d="M263.021 122.137C265.372 121.529 266.189 122.141 266.958 124.514C268.181 129.205 269.097 132.489 269.12 135.976C268.778 138.469 267.887 139.082 265.475 139.259C261.428 139.286 259.951 139.836 259.556 141.751C259.26 142.951 259.1 155.39 259.1 155.39C259.088 157.547 261.389 159.116 263.871 159.971C266.566 161.114 268.338 161.584 268.128 164.634C268.117 167.632 267.708 170.863 266.599 172.405C265.399 174.072 264.4 174.691 261.376 174.604C259.152 173.927 258.621 172.286 257.42 170.621" stroke="#FF80B4" stroke-width="0.5"/>
<path d="M274.648 122.879C276.999 122.27 277.816 122.883 278.585 125.256C279.808 129.946 280.724 133.231 280.747 136.718C280.405 139.211 279.514 139.824 277.102 140C273.055 140.028 271.578 140.578 271.183 142.492C270.887 143.693 270.727 156.132 270.727 156.132C270.715 158.289 273.016 159.857 275.498 160.713C278.193 161.856 279.965 162.325 279.755 165.376C279.744 168.374 279.335 171.604 278.226 173.147C277.026 174.813 276.027 175.433 273.003 175.345C270.778 174.668 270.248 173.027 269.047 171.363" stroke="#FF80B4" stroke-width="0.5"/>
<path d="M220.722 196.962C222.218 195.028 223.073 193.968 226.971 195.889C231.316 197.888 232.571 196.683 233.995 192.926L239.7 178.67C240.362 176.647 241.178 175.937 244.926 176.874C247.616 177.41 248.566 178.123 248.135 180.969L243.181 194.841C242.064 197.405 240.307 199.777 235.946 198.722C232.707 198.073 231.538 198.951 229.85 201.275L225.705 206.881C224.343 208.863 223.611 210.081 221.243 208.91C220.378 208.604 219.854 207.625 218.887 207.247C216.843 206.133 216.505 205.045 218.006 201.901L220.722 196.962Z" fill="#FF8CBB" stroke="#FF80B4" stroke-width="0.2"/>
<path d="M253.775 178.401C251.451 178.264 250.286 178.458 249.586 181.537C248.387 186.484 243.197 197.139 243.197 197.139C243.019 197.379 242.092 200.321 237.715 200.125C234.697 200.095 232.69 200.386 231.284 202.288L226.991 208.094C225.641 210.071 224.984 211.204 230.655 214.948C232.601 216.322 233.029 215.93 235.351 213.236L241.653 205.344C243.81 203.058 245.63 202.762 248.648 202.208C250.239 201.758 251.072 201.835 253.271 197.853C255.599 192.349 257.018 189.312 258.009 183.219C257.996 180.468 257.475 179.198 253.775 178.401Z" fill="#FF8CBB" stroke="#FF80B4" stroke-width="0.2"/>
<path d="M259.439 185.293C259.651 181.625 260.12 179.991 264.033 180.766C266.929 181.754 267.796 182.936 267.999 186.157C266.56 192.61 264.977 196.089 262.151 202.293C260.785 205.29 258.741 206.409 255.206 206.836C252.81 207.125 250.646 209.25 248.979 211.886C247.335 214.179 243.998 218.791 243.798 218.894C241.282 222.298 239.244 221.468 236.786 219.732C235.147 218.575 234.26 217.034 239.736 209.626C242.623 205.721 246.038 204.476 248.491 204.532C250.944 204.588 252.534 201.676 254.741 197.975C257.335 193.029 258.601 190.255 259.439 185.293Z" fill="#FF8CBB" stroke="#FF80B4" stroke-width="0.2"/>
<path d="M270.155 186.614C269.906 181.258 276.075 181.348 277.383 186.538C278.008 190.332 275.787 198.82 270.999 206.562C269.348 210.272 263.651 209.753 261.726 212.356L252.993 224.169C250.771 227.396 249.438 228.814 245.93 226.343C243.476 224.81 242.728 223.686 245.51 219.952L251.949 211.242C252.911 209.94 255.666 208.534 257.96 208.173C259.846 207.762 263.931 203.676 264.136 201.716C266.187 194.935 270.097 191.754 270.155 186.614Z" fill="#FF8CBB" stroke="#FF80B4" stroke-width="0.2"/>
<path d="M220.722 196.962C222.218 195.028 223.073 193.968 226.971 195.889C231.316 197.888 232.571 196.683 233.995 192.926L239.7 178.67C240.362 176.647 241.178 175.937 244.926 176.874C247.616 177.41 248.566 178.123 248.135 180.969L243.181 194.841C242.064 197.405 240.307 199.777 235.946 198.722C232.707 198.073 231.538 198.951 229.85 201.275L225.705 206.881C224.343 208.863 223.611 210.081 221.243 208.91C220.378 208.604 219.854 207.625 218.887 207.247C216.843 206.133 216.505 205.045 218.006 201.901L220.722 196.962Z" fill="#FF8CBB" stroke="#FF80B4" stroke-width="0.2"/>
<path d="M253.775 178.401C251.451 178.264 250.286 178.458 249.586 181.537C248.387 186.484 243.197 197.139 243.197 197.139C243.019 197.379 242.092 200.321 237.715 200.125C234.697 200.095 232.69 200.386 231.284 202.288L226.991 208.094C225.641 210.071 224.984 211.204 230.655 214.948C232.601 216.322 233.029 215.93 235.351 213.236L241.653 205.344C243.81 203.058 245.63 202.762 248.648 202.208C250.239 201.758 251.072 201.835 253.271 197.853C255.599 192.349 257.018 189.312 258.009 183.219C257.996 180.468 257.475 179.198 253.775 178.401Z" fill="#FF8CBB" stroke="#FF80B4" stroke-width="0.2"/>
<path d="M259.439 185.293C259.651 181.625 260.12 179.991 264.033 180.766C266.929 181.754 267.796 182.936 267.999 186.157C266.56 192.61 264.977 196.089 262.151 202.293C260.785 205.29 258.741 206.409 255.206 206.836C252.81 207.125 250.646 209.25 248.979 211.886C247.335 214.179 243.998 218.791 243.798 218.894C241.282 222.298 239.244 221.468 236.786 219.732C235.147 218.575 234.26 217.034 239.736 209.626C242.623 205.721 246.038 204.476 248.491 204.532C250.944 204.588 252.534 201.676 254.741 197.975C257.335 193.029 258.601 190.255 259.439 185.293Z" fill="#FF8CBB" stroke="#FF80B4" stroke-width="0.2"/>
<path d="M270.155 186.614C269.906 181.258 276.075 181.348 277.383 186.538C278.008 190.332 275.787 198.82 270.999 206.562C269.348 210.272 263.651 209.753 261.726 212.356L252.993 224.169C250.771 227.396 249.438 228.814 245.93 226.343C243.476 224.81 242.728 223.686 245.51 219.952L251.949 211.242C252.911 209.94 255.666 208.534 257.96 208.173C259.846 207.762 263.931 203.676 264.136 201.716C266.187 194.935 270.097 191.754 270.155 186.614Z" fill="#FF8CBB" stroke="#FF80B4" stroke-width="0.2"/>
<path d="M221.227 99.0765C222.724 101.01 223.578 102.07 227.476 100.149C231.821 98.1503 233.076 99.3548 234.5 103.112L240.206 117.368C240.867 119.392 241.684 120.101 245.431 119.164C248.121 118.629 249.071 117.916 248.64 115.069L243.686 101.197C242.57 98.6331 240.812 96.2612 236.451 97.3159C233.212 97.9652 232.043 97.0871 230.355 94.7638L226.211 89.1575C224.848 87.1754 224.117 85.9578 221.748 87.1281C220.883 87.4342 220.36 88.4133 219.392 88.7917C217.348 89.9058 217.01 90.9936 218.511 94.1374L221.227 99.0765Z" fill="#FF8CBB" stroke="#FF80B4" stroke-width="0.2"/>
<path d="M254.281 117.639C251.957 117.776 250.791 117.582 250.092 114.503C248.893 109.557 243.703 98.9009 243.703 98.9009C243.525 98.6607 242.598 95.7194 238.221 95.9149C235.202 95.9448 233.196 95.6542 231.789 93.7522L227.497 87.9458C226.147 85.9692 225.49 84.8362 231.161 81.092C233.107 79.7177 233.535 80.1095 235.857 82.8044L242.159 90.6965C244.316 92.9821 246.136 93.2781 249.154 93.8325C250.745 94.2823 251.578 94.205 253.776 98.1871C256.105 103.691 257.524 106.728 258.515 112.821C258.502 115.572 257.981 116.842 254.281 117.639Z" fill="#FF8CBB" stroke="#FF80B4" stroke-width="0.2"/>
<path d="M259.943 110.745C260.156 114.413 260.625 116.048 264.537 115.272C267.434 114.284 268.301 113.103 268.503 109.881C267.064 103.428 265.482 99.9492 262.655 93.7454C261.289 90.7481 259.246 89.6298 255.711 89.2021C253.314 88.9132 251.15 86.7887 249.483 84.1524C247.84 81.8591 244.503 77.2469 244.302 77.1446C241.786 73.7408 239.749 74.5699 237.29 76.306C235.652 77.4632 234.764 79.0043 240.241 86.4125C243.127 90.3169 246.542 91.5623 248.995 91.5062C251.448 91.4501 253.039 94.3621 255.246 98.0633C257.839 103.009 259.106 105.784 259.943 110.745Z" fill="#FF8CBB" stroke="#FF80B4" stroke-width="0.2"/>
<path d="M270.661 109.426C270.412 114.783 276.582 114.693 277.889 109.503C278.515 105.709 276.294 97.2206 271.505 89.4787C269.854 85.7686 264.157 86.2872 262.233 83.6843L253.5 71.8711C251.278 68.6445 249.945 67.2264 246.436 69.6974C243.983 71.2307 243.235 72.3545 246.016 76.0889L252.455 84.7986C253.417 86.1 256.172 87.5066 258.466 87.868C260.352 88.2788 264.437 92.3646 264.642 94.3249C266.693 101.105 270.603 104.286 270.661 109.426Z" fill="#FF8CBB" stroke="#FF80B4" stroke-width="0.2"/>
<path d="M32.335 81.175C40.105 65.8344 46.5236 58.195 60.5038 45.7996" stroke="#FF80B4" stroke-width="0.5"/>
<path d="M266.007 81.175C258.237 65.8344 251.819 58.195 237.839 45.7996" stroke="#FF80B4" stroke-width="0.5"/>
<path d="M266.007 215.097C258.237 230.437 251.819 238.077 237.839 250.472" stroke="#FF80B4" stroke-width="0.5"/>
<path d="M30.4136 215.097C38.1836 230.437 44.6022 238.077 58.5824 250.472" stroke="#FF80B4" stroke-width="0.5"/>
<path d="M13.685 127.922C10.4687 144.776 10.8972 154.69 14.4317 172.905" stroke="#FF80B4" stroke-width="0.5"/>
<path d="M283.316 126.658C286.532 143.512 286.104 153.426 282.569 171.641" stroke="#FF80B4" stroke-width="0.5"/>
<path d="M126.442 15.7839C143.476 12.3781 153.529 12.664 172.036 15.9" stroke="#FF80B4" stroke-width="0.5"/>
<path d="M126.442 281.216C143.476 284.622 153.529 284.336 172.036 281.1" stroke="#FF80B4" stroke-width="0.2"/>
<ellipse cx="148.501" cy="147.114" rx="60.7769" ry="60.0445" fill="white"/>
<ellipse cx="148.501" cy="147.114" rx="33.4273" ry="33.0245" fill="#D9D9D9"/>
<ellipse cx="148.501" cy="99.078" rx="4.55827" ry="4.50334" fill="#D9D9D9"/>
<ellipse cx="172.812" cy="105.082" rx="4.55827" ry="4.50334" fill="#D9D9D9"/>
<ellipse cx="183.447" cy="112.588" rx="4.55827" ry="4.50334" fill="#D9D9D9"/>
<ellipse cx="191.044" cy="121.595" rx="4.55827" ry="4.50334" fill="#D9D9D9"/>
<ellipse cx="172.812" cy="192.147" rx="4.55827" ry="4.50334" fill="#D9D9D9"/>
<ellipse cx="160.656" cy="196.651" rx="4.55827" ry="4.50334" fill="#D9D9D9"/>
<ellipse cx="148.501" cy="198.151" rx="4.55827" ry="4.50334" fill="#D9D9D9"/>
<ellipse cx="124.19" cy="190.646" rx="4.55827" ry="4.50334" fill="#D9D9D9"/>
<ellipse cx="113.553" cy="183.14" rx="4.55827" ry="4.50334" fill="#D9D9D9"/>
<ellipse cx="105.957" cy="172.632" rx="4.55827" ry="4.50334" fill="#D9D9D9"/>
<ellipse cx="98.3595" cy="148.615" rx="4.55827" ry="4.50334" fill="#D9D9D9"/>
<ellipse cx="101.399" cy="135.105" rx="4.55827" ry="4.50334" fill="#D9D9D9"/>
<ellipse cx="105.957" cy="123.096" rx="4.55827" ry="4.50334" fill="#D9D9D9"/>
<ellipse cx="134.826" cy="100.579" rx="4.55827" ry="4.50334" fill="#D9D9D9"/>
<ellipse cx="122.671" cy="106.584" rx="4.55827" ry="4.50334" fill="#D9D9D9"/>
<path d="M200.921 138.861C202.693 137.86 207.283 134.963 207.283 134.994C212.791 157.2 202.274 178.795 191.53 188.399L181.928 173.386C190.845 161.232 192.546 153.59 191.044 138.861L197.882 135.108L200.921 138.861Z" fill="#D9D9D9" stroke="#D9D9D9"/>
<ellipse cx="148.5" cy="147.114" rx="24.3108" ry="24.0178" fill="#939393"/>
<rect x="146.981" y="166.628" width="3.03884" height="9.00668" fill="#D9D9D9"/>
<rect x="146.981" y="118.593" width="3.03884" height="9.00668" fill="#D9D9D9"/>
<rect x="169.772" y="148.615" width="3.00223" height="9.11653" transform="rotate(-90 169.772 148.615)" fill="#D9D9D9"/>
<rect x="119.632" y="148.615" width="3.00223" height="9.11653" transform="rotate(-90 119.632 148.615)" fill="#D9D9D9"/>
<rect width="3.01937" height="9.06542" transform="matrix(0.687599 -0.72609 0.734354 0.678767 127.229 128.29)" fill="#D9D9D9"/>
<rect width="3.01937" height="9.06542" transform="matrix(0.687599 -0.72609 0.734354 0.678767 162.175 162.816)" fill="#D9D9D9"/>
<rect width="3.01795" height="9.0697" transform="matrix(0.658623 0.752473 -0.76032 0.649549 132.461 159.287)" fill="#D9D9D9"/>
<rect width="3.01795" height="9.0697" transform="matrix(0.658623 0.752473 -0.76032 0.649549 169.071 126.098)" fill="#D9D9D9"/>
<ellipse cx="148.501" cy="147.114" rx="60.7769" ry="60.0445" fill="white"/>
<ellipse cx="148.501" cy="147.114" rx="33.4273" ry="33.0245" fill="#D9D9D9"/>
<ellipse cx="148.501" cy="99.078" rx="4.55827" ry="4.50334" fill="#D9D9D9"/>
<ellipse cx="172.812" cy="105.082" rx="4.55827" ry="4.50334" fill="#D9D9D9"/>
<ellipse cx="183.447" cy="112.588" rx="4.55827" ry="4.50334" fill="#D9D9D9"/>
<ellipse cx="191.044" cy="121.595" rx="4.55827" ry="4.50334" fill="#D9D9D9"/>
<ellipse cx="172.812" cy="192.147" rx="4.55827" ry="4.50334" fill="#D9D9D9"/>
<ellipse cx="160.656" cy="196.651" rx="4.55827" ry="4.50334" fill="#D9D9D9"/>
<ellipse cx="148.501" cy="198.151" rx="4.55827" ry="4.50334" fill="#D9D9D9"/>
<ellipse cx="124.19" cy="190.646" rx="4.55827" ry="4.50334" fill="#D9D9D9"/>
<ellipse cx="113.553" cy="183.14" rx="4.55827" ry="4.50334" fill="#D9D9D9"/>
<ellipse cx="105.957" cy="172.632" rx="4.55827" ry="4.50334" fill="#D9D9D9"/>
<ellipse cx="98.3595" cy="148.615" rx="4.55827" ry="4.50334" fill="#D9D9D9"/>
<ellipse cx="101.399" cy="135.105" rx="4.55827" ry="4.50334" fill="#D9D9D9"/>
<ellipse cx="105.957" cy="123.096" rx="4.55827" ry="4.50334" fill="#D9D9D9"/>
<ellipse cx="134.826" cy="100.579" rx="4.55827" ry="4.50334" fill="#D9D9D9"/>
<ellipse cx="122.671" cy="106.584" rx="4.55827" ry="4.50334" fill="#D9D9D9"/>
<path d="M200.921 138.861C202.693 137.86 207.283 134.963 207.283 134.994C212.791 157.2 202.274 178.795 191.53 188.399L181.928 173.386C190.845 161.232 192.546 153.59 191.044 138.861L197.882 135.108L200.921 138.861Z" fill="#D9D9D9" stroke="#D9D9D9"/>
<ellipse cx="148.5" cy="147.114" rx="24.3108" ry="24.0178" fill="#FF0066"/>
<rect x="146.981" y="166.628" width="3.03884" height="9.00668" fill="#D9D9D9"/>
<rect x="146.981" y="118.593" width="3.03884" height="9.00668" fill="#D9D9D9"/>
<rect x="169.772" y="148.615" width="3.00223" height="9.11653" transform="rotate(-90 169.772 148.615)" fill="#D9D9D9"/>
<rect x="119.632" y="148.615" width="3.00223" height="9.11653" transform="rotate(-90 119.632 148.615)" fill="#D9D9D9"/>
<rect width="3.01937" height="9.06542" transform="matrix(0.687599 -0.72609 0.734354 0.678767 127.229 128.29)" fill="#D9D9D9"/>
<rect width="3.01937" height="9.06542" transform="matrix(0.687599 -0.72609 0.734354 0.678767 162.175 162.816)" fill="#D9D9D9"/>
<rect width="3.01795" height="9.0697" transform="matrix(0.658623 0.752473 -0.76032 0.649549 132.461 159.287)" fill="#D9D9D9"/>
<rect width="3.01795" height="9.0697" transform="matrix(0.658623 0.752473 -0.76032 0.649549 169.071 126.098)" fill="#D9D9D9"/>
</g>
<defs>
<clipPath id="clip0_474_912">
<rect width="297" height="297" fill="white"/>
</clipPath>
</defs>
</svg>
