<svg width="297" height="297" viewBox="0 0 297 297" fill="none" xmlns="http://www.w3.org/2000/svg">
<circle cx="148.5" cy="148.5" r="135" stroke="#287621"/>
<path d="M153.856 62.6555C146.87 59.4665 147.197 58.1677 149.369 51.3638C151.128 51.6514 151.54 49.1922 153.422 49.0476C158.895 48.4515 160.95 49.337 161.384 51.9429C162.22 57.3779 162.832 60.7735 160.95 62.6555C159.357 63.6688 157.719 64.0881 153.856 62.6555Z" fill="#C2FFB7" stroke="#C2FFB7"/>
<path d="M140.039 62.6885C147.025 59.4995 146.698 58.2006 144.526 51.3968C142.767 51.6844 142.355 49.2252 140.473 49.0805C135 48.4845 132.945 49.37 132.511 51.9758C131.675 57.4108 131.063 60.8065 132.945 62.6885C134.538 63.7018 136.176 64.1211 140.039 62.6885Z" fill="#C2FFB7" stroke="#C2FFB7"/>
<path d="M158.199 84.9489C157.186 86.5411 154.58 86.8307 152.408 87.2651C149.224 87.8442 147.486 90.3052 147.776 93.0557C148.103 100.087 149.503 100.393 152.119 100.583C154.597 100.644 155.727 100.459 157.765 100.149C166.563 97.7351 164.573 92.4106 165.582 85.5279C165.872 83.7906 164.781 82.8769 162.397 83.5012C160.696 82.9817 159.757 82.9684 158.199 84.9489Z" fill="#C2FFB7" stroke="#C2FFB7"/>
<path d="M136.241 85.1005C137.254 86.6927 139.86 86.9823 142.032 87.4167C145.216 87.9958 146.953 90.4568 146.664 93.2073C146.337 100.238 144.937 100.545 142.321 100.735C139.843 100.795 138.713 100.611 136.675 100.301C127.877 97.8867 129.866 92.5622 128.858 85.6795C128.568 83.9422 129.659 83.0285 132.043 83.6528C133.744 83.1333 134.683 83.12 136.241 85.1005Z" fill="#C2FFB7" stroke="#C2FFB7"/>
<path d="M152.119 104.492C150.093 103.044 148.935 104.202 148.935 106.953L149.369 117.955C149.473 120.36 150.672 121.719 153.857 119.692C158.229 115.758 161.593 114.654 161.529 105.36C161.529 104.347 159.792 103.913 158.779 105.071C156.728 106.373 155.68 107.383 152.119 104.492Z" fill="#C2FFB7" stroke="#C2FFB7"/>
<path d="M143.144 104.54C145.171 103.092 146.329 104.25 146.329 107.001L145.894 118.003C145.791 120.408 144.591 121.767 141.407 119.74C137.035 115.806 133.67 114.702 133.734 105.408C133.734 104.395 135.471 103.961 136.485 105.119C138.535 106.421 139.583 107.431 143.144 104.54Z" fill="#C2FFB7" stroke="#C2FFB7"/>
<path d="M168.912 145.605C171.372 145.605 170.793 143.723 171.952 141.262C172.964 138.222 174.846 136.05 177.164 133.879C178.186 132.534 178.447 131.743 177.164 130.115C175.85 129.008 174.908 128.576 171.952 129.246C168.933 130.053 167.243 130.72 164.28 133.879C159.357 140.538 161.638 145.394 168.912 145.605Z" fill="#C2FFB7" stroke="#C2FFB7"/>
<path d="M126.35 145.491C123.89 145.491 124.469 143.608 123.31 141.148C122.298 138.107 120.416 135.936 118.098 133.765C117.076 132.42 116.816 131.628 118.098 130.001C119.413 128.894 120.354 128.461 123.31 129.132C126.33 129.939 128.019 130.606 130.983 133.765C135.906 140.424 133.624 145.28 126.35 145.491Z" fill="#C2FFB7" stroke="#C2FFB7"/>
<path d="M159.358 119.259C158.2 120.706 155.304 122.299 151.975 123.312C149.648 124.425 148.737 125.424 148.79 128.813C149.369 136.92 165.583 129.392 166.451 121.72C166.451 119.982 165.82 118.593 163.122 117.521C162.119 117.086 161.24 116.942 159.358 119.259Z" fill="#C2FFB7" stroke="#C2FFB7"/>
<path d="M135.907 119.227C137.065 120.674 139.96 122.267 143.29 123.28C145.617 124.393 146.527 125.392 146.474 128.782C145.895 136.888 129.682 129.36 128.813 121.688C128.813 119.951 129.444 118.561 132.143 117.49C133.145 117.054 134.025 116.911 135.907 119.227Z" fill="#C2FFB7" stroke="#C2FFB7"/>
<path d="M154.58 68.8803C151.54 68.1565 149.947 70.0385 149.947 72.4995C149.168 82.1071 150.755 81.6639 153.277 81.7644C156.172 81.7644 156.172 82.054 157.33 81.7644C160.371 80.9435 161.79 79.4136 163.266 72.789C163.788 70.3417 163.009 69.7395 160.515 69.4594C157.799 69.3879 156.603 69.221 154.58 68.8803Z" fill="#C2FFB7" stroke="#C2FFB7"/>
<path d="M139.678 68.748C142.718 68.0242 144.311 69.9062 144.311 72.3671C145.089 81.9748 143.502 81.5316 140.981 81.6321C138.086 81.6321 138.086 81.9217 136.927 81.6321C133.887 80.8111 132.467 79.2813 130.992 72.6567C130.47 70.2093 131.249 69.6072 133.743 69.3271C136.459 69.2556 137.655 69.0886 139.678 68.748Z" fill="#C2FFB7" stroke="#C2FFB7"/>
<path d="M154.654 231.361C147.667 234.55 147.995 235.849 150.166 242.653C151.926 242.365 152.338 244.824 154.219 244.969C159.693 245.565 161.747 244.679 162.181 242.073C163.017 236.638 163.629 233.243 161.747 231.361C160.155 230.348 158.516 229.928 154.654 231.361Z" fill="#C2FFB7" stroke="#C2FFB7"/>
<path d="M140.907 231.361C147.893 234.55 147.566 235.849 145.395 242.653C143.635 242.365 143.223 244.824 141.341 244.969C135.868 245.565 133.813 244.679 133.379 242.073C132.543 236.638 131.931 233.243 133.813 231.361C135.406 230.348 137.045 229.928 140.907 231.361Z" fill="#C2FFB7" stroke="#C2FFB7"/>
<path d="M144.591 40.0721C141.985 31.8207 131.997 33.1236 131.273 38.1901C130.23 44.1574 131.566 45.1353 134.892 45.7179C137.932 46.0077 139.09 46.7312 141.985 46.7312C145.938 46.1527 145.583 44.0568 144.591 40.0721Z" fill="#C2FFB7" stroke="#C2FFB7"/>
<path d="M148.574 40.0743C151.18 31.8229 161.169 33.1258 161.893 38.1923C162.935 44.1596 161.6 45.1375 158.274 45.7201C155.234 46.0098 154.076 46.7334 151.18 46.7334C147.227 46.1549 147.583 44.059 148.574 40.0743Z" fill="#C2FFB7" stroke="#C2FFB7"/>
<path d="M136.05 29.5044C131.707 29.3597 132.687 27.6225 131.707 25.5958C131.175 24.4945 131.278 23.8552 131.707 22.7005C132.682 20.5668 134.77 20.5348 138.366 20.3843C142.523 20.2332 142.5 21.5948 143.433 23.4243C144.303 26.0301 143.44 27.4308 141.841 28.6359L141.808 28.648C140.032 29.3156 139.025 29.694 136.05 29.5044Z" fill="#C2FFB7" stroke="#C2FFB7"/>
<path d="M157.386 28.792C161.729 28.6473 160.75 26.9101 161.729 24.8834C162.262 23.7821 162.158 23.1428 161.729 21.9881C160.754 19.8544 158.667 19.8224 155.07 19.6719C150.914 19.5208 150.937 20.8824 150.003 22.7119C149.134 25.3177 149.996 26.7184 151.596 27.9235L151.628 27.9356C153.404 28.6032 154.411 28.9816 157.386 28.792Z" fill="#C2FFB7" stroke="#C2FFB7"/>
<path d="M145.951 255.049C143.345 263.301 133.356 261.998 132.633 256.931C131.59 250.964 132.926 249.986 136.252 249.403C139.291 249.114 140.45 248.39 143.345 248.39C147.298 248.969 146.942 251.065 145.951 255.049Z" fill="#C2FFB7" stroke="#C2FFB7"/>
<path d="M149.934 255.047C152.54 263.298 162.529 261.996 163.253 256.929C164.295 250.962 162.959 249.984 159.634 249.401C156.594 249.111 155.436 248.388 152.54 248.388C148.587 248.966 148.943 251.062 149.934 255.047Z" fill="#C2FFB7" stroke="#C2FFB7"/>
<path d="M137.409 265.617C133.066 265.762 134.046 267.499 133.066 269.526C132.534 270.627 132.637 271.266 133.066 272.421C134.041 274.555 136.128 274.587 139.725 274.737C143.882 274.888 143.859 273.527 144.792 271.697C145.662 269.091 144.799 267.691 143.2 266.485L143.167 266.473C141.391 265.806 140.384 265.427 137.409 265.617Z" fill="#C2FFB7" stroke="#C2FFB7"/>
<path d="M158.747 266.33C163.09 266.474 162.11 268.211 163.09 270.238C163.622 271.339 163.519 271.979 163.09 273.133C162.115 275.267 160.027 275.299 156.43 275.45C152.274 275.601 152.297 274.239 151.364 272.41C150.494 269.804 151.357 268.403 152.956 267.198L152.988 267.186C154.765 266.518 155.771 266.14 158.747 266.33Z" fill="#C2FFB7" stroke="#C2FFB7"/>
<path d="M158.954 209.023C157.941 207.431 155.336 207.141 153.164 206.707C149.979 206.128 148.242 203.667 148.531 200.916C148.858 193.885 150.258 193.578 152.874 193.388C155.352 193.328 156.482 193.513 158.52 193.823C167.319 196.237 165.329 201.561 166.337 208.444C166.627 210.181 165.537 211.095 163.152 210.471C161.452 210.99 160.513 211.004 158.954 209.023Z" fill="#C2FFB7" stroke="#C2FFB7"/>
<path d="M136.241 209.006C137.254 207.414 139.86 207.125 142.032 206.69C145.216 206.111 146.953 203.65 146.664 200.9C146.337 193.869 144.937 193.562 142.321 193.372C139.843 193.312 138.713 193.496 136.675 193.806C127.877 196.22 129.866 201.545 128.858 208.427C128.568 210.165 129.659 211.078 132.043 210.454C133.744 210.974 134.683 210.987 136.241 209.006Z" fill="#C2FFB7" stroke="#C2FFB7"/>
<path d="M143.144 189.566C145.171 191.013 146.329 189.855 146.329 187.105L145.894 176.103C145.791 173.697 144.591 172.339 141.407 174.366L133.299 184.547C131.327 183.865 129.891 184.736 125.771 192.219C118.519 189.673 117.289 194.093 115.203 202.208C114.701 204.972 115.204 205.999 117.375 206.985C119.591 206.23 120.294 206.706 121.283 207.999C122.297 209.012 125.771 209.012 126.35 207.999C125.964 196.932 129.002 193.21 136.485 188.987C138.535 187.684 139.583 186.675 143.144 189.566Z" fill="#C2FFB7" stroke="#C2FFB7"/>
<path d="M151.974 189.586C149.948 191.034 148.79 189.876 148.79 187.125L149.224 176.123C149.328 173.718 150.527 172.359 153.712 174.386L161.819 184.567C163.792 183.885 165.227 184.756 169.347 192.239C176.599 189.694 177.83 194.113 179.915 202.228C180.417 204.992 179.914 206.02 177.743 207.005C175.528 206.25 174.824 206.726 173.835 208.019C172.821 209.032 169.347 209.032 168.768 208.019C169.154 196.952 166.116 193.23 158.634 189.007C156.583 187.705 155.535 186.695 151.974 189.586Z" fill="#C2FFB7" stroke="#C2FFB7"/>
<path d="M168.912 148.501C171.372 148.501 170.793 150.383 171.952 152.844C172.964 155.884 174.846 158.055 177.164 160.227C178.186 161.572 178.447 162.363 177.164 163.99C175.85 165.098 174.908 165.53 171.952 164.859C168.933 164.052 167.243 163.385 164.28 160.227C159.357 153.568 161.638 148.711 168.912 148.501Z" fill="#C2FFB7" stroke="#C2FFB7"/>
<path d="M126.35 148.616C123.89 148.616 124.469 150.498 123.31 152.959C122.298 155.999 120.416 158.171 118.098 160.342C117.076 161.687 116.816 162.478 118.098 164.106C119.413 165.213 120.354 165.645 123.31 164.974C126.33 164.167 128.019 163.501 130.983 160.342C135.906 153.683 133.624 148.826 126.35 148.616Z" fill="#C2FFB7" stroke="#C2FFB7"/>
<path d="M159.358 174.848C158.2 173.4 155.304 171.808 151.975 170.795C149.648 169.682 148.737 168.682 148.79 165.293C149.369 157.187 165.583 164.715 166.451 172.387C166.451 174.124 165.82 175.514 163.122 176.585C162.119 177.021 161.24 177.164 159.358 174.848Z" fill="#C2FFB7" stroke="#C2FFB7"/>
<path d="M135.907 174.88C137.065 173.432 139.96 171.84 143.29 170.827C145.617 169.714 146.527 168.714 146.474 165.325C145.895 157.219 129.682 164.747 128.813 172.419C128.813 174.156 129.444 175.546 132.143 176.617C133.145 177.053 134.025 177.196 135.907 174.88Z" fill="#C2FFB7" stroke="#C2FFB7"/>
<path d="M154.58 225.226C151.54 225.95 149.947 224.068 149.947 221.607C149.168 211.999 150.755 212.443 153.277 212.342C156.172 212.342 156.172 212.052 157.33 212.342C160.371 213.163 161.79 214.693 163.266 221.317C163.788 223.765 163.009 224.367 160.515 224.647C157.799 224.719 156.603 224.885 154.58 225.226Z" fill="#C2FFB7" stroke="#C2FFB7"/>
<path d="M140.547 225.21C143.587 225.934 145.18 224.052 145.18 221.591C145.959 211.983 144.372 212.426 141.85 212.326C138.955 212.326 138.955 212.036 137.797 212.326C134.756 213.147 133.336 214.676 131.861 221.301C131.339 223.748 132.118 224.351 134.612 224.631C137.328 224.702 138.524 224.869 140.547 225.21Z" fill="#C2FFB7" stroke="#C2FFB7"/>
<path d="M231.785 139.038C235.041 145.961 236.307 145.608 242.925 143.304C242.61 141.55 245.009 141.09 245.114 139.205C245.593 133.721 244.686 131.685 242.127 131.302C236.791 130.573 233.455 130.028 231.649 131.946C230.688 133.559 230.309 135.205 231.785 139.038Z" fill="#C2FFB7" stroke="#C2FFB7"/>
<path d="M232.049 152.782C235.037 145.734 236.315 146.036 243.017 148.074C242.769 149.839 245.184 150.202 245.362 152.081C246.051 157.541 245.223 159.613 242.681 160.098C237.377 161.041 234.064 161.719 232.186 159.874C231.163 158.302 230.721 156.672 232.049 152.782Z" fill="#C2FFB7" stroke="#C2FFB7"/>
<path d="M255.141 147.273C263.268 149.716 262.185 159.728 257.239 160.552C251.418 161.711 250.435 160.395 249.801 157.081C249.459 154.048 248.728 152.904 248.672 150.009C249.163 146.045 251.221 146.36 255.141 147.273Z" fill="#C2FFB7" stroke="#C2FFB7"/>
<path d="M255.062 143.291C263.089 140.524 261.622 130.563 256.648 129.939C250.787 129.014 249.855 130.368 249.349 133.705C249.124 136.75 248.438 137.922 248.494 140.817C249.136 144.758 251.181 144.361 255.062 143.291Z" fill="#C2FFB7" stroke="#C2FFB7"/>
<path d="M265.65 155.606C265.875 159.946 267.557 158.932 269.56 159.872C270.648 160.382 271.272 160.266 272.394 159.815C274.464 158.798 274.455 156.711 274.533 153.112C274.601 148.953 273.269 149.003 271.46 148.105C268.893 147.287 267.538 148.177 266.389 149.8L266.378 149.833C265.759 151.622 265.408 152.635 265.65 155.606Z" fill="#C2FFB7" stroke="#C2FFB7"/>
<path d="M265.937 134.259C265.995 129.914 267.714 130.859 269.679 129.84C270.747 129.286 271.375 129.377 272.514 129.783C274.621 130.716 274.692 132.802 274.909 136.396C275.137 140.548 273.803 140.552 272.03 141.521C269.496 142.442 268.109 141.607 266.898 140.031L266.886 139.999C266.198 138.236 265.808 137.237 265.937 134.259Z" fill="#C2FFB7" stroke="#C2FFB7"/>
<path d="M209.836 135.178C208.297 136.222 208.064 138.833 207.68 141.013C207.175 144.208 204.799 145.993 202.101 145.758C195.212 145.569 194.885 144.175 194.649 141.564C194.542 139.087 194.701 137.954 194.965 135.91C197.159 127.066 202.409 128.951 209.128 127.807C210.823 127.483 211.738 128.556 211.173 130.952C211.714 132.642 211.745 133.581 209.836 135.178Z" fill="#C2FFB7" stroke="#C2FFB7"/>
<path d="M210.255 157.887C208.677 156.905 208.343 154.306 207.876 152.143C207.248 148.97 204.806 147.282 202.119 147.625C195.243 148.09 194.969 149.496 194.833 152.115C194.822 154.594 195.024 155.72 195.367 157.751C197.899 166.501 203.073 164.407 209.83 165.28C211.536 165.536 212.41 164.427 211.753 162.056C212.229 160.345 212.224 159.406 210.255 157.887Z" fill="#C2FFB7" stroke="#C2FFB7"/>
<path d="M191.094 151.367C192.472 149.312 191.316 148.177 188.624 148.231L177.862 148.881C175.509 149.032 174.202 150.258 176.248 153.402L186.37 161.308C185.741 163.294 186.621 164.712 194.025 168.684C191.673 175.984 196.023 177.128 204.006 179.054C206.721 179.502 207.718 178.978 208.641 176.789C207.859 174.588 208.312 173.875 209.558 172.861C210.53 171.828 210.464 168.354 209.461 167.795C198.635 168.399 194.933 165.434 190.655 158.036C189.341 156.011 188.332 154.984 191.094 151.367Z" fill="#C2FFB7" stroke="#C2FFB7"/>
<path d="M190.942 142.537C192.398 144.535 191.287 145.716 188.594 145.77L177.816 145.552C175.459 145.496 174.106 144.323 176.029 141.099L185.839 132.793C185.134 130.835 185.959 129.382 193.205 125.116C190.574 117.916 194.877 116.598 202.78 114.354C205.476 113.797 206.491 114.28 207.498 116.431C206.801 118.662 207.281 119.356 208.565 120.319C209.577 121.313 209.644 124.786 208.663 125.385C197.822 125.216 194.237 128.327 190.247 135.891C189.012 137.967 188.044 139.034 190.942 142.537Z" fill="#C2FFB7" stroke="#C2FFB7"/>
<path d="M225.78 139.232C226.547 142.258 224.735 143.887 222.326 143.935C212.936 144.903 213.34 143.307 213.193 140.788C213.137 137.893 212.854 137.899 213.115 136.735C213.86 133.679 215.33 132.23 221.787 130.625C224.172 130.055 224.777 130.822 225.099 133.309C225.221 136.024 225.408 137.216 225.78 139.232Z" fill="#C2FFB7" stroke="#C2FFB7"/>
<path d="M226.036 153.264C226.686 150.21 224.813 148.655 222.404 148.703C212.984 148.113 213.448 149.691 213.398 152.214C213.454 155.109 213.171 155.115 213.476 156.267C214.339 159.291 215.863 160.68 222.377 162.025C224.782 162.498 225.357 161.708 225.583 159.209C225.601 156.492 225.741 155.293 226.036 153.264Z" fill="#C2FFB7" stroke="#C2FFB7"/>
<path d="M63.1878 140.79C59.9318 147.712 58.6666 147.359 52.0481 145.055C52.3635 143.301 49.9641 142.841 49.8587 140.957C49.3805 135.473 50.2868 133.436 52.846 133.053C58.1824 132.324 61.5182 131.779 63.3242 133.698C64.2856 135.31 64.6645 136.956 63.1878 140.79Z" fill="#C2FFB7" stroke="#C2FFB7"/>
<path d="M62.9242 154.535C59.9369 147.487 58.6591 147.789 51.9571 149.826C52.2048 151.591 49.7896 151.955 49.6118 153.833C48.923 159.294 49.7503 161.365 52.2929 161.851C57.5971 162.793 60.9093 163.472 62.7878 161.627C63.8104 160.054 64.2523 158.424 62.9242 154.535Z" fill="#C2FFB7" stroke="#C2FFB7"/>
<path d="M39.8314 149.025C31.7041 151.468 32.7873 161.481 37.733 162.304C43.5544 163.464 44.5373 162.147 45.1716 158.834C45.5137 155.8 46.2443 154.656 46.2999 151.761C45.8096 147.798 43.7511 148.112 39.8314 149.025Z" fill="#C2FFB7" stroke="#C2FFB7"/>
<path d="M39.9108 145.043C31.8837 142.276 33.3511 132.315 38.3247 131.691C44.1861 130.766 45.1177 132.12 45.624 135.457C45.8492 138.502 46.5352 139.674 46.4795 142.569C45.8371 146.51 43.7923 146.113 39.9108 145.043Z" fill="#C2FFB7" stroke="#C2FFB7"/>
<path d="M29.3234 157.359C29.0981 161.698 27.4165 160.684 25.4137 161.624C24.3254 162.135 23.7016 162.019 22.5795 161.567C20.5096 160.55 20.5183 158.463 20.4402 154.864C20.3722 150.705 21.7047 150.755 23.5135 149.858C26.081 149.039 27.4356 149.929 28.5845 151.552L28.5958 151.585C29.2151 153.374 29.5661 154.388 29.3234 157.359Z" fill="#C2FFB7" stroke="#C2FFB7"/>
<path d="M29.037 136.013C28.9788 131.668 27.2594 132.613 25.2943 131.594C24.2265 131.04 23.5987 131.131 22.4601 131.537C20.3527 132.47 20.2812 134.556 20.0647 138.149C19.8368 142.302 21.1702 142.305 22.9431 143.275C25.4772 144.195 26.8649 143.361 28.0753 141.785L28.0879 141.753C28.7756 139.99 29.1653 138.991 29.037 136.013Z" fill="#C2FFB7" stroke="#C2FFB7"/>
<path d="M86.8736 136.046C88.4128 137.09 88.6461 139.701 89.0296 141.881C89.5352 145.077 91.9109 146.862 94.609 146.627C101.498 146.438 101.825 145.044 102.061 142.432C102.168 139.956 102.009 138.823 101.745 136.779C99.5509 127.935 94.3005 129.82 87.5825 128.676C85.8874 128.352 84.972 129.425 85.5373 131.821C84.996 133.511 84.9649 134.449 86.8736 136.046Z" fill="#C2FFB7" stroke="#C2FFB7"/>
<path d="M86.4554 158.756C88.0336 157.774 88.3671 155.175 88.8341 153.012C89.4622 149.839 91.9047 148.151 94.5916 148.494C101.468 148.959 101.741 150.365 101.877 152.984C101.888 155.463 101.686 156.589 101.343 158.62C98.811 167.37 93.6371 165.276 86.8803 166.149C85.174 166.405 84.3006 165.296 84.9576 162.925C84.4817 161.214 84.4867 160.275 86.4554 158.756Z" fill="#C2FFB7" stroke="#C2FFB7"/>
<path d="M105.617 152.235C104.24 150.18 105.396 149.045 108.088 149.099L118.849 149.749C121.202 149.9 122.509 151.126 120.464 154.27L110.342 162.176C110.971 164.162 110.091 165.58 102.686 169.552C105.039 176.852 100.689 177.996 92.7049 179.922C89.99 180.37 88.9935 179.846 88.0703 177.657C88.8526 175.456 88.3999 174.743 87.1535 173.729C86.181 172.696 86.2478 169.222 87.2509 168.663C98.0768 169.267 101.779 166.302 106.056 158.904C107.371 156.879 108.379 155.852 105.617 152.235Z" fill="#C2FFB7" stroke="#C2FFB7"/>
<path d="M105.768 143.407C104.312 145.405 105.423 146.585 108.116 146.639L118.894 146.421C121.251 146.365 122.604 145.192 120.681 141.968L110.871 133.662C111.575 131.704 110.751 130.252 103.505 125.985C106.136 118.785 101.833 117.467 93.9299 115.223C91.2343 114.666 90.2185 115.15 89.2117 117.3C89.9088 119.531 89.429 120.225 88.1446 121.188C87.1331 122.182 87.0663 125.655 88.0472 126.254C98.8879 126.085 102.473 129.196 106.463 136.76C107.698 138.836 108.666 139.903 105.768 143.407Z" fill="#C2FFB7" stroke="#C2FFB7"/>
<path d="M69.1921 140.984C68.4251 144.009 70.2368 145.638 72.6458 145.687C82.0357 146.654 81.6324 145.059 81.7793 142.54C81.835 139.645 82.1184 139.651 81.8572 138.487C81.1121 135.431 79.6418 133.982 73.1853 132.377C70.7997 131.807 70.1953 132.574 69.8731 135.061C69.7509 137.776 69.5645 138.968 69.1921 140.984Z" fill="#C2FFB7" stroke="#C2FFB7"/>
<path d="M68.9389 155.015C68.2888 151.962 70.1617 150.406 72.5707 150.455C81.9906 149.865 81.5262 151.443 81.5762 153.966C81.5205 156.861 81.804 156.866 81.4982 158.018C80.6361 161.042 79.1112 162.431 72.598 163.776C70.1923 164.25 69.6178 163.459 69.3916 160.961C69.3739 158.244 69.2334 157.045 68.9389 155.015Z" fill="#C2FFB7" stroke="#C2FFB7"/>
<path d="M168.478 94.2146C168.764 96.6399 168.254 97.4683 167.03 98.7023C163.821 102.034 164.587 103.025 169.781 103.48C176.439 103.48 177.704 99.7145 178.467 91.6088C178.467 89.1478 177.196 87.6767 173.69 86.8316C169.47 85.774 168.771 88.1864 168.478 94.2146Z" fill="#C2FFB7" stroke="#C2FFB7"/>
<path d="M182.665 96.8201C181.796 98.8468 179.48 105.361 176.584 105.651C172.267 107.016 170.811 108.981 168.767 113.179C170.773 114.015 174.093 116.758 173.834 117.521C173.95 117.753 174.558 114.481 179.48 112.599C182.665 111.586 184.616 108.586 185.994 105.361C186.573 103.479 183.678 95.2272 182.665 96.8201Z" fill="#C2FFB7" stroke="#C2FFB7"/>
<path d="M181.652 115.639C180.494 118.823 179.779 119.172 178.033 120.85C180.21 122.075 181.182 122.977 182.376 125.048C186.33 123.017 187.788 121.571 188.745 118.389C190.392 113.93 192.851 112.966 196.418 110.427C194.274 108.921 192.815 108.405 189.614 108.256C185.857 110.173 183.947 111.543 181.652 115.639Z" fill="#C2FFB7" stroke="#C2FFB7"/>
<path d="M125.481 93.876C125.194 96.3013 125.704 97.1297 126.928 98.3637C130.138 101.696 129.372 102.686 124.178 103.141C117.519 103.141 116.255 99.3759 115.492 91.2702C115.492 88.8092 116.762 87.3381 120.269 86.493C124.488 85.4353 125.188 87.8478 125.481 93.876Z" fill="#C2FFB7" stroke="#C2FFB7"/>
<path d="M111.295 96.4819C112.164 98.5086 114.48 105.023 117.375 105.313C121.692 106.678 123.148 108.643 125.192 112.84C123.187 113.677 119.867 116.42 120.126 117.183C120.01 117.415 119.402 114.143 114.48 112.261C111.295 111.247 109.343 108.248 107.965 105.023C107.386 103.141 110.282 94.8891 111.295 96.4819Z" fill="#C2FFB7" stroke="#C2FFB7"/>
<path d="M112.309 115.301C113.467 118.486 114.182 118.834 115.928 120.512C113.751 121.737 112.779 122.639 111.585 124.71C107.631 122.68 106.173 121.233 105.215 118.051C103.568 113.592 101.109 112.628 97.5426 110.089C99.6861 108.584 101.146 108.067 104.347 107.918C108.103 109.835 110.014 111.205 112.309 115.301Z" fill="#C2FFB7" stroke="#C2FFB7"/>
<path d="M182.665 196.418C181.796 194.391 179.48 187.877 176.584 187.587C172.267 186.221 170.811 184.257 168.767 180.059C170.773 179.223 174.093 176.48 173.834 175.716C173.95 175.485 174.558 178.757 179.48 180.638C182.665 181.652 184.616 184.651 185.994 187.877C186.573 189.759 183.678 198.011 182.665 196.418Z" fill="#C2FFB7" stroke="#C2FFB7"/>
<path d="M181.652 177.598C180.494 174.413 179.779 174.065 178.033 172.387C180.21 171.161 181.182 170.26 182.376 168.188C186.33 170.219 187.788 171.666 188.745 174.848C190.392 179.307 192.851 180.271 196.418 182.81C194.274 184.315 192.815 184.832 189.614 184.981C185.857 183.064 183.947 181.694 181.652 177.598Z" fill="#C2FFB7" stroke="#C2FFB7"/>
<path d="M112.742 197.865C113.611 195.838 115.927 189.324 118.822 189.034C123.139 187.669 124.595 185.704 126.64 181.507C124.634 180.67 121.314 177.927 121.573 177.164C121.457 176.932 120.849 180.204 115.927 182.086C112.742 183.099 110.791 186.099 109.413 189.324C108.834 191.206 111.729 199.458 112.742 197.865Z" fill="#C2FFB7" stroke="#C2FFB7"/>
<path d="M113.756 179.046C114.914 175.862 115.63 175.514 117.375 173.835C115.198 172.61 114.226 171.708 113.033 169.637C109.078 171.668 107.621 173.114 106.663 176.296C105.016 180.755 102.557 181.719 98.9903 184.258C101.134 185.764 102.594 186.28 105.794 186.429C109.551 184.512 111.462 183.142 113.756 179.046Z" fill="#C2FFB7" stroke="#C2FFB7"/>
<path d="M199.747 102.175C198.214 99.5002 198.255 98.3467 199.747 96.8188C202.642 94.9367 203.221 92.7653 206.406 90.8834C210.214 89.4035 210.34 87.7916 211.762 85.3823C214.016 81.7657 215.477 80.8015 218.277 80.1708C223.488 79.8812 223.923 82.7766 221.606 84.5138C220.304 85.5271 218.711 85.0927 217.264 88.4224C216.211 90.458 215.397 90.8356 213.934 91.4625C214.976 96.5797 213.451 99.2391 207.419 103.623C203.401 105.868 201.919 105.008 199.747 102.175Z" fill="#C2FFB7" stroke="#C2FFB7"/>
<path d="M220.158 93.3451C221.545 100.87 220.158 103.044 217.553 100.583C215.263 98.242 212.628 100.895 207.13 107.966C205.248 110.572 207.564 112.454 210.893 112.02C222.151 110.724 226.077 107.184 226.239 92.7661C231.45 92.7661 232.174 88.1336 227.252 87.265C223.891 87.0541 219.435 90.0158 220.158 93.3451Z" fill="#C2FFB7" stroke="#C2FFB7"/>
<path d="M227.686 118.968C224.646 128.812 213.643 127.509 212.196 119.403C211.459 115.364 214.051 114.597 219.434 113.612C223.681 112.951 225.63 111.903 228.989 109.848C232.463 108.256 233.332 111.73 230.581 114.191C228.676 115.804 228.211 116.905 227.686 118.968Z" fill="#C2FFB7" stroke="#C2FFB7"/>
<path d="M237.091 116.653C233.327 111.876 228.694 120.417 227.247 126.642C226.813 129.827 236.662 129.103 240.999 126.642C245.24 127.239 244.666 124.862 243.895 120.852C240.076 119.662 238.946 118.604 237.091 116.653Z" fill="#C2FFB7" stroke="#C2FFB7"/>
<path d="M250.704 113.901C248.099 115.494 246.072 113.901 246.506 118.534C247.069 120.651 247.207 121.639 247.375 123.311C247.718 127 250.125 127.509 255.337 125.483C260.548 126.206 258.377 125.048 259.101 122.298C259.493 118.548 259.231 116.625 256.061 114.191C254.125 112.95 252.947 112.944 250.704 113.901Z" fill="#C2FFB7" stroke="#C2FFB7"/>
<path d="M264.023 123.456C259.679 110.572 265.615 105.795 270.538 109.993C274.445 114.191 275.459 118.968 273.288 122.877C271.84 125.193 267.634 127.517 264.023 123.456Z" fill="#C2FFB7" stroke="#C2FFB7"/>
<path d="M174.464 66.2413C164.665 69.4237 166.127 80.4058 174.254 81.7358C178.303 82.4139 179.031 79.8115 179.939 74.4145C180.538 70.1582 181.558 68.1941 183.564 64.8064C185.106 61.3091 181.619 60.491 179.198 63.2771C177.614 65.2054 176.519 65.6863 174.464 66.2413Z" fill="#C2FFB7" stroke="#C2FFB7"/>
<path d="M176.644 56.8032C181.476 60.4975 173.003 65.2532 166.799 66.7909C163.621 67.2712 164.202 57.4128 166.6 53.0397C165.941 48.8085 168.327 49.3474 172.348 50.0608C173.593 53.8614 174.668 54.9767 176.644 56.8032Z" fill="#C2FFB7" stroke="#C2FFB7"/>
<path d="M179.197 43.1525C177.643 45.7811 179.264 47.7845 174.626 47.4173C172.501 46.8855 171.512 46.7615 169.837 46.6181C166.143 46.3283 165.599 43.9287 167.55 38.6883C166.751 33.4878 167.941 35.6423 170.68 34.8786C174.424 34.4324 176.351 34.666 178.83 37.8009C180.099 39.7187 180.122 40.8964 179.197 43.1525Z" fill="#C2FFB7" stroke="#C2FFB7"/>
<path d="M169.449 29.9721C182.395 34.129 187.086 28.1246 182.817 23.2633C178.563 19.4169 173.771 18.4729 169.894 20.6997C167.599 22.1818 165.337 26.4203 169.449 29.9721Z" fill="#C2FFB7" stroke="#C2FFB7"/>
<path d="M236.082 109.559C227.831 101.163 233.477 96.6749 237.096 93.9243C245.058 102.61 239.267 101.886 236.082 109.559Z" fill="#C2FFB7" stroke="#C2FFB7"/>
<path d="M248.1 108.401C242.887 113.033 240.426 107.677 246.073 103.044C249.402 100.149 247.756 93.9899 246.941 86.9753C250.475 92.3737 253.288 95.0494 252.732 102.176C251.988 107.833 249.836 106.374 248.1 108.401Z" fill="#C2FFB7" stroke="#C2FFB7"/>
<path d="M259.824 87.1204C256.459 82.1588 255.027 81.2702 254.757 89.1471C254.757 97.8328 257.797 105.795 270.391 101.452C269.942 98.8845 269.754 97.4276 267.496 95.372C264.283 92.8822 262.284 92.154 259.824 87.1204Z" fill="#C2FFB7" stroke="#C2FFB7"/>
<path d="M192.834 95.0423C195.651 96.2955 196.794 96.1379 198.162 94.4979C199.74 91.4263 201.842 90.6295 203.39 87.2699C204.475 83.3314 206.066 83.0421 208.318 81.3821C211.687 78.7727 212.498 77.2216 212.84 74.3717C212.599 69.1577 209.674 69.02 208.182 71.5008C207.306 72.9 207.9 74.44 204.735 76.2186C202.817 77.4727 202.524 78.3208 202.049 79.8399C196.852 79.3234 194.361 81.111 190.614 87.5567C188.788 91.7823 189.795 93.1693 192.834 95.0423Z" fill="#C2FFB7" stroke="#C2FFB7"/>
<path d="M199.545 73.8393C191.918 73.2244 189.896 74.8252 192.609 77.1673C195.171 79.2067 192.8 82.0984 186.324 88.2869C183.923 90.4238 181.815 88.3107 181.909 84.9545C182.054 73.6238 185.176 69.3585 199.503 67.7318C198.973 62.5472 203.508 61.3563 204.873 66.1645C205.424 69.4867 202.931 74.2209 199.545 73.8393Z" fill="#C2FFB7" stroke="#C2FFB7"/>
<path d="M185.203 58.6825C194.394 66.0377 198.285 59.9648 200.653 56.0852C191.203 49.0469 192.512 54.734 185.203 58.6825Z" fill="#C2FFB7" stroke="#C2FFB7"/>
<path d="M183.465 46.7837C179.386 52.4399 184.965 54.3437 188.999 48.2555C191.541 44.6496 197.836 45.6608 204.897 45.758C199.167 42.7913 196.219 40.2655 189.186 41.5425C183.634 42.8577 185.304 44.8503 183.465 46.7837Z" fill="#C2FFB7" stroke="#C2FFB7"/>
<path d="M203.555 33.1657C208.833 36.0085 209.863 37.3431 202.054 38.4122C193.414 39.2951 185.184 37.0801 188.224 24.1093C190.824 24.2955 192.292 24.3343 194.567 26.3716C197.37 29.315 198.298 31.2298 203.555 33.1657Z" fill="#C2FFB7" stroke="#C2FFB7"/>
<path d="M95.191 103.624C96.724 100.949 96.6835 99.7954 95.191 98.2675C92.2957 96.3855 91.7167 94.214 88.5319 92.3321C84.7241 90.8522 84.598 89.2403 83.1756 86.8311C80.922 83.2145 79.4614 82.2502 76.6611 81.6195C71.4496 81.33 71.0153 84.2254 73.3315 85.9625C74.6344 86.9758 76.2268 86.5414 77.6745 89.8711C78.7271 91.9067 79.541 92.2843 81.0041 92.9112C79.9619 98.0284 81.4871 100.688 87.5185 105.071C91.5367 107.317 93.0188 106.457 95.191 103.624Z" fill="#C2FFB7" stroke="#C2FFB7"/>
<path d="M74.7791 94.7922C73.3921 102.317 74.7791 104.491 77.3848 102.03C79.6741 99.689 82.3098 102.342 87.8079 109.413C89.6897 112.019 87.3733 113.901 84.044 113.467C72.7868 112.171 68.8609 108.631 68.6989 94.2131C63.4874 94.2131 62.7636 89.5806 67.6856 88.712C71.0466 88.5011 75.5029 91.4628 74.7791 94.7922Z" fill="#C2FFB7" stroke="#C2FFB7"/>
<path d="M67.2514 120.416C70.2914 130.26 81.2936 128.957 82.7412 120.851C83.4779 116.812 80.8864 116.045 75.503 115.06C71.2559 114.399 69.3068 113.351 65.9485 111.296C62.4739 109.704 61.6053 113.178 64.3561 115.639C66.2612 117.252 66.7262 118.353 67.2514 120.416Z" fill="#C2FFB7" stroke="#C2FFB7"/>
<path d="M57.8462 118.1C61.6101 113.323 66.2425 121.864 67.6902 128.089C68.1245 131.274 58.2754 130.55 53.9375 128.089C49.6973 128.686 50.2707 126.308 51.0422 122.298C54.8605 121.108 55.9913 120.05 57.8462 118.1Z" fill="#C2FFB7" stroke="#C2FFB7"/>
<path d="M44.2332 115.35C46.839 116.942 48.8657 115.35 48.4314 119.982C47.8688 122.099 47.7305 123.087 47.5628 124.759C47.2196 128.448 44.8123 128.957 39.6007 126.931C34.3892 127.655 36.5607 126.496 35.8368 123.746C35.4448 119.997 35.7064 118.073 38.8769 115.639C40.8129 114.398 41.9907 114.392 44.2332 115.35Z" fill="#C2FFB7" stroke="#C2FFB7"/>
<path d="M30.9136 124.904C35.2576 112.02 29.3218 107.243 24.3991 111.441C20.4916 115.639 19.4782 120.416 21.6486 124.325C23.0973 126.641 27.3026 128.965 30.9136 124.904Z" fill="#C2FFB7" stroke="#C2FFB7"/>
<path d="M120.473 67.6886C130.272 70.8709 128.81 81.853 120.683 83.1831C116.634 83.8612 115.905 81.2588 114.998 75.8617C114.398 71.6055 113.378 69.6414 111.373 66.2537C109.831 62.7564 113.317 61.9382 115.738 64.7244C117.323 66.6527 118.417 67.1336 120.473 67.6886Z" fill="#C2FFB7" stroke="#C2FFB7"/>
<path d="M118.294 58.2507C113.463 61.945 121.936 66.7007 128.139 68.2384C131.317 68.7188 130.736 58.8603 128.338 54.4872C128.997 50.256 126.611 50.7949 122.59 51.5083C121.345 55.3089 120.271 56.4242 118.294 58.2507Z" fill="#C2FFB7" stroke="#C2FFB7"/>
<path d="M115.74 44.6C117.294 47.2286 115.673 49.232 120.311 48.8649C122.436 48.333 123.426 48.209 125.101 48.0656C128.794 47.7758 129.338 45.3762 127.387 40.1358C128.186 34.9353 126.997 37.0898 124.257 36.3261C120.514 35.8799 118.587 36.1135 116.107 39.2485C114.838 41.1662 114.815 42.3439 115.74 44.6Z" fill="#C2FFB7" stroke="#C2FFB7"/>
<path d="M125.488 31.4201C112.542 35.577 107.851 29.5726 112.12 24.7113C116.374 20.8649 121.166 19.9209 125.043 22.1477C127.338 23.6298 129.6 27.8683 125.488 31.4201Z" fill="#C2FFB7" stroke="#C2FFB7"/>
<path d="M58.8551 111.006C67.1066 102.61 61.4606 98.1221 57.8418 95.3716C49.8794 104.057 55.67 103.334 58.8551 111.006Z" fill="#C2FFB7" stroke="#C2FFB7"/>
<path d="M46.838 109.848C52.0503 114.48 54.5113 109.124 48.8647 104.492C45.5359 101.596 47.1816 95.4371 47.9961 88.4226C44.4623 93.821 41.65 96.4966 42.2055 103.623C42.9495 109.281 45.1015 107.821 46.838 109.848Z" fill="#C2FFB7" stroke="#C2FFB7"/>
<path d="M35.1139 88.5686C38.4785 83.6071 39.9109 82.7185 40.1807 90.5953C40.1807 99.2811 37.1406 107.243 24.546 102.9C24.9955 100.333 25.1834 98.8758 27.4413 96.8202C30.6545 94.3305 32.6537 93.6023 35.1139 88.5686Z" fill="#C2FFB7" stroke="#C2FFB7"/>
<path d="M102.104 96.4891C99.287 97.7423 98.1435 97.5847 96.7753 95.9447C95.1973 92.873 93.0959 92.0763 91.5475 88.7166C90.4623 84.7782 88.8716 84.4889 86.6194 82.8289C83.2506 80.2195 82.4398 78.6684 82.097 75.8185C82.3387 70.6045 85.2632 70.4668 86.7559 72.9476C87.6316 74.3467 87.0376 75.8867 90.2029 77.6654C92.121 78.9195 92.4139 79.7675 92.8888 81.2867C98.0854 80.7701 100.576 82.5577 104.324 89.0035C106.149 93.2291 105.143 94.6161 102.104 96.4891Z" fill="#C2FFB7" stroke="#C2FFB7"/>
<path d="M95.3935 75.2858C103.021 74.6709 105.042 76.2717 102.329 78.6138C99.7674 80.6532 102.138 83.5449 108.615 89.7334C111.016 91.8703 113.124 89.7572 113.03 86.401C112.885 75.0704 109.763 70.805 95.4354 69.1783C95.9652 63.9938 91.4303 62.8028 90.0659 67.611C89.5144 70.9332 92.0078 75.6675 95.3935 75.2858Z" fill="#C2FFB7" stroke="#C2FFB7"/>
<path d="M109.735 60.1307C100.543 67.4859 96.6525 61.4131 94.2841 57.5334C103.734 50.4952 102.426 56.1822 109.735 60.1307Z" fill="#C2FFB7" stroke="#C2FFB7"/>
<path d="M111.473 48.2312C115.551 53.8874 109.973 55.7912 105.938 49.703C103.396 46.0971 97.1018 47.1083 90.0408 47.2055C95.7704 44.2388 98.7181 41.713 105.751 42.99C111.304 44.3052 109.633 46.2978 111.473 48.2312Z" fill="#C2FFB7" stroke="#C2FFB7"/>
<path d="M91.3816 34.6137C86.1037 37.4565 85.0741 38.7911 92.8827 39.8602C101.523 40.7431 109.753 38.5281 106.713 25.5573C104.113 25.7435 102.645 25.7823 100.37 27.8196C97.5668 30.763 96.6392 32.6778 91.3816 34.6137Z" fill="#C2FFB7" stroke="#C2FFB7"/>
<path d="M95.4796 191.596C97.0126 194.271 96.972 195.424 95.4796 196.952C92.5843 198.834 92.0052 201.005 88.8204 202.887C85.0126 204.367 84.8865 205.979 83.4641 208.388C81.2106 212.005 79.75 212.969 76.9497 213.6C71.7382 213.89 71.3039 210.994 73.6201 209.257C74.923 208.244 76.5154 208.678 77.9631 205.348C79.0157 203.313 79.8296 202.935 81.2927 202.308C80.2505 197.191 81.7757 194.532 87.8071 190.148C91.8253 187.902 93.3074 188.763 95.4796 191.596Z" fill="#C2FFB7" stroke="#C2FFB7"/>
<path d="M75.0686 200.426C73.6816 192.901 75.0686 190.727 77.6744 193.188C79.9637 195.529 82.5993 192.877 88.0975 185.805C89.9792 183.199 87.6628 181.317 84.3336 181.752C73.0763 183.048 69.1505 186.587 68.9885 201.005C63.777 201.005 63.0531 205.638 67.9751 206.506C71.3362 206.717 75.7925 203.756 75.0686 200.426Z" fill="#C2FFB7" stroke="#C2FFB7"/>
<path d="M67.5409 174.803C70.581 164.959 81.5831 166.262 83.0308 174.369C83.7675 178.408 81.1759 179.174 75.7925 180.159C71.5454 180.821 69.5963 181.869 66.238 183.923C62.7634 185.515 61.8948 182.041 64.6456 179.58C66.5508 177.968 67.0157 176.867 67.5409 174.803Z" fill="#C2FFB7" stroke="#C2FFB7"/>
<path d="M58.1357 177.119C61.8996 181.896 66.5321 173.355 67.9797 167.13C68.414 163.945 58.565 164.669 54.2271 167.13C49.9869 166.533 50.5602 168.91 51.3318 172.921C55.1501 174.11 56.2808 175.169 58.1357 177.119Z" fill="#C2FFB7" stroke="#C2FFB7"/>
<path d="M44.5237 179.869C47.1295 178.277 49.1562 179.869 48.7219 175.237C48.1594 173.119 48.021 172.132 47.8533 170.459C47.5101 166.771 45.1028 166.261 39.8913 168.288C34.6798 167.564 36.8512 168.722 36.1274 171.473C35.7354 175.222 35.9969 177.146 39.1674 179.58C41.1034 180.821 42.2812 180.826 44.5237 179.869Z" fill="#C2FFB7" stroke="#C2FFB7"/>
<path d="M31.2041 170.314C35.5481 183.199 29.6124 187.976 24.6897 183.778C20.7821 179.58 19.7687 174.802 21.9391 170.894C23.3879 168.577 27.5931 166.254 31.2041 170.314Z" fill="#C2FFB7" stroke="#C2FFB7"/>
<path d="M120.764 227.53C130.562 224.348 129.1 213.366 120.973 212.036C116.924 211.358 116.196 213.96 115.288 219.357C114.689 223.613 113.669 225.577 111.663 228.965C110.121 232.462 113.608 233.281 116.029 230.494C117.613 228.566 118.708 228.085 120.764 227.53Z" fill="#C2FFB7" stroke="#C2FFB7"/>
<path d="M118.584 236.968C113.752 233.274 122.226 228.518 128.429 226.98C131.607 226.5 131.026 236.358 128.628 240.732C129.287 244.963 126.901 244.424 122.88 243.71C121.635 239.91 120.56 238.795 118.584 236.968Z" fill="#C2FFB7" stroke="#C2FFB7"/>
<path d="M116.031 250.619C117.585 247.99 115.964 245.987 120.602 246.354C122.727 246.886 123.717 247.01 125.391 247.153C129.085 247.443 129.629 249.843 127.678 255.083C128.477 260.284 127.287 258.129 124.548 258.893C120.804 259.339 118.877 259.105 116.398 255.971C115.129 254.053 115.106 252.875 116.031 250.619Z" fill="#C2FFB7" stroke="#C2FFB7"/>
<path d="M125.777 263.799C112.831 259.642 108.14 265.646 112.409 270.507C116.663 274.354 121.455 275.298 125.332 273.071C127.627 271.589 129.889 267.35 125.777 263.799Z" fill="#C2FFB7" stroke="#C2FFB7"/>
<path d="M59.1452 184.211C67.3966 192.607 61.7506 197.095 58.1318 199.846C50.1695 191.16 55.9601 191.884 59.1452 184.211Z" fill="#C2FFB7" stroke="#C2FFB7"/>
<path d="M47.128 185.369C52.3403 180.737 54.8013 186.093 49.1547 190.726C45.8259 193.621 47.4716 199.78 48.2861 206.795C44.7524 201.396 41.94 198.721 42.4955 191.594C43.2395 185.937 45.3916 187.396 47.128 185.369Z" fill="#C2FFB7" stroke="#C2FFB7"/>
<path d="M35.4025 206.65C38.7671 211.612 40.1994 212.501 40.4692 204.624C40.4692 195.938 37.4292 187.976 24.8346 192.319C25.2841 194.886 25.472 196.343 27.7299 198.399C30.943 200.889 32.9422 201.617 35.4025 206.65Z" fill="#C2FFB7" stroke="#C2FFB7"/>
<path d="M102.393 198.729C99.5765 197.476 98.4331 197.633 97.0648 199.273C95.4868 202.345 93.3855 203.142 91.8371 206.501C90.7519 210.44 89.1612 210.729 86.909 212.389C83.5401 214.999 82.7294 216.55 82.3866 219.4C82.6283 224.614 85.5528 224.751 87.0455 222.27C87.9211 220.871 87.3272 219.331 90.4925 217.553C92.4105 216.299 92.7034 215.45 93.1783 213.931C98.375 214.448 100.866 212.66 104.613 206.215C106.439 201.989 105.432 200.602 102.393 198.729Z" fill="#C2FFB7" stroke="#C2FFB7"/>
<path d="M95.6816 219.932C103.309 220.547 105.331 218.946 102.617 216.604C100.056 214.565 102.427 211.673 108.903 205.485C111.304 203.348 113.412 205.461 113.318 208.817C113.173 220.148 110.051 224.413 95.7235 226.04C96.2533 231.224 91.7184 232.415 90.354 227.607C89.8025 224.285 92.2959 219.551 95.6816 219.932Z" fill="#C2FFB7" stroke="#C2FFB7"/>
<path d="M110.024 235.089C100.832 227.734 96.9416 233.806 94.5731 237.686C104.023 244.724 102.715 239.037 110.024 235.089Z" fill="#C2FFB7" stroke="#C2FFB7"/>
<path d="M111.763 246.988C115.841 241.332 110.263 239.428 106.228 245.516C103.686 249.122 97.3919 248.111 90.3309 248.013C96.0605 250.98 99.0081 253.506 106.041 252.229C111.594 250.914 109.923 248.921 111.763 246.988Z" fill="#C2FFB7" stroke="#C2FFB7"/>
<path d="M91.6721 260.604C86.3942 257.762 85.3646 256.427 93.1733 255.358C101.814 254.475 110.044 256.69 107.004 269.661C104.404 269.475 102.935 269.436 100.661 267.398C97.8574 264.455 96.9297 262.54 91.6721 260.604Z" fill="#C2FFB7" stroke="#C2FFB7"/>
<path d="M201.195 192.174C199.662 194.848 199.702 196.002 201.195 197.53C204.09 199.412 204.669 201.583 207.854 203.465C211.662 204.945 211.788 206.557 213.21 208.966C215.464 212.583 216.924 213.547 219.725 214.178C224.936 214.467 225.37 211.572 223.054 209.835C221.751 208.822 220.159 209.256 218.711 205.926C217.659 203.891 216.845 203.513 215.382 202.886C216.424 197.769 214.899 195.11 208.867 190.726C204.849 188.48 203.367 189.341 201.195 192.174Z" fill="#C2FFB7" stroke="#C2FFB7"/>
<path d="M221.606 201.005C222.993 193.48 221.606 191.306 219 193.767C216.711 196.108 214.075 193.456 208.577 186.384C206.696 183.778 209.012 181.896 212.341 182.331C223.598 183.626 227.524 187.166 227.686 201.584C232.898 201.584 233.622 206.217 228.7 207.085C225.339 207.296 220.882 204.335 221.606 201.005Z" fill="#C2FFB7" stroke="#C2FFB7"/>
<path d="M229.134 175.383C226.094 165.539 215.092 166.841 213.645 174.948C212.908 178.987 215.499 179.753 220.883 180.739C225.13 181.4 227.079 182.448 230.437 184.503C233.912 186.095 234.78 182.621 232.03 180.16C230.125 178.547 229.66 177.446 229.134 175.383Z" fill="#C2FFB7" stroke="#C2FFB7"/>
<path d="M238.539 177.697C234.775 182.475 230.143 173.934 228.695 167.709C228.261 164.524 238.11 165.248 242.448 167.709C246.688 167.111 246.115 169.489 245.343 173.499C241.525 174.689 240.394 175.747 238.539 177.697Z" fill="#C2FFB7" stroke="#C2FFB7"/>
<path d="M252.152 180.448C249.546 178.855 247.519 180.448 247.953 175.815C248.516 173.698 248.654 172.71 248.822 171.038C249.165 167.349 251.572 166.84 256.784 168.866C261.996 168.143 259.824 169.301 260.548 172.051C260.94 175.801 260.678 177.724 257.508 180.158C255.572 181.399 254.394 181.405 252.152 180.448Z" fill="#C2FFB7" stroke="#C2FFB7"/>
<path d="M265.471 170.894C261.127 183.778 267.063 188.555 271.986 184.357C275.893 180.159 276.907 175.382 274.736 171.473C273.287 169.157 269.082 166.833 265.471 170.894Z" fill="#C2FFB7" stroke="#C2FFB7"/>
<path d="M175.911 228.109C166.112 224.926 167.574 213.944 175.701 212.614C179.751 211.936 180.479 214.539 181.387 219.936C181.986 224.192 183.006 226.156 185.012 229.544C186.553 233.041 183.067 233.859 180.646 231.073C179.061 229.145 177.967 228.664 175.911 228.109Z" fill="#C2FFB7" stroke="#C2FFB7"/>
<path d="M178.092 237.547C182.923 233.853 174.45 229.097 168.247 227.56C165.068 227.079 165.649 236.938 168.047 241.311C167.389 245.542 169.774 245.003 173.795 244.29C175.04 240.489 176.115 239.374 178.092 237.547Z" fill="#C2FFB7" stroke="#C2FFB7"/>
<path d="M180.644 251.198C179.089 248.569 180.711 246.566 176.072 246.933C173.947 247.465 172.958 247.589 171.283 247.732C167.59 248.022 167.046 250.421 168.997 255.662C168.197 260.862 169.387 258.708 172.126 259.471C175.87 259.918 177.797 259.684 180.277 256.549C181.546 254.631 181.568 253.454 180.644 251.198Z" fill="#C2FFB7" stroke="#C2FFB7"/>
<path d="M170.899 264.378C183.844 260.221 188.535 266.225 184.266 271.087C180.012 274.933 175.22 275.877 171.343 273.65C169.049 272.168 166.786 267.93 170.899 264.378Z" fill="#C2FFB7" stroke="#C2FFB7"/>
<path d="M237.53 184.791C229.278 193.188 234.924 197.675 238.543 200.426C246.505 191.74 240.715 192.464 237.53 184.791Z" fill="#C2FFB7" stroke="#C2FFB7"/>
<path d="M249.547 185.95C244.334 181.317 241.873 186.673 247.52 191.306C250.849 194.201 249.203 200.36 248.389 207.375C251.922 201.976 254.735 199.301 254.179 192.174C253.435 186.517 251.283 187.976 249.547 185.95Z" fill="#C2FFB7" stroke="#C2FFB7"/>
<path d="M261.272 207.23C257.907 212.192 256.475 213.081 256.205 205.204C256.205 196.518 259.245 188.556 271.84 192.899C271.39 195.466 271.202 196.923 268.944 198.979C265.731 201.469 263.732 202.197 261.272 207.23Z" fill="#C2FFB7" stroke="#C2FFB7"/>
<path d="M194.281 199.308C197.098 198.055 198.242 198.213 199.61 199.853C201.188 202.924 203.289 203.721 204.838 207.081C205.923 211.019 207.514 211.309 209.766 212.968C213.135 215.578 213.945 217.129 214.288 219.979C214.047 225.193 211.122 225.331 209.629 222.85C208.754 221.451 209.348 219.911 206.182 218.132C204.264 216.878 203.971 216.03 203.496 214.511C198.3 215.027 195.809 213.24 192.061 206.794C190.236 202.568 191.242 201.181 194.281 199.308Z" fill="#C2FFB7" stroke="#C2FFB7"/>
<path d="M200.993 220.512C193.366 221.126 191.344 219.526 194.057 217.184C196.619 215.144 194.248 212.252 187.772 206.064C185.371 203.927 183.263 206.04 183.357 209.396C183.502 220.727 186.624 224.992 200.951 226.619C200.422 231.804 204.956 232.995 206.321 228.186C206.872 224.864 204.379 220.13 200.993 220.512Z" fill="#C2FFB7" stroke="#C2FFB7"/>
<path d="M186.65 235.668C195.842 228.313 199.732 234.386 202.101 238.265C192.65 245.304 193.959 239.617 186.65 235.668Z" fill="#C2FFB7" stroke="#C2FFB7"/>
<path d="M184.912 247.568C180.833 241.911 186.412 240.008 190.447 246.096C192.988 249.702 199.283 248.691 206.344 248.593C200.614 251.56 197.667 254.086 190.634 252.809C185.081 251.494 186.752 249.501 184.912 247.568Z" fill="#C2FFB7" stroke="#C2FFB7"/>
<path d="M205.003 261.184C210.281 258.341 211.311 257.006 203.502 255.937C194.861 255.054 186.631 257.269 189.672 270.24C192.272 270.054 193.74 270.015 196.014 267.978C198.818 265.034 199.746 263.12 205.003 261.184Z" fill="#C2FFB7" stroke="#C2FFB7"/>
<circle cx="147.743" cy="149.257" r="60.5587" fill="white"/>
<circle cx="147.743" cy="149.257" r="33.3073" fill="#D9D9D9"/>
<circle cx="147.743" cy="100.81" r="4.5419" fill="#D9D9D9"/>
<circle cx="171.967" cy="106.866" r="4.5419" fill="#D9D9D9"/>
<circle cx="182.564" cy="114.436" r="4.5419" fill="#D9D9D9"/>
<circle cx="190.134" cy="123.519" r="4.5419" fill="#D9D9D9"/>
<circle cx="171.967" cy="194.676" r="4.5419" fill="#D9D9D9"/>
<circle cx="159.855" cy="199.218" r="4.5419" fill="#D9D9D9"/>
<circle cx="147.743" cy="200.732" r="4.5419" fill="#D9D9D9"/>
<circle cx="123.52" cy="193.162" r="4.5419" fill="#D9D9D9"/>
<circle cx="112.922" cy="185.592" r="4.5419" fill="#D9D9D9"/>
<circle cx="105.352" cy="174.994" r="4.5419" fill="#D9D9D9"/>
<circle cx="97.7821" cy="150.771" r="4.5419" fill="#D9D9D9"/>
<circle cx="100.81" cy="137.145" r="4.5419" fill="#D9D9D9"/>
<circle cx="105.352" cy="125.033" r="4.5419" fill="#D9D9D9"/>
<circle cx="134.118" cy="102.324" r="4.5419" fill="#D9D9D9"/>
<circle cx="122.006" cy="108.38" r="4.5419" fill="#D9D9D9"/>
<path d="M199.975 140.933C201.741 139.924 206.315 137.002 206.315 137.033C211.803 159.43 201.323 181.21 190.618 190.895L181.05 175.754C189.936 163.496 191.63 155.789 190.134 140.933L196.947 137.148L199.975 140.933Z" fill="#D9D9D9" stroke="#D9D9D9"/>
<circle cx="147.743" cy="149.257" r="24.2235" fill="#939393"/>
<rect x="146.229" y="168.938" width="3.02793" height="9.0838" fill="#D9D9D9"/>
<rect x="146.229" y="120.491" width="3.02793" height="9.0838" fill="#D9D9D9"/>
<rect x="168.939" y="150.771" width="3.02793" height="9.0838" transform="rotate(-90 168.939 150.771)" fill="#D9D9D9"/>
<rect x="118.978" y="150.771" width="3.02793" height="9.0838" transform="rotate(-90 118.978 150.771)" fill="#D9D9D9"/>
<rect x="126.548" y="130.272" width="3.02793" height="9.0838" transform="rotate(-46.9063 126.548 130.272)" fill="#D9D9D9"/>
<rect x="161.369" y="165.094" width="3.02793" height="9.0838" transform="rotate(-46.9063 161.369 165.094)" fill="#D9D9D9"/>
<rect x="131.762" y="161.535" width="3.02793" height="9.0838" transform="rotate(49.149 131.762 161.535)" fill="#D9D9D9"/>
<rect x="168.24" y="128.061" width="3.02793" height="9.0838" transform="rotate(49.149 168.24 128.061)" fill="#D9D9D9"/>
<circle cx="147.743" cy="149.257" r="60.5587" fill="white"/>
<circle cx="147.743" cy="149.257" r="33.3073" fill="#D9D9D9"/>
<circle cx="147.743" cy="100.81" r="4.5419" fill="#D9D9D9"/>
<circle cx="171.967" cy="106.866" r="4.5419" fill="#D9D9D9"/>
<circle cx="182.564" cy="114.436" r="4.5419" fill="#D9D9D9"/>
<circle cx="190.134" cy="123.519" r="4.5419" fill="#D9D9D9"/>
<circle cx="171.967" cy="194.676" r="4.5419" fill="#D9D9D9"/>
<circle cx="159.855" cy="199.218" r="4.5419" fill="#D9D9D9"/>
<circle cx="147.743" cy="200.732" r="4.5419" fill="#D9D9D9"/>
<circle cx="123.52" cy="193.162" r="4.5419" fill="#D9D9D9"/>
<circle cx="112.922" cy="185.592" r="4.5419" fill="#D9D9D9"/>
<circle cx="105.352" cy="174.994" r="4.5419" fill="#D9D9D9"/>
<circle cx="97.7821" cy="150.771" r="4.5419" fill="#D9D9D9"/>
<circle cx="100.81" cy="137.145" r="4.5419" fill="#D9D9D9"/>
<circle cx="105.352" cy="125.033" r="4.5419" fill="#D9D9D9"/>
<circle cx="134.118" cy="102.324" r="4.5419" fill="#D9D9D9"/>
<circle cx="122.006" cy="108.38" r="4.5419" fill="#D9D9D9"/>
<path d="M199.975 140.933C201.741 139.924 206.315 137.002 206.315 137.033C211.803 159.43 201.323 181.21 190.618 190.895L181.05 175.754C189.936 163.496 191.63 155.789 190.134 140.933L196.947 137.148L199.975 140.933Z" fill="#D9D9D9" stroke="#D9D9D9"/>
<circle cx="147.743" cy="149.257" r="24.2235" fill="#287621"/>
<rect x="146.229" y="168.938" width="3.02793" height="9.0838" fill="#D9D9D9"/>
<rect x="146.229" y="120.491" width="3.02793" height="9.0838" fill="#D9D9D9"/>
<rect x="168.939" y="150.771" width="3.02793" height="9.0838" transform="rotate(-90 168.939 150.771)" fill="#D9D9D9"/>
<rect x="118.978" y="150.771" width="3.02793" height="9.0838" transform="rotate(-90 118.978 150.771)" fill="#D9D9D9"/>
<rect x="126.548" y="130.272" width="3.02793" height="9.0838" transform="rotate(-46.9063 126.548 130.272)" fill="#D9D9D9"/>
<rect x="161.369" y="165.094" width="3.02793" height="9.0838" transform="rotate(-46.9063 161.369 165.094)" fill="#D9D9D9"/>
<rect x="131.762" y="161.535" width="3.02793" height="9.0838" transform="rotate(49.149 131.762 161.535)" fill="#D9D9D9"/>
<rect x="168.24" y="128.061" width="3.02793" height="9.0838" transform="rotate(49.149 168.24 128.061)" fill="#D9D9D9"/>
</svg>
