<svg width="297" height="287" viewBox="0 0 297 287" fill="none" xmlns="http://www.w3.org/2000/svg">
<g clip-path="url(#clip0_419_2)">
<path d="M151.103 202.476C147.659 202.753 146.159 238.215 146.449 241.778L147.792 267.432C148.093 271.698 151.285 272.179 154.954 272L167.665 270.769C174.496 269.169 175.567 264.433 171.946 253.576C167.596 239.112 189.783 233.99 195.878 250.815C198.444 259.863 203.311 264.139 209.165 262.63L222.111 257.549C223.974 256.366 227.295 252.391 225.268 249.623L206.546 221.008L187.661 200.022C184.764 196.248 179.026 196.147 175.262 197.018L151.103 202.476Z" fill="#C2FFB7" stroke="#15FF00"/>
<path d="M150.196 187.798C147.395 188.135 146.175 219.134 146.301 222.073L146.348 240.589C146.462 244.11 148.213 245.468 151.194 245.205L161.538 243.789C167.126 242.252 168.139 238.299 165.535 229.429C162.449 217.597 180.596 212.665 185.024 226.396C186.828 233.802 190.643 237.188 195.436 235.757L206.088 231.148C207.635 230.11 210.449 226.718 208.891 224.491L179.913 184.624C177.679 181.592 173.03 181.687 169.951 182.526L150.196 187.798Z" fill="#C2FFB7" stroke="#15FF00"/>
<path d="M151.422 176.033C149.073 176.423 148.534 177.339 148.534 179.843L146.323 221.229C146.292 224.23 147.704 225.325 150.199 224.991L158.876 223.404C163.592 221.887 164.292 219.274 162.438 211.799L156.553 195.892C154.403 185.907 170.958 179.842 174.159 191.399L178.49 208.37C179.73 214.624 183.386 216.704 187.435 215.307L196.614 211.084C197.942 210.142 198.227 209.451 197.006 207.607L173.515 173.508C171.761 171.002 170.684 169.981 168.086 170.81L151.422 176.033Z" fill="#C2FFB7" stroke="#15FF00"/>
<path d="M187.468 188.145C184.923 190.452 204.89 219.115 207.243 221.727L223.599 240.988C226.379 244.144 229.178 242.582 231.958 240.216L241.227 231.537C245.649 226.139 243.668 221.782 234.344 215.483C222.294 206.805 236.701 189.33 251.531 198.797C258.946 204.32 265.325 204.713 269.033 199.979L276.191 188.145C276.952 186.087 277.195 180.961 273.949 180.025L242.15 168.995L214.774 164.035C210.244 162.84 205.667 166.243 203.225 169.21L187.468 188.145Z" fill="#C2FFB7" stroke="#15FF00"/>
<path d="M178.886 177.651C176.906 179.644 194.228 205.02 196.059 207.276L207.008 221.956C209.171 224.682 211.335 224.682 213.498 222.637L220.709 215.139C224.149 210.476 222.608 206.712 215.354 201.27C205.98 193.772 217.188 178.675 228.725 186.854C234.493 191.626 239.456 191.965 242.341 187.875L247.909 177.651C248.501 175.874 248.69 171.445 246.165 170.637L200.129 156.822C196.605 155.789 193.045 158.73 191.145 161.293L178.886 177.651Z" fill="#C2FFB7" stroke="#15FF00"/>
<path d="M172.805 167.18C171.18 168.945 171.303 170.01 172.805 172.008L195.881 206.406C197.656 208.82 199.431 208.82 201.206 207.009L207.123 200.371C209.947 196.242 208.934 193.723 202.982 188.905L188.781 179.853C181.089 173.215 190.556 158.128 200.023 165.37L213.632 176.232C218.366 180.457 222.508 179.853 224.874 176.232L229.608 167.18C230.094 165.607 229.905 164.879 227.833 164.163L188.781 151.49C185.889 150.576 184.423 150.428 182.864 152.697L172.805 167.18Z" fill="#C2FFB7" stroke="#15FF00"/>
<path d="M102.459 91.9713C104.797 89.3972 82.0416 62.3806 79.4325 59.9697L61.1908 42.0978C58.1009 39.1792 55.4392 41.0248 52.8713 43.6819L44.3862 53.3352C40.4566 59.2106 42.8576 63.4184 52.814 68.8806C65.7314 76.483 52.9196 95.5113 37.1359 87.38C29.1697 82.5177 22.7276 82.735 19.4527 87.8707L13.3853 100.507C12.8159 102.657 13.0564 107.856 16.4034 108.488L49.3705 116.565L77.3242 118.939C81.9855 119.71 86.2582 115.834 88.4298 112.603L102.459 91.9713Z" fill="#C2FFB7" stroke="#15FF00"/>
<path d="M112.999 102.1C114.824 99.925 94.8657 76.3717 92.7962 74.3052L80.3066 60.7706C77.8553 58.2693 75.6579 58.4799 73.6509 60.7244L67.0245 68.8838C63.9641 73.8574 65.8803 77.4512 73.7555 82.1578C83.9758 88.7028 73.9969 104.81 61.5157 97.7978C55.2117 93.6136 50.1386 93.7592 47.5894 98.1077L42.8852 108.819C42.4494 110.645 42.6697 115.068 45.31 115.626L93.3597 124.886C97.0361 125.57 100.379 122.299 102.07 119.564L112.999 102.1Z" fill="#C2FFB7" stroke="#15FF00"/>
<path d="M120.014 111.564C121.472 109.661 121.251 108.619 119.567 106.784L93.3476 74.9376C91.3522 72.7176 89.5806 72.8874 87.9768 74.8495L82.6868 81.9871C80.252 86.3449 81.4961 88.7417 87.8833 92.9423L102.895 100.546C111.187 106.382 103.137 122.223 93.0174 115.959L78.4284 106.507C73.3126 102.778 69.2348 103.771 67.2082 107.582L63.323 116.996C62.9841 118.601 63.24 119.303 65.3743 119.814L105.524 128.625C108.495 129.253 109.972 129.26 111.318 126.864L120.014 111.564Z" fill="#C2FFB7" stroke="#15FF00"/>
<path d="M142.998 80.0528C146.401 79.4487 144.59 44.0014 143.969 40.4821L140.24 15.0704C139.543 10.8522 136.32 10.6786 132.685 11.2067L120.145 13.645C113.493 15.889 112.868 20.7064 117.485 31.1697C123.165 45.1541 101.554 52.3693 93.9174 36.2009C90.5193 27.4387 85.2761 23.6458 79.5885 25.7059L67.1741 31.9997C65.429 33.3557 62.4936 37.6294 64.7695 40.1915L86.0757 66.8934L106.833 85.9838C110.068 89.4644 115.79 89.0183 119.456 87.7914L142.998 80.0528Z" fill="#C2FFB7" stroke="#15FF00"/>
<path d="M145.272 94.5779C148.029 93.9754 146.354 62.9979 145.954 60.084L144.182 41.6551C143.741 38.1612 141.87 36.9757 138.928 37.5216L128.762 39.9184C123.342 41.9818 122.701 46.0134 126.121 54.596C130.296 66.0811 112.69 72.722 107.001 59.4743C104.515 52.2734 100.401 49.2663 95.7629 51.1483L85.5878 56.7535C84.1442 57.9341 81.659 61.5801 83.4185 63.6483L115.983 100.573C118.49 103.378 123.109 102.84 126.096 101.711L145.272 94.5779Z" fill="#C2FFB7" stroke="#15FF00"/>
<path d="M145.148 106.408C147.45 105.795 147.901 104.832 147.668 102.339L146.012 60.9263C145.763 57.9362 144.255 56.9805 141.802 57.5505L133.312 59.959C128.759 61.9187 128.305 64.5866 130.847 71.8518L138.189 87.1261C141.26 96.8618 125.344 104.479 121.08 93.2788L115.186 76.7973C113.369 70.6887 109.535 68.9673 105.635 70.7443L96.8902 75.8242C95.6563 76.8889 95.4369 77.6039 96.8237 79.3228L123.388 111.029C125.369 113.356 126.536 114.27 129.045 113.197L145.148 106.408Z" fill="#C2FFB7" stroke="#15FF00"/>
<path d="M85.1977 124.383C85.5603 120.905 50.7909 113.078 47.2163 112.73L21.6146 109.487C17.3431 109.024 16.279 112.116 15.7781 115.801L14.6472 128.675C14.9661 135.762 19.4489 137.674 30.8476 136.008C45.9456 134.26 46.9089 157.264 29.1555 160.327C19.7402 161.266 14.6153 165.348 15.0247 171.445L17.6554 185.241C18.4808 187.308 21.7955 191.324 24.9053 189.8L56.6434 176.271L80.871 161.217C85.1357 159.007 86.2961 153.313 86.1298 149.41L85.1977 124.383Z" fill="#C2FFB7" stroke="#15FF00"/>
<path d="M99.8707 126.1C100.055 123.252 69.6446 116.501 66.7167 116.102L48.4092 112.842C44.909 112.326 43.2428 113.827 42.952 116.842L42.4411 127.393C42.9281 133.231 46.6472 134.945 55.8948 133.937C68.1583 132.978 69.6804 151.925 55.2922 153.881C47.6397 154.355 43.5886 157.548 44.1177 162.576L46.7057 174.004C47.4453 175.73 50.2785 179.137 52.7672 177.983L97.5188 156.253C100.928 154.571 101.693 149.925 101.432 146.71L99.8707 126.1Z" fill="#C2FFB7" stroke="#15FF00"/>
<path d="M111.271 129.421C111.32 127.013 110.514 126.313 108.039 125.866L67.5466 116.273C64.5871 115.706 63.2438 116.916 63.1125 119.46L63.0789 128.382C63.7068 133.348 66.1595 134.512 73.8897 134.001L90.6968 130.983C100.962 130.626 103.898 148.19 91.8854 149.313L74.314 150.595C67.9036 150.712 65.1732 153.981 65.8061 158.261L68.2841 168.154C68.9701 169.644 69.6003 170.051 71.6476 169.165L109.686 151.868C112.486 150.569 113.695 149.678 113.355 146.944L111.271 129.421Z" fill="#C2FFB7" stroke="#15FF00"/>
<path d="M187.469 88.2932C184.924 85.9021 204.891 56.1968 207.244 53.4897L223.6 33.5282C226.38 30.2576 229.179 31.8759 231.959 34.3288L241.228 43.3229C245.65 48.9174 243.669 53.4326 234.345 59.9605C222.295 68.9546 236.702 87.065 251.532 77.2533C258.947 71.5297 265.326 71.1227 269.034 76.0286L276.192 88.2932C276.953 90.4254 277.196 95.7378 273.95 96.7076L242.151 108.139L214.775 113.28C210.245 114.518 205.668 110.991 203.226 107.917L187.469 88.2932Z" fill="#C2FFB7" stroke="#15FF00"/>
<path d="M178.886 98.7757C176.906 96.6976 194.228 70.2425 196.059 67.8897L207.008 52.5861C209.171 49.7436 211.335 49.7436 213.498 51.8755L220.709 59.6922C224.149 64.5543 222.608 68.4784 215.354 74.1519C205.98 81.9686 217.188 97.7082 228.725 89.1809C234.493 84.2066 239.456 83.8529 242.341 88.1165L247.909 98.7757C248.501 100.629 248.69 105.246 246.165 106.089L200.129 120.491C196.605 121.568 193.045 118.502 191.145 115.83L178.886 98.7757Z" fill="#C2FFB7" stroke="#15FF00"/>
<path d="M172.805 109.114C171.18 107.394 171.303 106.355 172.805 104.407L195.881 70.8693C197.656 68.5158 199.431 68.5158 201.206 70.2809L207.123 76.7532C209.947 80.779 208.934 83.2348 202.982 87.9324L188.781 96.7582C181.089 103.23 190.556 117.94 200.023 110.879L213.632 100.288C218.366 96.1697 222.508 96.7582 224.874 100.288L229.608 109.114C230.094 110.649 229.905 111.358 227.833 112.056L188.781 124.412C185.889 125.303 184.423 125.448 182.864 123.235L172.805 109.114Z" fill="#C2FFB7" stroke="#15FF00"/>
<path d="M146.358 79.3277C142.914 79.0509 141.413 43.5887 141.703 40.0259L143.047 14.3716C143.348 10.1057 146.54 9.62549 150.209 9.80438L162.92 11.0355C169.751 12.635 170.822 17.3712 167.201 28.2284C162.851 42.6923 185.038 47.8137 191.133 30.9888C193.699 21.9415 198.566 17.6653 204.42 19.1736L217.366 24.255C219.229 25.4385 222.55 29.4131 220.523 32.1809L201.8 60.7965L182.916 81.782C180.018 85.5559 174.28 85.6576 170.516 84.7859L146.358 79.3277Z" fill="#C2FFB7" stroke="#15FF00"/>
<path d="M145.451 94.0052C142.65 93.6685 141.43 62.6692 141.557 59.7302L141.603 41.2142C141.717 37.6938 143.469 36.3352 146.449 36.598L156.793 38.0142C162.381 39.5513 163.394 43.5039 160.79 52.3745C157.704 64.2067 175.851 69.1384 180.279 55.4071C182.083 48.001 185.899 44.6149 190.691 46.046L201.344 50.6555C202.891 51.6931 205.705 55.0858 204.146 57.3127L175.168 97.1794C172.934 100.211 168.285 100.116 165.206 99.2772L145.451 94.0052Z" fill="#C2FFB7" stroke="#15FF00"/>
<path d="M146.675 105.771C144.327 105.381 143.788 104.465 143.788 101.961L141.576 60.5746C141.545 57.5742 142.957 56.4789 145.452 56.8123L154.13 58.4001C158.845 59.9167 159.546 62.5294 157.691 70.0048L151.807 85.9114C149.657 95.8968 166.211 101.961 169.413 90.4045L173.744 73.4342C174.984 67.1795 178.64 65.0999 182.688 66.497L191.868 70.72C193.195 71.6622 193.48 72.3532 192.26 74.1966L168.769 108.296C167.014 110.802 165.937 111.823 163.339 110.994L146.675 105.771Z" fill="#C2FFB7" stroke="#15FF00"/>
<path d="M208.391 121.74C207.706 118.312 241.591 107.203 245.117 106.516L270.302 100.844C274.512 99.9761 275.859 102.953 276.701 106.573L279.027 119.282C279.37 126.368 275.086 128.7 263.582 128.129C248.389 127.828 249.574 150.821 267.534 152.178C276.995 152.214 282.477 155.788 282.638 161.898L281.305 175.884C280.676 178.02 277.75 182.334 274.512 181.114L241.654 170.673L216.132 157.997C211.68 156.204 209.994 150.645 209.796 146.744L208.391 121.74Z" fill="#C2FFB7" stroke="#15FF00"/>
<path d="M193.941 124.85C193.492 122.031 223.138 112.409 226.015 111.733L243.938 106.741C247.374 105.893 249.173 107.229 249.743 110.202L251.235 120.657C251.295 126.516 247.752 128.578 238.451 128.456C226.153 128.671 226.404 147.679 240.91 148.254C248.573 147.995 252.904 150.788 252.845 155.844L251.334 167.468C250.759 169.256 248.256 172.919 245.671 172.007L199.093 154.643C195.542 153.294 194.348 148.742 194.308 145.516L193.941 124.85Z" fill="#C2FFB7" stroke="#15FF00"/>
<path d="M182.901 129.243C182.629 126.851 183.366 126.077 185.788 125.396L225.206 111.982C228.099 111.136 229.549 112.212 229.917 114.732L230.782 123.612C230.62 128.615 228.287 130.008 220.543 130.236L203.53 128.835C193.277 129.459 191.991 147.225 204.055 147.198L221.668 146.797C228.06 146.302 231.083 149.296 230.852 153.617L229.307 163.703C228.763 165.251 228.174 165.717 226.053 165.03L186.572 151.439C183.663 150.413 182.377 149.642 182.46 146.887L182.901 129.243Z" fill="#C2FFB7" stroke="#15FF00"/>
<path d="M106.862 189.998C109.564 192.176 91.2031 222.422 88.993 225.211L73.6965 245.717C71.0888 249.084 68.1774 247.676 65.2349 245.451L55.3788 237.239C50.6 232.047 52.3303 227.515 61.3341 220.563C72.9369 211.035 57.3756 194.235 43.0216 204.734C35.8926 210.782 29.4945 211.573 25.4754 207.01L17.5529 195.473C16.6623 193.437 16.1068 188.263 19.3173 187.116L50.6572 173.988L77.9137 167.278C82.4017 165.789 87.2145 168.951 89.8529 171.803L106.862 189.998Z" fill="#C2FFB7" stroke="#15FF00"/>
<path d="M115.728 178.344C117.863 180.208 101.737 206.596 100.008 208.961L89.7325 224.283C87.6921 227.137 85.4889 227.272 83.1636 225.368L75.3718 218.341C71.5893 213.905 72.9343 210.055 79.9971 204.175C89.0964 196.113 76.7797 181.757 65.5179 190.634C59.9279 195.752 54.8932 196.401 51.7113 192.502L45.4293 182.654C44.7202 180.918 44.2631 176.513 46.7865 175.549L92.8479 158.898C96.3758 157.648 100.177 160.358 102.266 162.796L115.728 178.344Z" fill="#C2FFB7" stroke="#15FF00"/>
<path d="M121.217 167.897C122.948 169.549 122.888 170.614 121.504 172.689L100.458 208.248C98.8248 210.753 97.0485 210.862 95.1646 209.174L88.849 202.948C85.7786 199.022 86.6422 196.46 92.312 191.312L105.984 181.456C113.286 174.395 102.916 160.001 93.8731 167.77L80.9009 179.387C76.4154 183.87 72.2349 183.525 69.6512 180.076L64.3763 171.382C63.7967 169.849 63.9424 169.115 65.9732 168.278L104.298 153.303C107.137 152.218 108.595 151.981 110.29 154.138L121.217 167.897Z" fill="#C2FFB7" stroke="#15FF00"/>
<path d="M144.423 201.546C147.857 201.932 148.259 237.424 147.859 240.976L145.721 266.575C145.288 270.829 142.083 271.208 138.422 270.913L125.755 269.28C118.977 267.464 118.053 262.697 122.008 251.96C126.805 237.641 104.787 231.819 98.1737 248.442C95.3286 257.404 90.3322 261.523 84.5275 259.83L71.7454 254.341C69.9194 253.099 66.7234 249.021 68.835 246.319L88.4343 218.311L107.96 197.934C110.972 194.254 116.711 194.334 120.446 195.325L144.423 201.546Z" fill="#C2FFB7" stroke="#15FF00"/>
<path d="M145.787 186.905C148.576 187.33 148.835 218.353 148.618 221.286L147.998 239.792C147.775 243.307 145.982 244.609 143.012 244.252L132.717 242.509C127.179 240.795 126.289 236.812 129.166 228.029C132.617 216.3 114.632 210.796 109.781 224.38C107.748 231.725 103.83 234.989 99.0836 233.406L88.5794 228.462C87.065 227.376 84.3575 223.895 85.9846 221.719L116.183 182.79C118.509 179.83 123.153 180.073 126.205 181.009L145.787 186.905Z" fill="#C2FFB7" stroke="#15FF00"/>
<path d="M144.926 175.105C147.261 175.569 147.771 176.502 147.694 179.004L148.623 220.44C148.561 223.44 147.116 224.49 144.632 224.078L136.008 222.216C131.342 220.551 130.723 217.917 132.807 210.504L139.182 194.792C141.64 184.879 125.281 178.293 121.724 189.743L116.869 206.568C115.436 212.78 111.718 214.743 107.714 213.218L98.6701 208.706C97.3724 207.722 97.1088 207.023 98.3857 205.219L122.921 171.881C124.752 169.432 125.861 168.445 128.431 169.356L144.926 175.105Z" fill="#C2FFB7" stroke="#15FF00"/>
<ellipse cx="146.08" cy="138.662" rx="41.1652" ry="40.9217" fill="#15FF00"/>
<path d="M144.652 150.771C144.652 146.549 141.715 144.739 138.778 148.962L125.854 167.059C124.19 169.744 124.541 170.705 126.442 171.885C131.476 174.836 134.217 176.582 141.715 176.711C144.235 176.539 144.738 175.308 144.652 171.885V150.771Z" fill="#C2FFB7" stroke="#C2FFB7" stroke-width="0.2"/>
<path d="M138.246 147.887C140.72 144.514 139.399 141.28 134.543 142.865L113.458 149.454C110.535 150.585 110.257 151.567 111.107 153.666C113.46 159.089 114.659 162.153 120.663 166.82C122.807 168.217 123.937 167.54 125.873 164.753L138.246 147.887Z" fill="#C2FFB7" stroke="#C2FFB7" stroke-width="0.2"/>
<path d="M144.67 150.771C144.67 146.549 147.817 144.739 150.964 148.962L164.811 167.059C166.594 169.744 166.217 170.705 164.181 171.885C158.787 174.836 155.85 176.582 147.817 176.711C145.118 176.539 144.578 175.308 144.67 171.885V150.771Z" fill="#C2FFB7" stroke="#C2FFB7" stroke-width="0.2"/>
<path d="M152.753 147.887C150.278 144.514 151.599 141.28 156.456 142.865L177.54 149.454C180.463 150.585 180.741 151.567 179.892 153.666C177.539 159.089 176.34 162.153 170.336 166.82C168.192 168.217 167.062 167.54 165.126 164.753L152.753 147.887Z" fill="#C2FFB7" stroke="#C2FFB7" stroke-width="0.2"/>
<path d="M144.67 125.316C144.67 129.338 147.817 131.061 150.964 127.04L164.811 109.804C166.594 107.247 166.217 106.332 164.181 105.208C158.787 102.398 155.85 100.734 147.817 100.612C145.118 100.776 144.578 101.948 144.67 105.208V125.316Z" fill="#C2FFB7" stroke="#C2FFB7" stroke-width="0.2"/>
<path d="M152.753 127.77C150.278 131.143 151.599 134.377 156.456 132.792L177.54 126.203C180.463 125.072 180.741 124.09 179.892 121.991C177.539 116.568 176.34 113.504 170.336 108.837C168.192 107.44 167.062 108.117 165.126 110.904L152.753 127.77Z" fill="#C2FFB7" stroke="#C2FFB7" stroke-width="0.2"/>
<path d="M144.652 125.316C144.652 129.338 141.715 131.061 138.778 127.04L125.854 109.804C124.19 107.247 124.541 106.332 126.442 105.208C131.476 102.398 134.217 100.734 141.715 100.612C144.235 100.776 144.738 101.948 144.652 105.208V125.316Z" fill="#C2FFB7" stroke="#C2FFB7" stroke-width="0.2"/>
<path d="M138.246 127.77C140.72 131.143 139.399 134.377 134.543 132.792L113.458 126.203C110.535 125.072 110.257 124.09 111.107 121.991C113.46 116.568 114.659 113.504 120.663 108.837C122.807 107.44 123.937 108.117 125.873 110.904L138.246 127.77Z" fill="#C2FFB7" stroke="#C2FFB7" stroke-width="0.2"/>
<path d="M133.253 134.402C137.26 135.503 138.199 138.871 133.415 140.665L112.821 148.685C109.832 149.626 109.013 149.029 108.397 146.848C106.93 141.115 105.998 137.957 107.861 130.532C108.691 128.093 109.993 127.917 113.218 128.895L133.253 134.402Z" fill="#C2FFB7" stroke="#C2FFB7" stroke-width="0.2"/>
<path d="M158.393 134.402C154.386 135.503 153.446 138.871 158.231 140.665L178.825 148.685C181.813 149.626 182.632 149.029 183.249 146.848C184.716 141.115 185.648 137.957 183.785 130.532C182.954 128.093 181.653 127.917 178.428 128.895L158.393 134.402Z" fill="#C2FFB7" stroke="#C2FFB7" stroke-width="0.2"/>
<ellipse cx="146.72" cy="140.902" rx="62.3256" ry="61.2958" fill="white"/>
<ellipse cx="146.719" cy="140.902" rx="34.2791" ry="33.7127" fill="#D9D9D9"/>
<ellipse cx="146.72" cy="91.8657" rx="4.67442" ry="4.59718" fill="#D9D9D9"/>
<ellipse cx="171.65" cy="97.9951" rx="4.67442" ry="4.59718" fill="#D9D9D9"/>
<ellipse cx="182.557" cy="105.657" rx="4.67442" ry="4.59718" fill="#D9D9D9"/>
<ellipse cx="190.347" cy="114.851" rx="4.67442" ry="4.59718" fill="#D9D9D9"/>
<ellipse cx="171.65" cy="186.874" rx="4.67442" ry="4.59718" fill="#D9D9D9"/>
<ellipse cx="159.185" cy="191.471" rx="4.67442" ry="4.59718" fill="#D9D9D9"/>
<ellipse cx="146.72" cy="193.004" rx="4.67442" ry="4.59718" fill="#D9D9D9"/>
<ellipse cx="121.79" cy="185.342" rx="4.67442" ry="4.59718" fill="#D9D9D9"/>
<ellipse cx="110.882" cy="177.68" rx="4.67442" ry="4.59718" fill="#D9D9D9"/>
<ellipse cx="103.091" cy="166.953" rx="4.67442" ry="4.59718" fill="#D9D9D9"/>
<ellipse cx="95.3009" cy="142.435" rx="4.67442" ry="4.59718" fill="#D9D9D9"/>
<ellipse cx="98.4181" cy="128.643" rx="4.67442" ry="4.59718" fill="#D9D9D9"/>
<ellipse cx="103.091" cy="116.384" rx="4.67442" ry="4.59718" fill="#D9D9D9"/>
<ellipse cx="132.697" cy="93.398" rx="4.67442" ry="4.59718" fill="#D9D9D9"/>
<ellipse cx="120.232" cy="99.5276" rx="4.67442" ry="4.59718" fill="#D9D9D9"/>
<path d="M200.475 132.477C202.293 131.456 207 128.498 207 128.53C212.648 151.199 201.863 173.244 190.846 183.047L180.999 167.722C190.143 155.315 191.887 147.514 190.347 132.477L197.359 128.646L200.475 132.477Z" fill="#D9D9D9" stroke="#D9D9D9"/>
<ellipse cx="146.72" cy="140.902" rx="24.9302" ry="24.5183" fill="#939393"/>
<rect x="145.162" y="160.823" width="3.11628" height="9.19437" fill="#D9D9D9"/>
<rect x="145.162" y="111.787" width="3.11628" height="9.19437" fill="#D9D9D9"/>
<rect x="168.534" y="142.435" width="3.06479" height="9.34883" transform="rotate(-90 168.534 142.435)" fill="#D9D9D9"/>
<rect x="117.115" y="142.435" width="3.06479" height="9.34883" transform="rotate(-90 117.115 142.435)" fill="#D9D9D9"/>
<rect width="3.08893" height="9.27706" transform="matrix(0.689243 -0.724531 0.735887 0.677104 124.906 121.687)" fill="#D9D9D9"/>
<rect width="3.08893" height="9.27706" transform="matrix(0.689243 -0.724531 0.735887 0.677104 160.743 156.932)" fill="#D9D9D9"/>
<rect width="3.08692" height="9.28306" transform="matrix(0.660314 0.75099 -0.761773 0.647844 130.272 153.329)" fill="#D9D9D9"/>
<rect width="3.08692" height="9.28306" transform="matrix(0.660314 0.75099 -0.761773 0.647844 167.815 119.449)" fill="#D9D9D9"/>
<ellipse cx="146.72" cy="140.902" rx="62.3256" ry="61.2958" fill="white"/>
<ellipse cx="146.719" cy="140.902" rx="34.2791" ry="33.7127" fill="#D9D9D9"/>
<ellipse cx="146.72" cy="91.8657" rx="4.67442" ry="4.59718" fill="#D9D9D9"/>
<ellipse cx="171.65" cy="97.9951" rx="4.67442" ry="4.59718" fill="#D9D9D9"/>
<ellipse cx="182.557" cy="105.657" rx="4.67442" ry="4.59718" fill="#D9D9D9"/>
<ellipse cx="190.347" cy="114.851" rx="4.67442" ry="4.59718" fill="#D9D9D9"/>
<ellipse cx="171.65" cy="186.874" rx="4.67442" ry="4.59718" fill="#D9D9D9"/>
<ellipse cx="159.185" cy="191.471" rx="4.67442" ry="4.59718" fill="#D9D9D9"/>
<ellipse cx="146.72" cy="193.004" rx="4.67442" ry="4.59718" fill="#D9D9D9"/>
<ellipse cx="121.79" cy="185.342" rx="4.67442" ry="4.59718" fill="#D9D9D9"/>
<ellipse cx="110.882" cy="177.68" rx="4.67442" ry="4.59718" fill="#D9D9D9"/>
<ellipse cx="103.091" cy="166.953" rx="4.67442" ry="4.59718" fill="#D9D9D9"/>
<ellipse cx="95.3009" cy="142.435" rx="4.67442" ry="4.59718" fill="#D9D9D9"/>
<ellipse cx="98.4181" cy="128.643" rx="4.67442" ry="4.59718" fill="#D9D9D9"/>
<ellipse cx="103.091" cy="116.384" rx="4.67442" ry="4.59718" fill="#D9D9D9"/>
<ellipse cx="132.697" cy="93.398" rx="4.67442" ry="4.59718" fill="#D9D9D9"/>
<ellipse cx="120.232" cy="99.5276" rx="4.67442" ry="4.59718" fill="#D9D9D9"/>
<path d="M200.475 132.477C202.293 131.456 207 128.498 207 128.53C212.648 151.199 201.863 173.244 190.846 183.047L180.999 167.722C190.143 155.315 191.887 147.514 190.347 132.477L197.359 128.646L200.475 132.477Z" fill="#D9D9D9" stroke="#D9D9D9"/>
<ellipse cx="146.72" cy="140.902" rx="24.9302" ry="24.5183" fill="#287621"/>
<rect x="145.162" y="160.823" width="3.11628" height="9.19437" fill="#D9D9D9"/>
<rect x="145.162" y="111.787" width="3.11628" height="9.19437" fill="#D9D9D9"/>
<rect x="168.534" y="142.435" width="3.06479" height="9.34883" transform="rotate(-90 168.534 142.435)" fill="#D9D9D9"/>
<rect x="117.115" y="142.435" width="3.06479" height="9.34883" transform="rotate(-90 117.115 142.435)" fill="#D9D9D9"/>
<rect width="3.08893" height="9.27706" transform="matrix(0.689243 -0.724531 0.735887 0.677104 124.906 121.687)" fill="#D9D9D9"/>
<rect width="3.08893" height="9.27706" transform="matrix(0.689243 -0.724531 0.735887 0.677104 160.743 156.932)" fill="#D9D9D9"/>
<rect width="3.08692" height="9.28306" transform="matrix(0.660314 0.75099 -0.761773 0.647844 130.272 153.329)" fill="#D9D9D9"/>
<rect width="3.08692" height="9.28306" transform="matrix(0.660314 0.75099 -0.761773 0.647844 167.815 119.449)" fill="#D9D9D9"/>
</g>
<defs>
<clipPath id="clip0_419_2">
<rect width="297" height="287" fill="white"/>
</clipPath>
</defs>
</svg>
